<svg width="173" height="22" viewBox="0 0 173 22" fill="none" xmlns="http://www.w3.org/2000/svg">
<path d="M8 0H165V12C165 17.5228 160.523 22 155 22H18C12.4771 22 8 17.5228 8 12V0Z" fill="#AEB4BE"/>
<path d="M60.156 15.104C59.948 15.104 59.779 15.0563 59.649 14.961C59.5276 14.8657 59.454 14.74 59.428 14.584C59.402 14.4193 59.4323 14.2373 59.519 14.038L62.951 6.433C63.0636 6.18167 63.198 6.004 63.354 5.9C63.5186 5.78733 63.705 5.731 63.913 5.731C64.1123 5.731 64.29 5.78733 64.446 5.9C64.6106 6.004 64.7493 6.18167 64.862 6.433L68.307 14.038C68.4023 14.2373 68.437 14.4193 68.411 14.584C68.385 14.7487 68.3113 14.8787 68.19 14.974C68.0686 15.0607 67.9083 15.104 67.709 15.104C67.4663 15.104 67.2756 15.0477 67.137 14.935C67.007 14.8137 66.89 14.6317 66.786 14.389L65.941 12.426L66.643 12.881H61.157L61.859 12.426L61.027 14.389C60.9143 14.6403 60.7973 14.8223 60.676 14.935C60.5546 15.0477 60.3813 15.104 60.156 15.104ZM63.887 7.642L62.067 11.971L61.729 11.555H66.071L65.746 11.971L63.913 7.642H63.887ZM71.8082 15.13C71.4356 15.13 71.0412 15.091 70.6252 15.013C70.2092 14.935 69.8366 14.8007 69.5072 14.61C69.3686 14.5233 69.2689 14.4237 69.2082 14.311C69.1562 14.1897 69.1346 14.0727 69.1432 13.96C69.1606 13.8387 69.2039 13.7347 69.2732 13.648C69.3512 13.5613 69.4466 13.505 69.5592 13.479C69.6806 13.453 69.8106 13.4747 69.9492 13.544C70.2959 13.7087 70.6209 13.8257 70.9242 13.895C71.2276 13.9557 71.5266 13.986 71.8212 13.986C72.2372 13.986 72.5449 13.9167 72.7442 13.778C72.9522 13.6307 73.0562 13.44 73.0562 13.206C73.0562 13.0067 72.9869 12.855 72.8482 12.751C72.7182 12.6383 72.5189 12.556 72.2502 12.504L70.9502 12.257C70.4129 12.153 70.0012 11.958 69.7152 11.672C69.4379 11.3773 69.2992 11.0003 69.2992 10.541C69.2992 10.125 69.4119 9.76533 69.6372 9.462C69.8712 9.15867 70.1919 8.92467 70.5992 8.76C71.0066 8.59533 71.4746 8.513 72.0032 8.513C72.3846 8.513 72.7399 8.55633 73.0692 8.643C73.4072 8.721 73.7322 8.84667 74.0442 9.02C74.1742 9.08933 74.2609 9.18033 74.3042 9.293C74.3562 9.40567 74.3692 9.52267 74.3432 9.644C74.3172 9.75667 74.2652 9.86067 74.1872 9.956C74.1092 10.0427 74.0096 10.099 73.8882 10.125C73.7756 10.1423 73.6456 10.1163 73.4982 10.047C73.2296 9.90833 72.9696 9.80867 72.7182 9.748C72.4756 9.68733 72.2416 9.657 72.0162 9.657C71.5916 9.657 71.2752 9.73067 71.0672 9.878C70.8679 10.0253 70.7682 10.2203 70.7682 10.463C70.7682 10.645 70.8289 10.7967 70.9502 10.918C71.0716 11.0393 71.2579 11.1217 71.5092 11.165L72.8092 11.412C73.3726 11.516 73.7972 11.7067 74.0832 11.984C74.3779 12.2613 74.5252 12.634 74.5252 13.102C74.5252 13.7347 74.2782 14.233 73.7842 14.597C73.2902 14.9523 72.6316 15.13 71.8082 15.13ZM78.1559 15.13C77.7832 15.13 77.3889 15.091 76.9729 15.013C76.5569 14.935 76.1842 14.8007 75.8549 14.61C75.7162 14.5233 75.6166 14.4237 75.5559 14.311C75.5039 14.1897 75.4822 14.0727 75.4909 13.96C75.5082 13.8387 75.5516 13.7347 75.6209 13.648C75.6989 13.5613 75.7942 13.505 75.9069 13.479C76.0282 13.453 76.1582 13.4747 76.2969 13.544C76.6436 13.7087 76.9686 13.8257 77.2719 13.895C77.5752 13.9557 77.8742 13.986 78.1689 13.986C78.5849 13.986 78.8926 13.9167 79.0919 13.778C79.2999 13.6307 79.4039 13.44 79.4039 13.206C79.4039 13.0067 79.3346 12.855 79.1959 12.751C79.0659 12.6383 78.8666 12.556 78.5979 12.504L77.2979 12.257C76.7606 12.153 76.3489 11.958 76.0629 11.672C75.7856 11.3773 75.6469 11.0003 75.6469 10.541C75.6469 10.125 75.7596 9.76533 75.9849 9.462C76.2189 9.15867 76.5396 8.92467 76.9469 8.76C77.3542 8.59533 77.8222 8.513 78.3509 8.513C78.7322 8.513 79.0876 8.55633 79.4169 8.643C79.7549 8.721 80.0799 8.84667 80.3919 9.02C80.5219 9.08933 80.6086 9.18033 80.6519 9.293C80.7039 9.40567 80.7169 9.52267 80.6909 9.644C80.6649 9.75667 80.6129 9.86067 80.5349 9.956C80.4569 10.0427 80.3572 10.099 80.2359 10.125C80.1232 10.1423 79.9932 10.1163 79.8459 10.047C79.5772 9.90833 79.3172 9.80867 79.0659 9.748C78.8232 9.68733 78.5892 9.657 78.3639 9.657C77.9392 9.657 77.6229 9.73067 77.4149 9.878C77.2156 10.0253 77.1159 10.2203 77.1159 10.463C77.1159 10.645 77.1766 10.7967 77.2979 10.918C77.4192 11.0393 77.6056 11.1217 77.8569 11.165L79.1569 11.412C79.7202 11.516 80.1449 11.7067 80.4309 11.984C80.7256 12.2613 80.8729 12.634 80.8729 13.102C80.8729 13.7347 80.6259 14.233 80.1319 14.597C79.6379 14.9523 78.9792 15.13 78.1559 15.13ZM82.9825 15.091C82.7225 15.091 82.5232 15.013 82.3845 14.857C82.2459 14.701 82.1765 14.4843 82.1765 14.207V9.436C82.1765 9.15 82.2459 8.93333 82.3845 8.786C82.5232 8.63 82.7225 8.552 82.9825 8.552C83.2425 8.552 83.4419 8.63 83.5805 8.786C83.7279 8.93333 83.8015 9.15 83.8015 9.436V14.207C83.8015 14.4843 83.7322 14.701 83.5935 14.857C83.4549 15.013 83.2512 15.091 82.9825 15.091ZM82.9825 7.343C82.6792 7.343 82.4409 7.26933 82.2675 7.122C82.1029 6.966 82.0205 6.75367 82.0205 6.485C82.0205 6.20767 82.1029 5.99533 82.2675 5.848C82.4409 5.70067 82.6792 5.627 82.9825 5.627C83.2945 5.627 83.5329 5.70067 83.6975 5.848C83.8622 5.99533 83.9445 6.20767 83.9445 6.485C83.9445 6.75367 83.8622 6.966 83.6975 7.122C83.5329 7.26933 83.2945 7.343 82.9825 7.343ZM88.454 17.47C87.986 17.47 87.531 17.4267 87.089 17.34C86.6557 17.2533 86.2614 17.119 85.906 16.937C85.7414 16.8503 85.6287 16.7463 85.568 16.625C85.516 16.5037 85.4987 16.378 85.516 16.248C85.542 16.1267 85.594 16.0183 85.672 15.923C85.7587 15.8277 85.8627 15.7627 85.984 15.728C86.1054 15.6933 86.231 15.7107 86.361 15.78C86.7424 15.9707 87.102 16.092 87.44 16.144C87.7867 16.2047 88.0814 16.235 88.324 16.235C88.9047 16.235 89.338 16.092 89.624 15.806C89.9187 15.5287 90.066 15.1127 90.066 14.558V13.388H90.183C90.053 13.83 89.78 14.1853 89.364 14.454C88.9567 14.714 88.493 14.844 87.973 14.844C87.401 14.844 86.9027 14.714 86.478 14.454C86.0534 14.1853 85.724 13.8127 85.49 13.336C85.256 12.8593 85.139 12.3047 85.139 11.672C85.139 11.1953 85.204 10.7663 85.334 10.385C85.4727 9.995 85.6634 9.66133 85.906 9.384C86.1574 9.10667 86.4564 8.89433 86.803 8.747C87.1584 8.591 87.5484 8.513 87.973 8.513C88.5104 8.513 88.9784 8.64733 89.377 8.916C89.7844 9.176 90.0487 9.52267 90.17 9.956L90.04 10.281V9.358C90.04 9.08933 90.1094 8.88567 90.248 8.747C90.3954 8.60833 90.5947 8.539 90.846 8.539C91.106 8.539 91.3054 8.60833 91.444 8.747C91.5827 8.88567 91.652 9.08933 91.652 9.358V14.363C91.652 15.3943 91.379 16.17 90.833 16.69C90.287 17.21 89.494 17.47 88.454 17.47ZM88.415 13.609C88.753 13.609 89.0434 13.531 89.286 13.375C89.5287 13.219 89.715 12.998 89.845 12.712C89.9837 12.4173 90.053 12.0707 90.053 11.672C90.053 11.074 89.9057 10.606 89.611 10.268C89.3164 9.92133 88.9177 9.748 88.415 9.748C88.077 9.748 87.7867 9.826 87.544 9.982C87.3014 10.138 87.1107 10.359 86.972 10.645C86.842 10.931 86.777 11.2733 86.777 11.672C86.777 12.27 86.9244 12.7423 87.219 13.089C87.5137 13.4357 87.9124 13.609 88.415 13.609ZM94.1417 15.104C93.8817 15.104 93.6824 15.0347 93.5437 14.896C93.4051 14.7487 93.3357 14.5407 93.3357 14.272V9.358C93.3357 9.08933 93.4051 8.88567 93.5437 8.747C93.6824 8.60833 93.8774 8.539 94.1287 8.539C94.3801 8.539 94.5751 8.60833 94.7137 8.747C94.8524 8.88567 94.9217 9.08933 94.9217 9.358V10.242L94.7787 9.917C94.9694 9.45767 95.2641 9.111 95.6627 8.877C96.0701 8.63433 96.5294 8.513 97.0407 8.513C97.5521 8.513 97.9724 8.60833 98.3017 8.799C98.6311 8.98967 98.8781 9.28 99.0427 9.67C99.2074 10.0513 99.2897 10.5367 99.2897 11.126V14.272C99.2897 14.5407 99.2204 14.7487 99.0817 14.896C98.9431 15.0347 98.7437 15.104 98.4837 15.104C98.2237 15.104 98.0201 15.0347 97.8727 14.896C97.7341 14.7487 97.6647 14.5407 97.6647 14.272V11.204C97.6647 10.71 97.5694 10.3503 97.3787 10.125C97.1967 9.89967 96.9107 9.787 96.5207 9.787C96.0441 9.787 95.6627 9.93867 95.3767 10.242C95.0994 10.5367 94.9607 10.931 94.9607 11.425V14.272C94.9607 14.8267 94.6877 15.104 94.1417 15.104ZM104.073 15.13C103.354 15.13 102.734 14.9957 102.214 14.727C101.694 14.4583 101.291 14.077 101.005 13.583C100.728 13.089 100.589 12.504 100.589 11.828C100.589 11.1693 100.724 10.593 100.992 10.099C101.27 9.605 101.647 9.21933 102.123 8.942C102.609 8.656 103.159 8.513 103.774 8.513C104.225 8.513 104.628 8.58667 104.983 8.734C105.347 8.88133 105.655 9.09367 105.906 9.371C106.166 9.64833 106.361 9.98633 106.491 10.385C106.63 10.775 106.699 11.217 106.699 11.711C106.699 11.867 106.643 11.9883 106.53 12.075C106.426 12.153 106.275 12.192 106.075 12.192H101.902V11.256H105.555L105.347 11.451C105.347 11.0523 105.287 10.7187 105.165 10.45C105.053 10.1813 104.884 9.97767 104.658 9.839C104.442 9.69167 104.169 9.618 103.839 9.618C103.475 9.618 103.163 9.70467 102.903 9.878C102.652 10.0427 102.457 10.281 102.318 10.593C102.188 10.8963 102.123 11.2603 102.123 11.685V11.776C102.123 12.4867 102.288 13.0197 102.617 13.375C102.955 13.7217 103.449 13.895 104.099 13.895C104.325 13.895 104.576 13.869 104.853 13.817C105.139 13.7563 105.408 13.6567 105.659 13.518C105.841 13.414 106.002 13.3707 106.14 13.388C106.279 13.3967 106.387 13.4443 106.465 13.531C106.552 13.6177 106.604 13.726 106.621 13.856C106.639 13.9773 106.613 14.103 106.543 14.233C106.483 14.363 106.374 14.4757 106.218 14.571C105.915 14.7617 105.564 14.9047 105.165 15C104.775 15.0867 104.411 15.13 104.073 15.13ZM110.43 15.13C109.875 15.13 109.386 14.9957 108.961 14.727C108.545 14.4583 108.22 14.077 107.986 13.583C107.752 13.0803 107.635 12.491 107.635 11.815C107.635 11.1303 107.752 10.5453 107.986 10.06C108.22 9.566 108.545 9.18467 108.961 8.916C109.386 8.64733 109.875 8.513 110.43 8.513C110.959 8.513 111.418 8.643 111.808 8.903C112.207 9.163 112.475 9.50533 112.614 9.93H112.471V6.55C112.471 6.28133 112.54 6.07767 112.679 5.939C112.818 5.80033 113.017 5.731 113.277 5.731C113.537 5.731 113.736 5.80033 113.875 5.939C114.022 6.07767 114.096 6.28133 114.096 6.55V14.272C114.096 14.5407 114.027 14.7487 113.888 14.896C113.749 15.0347 113.55 15.104 113.29 15.104C113.03 15.104 112.831 15.0347 112.692 14.896C112.553 14.7487 112.484 14.5407 112.484 14.272V13.258L112.627 13.648C112.497 14.0987 112.233 14.4583 111.834 14.727C111.435 14.9957 110.967 15.13 110.43 15.13ZM110.885 13.895C111.206 13.895 111.487 13.817 111.73 13.661C111.973 13.505 112.159 13.2753 112.289 12.972C112.428 12.66 112.497 12.2743 112.497 11.815C112.497 11.1217 112.35 10.606 112.055 10.268C111.76 9.92133 111.37 9.748 110.885 9.748C110.564 9.748 110.283 9.826 110.04 9.982C109.797 10.1293 109.607 10.359 109.468 10.671C109.338 10.9743 109.273 11.3557 109.273 11.815C109.273 12.4997 109.42 13.0197 109.715 13.375C110.01 13.7217 110.4 13.895 110.885 13.895Z" fill="white"/>
<path d="M165 0L173 6H165V0Z" fill="url(#paint0_linear_210_11481)"/>
<path d="M8 0L0 6H8V0Z" fill="url(#paint1_linear_210_11481)"/>
<defs>
<linearGradient id="paint0_linear_210_11481" x1="169" y1="0" x2="169" y2="6" gradientUnits="userSpaceOnUse">
<stop stop-color="#62666E"/>
<stop offset="1" stop-color="#AEB4BE"/>
</linearGradient>
<linearGradient id="paint1_linear_210_11481" x1="4" y1="0" x2="4" y2="6" gradientUnits="userSpaceOnUse">
<stop stop-color="#62666E"/>
<stop offset="1" stop-color="#AEB4BE"/>
</linearGradient>
</defs>
</svg>
