<svg width="209" height="22" viewBox="0 0 209 22" fill="none" xmlns="http://www.w3.org/2000/svg">
<path d="M8 0H201V12C201 17.5228 196.523 22 191 22H18C12.4772 22 8 17.5228 8 12V0Z" fill="#FF915D"/>
<path d="M16.8313 15.104C16.6233 15.104 16.4543 15.0563 16.3243 14.961C16.2029 14.8657 16.1293 14.74 16.1033 14.584C16.0773 14.4193 16.1076 14.2373 16.1943 14.038L19.6263 6.433C19.7389 6.18167 19.8733 6.004 20.0293 5.9C20.1939 5.78733 20.3803 5.731 20.5883 5.731C20.7876 5.731 20.9653 5.78733 21.1213 5.9C21.2859 6.004 21.4246 6.18167 21.5373 6.433L24.9823 14.038C25.0776 14.2373 25.1123 14.4193 25.0863 14.584C25.0603 14.7487 24.9866 14.8787 24.8653 14.974C24.7439 15.0607 24.5836 15.104 24.3843 15.104C24.1416 15.104 23.9509 15.0477 23.8123 14.935C23.6823 14.8137 23.5653 14.6317 23.4613 14.389L22.6163 12.426L23.3183 12.881H17.8323L18.5343 12.426L17.7023 14.389C17.5896 14.6403 17.4726 14.8223 17.3513 14.935C17.2299 15.0477 17.0566 15.104 16.8313 15.104ZM20.5623 7.642L18.7423 11.971L18.4043 11.555H22.7463L22.4213 11.971L20.5883 7.642H20.5623ZM28.3469 15.104C28.1303 15.104 27.9439 15.052 27.7879 14.948C27.6319 14.8353 27.5063 14.662 27.4109 14.428L25.5259 9.618C25.4479 9.41 25.4219 9.228 25.4479 9.072C25.4826 8.90733 25.5649 8.77733 25.6949 8.682C25.8249 8.58667 25.9983 8.539 26.2149 8.539C26.4056 8.539 26.5616 8.58667 26.6829 8.682C26.8043 8.76867 26.9083 8.93767 26.9949 9.189L28.5679 13.518H28.2689L29.8939 9.085C29.9633 8.89433 30.0543 8.75567 30.1669 8.669C30.2883 8.58233 30.4443 8.539 30.6349 8.539C30.8256 8.539 30.9816 8.58667 31.1029 8.682C31.2243 8.76867 31.3153 8.903 31.3759 9.085L32.9749 13.518H32.7019L34.2879 9.15C34.3746 8.916 34.4829 8.75567 34.6129 8.669C34.7516 8.58233 34.9033 8.539 35.0679 8.539C35.2759 8.539 35.4363 8.591 35.5489 8.695C35.6616 8.799 35.7266 8.93333 35.7439 9.098C35.7613 9.254 35.7309 9.42733 35.6529 9.618L33.7809 14.428C33.6943 14.6533 33.5686 14.8223 33.4039 14.935C33.2479 15.0477 33.0616 15.104 32.8449 15.104C32.6283 15.104 32.4376 15.0477 32.2729 14.935C32.1169 14.8223 31.9956 14.6533 31.9089 14.428L30.2059 9.917H30.9469L29.2829 14.415C29.1963 14.649 29.0749 14.8223 28.9189 14.935C28.7629 15.0477 28.5723 15.104 28.3469 15.104ZM38.939 15.13C38.4796 15.13 38.068 15.0433 37.704 14.87C37.3486 14.688 37.067 14.4453 36.859 14.142C36.6596 13.8387 36.56 13.4963 36.56 13.115C36.56 12.647 36.6813 12.2787 36.924 12.01C37.1666 11.7327 37.561 11.5333 38.107 11.412C38.653 11.2907 39.3853 11.23 40.304 11.23H40.954V12.166H40.317C39.7796 12.166 39.3506 12.192 39.03 12.244C38.7093 12.296 38.4796 12.387 38.341 12.517C38.211 12.6383 38.146 12.8117 38.146 13.037C38.146 13.323 38.2456 13.557 38.445 13.739C38.6443 13.921 38.9216 14.012 39.277 14.012C39.563 14.012 39.8143 13.947 40.031 13.817C40.2563 13.6783 40.434 13.492 40.564 13.258C40.694 13.024 40.759 12.7553 40.759 12.452V10.957C40.759 10.5237 40.6636 10.2117 40.473 10.021C40.2823 9.83033 39.9616 9.735 39.511 9.735C39.2596 9.735 38.9866 9.76533 38.692 9.826C38.406 9.88667 38.1026 9.99067 37.782 10.138C37.6173 10.216 37.47 10.2377 37.34 10.203C37.2186 10.1683 37.1233 10.099 37.054 9.995C36.9846 9.88233 36.95 9.761 36.95 9.631C36.95 9.501 36.9846 9.37533 37.054 9.254C37.1233 9.124 37.2403 9.02867 37.405 8.968C37.8036 8.80333 38.185 8.68633 38.549 8.617C38.9216 8.54767 39.2596 8.513 39.563 8.513C40.187 8.513 40.6983 8.60833 41.097 8.799C41.5043 8.98967 41.8076 9.28 42.007 9.67C42.2063 10.0513 42.306 10.5453 42.306 11.152V14.272C42.306 14.5407 42.241 14.7487 42.111 14.896C41.981 15.0347 41.7946 15.104 41.552 15.104C41.3093 15.104 41.1186 15.0347 40.98 14.896C40.85 14.7487 40.785 14.5407 40.785 14.272V13.648H40.889C40.8283 13.9513 40.707 14.2157 40.525 14.441C40.3516 14.6577 40.1306 14.8267 39.862 14.948C39.5933 15.0693 39.2856 15.13 38.939 15.13ZM44.7614 15.091C44.5014 15.091 44.302 15.013 44.1634 14.857C44.0247 14.701 43.9554 14.4843 43.9554 14.207V9.436C43.9554 9.15 44.0247 8.93333 44.1634 8.786C44.302 8.63 44.5014 8.552 44.7614 8.552C45.0214 8.552 45.2207 8.63 45.3594 8.786C45.5067 8.93333 45.5804 9.15 45.5804 9.436V14.207C45.5804 14.4843 45.511 14.701 45.3724 14.857C45.2337 15.013 45.03 15.091 44.7614 15.091ZM44.7614 7.343C44.458 7.343 44.2197 7.26933 44.0464 7.122C43.8817 6.966 43.7994 6.75367 43.7994 6.485C43.7994 6.20767 43.8817 5.99533 44.0464 5.848C44.2197 5.70067 44.458 5.627 44.7614 5.627C45.0734 5.627 45.3117 5.70067 45.4764 5.848C45.641 5.99533 45.7234 6.20767 45.7234 6.485C45.7234 6.75367 45.641 6.966 45.4764 7.122C45.3117 7.26933 45.0734 7.343 44.7614 7.343ZM50.1808 15.13C49.6175 15.13 49.1452 15.0347 48.7638 14.844C48.3912 14.6533 48.1138 14.376 47.9318 14.012C47.7498 13.6393 47.6588 13.18 47.6588 12.634V9.865H46.9828C46.7748 9.865 46.6145 9.813 46.5018 9.709C46.3892 9.59633 46.3328 9.44467 46.3328 9.254C46.3328 9.05467 46.3892 8.903 46.5018 8.799C46.6145 8.695 46.7748 8.643 46.9828 8.643H47.6588V7.46C47.6588 7.19133 47.7282 6.98767 47.8668 6.849C48.0142 6.71033 48.2178 6.641 48.4778 6.641C48.7378 6.641 48.9372 6.71033 49.0758 6.849C49.2145 6.98767 49.2838 7.19133 49.2838 7.46V8.643H50.6618C50.8698 8.643 51.0302 8.695 51.1428 8.799C51.2555 8.903 51.3118 9.05467 51.3118 9.254C51.3118 9.44467 51.2555 9.59633 51.1428 9.709C51.0302 9.813 50.8698 9.865 50.6618 9.865H49.2838V12.543C49.2838 12.959 49.3748 13.271 49.5568 13.479C49.7388 13.687 50.0335 13.791 50.4408 13.791C50.5882 13.791 50.7182 13.778 50.8308 13.752C50.9435 13.726 51.0432 13.7087 51.1298 13.7C51.2338 13.6913 51.3205 13.726 51.3898 13.804C51.4592 13.8733 51.4938 14.0207 51.4938 14.246C51.4938 14.4193 51.4635 14.5753 51.4028 14.714C51.3508 14.844 51.2512 14.935 51.1038 14.987C50.9912 15.0217 50.8438 15.052 50.6618 15.078C50.4798 15.1127 50.3195 15.13 50.1808 15.13ZM53.2291 15.091C52.9691 15.091 52.7698 15.013 52.6311 14.857C52.4925 14.701 52.4231 14.4843 52.4231 14.207V9.436C52.4231 9.15 52.4925 8.93333 52.6311 8.786C52.7698 8.63 52.9691 8.552 53.2291 8.552C53.4891 8.552 53.6885 8.63 53.8271 8.786C53.9745 8.93333 54.0481 9.15 54.0481 9.436V14.207C54.0481 14.4843 53.9788 14.701 53.8401 14.857C53.7015 15.013 53.4978 15.091 53.2291 15.091ZM53.2291 7.343C52.9258 7.343 52.6875 7.26933 52.5141 7.122C52.3495 6.966 52.2671 6.75367 52.2671 6.485C52.2671 6.20767 52.3495 5.99533 52.5141 5.848C52.6875 5.70067 52.9258 5.627 53.2291 5.627C53.5411 5.627 53.7795 5.70067 53.9441 5.848C54.1088 5.99533 54.1911 6.20767 54.1911 6.485C54.1911 6.75367 54.1088 6.966 53.9441 7.122C53.7795 7.26933 53.5411 7.343 53.2291 7.343ZM56.5426 15.104C56.2826 15.104 56.0833 15.0347 55.9446 14.896C55.8059 14.7487 55.7366 14.5407 55.7366 14.272V9.358C55.7366 9.08933 55.8059 8.88567 55.9446 8.747C56.0833 8.60833 56.2783 8.539 56.5296 8.539C56.7809 8.539 56.9759 8.60833 57.1146 8.747C57.2533 8.88567 57.3226 9.08933 57.3226 9.358V10.242L57.1796 9.917C57.3703 9.45767 57.6649 9.111 58.0636 8.877C58.4709 8.63433 58.9303 8.513 59.4416 8.513C59.9529 8.513 60.3733 8.60833 60.7026 8.799C61.0319 8.98967 61.2789 9.28 61.4436 9.67C61.6083 10.0513 61.6906 10.5367 61.6906 11.126V14.272C61.6906 14.5407 61.6213 14.7487 61.4826 14.896C61.3439 15.0347 61.1446 15.104 60.8846 15.104C60.6246 15.104 60.4209 15.0347 60.2736 14.896C60.1349 14.7487 60.0656 14.5407 60.0656 14.272V11.204C60.0656 10.71 59.9703 10.3503 59.7796 10.125C59.5976 9.89967 59.3116 9.787 58.9216 9.787C58.4449 9.787 58.0636 9.93867 57.7776 10.242C57.5003 10.5367 57.3616 10.931 57.3616 11.425V14.272C57.3616 14.8267 57.0886 15.104 56.5426 15.104ZM66.3051 17.47C65.8371 17.47 65.3821 17.4267 64.9401 17.34C64.5068 17.2533 64.1124 17.119 63.7571 16.937C63.5924 16.8503 63.4798 16.7463 63.4191 16.625C63.3671 16.5037 63.3498 16.378 63.3671 16.248C63.3931 16.1267 63.4451 16.0183 63.5231 15.923C63.6098 15.8277 63.7138 15.7627 63.8351 15.728C63.9564 15.6933 64.0821 15.7107 64.2121 15.78C64.5934 15.9707 64.9531 16.092 65.2911 16.144C65.6378 16.2047 65.9324 16.235 66.1751 16.235C66.7558 16.235 67.1891 16.092 67.4751 15.806C67.7698 15.5287 67.9171 15.1127 67.9171 14.558V13.388H68.0341C67.9041 13.83 67.6311 14.1853 67.2151 14.454C66.8078 14.714 66.3441 14.844 65.8241 14.844C65.2521 14.844 64.7538 14.714 64.3291 14.454C63.9044 14.1853 63.5751 13.8127 63.3411 13.336C63.1071 12.8593 62.9901 12.3047 62.9901 11.672C62.9901 11.1953 63.0551 10.7663 63.1851 10.385C63.3238 9.995 63.5144 9.66133 63.7571 9.384C64.0084 9.10667 64.3074 8.89433 64.6541 8.747C65.0094 8.591 65.3994 8.513 65.8241 8.513C66.3614 8.513 66.8294 8.64733 67.2281 8.916C67.6354 9.176 67.8998 9.52267 68.0211 9.956L67.8911 10.281V9.358C67.8911 9.08933 67.9604 8.88567 68.0991 8.747C68.2464 8.60833 68.4458 8.539 68.6971 8.539C68.9571 8.539 69.1564 8.60833 69.2951 8.747C69.4338 8.88567 69.5031 9.08933 69.5031 9.358V14.363C69.5031 15.3943 69.2301 16.17 68.6841 16.69C68.1381 17.21 67.3451 17.47 66.3051 17.47ZM66.2661 13.609C66.6041 13.609 66.8944 13.531 67.1371 13.375C67.3798 13.219 67.5661 12.998 67.6961 12.712C67.8348 12.4173 67.9041 12.0707 67.9041 11.672C67.9041 11.074 67.7568 10.606 67.4621 10.268C67.1674 9.92133 66.7688 9.748 66.2661 9.748C65.9281 9.748 65.6378 9.826 65.3951 9.982C65.1524 10.138 64.9618 10.359 64.8231 10.645C64.6931 10.931 64.6281 11.2733 64.6281 11.672C64.6281 12.27 64.7754 12.7423 65.0701 13.089C65.3648 13.4357 65.7634 13.609 66.2661 13.609ZM79.1361 15.13C78.1828 15.13 77.3638 14.9393 76.6791 14.558C76.0031 14.168 75.4831 13.622 75.1191 12.92C74.7551 12.2093 74.5731 11.373 74.5731 10.411C74.5731 9.69167 74.6771 9.046 74.8851 8.474C75.0931 7.89333 75.3921 7.39933 75.7821 6.992C76.1721 6.576 76.6488 6.25967 77.2121 6.043C77.7841 5.81767 78.4254 5.705 79.1361 5.705C79.6128 5.705 80.0808 5.76567 80.5401 5.887C80.9994 6.00833 81.4024 6.18167 81.7491 6.407C81.9311 6.51967 82.0524 6.65833 82.1131 6.823C82.1738 6.979 82.1868 7.135 82.1521 7.291C82.1174 7.43833 82.0438 7.564 81.9311 7.668C81.8271 7.772 81.6928 7.83267 81.5281 7.85C81.3721 7.85867 81.1988 7.80233 81.0081 7.681C80.7394 7.50767 80.4491 7.382 80.1371 7.304C79.8251 7.226 79.5088 7.187 79.1881 7.187C78.5728 7.187 78.0528 7.31267 77.6281 7.564C77.2034 7.81533 76.8828 8.17933 76.6661 8.656C76.4494 9.13267 76.3411 9.71767 76.3411 10.411C76.3411 11.0957 76.4494 11.6807 76.6661 12.166C76.8828 12.6513 77.2034 13.0197 77.6281 13.271C78.0528 13.5223 78.5728 13.648 79.1881 13.648C79.5174 13.648 79.8424 13.609 80.1631 13.531C80.4838 13.4443 80.7871 13.3143 81.0731 13.141C81.2638 13.0283 81.4328 12.9807 81.5801 12.998C81.7361 13.0067 81.8661 13.0587 81.9701 13.154C82.0741 13.2493 82.1434 13.3707 82.1781 13.518C82.2128 13.6567 82.2041 13.804 82.1521 13.96C82.1001 14.1073 81.9961 14.2373 81.8401 14.35C81.4934 14.6013 81.0774 14.7963 80.5921 14.935C80.1154 15.065 79.6301 15.13 79.1361 15.13ZM85.688 15.13C85.1593 15.13 84.7217 15.0347 84.375 14.844C84.0283 14.6447 83.7683 14.35 83.595 13.96C83.4303 13.57 83.348 13.0847 83.348 12.504V9.358C83.348 9.08067 83.4173 8.877 83.556 8.747C83.6947 8.60833 83.894 8.539 84.154 8.539C84.414 8.539 84.6133 8.60833 84.752 8.747C84.8993 8.877 84.973 9.08067 84.973 9.358V12.53C84.973 12.9807 85.064 13.3143 85.246 13.531C85.428 13.7477 85.7183 13.856 86.117 13.856C86.5503 13.856 86.9057 13.7087 87.183 13.414C87.4603 13.1107 87.599 12.712 87.599 12.218V9.358C87.599 9.08067 87.6683 8.877 87.807 8.747C87.9457 8.60833 88.145 8.539 88.405 8.539C88.665 8.539 88.8643 8.60833 89.003 8.747C89.1503 8.877 89.224 9.08067 89.224 9.358V14.272C89.224 14.8267 88.9597 15.104 88.431 15.104C88.1797 15.104 87.9847 15.0347 87.846 14.896C87.7073 14.7487 87.638 14.5407 87.638 14.272V13.284L87.82 13.674C87.638 14.142 87.3607 14.5017 86.988 14.753C86.624 15.0043 86.1907 15.13 85.688 15.13ZM93.2423 15.13C92.8696 15.13 92.4753 15.091 92.0593 15.013C91.6433 14.935 91.2706 14.8007 90.9413 14.61C90.8026 14.5233 90.703 14.4237 90.6423 14.311C90.5903 14.1897 90.5686 14.0727 90.5773 13.96C90.5946 13.8387 90.638 13.7347 90.7073 13.648C90.7853 13.5613 90.8806 13.505 90.9933 13.479C91.1146 13.453 91.2446 13.4747 91.3833 13.544C91.73 13.7087 92.055 13.8257 92.3583 13.895C92.6616 13.9557 92.9606 13.986 93.2553 13.986C93.6713 13.986 93.979 13.9167 94.1783 13.778C94.3863 13.6307 94.4903 13.44 94.4903 13.206C94.4903 13.0067 94.421 12.855 94.2823 12.751C94.1523 12.6383 93.953 12.556 93.6843 12.504L92.3843 12.257C91.847 12.153 91.4353 11.958 91.1493 11.672C90.872 11.3773 90.7333 11.0003 90.7333 10.541C90.7333 10.125 90.846 9.76533 91.0713 9.462C91.3053 9.15867 91.626 8.92467 92.0333 8.76C92.4406 8.59533 92.9086 8.513 93.4373 8.513C93.8186 8.513 94.174 8.55633 94.5033 8.643C94.8413 8.721 95.1663 8.84667 95.4783 9.02C95.6083 9.08933 95.695 9.18033 95.7383 9.293C95.7903 9.40567 95.8033 9.52267 95.7773 9.644C95.7513 9.75667 95.6993 9.86067 95.6213 9.956C95.5433 10.0427 95.4436 10.099 95.3223 10.125C95.2096 10.1423 95.0796 10.1163 94.9323 10.047C94.6636 9.90833 94.4036 9.80867 94.1523 9.748C93.9096 9.68733 93.6756 9.657 93.4503 9.657C93.0256 9.657 92.7093 9.73067 92.5013 9.878C92.302 10.0253 92.2023 10.2203 92.2023 10.463C92.2023 10.645 92.263 10.7967 92.3843 10.918C92.5056 11.0393 92.692 11.1217 92.9433 11.165L94.2433 11.412C94.8066 11.516 95.2313 11.7067 95.5173 11.984C95.812 12.2613 95.9593 12.634 95.9593 13.102C95.9593 13.7347 95.7123 14.233 95.2183 14.597C94.7243 14.9523 94.0656 15.13 93.2423 15.13ZM100.111 15.13C99.5482 15.13 99.0758 15.0347 98.6945 14.844C98.3218 14.6533 98.0445 14.376 97.8625 14.012C97.6805 13.6393 97.5895 13.18 97.5895 12.634V9.865H96.9135C96.7055 9.865 96.5452 9.813 96.4325 9.709C96.3198 9.59633 96.2635 9.44467 96.2635 9.254C96.2635 9.05467 96.3198 8.903 96.4325 8.799C96.5452 8.695 96.7055 8.643 96.9135 8.643H97.5895V7.46C97.5895 7.19133 97.6588 6.98767 97.7975 6.849C97.9448 6.71033 98.1485 6.641 98.4085 6.641C98.6685 6.641 98.8678 6.71033 99.0065 6.849C99.1452 6.98767 99.2145 7.19133 99.2145 7.46V8.643H100.592C100.8 8.643 100.961 8.695 101.073 8.799C101.186 8.903 101.242 9.05467 101.242 9.254C101.242 9.44467 101.186 9.59633 101.073 9.709C100.961 9.813 100.8 9.865 100.592 9.865H99.2145V12.543C99.2145 12.959 99.3055 13.271 99.4875 13.479C99.6695 13.687 99.9642 13.791 100.371 13.791C100.519 13.791 100.649 13.778 100.761 13.752C100.874 13.726 100.974 13.7087 101.06 13.7C101.164 13.6913 101.251 13.726 101.32 13.804C101.39 13.8733 101.424 14.0207 101.424 14.246C101.424 14.4193 101.394 14.5753 101.333 14.714C101.281 14.844 101.182 14.935 101.034 14.987C100.922 15.0217 100.774 15.052 100.592 15.078C100.41 15.1127 100.25 15.13 100.111 15.13ZM105.024 15.13C104.366 15.13 103.794 14.9957 103.308 14.727C102.823 14.4583 102.446 14.077 102.177 13.583C101.909 13.0803 101.774 12.491 101.774 11.815C101.774 11.3037 101.848 10.8487 101.995 10.45C102.151 10.0427 102.372 9.696 102.658 9.41C102.944 9.11533 103.287 8.89433 103.685 8.747C104.084 8.591 104.53 8.513 105.024 8.513C105.683 8.513 106.255 8.64733 106.74 8.916C107.226 9.18467 107.603 9.566 107.871 10.06C108.14 10.554 108.274 11.139 108.274 11.815C108.274 12.3263 108.196 12.7857 108.04 13.193C107.893 13.6003 107.676 13.9513 107.39 14.246C107.104 14.532 106.762 14.753 106.363 14.909C105.965 15.0563 105.518 15.13 105.024 15.13ZM105.024 13.895C105.345 13.895 105.627 13.817 105.869 13.661C106.112 13.505 106.298 13.2753 106.428 12.972C106.567 12.66 106.636 12.2743 106.636 11.815C106.636 11.1217 106.489 10.606 106.194 10.268C105.9 9.92133 105.51 9.748 105.024 9.748C104.704 9.748 104.422 9.826 104.179 9.982C103.937 10.1293 103.746 10.359 103.607 10.671C103.477 10.9743 103.412 11.3557 103.412 11.815C103.412 12.4997 103.56 13.0197 103.854 13.375C104.149 13.7217 104.539 13.895 105.024 13.895ZM110.448 15.104C110.188 15.104 109.988 15.0347 109.85 14.896C109.711 14.7487 109.642 14.5407 109.642 14.272V9.358C109.642 9.08933 109.711 8.88567 109.85 8.747C109.988 8.60833 110.183 8.539 110.435 8.539C110.686 8.539 110.881 8.60833 111.02 8.747C111.158 8.88567 111.228 9.08933 111.228 9.358V10.307L111.085 9.917C111.258 9.48367 111.527 9.14133 111.891 8.89C112.255 8.63867 112.688 8.513 113.191 8.513C113.702 8.513 114.122 8.63433 114.452 8.877C114.781 9.11967 115.011 9.49233 115.141 9.995H114.959C115.132 9.53567 115.418 9.176 115.817 8.916C116.215 8.64733 116.675 8.513 117.195 8.513C117.68 8.513 118.079 8.60833 118.391 8.799C118.711 8.98967 118.95 9.28 119.106 9.67C119.262 10.0513 119.34 10.5367 119.34 11.126V14.272C119.34 14.5407 119.266 14.7487 119.119 14.896C118.98 15.0347 118.781 15.104 118.521 15.104C118.261 15.104 118.061 15.0347 117.923 14.896C117.784 14.7487 117.715 14.5407 117.715 14.272V11.191C117.715 10.7057 117.632 10.3503 117.468 10.125C117.312 9.89967 117.043 9.787 116.662 9.787C116.237 9.787 115.903 9.93867 115.661 10.242C115.418 10.5367 115.297 10.9483 115.297 11.477V14.272C115.297 14.5407 115.227 14.7487 115.089 14.896C114.95 15.0347 114.751 15.104 114.491 15.104C114.231 15.104 114.027 15.0347 113.88 14.896C113.741 14.7487 113.672 14.5407 113.672 14.272V11.191C113.672 10.7057 113.589 10.3503 113.425 10.125C113.269 9.89967 113.004 9.787 112.632 9.787C112.207 9.787 111.873 9.93867 111.631 10.242C111.388 10.5367 111.267 10.9483 111.267 11.477V14.272C111.267 14.8267 110.994 15.104 110.448 15.104ZM124.149 15.13C123.43 15.13 122.81 14.9957 122.29 14.727C121.77 14.4583 121.367 14.077 121.081 13.583C120.804 13.089 120.665 12.504 120.665 11.828C120.665 11.1693 120.799 10.593 121.068 10.099C121.345 9.605 121.722 9.21933 122.199 8.942C122.684 8.656 123.235 8.513 123.85 8.513C124.301 8.513 124.704 8.58667 125.059 8.734C125.423 8.88133 125.731 9.09367 125.982 9.371C126.242 9.64833 126.437 9.98633 126.567 10.385C126.706 10.775 126.775 11.217 126.775 11.711C126.775 11.867 126.719 11.9883 126.606 12.075C126.502 12.153 126.35 12.192 126.151 12.192H121.978V11.256H125.631L125.423 11.451C125.423 11.0523 125.362 10.7187 125.241 10.45C125.128 10.1813 124.959 9.97767 124.734 9.839C124.517 9.69167 124.244 9.618 123.915 9.618C123.551 9.618 123.239 9.70467 122.979 9.878C122.728 10.0427 122.533 10.281 122.394 10.593C122.264 10.8963 122.199 11.2603 122.199 11.685V11.776C122.199 12.4867 122.364 13.0197 122.693 13.375C123.031 13.7217 123.525 13.895 124.175 13.895C124.4 13.895 124.652 13.869 124.929 13.817C125.215 13.7563 125.484 13.6567 125.735 13.518C125.917 13.414 126.077 13.3707 126.216 13.388C126.355 13.3967 126.463 13.4443 126.541 13.531C126.628 13.6177 126.68 13.726 126.697 13.856C126.714 13.9773 126.688 14.103 126.619 14.233C126.558 14.363 126.45 14.4757 126.294 14.571C125.991 14.7617 125.64 14.9047 125.241 15C124.851 15.0867 124.487 15.13 124.149 15.13ZM128.894 15.104C128.625 15.104 128.417 15.0347 128.27 14.896C128.131 14.7487 128.062 14.5407 128.062 14.272V9.358C128.062 9.08933 128.131 8.88567 128.27 8.747C128.408 8.60833 128.603 8.539 128.855 8.539C129.106 8.539 129.301 8.60833 129.44 8.747C129.578 8.88567 129.648 9.08933 129.648 9.358V10.177H129.518C129.639 9.657 129.877 9.26267 130.233 8.994C130.588 8.72533 131.06 8.565 131.65 8.513C131.832 8.49567 131.975 8.54333 132.079 8.656C132.191 8.76 132.256 8.92467 132.274 9.15C132.291 9.36667 132.239 9.54433 132.118 9.683C132.005 9.813 131.832 9.891 131.598 9.917L131.312 9.943C130.783 9.995 130.384 10.1597 130.116 10.437C129.847 10.7057 129.713 11.087 129.713 11.581V14.272C129.713 14.5407 129.643 14.7487 129.505 14.896C129.366 15.0347 129.162 15.104 128.894 15.104ZM137.67 15.104C137.401 15.104 137.193 15.0303 137.046 14.883C136.907 14.727 136.838 14.5147 136.838 14.246V6.68C136.838 6.40267 136.912 6.19467 137.059 6.056C137.206 5.90867 137.414 5.835 137.683 5.835H140.816C141.821 5.835 142.597 6.07767 143.143 6.563C143.689 7.03967 143.962 7.71133 143.962 8.578C143.962 9.14133 143.836 9.62667 143.585 10.034C143.342 10.4413 142.987 10.7533 142.519 10.97C142.051 11.1867 141.483 11.295 140.816 11.295L140.933 11.1H141.362C141.717 11.1 142.025 11.1867 142.285 11.36C142.554 11.5333 142.788 11.8063 142.987 12.179L143.962 13.986C144.066 14.168 144.114 14.3457 144.105 14.519C144.096 14.6923 144.031 14.8353 143.91 14.948C143.789 15.052 143.611 15.104 143.377 15.104C143.143 15.104 142.952 15.0563 142.805 14.961C142.658 14.857 142.528 14.701 142.415 14.493L141.102 12.075C140.946 11.7803 140.76 11.5853 140.543 11.49C140.335 11.386 140.066 11.334 139.737 11.334H138.502V14.246C138.502 14.5147 138.433 14.727 138.294 14.883C138.155 15.0303 137.947 15.104 137.67 15.104ZM138.502 10.099H140.53C141.128 10.099 141.579 9.97767 141.882 9.735C142.194 9.48367 142.35 9.111 142.35 8.617C142.35 8.13167 142.194 7.76767 141.882 7.525C141.579 7.27367 141.128 7.148 140.53 7.148H138.502V10.099ZM148.562 15.13C147.843 15.13 147.223 14.9957 146.703 14.727C146.183 14.4583 145.78 14.077 145.494 13.583C145.217 13.089 145.078 12.504 145.078 11.828C145.078 11.1693 145.212 10.593 145.481 10.099C145.758 9.605 146.135 9.21933 146.612 8.942C147.097 8.656 147.648 8.513 148.263 8.513C148.714 8.513 149.117 8.58667 149.472 8.734C149.836 8.88133 150.144 9.09367 150.395 9.371C150.655 9.64833 150.85 9.98633 150.98 10.385C151.119 10.775 151.188 11.217 151.188 11.711C151.188 11.867 151.132 11.9883 151.019 12.075C150.915 12.153 150.763 12.192 150.564 12.192H146.391V11.256H150.044L149.836 11.451C149.836 11.0523 149.775 10.7187 149.654 10.45C149.541 10.1813 149.372 9.97767 149.147 9.839C148.93 9.69167 148.657 9.618 148.328 9.618C147.964 9.618 147.652 9.70467 147.392 9.878C147.141 10.0427 146.946 10.281 146.807 10.593C146.677 10.8963 146.612 11.2603 146.612 11.685V11.776C146.612 12.4867 146.777 13.0197 147.106 13.375C147.444 13.7217 147.938 13.895 148.588 13.895C148.813 13.895 149.065 13.869 149.342 13.817C149.628 13.7563 149.897 13.6567 150.148 13.518C150.33 13.414 150.49 13.3707 150.629 13.388C150.768 13.3967 150.876 13.4443 150.954 13.531C151.041 13.6177 151.093 13.726 151.11 13.856C151.127 13.9773 151.101 14.103 151.032 14.233C150.971 14.363 150.863 14.4757 150.707 14.571C150.404 14.7617 150.053 14.9047 149.654 15C149.264 15.0867 148.9 15.13 148.562 15.13ZM154.802 15.13C154.429 15.13 154.035 15.091 153.619 15.013C153.203 14.935 152.83 14.8007 152.501 14.61C152.362 14.5233 152.263 14.4237 152.202 14.311C152.15 14.1897 152.128 14.0727 152.137 13.96C152.154 13.8387 152.198 13.7347 152.267 13.648C152.345 13.5613 152.44 13.505 152.553 13.479C152.674 13.453 152.804 13.4747 152.943 13.544C153.29 13.7087 153.615 13.8257 153.918 13.895C154.221 13.9557 154.52 13.986 154.815 13.986C155.231 13.986 155.539 13.9167 155.738 13.778C155.946 13.6307 156.05 13.44 156.05 13.206C156.05 13.0067 155.981 12.855 155.842 12.751C155.712 12.6383 155.513 12.556 155.244 12.504L153.944 12.257C153.407 12.153 152.995 11.958 152.709 11.672C152.432 11.3773 152.293 11.0003 152.293 10.541C152.293 10.125 152.406 9.76533 152.631 9.462C152.865 9.15867 153.186 8.92467 153.593 8.76C154 8.59533 154.468 8.513 154.997 8.513C155.378 8.513 155.734 8.55633 156.063 8.643C156.401 8.721 156.726 8.84667 157.038 9.02C157.168 9.08933 157.255 9.18033 157.298 9.293C157.35 9.40567 157.363 9.52267 157.337 9.644C157.311 9.75667 157.259 9.86067 157.181 9.956C157.103 10.0427 157.003 10.099 156.882 10.125C156.769 10.1423 156.639 10.1163 156.492 10.047C156.223 9.90833 155.963 9.80867 155.712 9.748C155.469 9.68733 155.235 9.657 155.01 9.657C154.585 9.657 154.269 9.73067 154.061 9.878C153.862 10.0253 153.762 10.2203 153.762 10.463C153.762 10.645 153.823 10.7967 153.944 10.918C154.065 11.0393 154.252 11.1217 154.503 11.165L155.803 11.412C156.366 11.516 156.791 11.7067 157.077 11.984C157.372 12.2613 157.519 12.634 157.519 13.102C157.519 13.7347 157.272 14.233 156.778 14.597C156.284 14.9523 155.625 15.13 154.802 15.13ZM159.629 17.444C159.369 17.444 159.169 17.3747 159.031 17.236C158.892 17.0973 158.823 16.8937 158.823 16.625V9.358C158.823 9.08933 158.892 8.88567 159.031 8.747C159.169 8.60833 159.364 8.539 159.616 8.539C159.876 8.539 160.075 8.60833 160.214 8.747C160.352 8.88567 160.422 9.08933 160.422 9.358V10.372L160.279 9.982C160.409 9.54 160.673 9.18467 161.072 8.916C161.479 8.64733 161.951 8.513 162.489 8.513C163.043 8.513 163.529 8.64733 163.945 8.916C164.369 9.18467 164.699 9.566 164.933 10.06C165.167 10.5453 165.284 11.1303 165.284 11.815C165.284 12.491 165.167 13.0803 164.933 13.583C164.699 14.077 164.374 14.4583 163.958 14.727C163.542 14.9957 163.052 15.13 162.489 15.13C161.96 15.13 161.496 15 161.098 14.74C160.699 14.4713 160.43 14.1247 160.292 13.7H160.448V16.625C160.448 16.8937 160.374 17.0973 160.227 17.236C160.088 17.3747 159.889 17.444 159.629 17.444ZM162.034 13.895C162.354 13.895 162.636 13.817 162.879 13.661C163.121 13.505 163.308 13.2753 163.438 12.972C163.576 12.66 163.646 12.2743 163.646 11.815C163.646 11.1217 163.498 10.606 163.204 10.268C162.909 9.92133 162.519 9.748 162.034 9.748C161.713 9.748 161.431 9.826 161.189 9.982C160.946 10.1293 160.755 10.359 160.617 10.671C160.487 10.9743 160.422 11.3557 160.422 11.815C160.422 12.4997 160.569 13.0197 160.864 13.375C161.158 13.7217 161.548 13.895 162.034 13.895ZM169.516 15.13C168.858 15.13 168.286 14.9957 167.8 14.727C167.315 14.4583 166.938 14.077 166.669 13.583C166.401 13.0803 166.266 12.491 166.266 11.815C166.266 11.3037 166.34 10.8487 166.487 10.45C166.643 10.0427 166.864 9.696 167.15 9.41C167.436 9.11533 167.779 8.89433 168.177 8.747C168.576 8.591 169.022 8.513 169.516 8.513C170.175 8.513 170.747 8.64733 171.232 8.916C171.718 9.18467 172.095 9.566 172.363 10.06C172.632 10.554 172.766 11.139 172.766 11.815C172.766 12.3263 172.688 12.7857 172.532 13.193C172.385 13.6003 172.168 13.9513 171.882 14.246C171.596 14.532 171.254 14.753 170.855 14.909C170.457 15.0563 170.01 15.13 169.516 15.13ZM169.516 13.895C169.837 13.895 170.119 13.817 170.361 13.661C170.604 13.505 170.79 13.2753 170.92 12.972C171.059 12.66 171.128 12.2743 171.128 11.815C171.128 11.1217 170.981 10.606 170.686 10.268C170.392 9.92133 170.002 9.748 169.516 9.748C169.196 9.748 168.914 9.826 168.671 9.982C168.429 10.1293 168.238 10.359 168.099 10.671C167.969 10.9743 167.904 11.3557 167.904 11.815C167.904 12.4997 168.052 13.0197 168.346 13.375C168.641 13.7217 169.031 13.895 169.516 13.895ZM174.914 15.104C174.654 15.104 174.454 15.0347 174.316 14.896C174.177 14.7487 174.108 14.5407 174.108 14.272V9.358C174.108 9.08933 174.177 8.88567 174.316 8.747C174.454 8.60833 174.649 8.539 174.901 8.539C175.152 8.539 175.347 8.60833 175.486 8.747C175.624 8.88567 175.694 9.08933 175.694 9.358V10.242L175.551 9.917C175.741 9.45767 176.036 9.111 176.435 8.877C176.842 8.63433 177.301 8.513 177.813 8.513C178.324 8.513 178.744 8.60833 179.074 8.799C179.403 8.98967 179.65 9.28 179.815 9.67C179.979 10.0513 180.062 10.5367 180.062 11.126V14.272C180.062 14.5407 179.992 14.7487 179.854 14.896C179.715 15.0347 179.516 15.104 179.256 15.104C178.996 15.104 178.792 15.0347 178.645 14.896C178.506 14.7487 178.437 14.5407 178.437 14.272V11.204C178.437 10.71 178.341 10.3503 178.151 10.125C177.969 9.89967 177.683 9.787 177.293 9.787C176.816 9.787 176.435 9.93867 176.149 10.242C175.871 10.5367 175.733 10.931 175.733 11.425V14.272C175.733 14.8267 175.46 15.104 174.914 15.104ZM184.039 15.13C183.667 15.13 183.272 15.091 182.856 15.013C182.44 14.935 182.068 14.8007 181.738 14.61C181.6 14.5233 181.5 14.4237 181.439 14.311C181.387 14.1897 181.366 14.0727 181.374 13.96C181.392 13.8387 181.435 13.7347 181.504 13.648C181.582 13.5613 181.678 13.505 181.79 13.479C181.912 13.453 182.042 13.4747 182.18 13.544C182.527 13.7087 182.852 13.8257 183.155 13.895C183.459 13.9557 183.758 13.986 184.052 13.986C184.468 13.986 184.776 13.9167 184.975 13.778C185.183 13.6307 185.287 13.44 185.287 13.206C185.287 13.0067 185.218 12.855 185.079 12.751C184.949 12.6383 184.75 12.556 184.481 12.504L183.181 12.257C182.644 12.153 182.232 11.958 181.946 11.672C181.669 11.3773 181.53 11.0003 181.53 10.541C181.53 10.125 181.643 9.76533 181.868 9.462C182.102 9.15867 182.423 8.92467 182.83 8.76C183.238 8.59533 183.706 8.513 184.234 8.513C184.616 8.513 184.971 8.55633 185.3 8.643C185.638 8.721 185.963 8.84667 186.275 9.02C186.405 9.08933 186.492 9.18033 186.535 9.293C186.587 9.40567 186.6 9.52267 186.574 9.644C186.548 9.75667 186.496 9.86067 186.418 9.956C186.34 10.0427 186.241 10.099 186.119 10.125C186.007 10.1423 185.877 10.1163 185.729 10.047C185.461 9.90833 185.201 9.80867 184.949 9.748C184.707 9.68733 184.473 9.657 184.247 9.657C183.823 9.657 183.506 9.73067 183.298 9.878C183.099 10.0253 182.999 10.2203 182.999 10.463C182.999 10.645 183.06 10.7967 183.181 10.918C183.303 11.0393 183.489 11.1217 183.74 11.165L185.04 11.412C185.604 11.516 186.028 11.7067 186.314 11.984C186.609 12.2613 186.756 12.634 186.756 13.102C186.756 13.7347 186.509 14.233 186.015 14.597C185.521 14.9523 184.863 15.13 184.039 15.13ZM191.193 15.13C190.474 15.13 189.854 14.9957 189.334 14.727C188.814 14.4583 188.411 14.077 188.125 13.583C187.848 13.089 187.709 12.504 187.709 11.828C187.709 11.1693 187.843 10.593 188.112 10.099C188.389 9.605 188.766 9.21933 189.243 8.942C189.728 8.656 190.279 8.513 190.894 8.513C191.345 8.513 191.748 8.58667 192.103 8.734C192.467 8.88133 192.775 9.09367 193.026 9.371C193.286 9.64833 193.481 9.98633 193.611 10.385C193.75 10.775 193.819 11.217 193.819 11.711C193.819 11.867 193.763 11.9883 193.65 12.075C193.546 12.153 193.394 12.192 193.195 12.192H189.022V11.256H192.675L192.467 11.451C192.467 11.0523 192.406 10.7187 192.285 10.45C192.172 10.1813 192.003 9.97767 191.778 9.839C191.561 9.69167 191.288 9.618 190.959 9.618C190.595 9.618 190.283 9.70467 190.023 9.878C189.772 10.0427 189.577 10.281 189.438 10.593C189.308 10.8963 189.243 11.2603 189.243 11.685V11.776C189.243 12.4867 189.408 13.0197 189.737 13.375C190.075 13.7217 190.569 13.895 191.219 13.895C191.444 13.895 191.696 13.869 191.973 13.817C192.259 13.7563 192.528 13.6567 192.779 13.518C192.961 13.414 193.121 13.3707 193.26 13.388C193.399 13.3967 193.507 13.4443 193.585 13.531C193.672 13.6177 193.724 13.726 193.741 13.856C193.758 13.9773 193.732 14.103 193.663 14.233C193.602 14.363 193.494 14.4757 193.338 14.571C193.035 14.7617 192.684 14.9047 192.285 15C191.895 15.0867 191.531 15.13 191.193 15.13Z" fill="white"/>
<path d="M201 0L209 6H201V0Z" fill="url(#paint0_linear_210_11485)"/>
<path d="M8 0L0 6H8V0Z" fill="url(#paint1_linear_210_11485)"/>
<defs>
<linearGradient id="paint0_linear_210_11485" x1="205" y1="0" x2="205" y2="6" gradientUnits="userSpaceOnUse">
<stop stop-color="#6A3319"/>
<stop offset="1" stop-color="#FF915D"/>
</linearGradient>
<linearGradient id="paint1_linear_210_11485" x1="4" y1="0" x2="4" y2="6" gradientUnits="userSpaceOnUse">
<stop stop-color="#6A3319"/>
<stop offset="1" stop-color="#FF915D"/>
</linearGradient>
</defs>
</svg>
