<svg width="75" height="35" viewBox="0 0 75 35" fill="none" xmlns="http://www.w3.org/2000/svg">
<path d="M63.6988 16.0014L61.8012 19.2832H60.1489L62.7965 14.9585H64.6046L67.2486 19.28H65.5965L65.1518 18.5083H62.7002L63.1083 17.8459C63.2112 17.6968 63.3835 17.6073 63.5627 17.6041H64.6244L63.6988 16.0014Z" fill="#005DAC"/>
<path d="M72.2183 18.3756L71.8102 19.0412C71.7073 19.1903 71.5383 19.2797 71.3558 19.283H69.0168C68.2074 19.283 67.5903 18.9682 67.5903 18.0379V14.9614H68.9903V17.9088C68.9903 18.2235 69.2457 18.3792 69.5675 18.3792H72.2183V18.3756Z" fill="#005DAC"/>
<path d="M34.2974 17.1202V17.0938C34.3006 16.7691 34.3737 16.4515 34.5098 16.1568C34.646 15.862 34.8449 15.6006 35.0871 15.3885C35.1104 15.3653 35.1369 15.3456 35.1634 15.3255C35.588 15.0044 36.2882 14.9614 36.8421 14.9614H40.183L39.7817 15.6238C39.7319 15.6968 39.6624 15.7597 39.5825 15.8027C39.5029 15.8456 39.4134 15.8688 39.3238 15.8688H38.2223C37.3631 15.8688 36.056 15.9253 36.056 17.0974V17.1238V17.1503C36.056 18.3227 37.3631 18.3788 38.2223 18.3788H38.7763V17.607H36.945L37.3531 16.9447C37.4028 16.872 37.4724 16.8123 37.5523 16.7691C37.6318 16.7261 37.7181 16.7062 37.811 16.7029H40.1866V19.2827H36.8457C36.2917 19.2827 35.5916 19.2365 35.167 18.9186C35.1405 18.8985 35.1139 18.8756 35.0906 18.8556C34.8452 18.6435 34.6496 18.3821 34.5134 18.0873C34.3772 17.7926 34.3045 17.4747 34.301 17.1503V17.1238L34.2974 17.1202Z" fill="#005DAC"/>
<path d="M59.9228 19.2831L58.911 17.5975L58.8378 17.4583C59.0435 17.359 59.2194 17.2101 59.3488 17.0277C59.4914 16.8257 59.5645 16.5839 59.5577 16.3389C59.5577 16.1636 59.5244 15.9878 59.4581 15.8225C59.3918 15.6569 59.2922 15.5045 59.1661 15.3754C59.0299 15.2395 58.8676 15.1369 58.6884 15.0675C58.486 14.9912 58.267 14.9516 58.0482 14.9548L55.397 14.9552L55.7521 15.8525H57.524C57.6533 15.846 57.7761 15.8925 57.869 15.9816C57.9517 16.061 57.9983 16.1704 57.9983 16.2863C57.9983 16.4054 57.9521 16.5248 57.869 16.614C57.7794 16.7033 57.6533 16.7996 57.524 16.7928L56.0875 16.793L56.4092 17.6804H57.358L58.2739 19.2799H59.9261L59.9228 19.2831Z" fill="#005DAC"/>
<path d="M48.7621 14.9614V17.3821L47.0867 14.9614H45.418V19.2827H46.8248V16.8853L46.838 16.905L48.4837 19.2827H50.1689V14.9614H48.7621Z" fill="#005DAC"/>
<path d="M42.1771 16.4021V16.6471L44.1909 16.6406L43.7662 17.3427C43.7662 17.3427 43.6735 17.5315 43.3947 17.5315L42.1904 17.5447L42.2004 17.9454C42.2004 17.9454 42.2004 17.9853 42.2136 18.0251C42.29 18.2303 42.4825 18.3762 42.7146 18.3762L44.4596 18.3827H44.8315V19.28H40.7739V14.9585H44.8315V15.8559L42.715 15.8659C42.4196 15.8659 42.1771 16.1042 42.1771 16.4021Z" fill="#005DAC"/>
<path d="M52.1593 16.4021V16.6471L54.1731 16.6406L53.7485 17.3427C53.7485 17.3427 53.6556 17.5315 53.3769 17.5315L52.1726 17.5447L52.1826 17.9454C52.1826 17.9454 52.1826 17.9853 52.1959 18.0251C52.2722 18.2303 52.4646 18.3762 52.6968 18.3762L54.4419 18.3827H54.8134V19.28H50.7559V14.9585H54.8134V15.8559L52.6968 15.8659C52.4016 15.8659 52.1593 16.1042 52.1593 16.4021Z" fill="#005DAC"/>
<path d="M31.5215 2.77881H2.78418V31.4629H31.5215V2.77881Z" fill="#005DAC"/>
<path d="M4.36963 29.8767V26.0487H7.76004C8.46017 26.0487 9.58459 26.1446 9.58459 27.052C9.58459 27.499 9.19297 27.8134 8.73538 27.9296C9.30616 28.102 9.58459 28.4132 9.58459 28.8438C9.58459 29.7808 8.51644 29.8702 7.76004 29.8735H4.36963V29.8767ZM5.6137 28.264L5.96878 27.6778C6.0616 27.5455 6.21101 27.4657 6.37367 27.4657H7.76036C8.00905 27.4657 8.20826 27.3531 8.20826 27.161C8.20826 26.9689 8.00905 26.853 7.76036 26.853H5.61402L5.6137 28.264ZM5.6137 28.264V29.8735L5.96878 29.2872C6.0616 29.1549 6.21101 29.0752 6.37367 29.0752H7.74064C7.99967 29.0784 8.20502 28.8964 8.20502 28.6714C8.20502 28.446 8.00258 28.2672 7.74064 28.2672H5.61402L5.6137 28.264ZM12.5941 26.9725L10.9121 29.8799H9.4491L11.7914 26.0483H13.3938L15.7361 29.8764H14.2731L13.8814 29.1943L11.7115 29.194L12.0731 28.6081C12.1659 28.4758 12.3153 28.3961 12.478 28.3961H13.4167L12.5973 26.9755L12.5941 26.9725ZM22.7724 26.9725L21.0937 29.8799H19.6274L21.9698 26.0483H23.5721L25.9109 29.8764H24.4511L24.0562 29.1943L21.8866 29.194L22.2417 28.6081C22.3345 28.4758 22.4839 28.3961 22.643 28.3961H23.5854L22.7659 26.9755H22.7691L22.7724 26.9725ZM18.0018 29.0752C18.287 29.0752 18.5127 28.9392 18.5127 28.6578V26.0483H19.7536V28.7737C19.7536 29.5981 19.2061 29.8764 18.4895 29.8764H16.4194C16.2603 29.8764 16.1077 29.7937 16.0181 29.6646L15.6565 29.0752H18.0053H18.0018ZM28.1768 29.0752C28.4621 29.0752 28.691 28.9392 28.691 28.6578V26.0483H29.9352V28.7737C29.9352 29.5981 29.3877 29.8764 28.671 29.8764H26.6007C26.4383 29.8764 26.2889 29.7969 26.1994 29.6646L25.8378 29.0752H28.1798H28.1768Z" fill="white"/>
<path d="M17.6672 8.25258C16.4793 8.3123 15.0232 8.55407 13.8819 8.90171C13.673 8.96465 12.9263 9.18642 13.195 9.5176C13.5003 9.89492 14.5918 9.55085 15.0163 9.49113C16.2439 9.31585 20.0657 8.77583 19.2763 11.1502C19.0473 11.8391 18.3573 12.5973 17.8531 13.1041C17.2992 12.7697 16.2772 12.263 16.2772 12.263C15.7333 11.9914 15.1722 11.7397 14.615 11.5047C14.0843 11.283 12.6676 10.6538 12.1634 10.6935C11.6657 10.7333 11.4235 11.1041 11.7355 11.538C12.0243 11.942 13.1391 12.4156 13.6132 12.687C13.9349 12.8691 16.264 14.2336 16.3005 14.4023C16.3137 14.4585 16.1246 14.5776 16.0716 14.6177C14.9801 15.4388 13.7457 16.0118 12.5715 16.6871C12.2197 16.8892 11.374 17.3462 11.7223 17.8627C12.0606 18.3695 12.9897 17.9453 13.4275 17.7865C16.2873 16.7501 20.5935 14.5115 22.2027 11.8391C24.1963 8.52437 19.8535 8.14348 17.6708 8.24935L17.6672 8.25258Z" fill="white"/>
<path d="M22.5996 17.8656C22.3907 17.0841 21.3322 15.7165 20.6951 15.2265C20.685 15.2197 20.675 15.21 20.6654 15.2032C20.6654 15.2032 20.6156 15.1603 20.5493 15.1206L20.5062 15.1504L18.5356 16.4353C18.9501 17.0745 19.4513 17.6374 19.3518 18.4618C19.2224 19.558 17.3578 19.5612 16.5551 19.5183C15.6859 19.4722 14.8366 19.2204 14.0103 19.1409C13.695 19.1113 12.7663 19.2236 13.2805 19.6674C13.6986 20.0315 15.9646 20.4028 16.5948 20.4754C18.3266 20.6806 23.4193 20.8992 22.5999 17.856L22.5996 17.8656Z" fill="white"/>
</svg>
