<svg width="30" height="31" viewBox="0 0 30 31" fill="none" xmlns="http://www.w3.org/2000/svg">
<path d="M12.8564 12.1338V15.7017" stroke="#373434" stroke-width="1.4364" stroke-linecap="round"/>
<path d="M5.74333 14.5123V16.7623C5.74333 17.4909 5.44333 18.5837 5.06832 19.2052L3.7076 21.4766C2.87187 22.8802 3.45045 24.4445 4.99332 24.9588C10.1148 26.6624 15.6542 26.6624 20.7756 24.9588C22.2221 24.4767 22.8435 22.7838 22.0614 21.4766L20.7006 19.2052C20.3256 18.5837 20.0256 17.4801 20.0256 16.7623V14.5123C20.0149 10.5908 16.8006 7.37646 12.8791 7.37646C8.93623 7.37646 5.74333 10.5694 5.74333 14.5123Z" stroke="#373434" stroke-width="1.4364" stroke-linecap="round"/>
<path d="M16.4253 25.3979C16.4253 27.3587 14.8182 28.9658 12.8574 28.9658C11.8824 28.9658 10.9824 28.5587 10.3396 27.9158C9.6967 27.273 9.28955 26.373 9.28955 25.3979" stroke="#373434" stroke-width="1.4364"/>
<circle cx="21.964" cy="8.0358" r="7.557" fill="#008000" stroke="white" stroke-width="0.9576"/>
<path d="M20.2023 10.0605C19.7023 10.0605 19.3203 9.87249 19.0563 9.49649C18.7923 9.11649 18.6603 8.57649 18.6603 7.87649C18.6603 7.40449 18.7183 7.00849 18.8343 6.68849C18.9543 6.36449 19.1283 6.12049 19.3563 5.95649C19.5883 5.79249 19.8703 5.71049 20.2023 5.71049C20.7063 5.71049 21.0883 5.89449 21.3483 6.26249C21.6123 6.63049 21.7443 7.16649 21.7443 7.87049C21.7443 8.33849 21.6843 8.73649 21.5643 9.06449C21.4483 9.38849 21.2763 9.63649 21.0483 9.80849C20.8203 9.97649 20.5383 10.0605 20.2023 10.0605ZM20.2023 9.43049C20.4743 9.43049 20.6743 9.30449 20.8023 9.05249C20.9343 8.80049 21.0003 8.40649 21.0003 7.87049C21.0003 7.33449 20.9343 6.94649 20.8023 6.70649C20.6743 6.46249 20.4743 6.34049 20.2023 6.34049C19.9343 6.34049 19.7343 6.46249 19.6023 6.70649C19.4703 6.94649 19.4043 7.33449 19.4043 7.87049C19.4043 8.40649 19.4703 8.80049 19.6023 9.05249C19.7343 9.30449 19.9343 9.43049 20.2023 9.43049ZM22.936 10.0005C22.832 10.0005 22.75 9.97249 22.69 9.91649C22.634 9.85649 22.606 9.77649 22.606 9.67649C22.606 9.57249 22.634 9.49449 22.69 9.44249C22.75 9.39049 22.832 9.36449 22.936 9.36449H23.608V6.41849H23.98L23.098 6.95249C23.022 6.99649 22.95 7.01449 22.882 7.00649C22.818 6.99449 22.762 6.96649 22.714 6.92249C22.67 6.87449 22.64 6.81849 22.624 6.75449C22.608 6.69049 22.612 6.62649 22.636 6.56249C22.664 6.49449 22.716 6.43849 22.792 6.39449L23.62 5.89649C23.7 5.84849 23.78 5.80849 23.86 5.77649C23.94 5.74049 24.014 5.72249 24.082 5.72249C24.166 5.72249 24.236 5.74649 24.292 5.79449C24.348 5.83849 24.376 5.91249 24.376 6.01649V9.36449H24.988C25.092 9.36449 25.172 9.39049 25.228 9.44249C25.288 9.49449 25.318 9.57249 25.318 9.67649C25.318 9.78049 25.288 9.86049 25.228 9.91649C25.172 9.97249 25.092 10.0005 24.988 10.0005H22.936Z" fill="white"/>
</svg>
