<svg width="173" height="22" viewBox="0 0 173 22" fill="none" xmlns="http://www.w3.org/2000/svg">
<path d="M8 0H165V12C165 17.5228 160.523 22 155 22H18C12.4771 22 8 17.5228 8 12V0Z" fill="#FF915D"/>
<path d="M55.2709 15.13C54.3175 15.13 53.4985 14.9393 52.8139 14.558C52.1379 14.168 51.6179 13.622 51.2539 12.92C50.8899 12.2093 50.7079 11.373 50.7079 10.411C50.7079 9.69167 50.8119 9.046 51.0199 8.474C51.2279 7.89333 51.5269 7.39933 51.9169 6.992C52.3069 6.576 52.7835 6.25967 53.3469 6.043C53.9189 5.81767 54.5602 5.705 55.2709 5.705C55.7475 5.705 56.2155 5.76567 56.6749 5.887C57.1342 6.00833 57.5372 6.18167 57.8839 6.407C58.0659 6.51967 58.1872 6.65833 58.2479 6.823C58.3085 6.979 58.3215 7.135 58.2869 7.291C58.2522 7.43833 58.1785 7.564 58.0659 7.668C57.9619 7.772 57.8275 7.83267 57.6629 7.85C57.5069 7.85867 57.3335 7.80233 57.1429 7.681C56.8742 7.50767 56.5839 7.382 56.2719 7.304C55.9599 7.226 55.6435 7.187 55.3229 7.187C54.7075 7.187 54.1875 7.31267 53.7629 7.564C53.3382 7.81533 53.0175 8.17933 52.8009 8.656C52.5842 9.13267 52.4759 9.71767 52.4759 10.411C52.4759 11.0957 52.5842 11.6807 52.8009 12.166C53.0175 12.6513 53.3382 13.0197 53.7629 13.271C54.1875 13.5223 54.7075 13.648 55.3229 13.648C55.6522 13.648 55.9772 13.609 56.2979 13.531C56.6185 13.4443 56.9219 13.3143 57.2079 13.141C57.3985 13.0283 57.5675 12.9807 57.7149 12.998C57.8709 13.0067 58.0009 13.0587 58.1049 13.154C58.2089 13.2493 58.2782 13.3707 58.3129 13.518C58.3475 13.6567 58.3389 13.804 58.2869 13.96C58.2349 14.1073 58.1309 14.2373 57.9749 14.35C57.6282 14.6013 57.2122 14.7963 56.7269 14.935C56.2502 15.065 55.7649 15.13 55.2709 15.13ZM61.5513 15.13C61.0919 15.13 60.6803 15.0433 60.3163 14.87C59.9609 14.688 59.6793 14.4453 59.4713 14.142C59.2719 13.8387 59.1723 13.4963 59.1723 13.115C59.1723 12.647 59.2936 12.2787 59.5363 12.01C59.7789 11.7327 60.1733 11.5333 60.7193 11.412C61.2653 11.2907 61.9976 11.23 62.9163 11.23H63.5663V12.166H62.9293C62.3919 12.166 61.9629 12.192 61.6423 12.244C61.3216 12.296 61.0919 12.387 60.9533 12.517C60.8233 12.6383 60.7583 12.8117 60.7583 13.037C60.7583 13.323 60.8579 13.557 61.0573 13.739C61.2566 13.921 61.5339 14.012 61.8893 14.012C62.1753 14.012 62.4266 13.947 62.6433 13.817C62.8686 13.6783 63.0463 13.492 63.1763 13.258C63.3063 13.024 63.3713 12.7553 63.3713 12.452V10.957C63.3713 10.5237 63.2759 10.2117 63.0853 10.021C62.8946 9.83033 62.5739 9.735 62.1233 9.735C61.8719 9.735 61.5989 9.76533 61.3043 9.826C61.0183 9.88667 60.7149 9.99067 60.3943 10.138C60.2296 10.216 60.0823 10.2377 59.9523 10.203C59.8309 10.1683 59.7356 10.099 59.6663 9.995C59.5969 9.88233 59.5623 9.761 59.5623 9.631C59.5623 9.501 59.5969 9.37533 59.6663 9.254C59.7356 9.124 59.8526 9.02867 60.0173 8.968C60.4159 8.80333 60.7973 8.68633 61.1613 8.617C61.5339 8.54767 61.8719 8.513 62.1753 8.513C62.7993 8.513 63.3106 8.60833 63.7093 8.799C64.1166 8.98967 64.4199 9.28 64.6193 9.67C64.8186 10.0513 64.9183 10.5453 64.9183 11.152V14.272C64.9183 14.5407 64.8533 14.7487 64.7233 14.896C64.5933 15.0347 64.4069 15.104 64.1643 15.104C63.9216 15.104 63.7309 15.0347 63.5923 14.896C63.4623 14.7487 63.3973 14.5407 63.3973 14.272V13.648H63.5013C63.4406 13.9513 63.3193 14.2157 63.1373 14.441C62.9639 14.6577 62.7429 14.8267 62.4743 14.948C62.2056 15.0693 61.8979 15.13 61.5513 15.13ZM68.7387 15.13C68.0193 15.13 67.4777 14.9263 67.1137 14.519C66.7497 14.103 66.5677 13.4963 66.5677 12.699V6.55C66.5677 6.28133 66.637 6.07767 66.7757 5.939C66.9143 5.80033 67.1137 5.731 67.3737 5.731C67.6337 5.731 67.833 5.80033 67.9717 5.939C68.119 6.07767 68.1927 6.28133 68.1927 6.55V12.621C68.1927 13.0197 68.275 13.3143 68.4397 13.505C68.613 13.6957 68.8557 13.791 69.1677 13.791C69.237 13.791 69.302 13.791 69.3627 13.791C69.4233 13.7823 69.484 13.7737 69.5447 13.765C69.666 13.7477 69.7483 13.7823 69.7917 13.869C69.835 13.947 69.8567 14.1117 69.8567 14.363C69.8567 14.5797 69.8133 14.7487 69.7267 14.87C69.64 14.9913 69.497 15.065 69.2977 15.091C69.211 15.0997 69.12 15.1083 69.0247 15.117C68.9293 15.1257 68.834 15.13 68.7387 15.13ZM72.89 15.13C72.1707 15.13 71.629 14.9263 71.265 14.519C70.901 14.103 70.719 13.4963 70.719 12.699V6.55C70.719 6.28133 70.7884 6.07767 70.927 5.939C71.0657 5.80033 71.265 5.731 71.525 5.731C71.785 5.731 71.9844 5.80033 72.123 5.939C72.2704 6.07767 72.344 6.28133 72.344 6.55V12.621C72.344 13.0197 72.4264 13.3143 72.591 13.505C72.7644 13.6957 73.007 13.791 73.319 13.791C73.3884 13.791 73.4534 13.791 73.514 13.791C73.5747 13.7823 73.6354 13.7737 73.696 13.765C73.8174 13.7477 73.8997 13.7823 73.943 13.869C73.9864 13.947 74.008 14.1117 74.008 14.363C74.008 14.5797 73.9647 14.7487 73.878 14.87C73.7914 14.9913 73.6484 15.065 73.449 15.091C73.3624 15.0997 73.2714 15.1083 73.176 15.117C73.0807 15.1257 72.9854 15.13 72.89 15.13ZM79.3877 15.104C79.119 15.104 78.911 15.0303 78.7637 14.883C78.625 14.727 78.5557 14.5147 78.5557 14.246V6.68C78.5557 6.40267 78.6294 6.19467 78.7767 6.056C78.924 5.90867 79.132 5.835 79.4007 5.835H82.5337C83.539 5.835 84.3147 6.07767 84.8607 6.563C85.4067 7.03967 85.6797 7.71133 85.6797 8.578C85.6797 9.14133 85.554 9.62667 85.3027 10.034C85.06 10.4413 84.7047 10.7533 84.2367 10.97C83.7687 11.1867 83.201 11.295 82.5337 11.295L82.6507 11.1H83.0797C83.435 11.1 83.7427 11.1867 84.0027 11.36C84.2714 11.5333 84.5054 11.8063 84.7047 12.179L85.6797 13.986C85.7837 14.168 85.8314 14.3457 85.8227 14.519C85.814 14.6923 85.749 14.8353 85.6277 14.948C85.5064 15.052 85.3287 15.104 85.0947 15.104C84.8607 15.104 84.67 15.0563 84.5227 14.961C84.3754 14.857 84.2454 14.701 84.1327 14.493L82.8197 12.075C82.6637 11.7803 82.4774 11.5853 82.2607 11.49C82.0527 11.386 81.784 11.334 81.4547 11.334H80.2197V14.246C80.2197 14.5147 80.1504 14.727 80.0117 14.883C79.873 15.0303 79.665 15.104 79.3877 15.104ZM80.2197 10.099H82.2477C82.8457 10.099 83.2964 9.97767 83.5997 9.735C83.9117 9.48367 84.0677 9.111 84.0677 8.617C84.0677 8.13167 83.9117 7.76767 83.5997 7.525C83.2964 7.27367 82.8457 7.148 82.2477 7.148H80.2197V10.099ZM88.1178 15.091C87.8578 15.091 87.6585 15.013 87.5198 14.857C87.3811 14.701 87.3118 14.4843 87.3118 14.207V9.436C87.3118 9.15 87.3811 8.93333 87.5198 8.786C87.6585 8.63 87.8578 8.552 88.1178 8.552C88.3778 8.552 88.5771 8.63 88.7158 8.786C88.8631 8.93333 88.9368 9.15 88.9368 9.436V14.207C88.9368 14.4843 88.8675 14.701 88.7288 14.857C88.5901 15.013 88.3865 15.091 88.1178 15.091ZM88.1178 7.343C87.8145 7.343 87.5761 7.26933 87.4028 7.122C87.2381 6.966 87.1558 6.75367 87.1558 6.485C87.1558 6.20767 87.2381 5.99533 87.4028 5.848C87.5761 5.70067 87.8145 5.627 88.1178 5.627C88.4298 5.627 88.6681 5.70067 88.8328 5.848C88.9975 5.99533 89.0798 6.20767 89.0798 6.485C89.0798 6.75367 88.9975 6.966 88.8328 7.122C88.6681 7.26933 88.4298 7.343 88.1178 7.343ZM91.4313 15.104C91.1713 15.104 90.9719 15.0347 90.8333 14.896C90.6946 14.7487 90.6253 14.5407 90.6253 14.272V9.358C90.6253 9.08933 90.6946 8.88567 90.8333 8.747C90.9719 8.60833 91.1669 8.539 91.4183 8.539C91.6696 8.539 91.8646 8.60833 92.0033 8.747C92.1419 8.88567 92.2113 9.08933 92.2113 9.358V10.242L92.0683 9.917C92.2589 9.45767 92.5536 9.111 92.9523 8.877C93.3596 8.63433 93.8189 8.513 94.3303 8.513C94.8416 8.513 95.2619 8.60833 95.5913 8.799C95.9206 8.98967 96.1676 9.28 96.3323 9.67C96.4969 10.0513 96.5793 10.5367 96.5793 11.126V14.272C96.5793 14.5407 96.5099 14.7487 96.3713 14.896C96.2326 15.0347 96.0333 15.104 95.7733 15.104C95.5133 15.104 95.3096 15.0347 95.1623 14.896C95.0236 14.7487 94.9543 14.5407 94.9543 14.272V11.204C94.9543 10.71 94.8589 10.3503 94.6683 10.125C94.4863 9.89967 94.2003 9.787 93.8103 9.787C93.3336 9.787 92.9523 9.93867 92.6663 10.242C92.3889 10.5367 92.2503 10.931 92.2503 11.425V14.272C92.2503 14.8267 91.9773 15.104 91.4313 15.104ZM101.194 17.47C100.726 17.47 100.271 17.4267 99.8288 17.34C99.3954 17.2533 99.0011 17.119 98.6458 16.937C98.4811 16.8503 98.3684 16.7463 98.3078 16.625C98.2558 16.5037 98.2384 16.378 98.2558 16.248C98.2818 16.1267 98.3338 16.0183 98.4118 15.923C98.4984 15.8277 98.6024 15.7627 98.7238 15.728C98.8451 15.6933 98.9708 15.7107 99.1008 15.78C99.4821 15.9707 99.8418 16.092 100.18 16.144C100.526 16.2047 100.821 16.235 101.064 16.235C101.644 16.235 102.078 16.092 102.364 15.806C102.658 15.5287 102.806 15.1127 102.806 14.558V13.388H102.923C102.793 13.83 102.52 14.1853 102.104 14.454C101.696 14.714 101.233 14.844 100.713 14.844C100.141 14.844 99.6424 14.714 99.2178 14.454C98.7931 14.1853 98.4638 13.8127 98.2298 13.336C97.9958 12.8593 97.8788 12.3047 97.8788 11.672C97.8788 11.1953 97.9438 10.7663 98.0738 10.385C98.2124 9.995 98.4031 9.66133 98.6458 9.384C98.8971 9.10667 99.1961 8.89433 99.5428 8.747C99.8981 8.591 100.288 8.513 100.713 8.513C101.25 8.513 101.718 8.64733 102.117 8.916C102.524 9.176 102.788 9.52267 102.91 9.956L102.78 10.281V9.358C102.78 9.08933 102.849 8.88567 102.988 8.747C103.135 8.60833 103.334 8.539 103.586 8.539C103.846 8.539 104.045 8.60833 104.184 8.747C104.322 8.88567 104.392 9.08933 104.392 9.358V14.363C104.392 15.3943 104.119 16.17 103.573 16.69C103.027 17.21 102.234 17.47 101.194 17.47ZM101.155 13.609C101.493 13.609 101.783 13.531 102.026 13.375C102.268 13.219 102.455 12.998 102.585 12.712C102.723 12.4173 102.793 12.0707 102.793 11.672C102.793 11.074 102.645 10.606 102.351 10.268C102.056 9.92133 101.657 9.748 101.155 9.748C100.817 9.748 100.526 9.826 100.284 9.982C100.041 10.138 99.8504 10.359 99.7118 10.645C99.5818 10.931 99.5168 11.2733 99.5168 11.672C99.5168 12.27 99.6641 12.7423 99.9588 13.089C100.253 13.4357 100.652 13.609 101.155 13.609ZM106.881 15.091C106.621 15.091 106.422 15.013 106.283 14.857C106.145 14.701 106.075 14.4843 106.075 14.207V9.436C106.075 9.15 106.145 8.93333 106.283 8.786C106.422 8.63 106.621 8.552 106.881 8.552C107.141 8.552 107.341 8.63 107.479 8.786C107.627 8.93333 107.7 9.15 107.7 9.436V14.207C107.7 14.4843 107.631 14.701 107.492 14.857C107.354 15.013 107.15 15.091 106.881 15.091ZM106.881 7.343C106.578 7.343 106.34 7.26933 106.166 7.122C106.002 6.966 105.919 6.75367 105.919 6.485C105.919 6.20767 106.002 5.99533 106.166 5.848C106.34 5.70067 106.578 5.627 106.881 5.627C107.193 5.627 107.432 5.70067 107.596 5.848C107.761 5.99533 107.843 6.20767 107.843 6.485C107.843 6.75367 107.761 6.966 107.596 7.122C107.432 7.26933 107.193 7.343 106.881 7.343ZM110.195 15.104C109.935 15.104 109.736 15.0347 109.597 14.896C109.458 14.7487 109.389 14.5407 109.389 14.272V9.358C109.389 9.08933 109.458 8.88567 109.597 8.747C109.736 8.60833 109.931 8.539 110.182 8.539C110.433 8.539 110.628 8.60833 110.767 8.747C110.906 8.88567 110.975 9.08933 110.975 9.358V10.242L110.832 9.917C111.023 9.45767 111.317 9.111 111.716 8.877C112.123 8.63433 112.583 8.513 113.094 8.513C113.605 8.513 114.026 8.60833 114.355 8.799C114.684 8.98967 114.931 9.28 115.096 9.67C115.261 10.0513 115.343 10.5367 115.343 11.126V14.272C115.343 14.5407 115.274 14.7487 115.135 14.896C114.996 15.0347 114.797 15.104 114.537 15.104C114.277 15.104 114.073 15.0347 113.926 14.896C113.787 14.7487 113.718 14.5407 113.718 14.272V11.204C113.718 10.71 113.623 10.3503 113.432 10.125C113.25 9.89967 112.964 9.787 112.574 9.787C112.097 9.787 111.716 9.93867 111.43 10.242C111.153 10.5367 111.014 10.931 111.014 11.425V14.272C111.014 14.8267 110.741 15.104 110.195 15.104ZM119.957 17.47C119.489 17.47 119.034 17.4267 118.592 17.34C118.159 17.2533 117.765 17.119 117.409 16.937C117.245 16.8503 117.132 16.7463 117.071 16.625C117.019 16.5037 117.002 16.378 117.019 16.248C117.045 16.1267 117.097 16.0183 117.175 15.923C117.262 15.8277 117.366 15.7627 117.487 15.728C117.609 15.6933 117.734 15.7107 117.864 15.78C118.246 15.9707 118.605 16.092 118.943 16.144C119.29 16.2047 119.585 16.235 119.827 16.235C120.408 16.235 120.841 16.092 121.127 15.806C121.422 15.5287 121.569 15.1127 121.569 14.558V13.388H121.686C121.556 13.83 121.283 14.1853 120.867 14.454C120.46 14.714 119.996 14.844 119.476 14.844C118.904 14.844 118.406 14.714 117.981 14.454C117.557 14.1853 117.227 13.8127 116.993 13.336C116.759 12.8593 116.642 12.3047 116.642 11.672C116.642 11.1953 116.707 10.7663 116.837 10.385C116.976 9.995 117.167 9.66133 117.409 9.384C117.661 9.10667 117.96 8.89433 118.306 8.747C118.662 8.591 119.052 8.513 119.476 8.513C120.014 8.513 120.482 8.64733 120.88 8.916C121.288 9.176 121.552 9.52267 121.673 9.956L121.543 10.281V9.358C121.543 9.08933 121.613 8.88567 121.751 8.747C121.899 8.60833 122.098 8.539 122.349 8.539C122.609 8.539 122.809 8.60833 122.947 8.747C123.086 8.88567 123.155 9.08933 123.155 9.358V14.363C123.155 15.3943 122.882 16.17 122.336 16.69C121.79 17.21 120.997 17.47 119.957 17.47ZM119.918 13.609C120.256 13.609 120.547 13.531 120.789 13.375C121.032 13.219 121.218 12.998 121.348 12.712C121.487 12.4173 121.556 12.0707 121.556 11.672C121.556 11.074 121.409 10.606 121.114 10.268C120.82 9.92133 120.421 9.748 119.918 9.748C119.58 9.748 119.29 9.826 119.047 9.982C118.805 10.138 118.614 10.359 118.475 10.645C118.345 10.931 118.28 11.2733 118.28 11.672C118.28 12.27 118.428 12.7423 118.722 13.089C119.017 13.4357 119.416 13.609 119.918 13.609Z" fill="white"/>
<path d="M165 0L173 6H165V0Z" fill="url(#paint0_linear_210_11483)"/>
<path d="M8 0L0 6H8V0Z" fill="url(#paint1_linear_210_11483)"/>
<defs>
<linearGradient id="paint0_linear_210_11483" x1="169" y1="0" x2="169" y2="6" gradientUnits="userSpaceOnUse">
<stop stop-color="#6A3319"/>
<stop offset="1" stop-color="#FF915D"/>
</linearGradient>
<linearGradient id="paint1_linear_210_11483" x1="4" y1="0" x2="4" y2="6" gradientUnits="userSpaceOnUse">
<stop stop-color="#6A3319"/>
<stop offset="1" stop-color="#FF915D"/>
</linearGradient>
</defs>
</svg>
