<svg width="113" height="35" viewBox="0 0 113 35" fill="none" xmlns="http://www.w3.org/2000/svg">
<path d="M64.1543 8.64746H65.2538V11.9721H69.4073V8.64746H70.5067V16.7244H69.4073V12.9511H65.2538V16.7244H64.1543V8.64746Z" fill="#0668B2"/>
<path d="M73.0312 8.64746H78.8747V9.62648H74.09V12.0944H78.5082V13.0123H74.09V15.7658H78.9561V16.7244H73.0312V8.64746Z" fill="#0668B2"/>
<path d="M83.4355 8.64746H84.6572L87.5891 16.7244H86.3878L85.553 14.2972H82.3972L81.5217 16.7244H80.4019L83.4355 8.64746ZM85.2476 13.4202L84.0056 9.85084L82.7229 13.4202H85.2476Z" fill="#0668B2"/>
<path d="M89.2583 8.64746H90.3578V15.7658H94.3891V16.7244H89.2583V8.64746Z" fill="#0668B2"/>
<path d="M101.21 8.64746V9.60609H98.5021V16.7244H97.4026V9.60609H94.6743V8.64746H101.21Z" fill="#0668B2"/>
<path d="M102.92 8.64746H104.02V11.9721H108.173V8.64746H109.273V16.7244H108.173V12.9511H104.02V16.7244H102.92V8.64746Z" fill="#0668B2"/>
<path d="M64.8669 20.6201H64.1543V25.8212H64.8669V20.6201Z" fill="#3B68AB"/>
<path d="M66.4551 20.6201H67.2899L69.8756 24.8421V20.6201H70.5475V25.8416H69.7535L67.127 21.6195V25.8416H66.4551V20.6201Z" fill="#0668B2"/>
<path d="M72.5834 24.1488C72.5834 24.4343 72.6648 24.6791 72.787 24.8626C73.0109 25.2094 73.4181 25.3725 73.9679 25.3725C74.5176 25.3725 74.4565 25.3317 74.6601 25.2706C75.0673 25.1278 75.2709 24.8626 75.2709 24.4751C75.2709 24.0876 75.1895 23.9856 75.0062 23.8632C74.823 23.7408 74.5583 23.6388 74.1918 23.5573L73.5199 23.3941C73.072 23.2921 72.7666 23.1697 72.5834 23.0474C72.2576 22.823 72.0947 22.4967 72.0947 22.0683C72.0947 21.64 72.2576 21.2117 72.563 20.9057C72.8888 20.5998 73.3163 20.457 73.9068 20.457C74.4972 20.457 74.8841 20.5794 75.2506 20.8446C75.6171 21.1097 75.8003 21.5176 75.8003 22.1091H75.1284C75.0877 21.8236 75.0266 21.6196 74.9044 21.4768C74.7008 21.2117 74.3547 21.0689 73.8457 21.0689C73.3367 21.0689 73.1535 21.1505 72.9906 21.3341C72.8073 21.4972 72.7259 21.7216 72.7259 21.946C72.7259 22.1703 72.8277 22.3947 73.0313 22.5171C73.1738 22.5986 73.4792 22.6802 73.9475 22.8026L74.6601 22.9658C75.0062 23.0474 75.2709 23.1493 75.4542 23.2921C75.7799 23.5369 75.9428 23.8836 75.9428 24.3527C75.9428 24.8218 75.7392 25.3521 75.332 25.5969C74.9248 25.8416 74.4565 25.964 73.9068 25.964C73.3571 25.964 72.787 25.8009 72.4205 25.4745C72.054 25.1482 71.8911 24.6995 71.8911 24.1284H72.563L72.5834 24.1488Z" fill="#0668B2"/>
<path d="M78.162 20.6201V23.8427C78.162 24.2303 78.2434 24.5362 78.3859 24.781C78.5895 25.1685 78.956 25.3521 79.465 25.3521C79.974 25.3521 80.4831 25.1481 80.6867 24.7402C80.8088 24.5158 80.8699 24.2099 80.8699 23.8427V20.6201H81.5825V23.5368C81.5825 24.1691 81.5011 24.679 81.3178 25.0257C80.9921 25.658 80.4016 25.9639 79.5261 25.9639C78.6506 25.9639 78.0398 25.658 77.7344 25.0257C77.5512 24.679 77.4697 24.1895 77.4697 23.5368V20.6201H78.1823H78.162Z" fill="#0668B2"/>
<path d="M83.1506 20.62H85.5124C85.8992 20.62 86.225 20.6812 86.4693 20.7832C86.958 21.0075 87.1819 21.4155 87.1819 22.007C87.1819 22.5984 87.1209 22.578 86.9783 22.782C86.8562 22.986 86.6729 23.1491 86.4286 23.2511C86.6322 23.3327 86.7747 23.4347 86.8969 23.5775C86.9987 23.7202 87.0598 23.9242 87.0598 24.2301V24.9236C87.1005 25.1276 87.1005 25.2704 87.1412 25.3723C87.1819 25.5355 87.2634 25.6375 87.3652 25.6987V25.8211H86.51C86.4897 25.7803 86.4693 25.7191 86.449 25.6375C86.449 25.5559 86.4286 25.4335 86.4082 25.2296L86.3675 24.3525C86.3675 24.0058 86.225 23.7814 86.001 23.659C85.8789 23.5979 85.6549 23.5571 85.3902 23.5571H83.8225V25.8007H83.1099V20.5996L83.1506 20.62ZM85.4513 23.0064C85.7771 23.0064 86.0214 22.9452 86.2046 22.8024C86.3879 22.6596 86.4897 22.4353 86.4897 22.0885C86.4897 21.7418 86.3675 21.4563 86.1028 21.3339C85.9603 21.2523 85.7771 21.2319 85.5327 21.2319H83.8632V23.0064H85.4513Z" fill="#0668B2"/>
<path d="M90.2767 20.6201H91.0708L92.9643 25.8212H92.1906L91.6409 24.2507H89.6048L89.0347 25.8212H88.3018L90.2563 20.6201H90.2767ZM91.4373 23.7L90.6432 21.3952L89.8084 23.7H91.4373Z" fill="#0668B2"/>
<path d="M94.0229 20.6201H94.8577L97.4435 24.8421V20.6201H98.1154V25.8416H97.3213L94.6948 21.6195V25.8416H94.0229V20.6201Z" fill="#0668B2"/>
<path d="M103.389 21.0071C103.755 21.3538 103.938 21.7414 103.979 22.1901H103.287C103.205 21.8433 103.063 21.5782 102.839 21.3946C102.615 21.1907 102.289 21.1091 101.882 21.1091C101.475 21.1091 100.966 21.2926 100.66 21.6598C100.355 22.0269 100.192 22.5776 100.192 23.3119C100.192 24.0461 100.335 24.4133 100.62 24.8008C100.905 25.1883 101.312 25.3719 101.862 25.3719C102.411 25.3719 102.758 25.1679 103.022 24.7804C103.165 24.5764 103.267 24.2909 103.348 23.9442H104.04C103.979 24.4949 103.776 24.964 103.429 25.3311C103.022 25.7798 102.472 26.0042 101.78 26.0042C101.088 26.0042 100.681 25.8206 100.274 25.4535C99.7442 24.964 99.4795 24.2093 99.4795 23.2099C99.4795 22.2105 99.6831 21.8229 100.09 21.313C100.518 20.7827 101.129 20.5176 101.882 20.5176C102.635 20.5176 103.043 20.6807 103.409 21.0479" fill="#0668B2"/>
<path d="M105.445 20.6201H109.211V21.2524H106.117V22.8433H108.988V23.4552H106.117V25.2093H109.273V25.8416H105.445V20.6201Z" fill="#0668B2"/>
<path d="M61.9147 1.63086H0.650391V33.1431H61.9147V1.63086Z" fill="#FBDF00"/>
<path d="M17.7527 12.7874C17.4676 12.6855 17.1622 12.6039 16.7958 12.5019C16.4496 12.3999 16.0424 12.3183 15.6149 12.2367C15.1669 12.1552 14.6783 12.1348 14.1693 12.1348C13.5381 12.1348 12.8866 12.2367 12.2758 12.4203C11.6446 12.6039 11.0745 12.8894 10.5044 13.2566C9.95468 13.6441 9.46603 14.1132 9.03846 14.6843C8.61089 15.2554 8.28513 15.9285 8.0408 16.7035C7.79648 17.4786 7.67432 18.3556 7.67432 19.3346C7.67432 20.3749 7.81684 21.2723 8.10188 22.027C8.38693 22.802 8.75342 23.4343 9.2217 23.9646C9.68999 24.4949 10.199 24.9232 10.7691 25.2292C11.3392 25.5555 11.9093 25.7799 12.4997 25.9226C13.0902 26.0654 13.6399 26.1266 14.1896 26.1266C14.7394 26.1266 15.2687 26.0858 15.7167 26.0246C16.1849 25.943 16.6125 25.8615 16.9994 25.7595C17.3862 25.6575 17.712 25.5555 18.0174 25.4535V23.9442C17.7323 24.0666 17.4269 24.189 17.0808 24.3317C16.7347 24.4541 16.3275 24.5765 15.8795 24.6581C15.4316 24.7397 14.943 24.8008 14.3932 24.8008C13.4567 24.8008 12.683 24.6377 12.0111 24.3113C11.3595 24.0054 10.8098 23.5771 10.4026 23.0468C9.9954 22.5165 9.68999 21.9046 9.48639 21.2519C9.28278 20.5788 9.20134 19.9057 9.20134 19.1919C9.20134 18.478 9.30315 17.8049 9.50675 17.1115C9.71035 16.4384 10.0158 15.8265 10.423 15.2962C10.8302 14.7455 11.3595 14.3172 11.9907 13.9908C12.6219 13.6645 13.3752 13.5013 14.2304 13.4809C14.7394 13.4809 15.2076 13.5217 15.6149 13.6237C16.0221 13.7053 16.4089 13.8277 16.7754 13.9704C17.1215 14.1132 17.4676 14.2356 17.7731 14.3988V12.8078L17.7527 12.7874Z" fill="#0668B2"/>
<path d="M31.1294 23.5365C31.0276 23.6181 30.8851 23.7405 30.7222 23.8628C30.5593 24.0056 30.3761 24.128 30.1725 24.2708C29.9689 24.3931 29.7856 24.5155 29.6024 24.6175C29.4192 24.7195 29.297 24.7603 29.1748 24.7603C29.0934 24.7603 29.012 24.7399 28.9916 24.7195C28.9509 24.6787 28.9305 24.6583 28.9102 24.6175C28.9102 24.5767 28.9102 24.4951 28.8898 24.3524C28.8898 24.2096 28.8898 24.0464 28.8898 23.8832V16.5202C28.8898 16.0103 28.8898 15.5616 28.8491 15.2148C28.8084 14.8477 28.7473 14.5214 28.6251 14.2358C28.5029 13.9503 28.3197 13.6647 28.055 13.3792C27.7903 13.0936 27.4646 12.8489 27.0777 12.6857C26.6909 12.5021 26.2837 12.3797 25.8765 12.2982C25.4489 12.2166 25.062 12.1758 24.6752 12.1758C24.1662 12.1758 23.6979 12.237 23.2703 12.339C22.8428 12.4409 22.4356 12.5633 22.0691 12.7265C21.7026 12.8897 21.3768 13.0324 21.0918 13.1956C20.8067 13.3588 20.5624 13.5015 20.3588 13.6239V15.0924C20.8475 14.7457 21.2954 14.4602 21.7229 14.2154C22.1505 13.9707 22.5781 13.7871 23.026 13.6647C23.4739 13.5423 23.9626 13.4811 24.492 13.4811C25.2249 13.4811 25.8154 13.6035 26.2633 13.8279C26.6909 14.0522 27.0166 14.3786 27.1999 14.7661C27.3831 15.174 27.4646 15.6228 27.4646 16.1531V17.8663C27.1592 17.8663 26.7316 17.9071 26.2429 17.9479C25.7543 18.0091 25.2046 18.0907 24.6141 18.2131C24.0237 18.3355 23.4332 18.4986 22.8428 18.723C22.2523 18.9473 21.7229 19.2329 21.2343 19.6C20.7456 19.9672 20.3588 20.3955 20.0534 20.9258C19.748 21.4561 19.6055 22.0884 19.6055 22.8226C19.6055 23.3121 19.7073 23.7609 19.8905 24.1688C20.0941 24.5767 20.3384 24.9438 20.6846 25.2498C21.0103 25.5557 21.3972 25.8005 21.8451 25.9637C22.2727 26.1268 22.741 26.2084 23.25 26.2288C23.7793 26.2288 24.2476 26.1676 24.6752 26.0452C25.1231 25.9229 25.51 25.7801 25.8765 25.5965C26.2226 25.413 26.5484 25.2294 26.813 25.0458C27.0777 24.8623 27.3017 24.6991 27.4646 24.5563C27.4849 24.9031 27.5256 25.1886 27.5664 25.4538C27.6071 25.6985 27.7089 25.9025 27.8311 26.0248C27.9532 26.1676 28.1568 26.2288 28.4419 26.2288C28.7473 26.2288 29.1138 26.1064 29.5413 25.8617C29.9689 25.6169 30.5186 25.2702 31.1294 24.8215V23.6181V23.5365ZM27.4442 23.1898C27.2406 23.3733 27.0166 23.5569 26.7723 23.7813C26.5076 23.9852 26.2226 24.1688 25.9172 24.3524C25.6118 24.5359 25.2656 24.6787 24.8992 24.8011C24.5327 24.9234 24.1255 24.9642 23.6979 24.9642C23.4332 24.9642 23.1482 24.9235 22.8428 24.8419C22.5374 24.7603 22.2523 24.6379 21.9673 24.4543C21.7026 24.2708 21.4786 24.0464 21.2954 23.7609C21.1121 23.4753 21.0307 23.1286 21.0307 22.741C21.0307 22.3331 21.1121 21.966 21.275 21.6397C21.4379 21.3133 21.6415 21.0074 21.9062 20.7422C22.1709 20.4771 22.4559 20.2323 22.7817 20.0487C23.1075 19.8448 23.4332 19.6816 23.7793 19.5388C24.2069 19.3757 24.6548 19.2533 25.1028 19.1717C25.5711 19.0901 25.9986 19.0493 26.4058 19.0085C26.813 18.9881 27.1795 18.9677 27.4646 18.9677V23.1898H27.4442Z" fill="#0668B2"/>
<path d="M42.4092 13.7052C42.2259 13.542 42.0427 13.3788 41.8187 13.2157C41.5948 13.0321 41.3504 12.8689 41.0858 12.6854C40.8211 12.5222 40.536 12.3794 40.251 12.2774C39.9659 12.1754 39.6605 12.1143 39.3348 12.1143C38.8868 12.1143 38.4389 12.2162 38.0317 12.4202C37.6041 12.6242 37.2173 12.8893 36.8508 13.1953C36.4843 13.5012 36.1382 13.8479 35.8328 14.1947C35.5274 14.5414 35.2627 14.8678 35.0387 15.1737C34.8351 15.4796 34.6519 15.7244 34.5501 15.908V12.359H33.1045V25.8409H34.5501V17.3765C34.8351 16.887 35.1609 16.4179 35.507 15.9692C35.8531 15.5204 36.1993 15.1125 36.5861 14.7454C36.973 14.3782 37.3394 14.0927 37.7263 13.8887C38.1131 13.6848 38.5 13.5624 38.9072 13.5624C39.233 13.5624 39.5587 13.644 39.8845 13.8071C40.2103 13.9703 40.5157 14.1539 40.8007 14.3782C41.0858 14.6026 41.3504 14.827 41.5744 15.0309L42.4092 13.6848V13.7052Z" fill="#0668B2"/>
<path d="M54.87 18.6002C54.87 18.131 54.8293 17.6415 54.7478 17.152C54.6867 16.6625 54.5239 16.1526 54.2999 15.6223C54.137 15.2144 53.8927 14.8065 53.5873 14.3985C53.2819 13.9906 52.9154 13.6031 52.4675 13.2563C52.0195 12.9096 51.5105 12.6444 50.9201 12.4201C50.3296 12.2161 49.6577 12.1141 48.9044 12.0938C47.9271 12.0938 47.072 12.2773 46.2983 12.6648C45.5449 13.032 44.8934 13.5419 44.364 14.1742C43.8347 14.8269 43.4275 15.5407 43.1424 16.3566C42.8574 17.1724 42.7148 18.0291 42.7148 18.9265C42.7148 19.8239 42.7963 20.3542 42.9999 21.0477C43.1831 21.7412 43.4478 22.3939 43.8143 23.0058C44.1808 23.6176 44.6287 24.1479 45.1581 24.6171C45.7078 25.0862 46.3186 25.4533 47.0312 25.6981C47.7439 25.9632 48.5379 26.0856 49.4134 26.106C50.1667 26.106 50.8386 26.0244 51.4698 25.8612C52.101 25.6981 52.6711 25.4737 53.1801 25.2086C53.6891 24.9434 54.1777 24.6375 54.5849 24.3111V22.6998C54.3813 22.8834 54.1166 23.0873 53.8316 23.3117C53.5262 23.5361 53.1597 23.7808 52.7525 23.9848C52.3249 24.2091 51.8566 24.3927 51.3273 24.5355C50.7979 24.6782 50.2075 24.7598 49.5763 24.7598C49.0469 24.7598 48.5379 24.6782 48.0289 24.5355C47.5199 24.3723 47.0312 24.1479 46.563 23.8216C46.115 23.4953 45.7078 23.1077 45.3413 22.6182C44.9952 22.1287 44.7305 21.5576 44.5473 20.8845C44.364 20.2115 44.2826 19.4568 44.303 18.6002H54.8496H54.87ZM44.4658 17.458C44.588 16.7645 44.812 16.1526 45.1174 15.6427C45.4228 15.1328 45.7893 14.7045 46.1965 14.3781C46.6037 14.0518 47.0516 13.807 47.5199 13.6439C47.9882 13.4807 48.4361 13.3991 48.9044 13.3991C49.6577 13.3991 50.3296 13.5827 50.9404 13.909C51.5309 14.2558 52.0195 14.7045 52.3657 15.2756C52.6303 15.7039 52.8136 16.0914 52.9154 16.4382C53.0375 16.8053 53.119 17.1316 53.1597 17.4376H44.4658V17.458Z" fill="#0668B2"/>
<path d="M54.8701 8.64746H42.7354V10.0344H54.8701V8.64746Z" fill="#0668B2"/>
<path d="M112.429 6.28117C112.429 6.99504 111.859 7.56613 111.126 7.56613C110.393 7.56613 109.823 6.99504 109.823 6.28117C109.823 5.5673 110.393 5.0166 111.146 5.0166C111.9 5.0166 112.429 5.5673 112.429 6.28117ZM110.149 6.28117C110.149 6.85227 110.576 7.30098 111.146 7.30098C111.696 7.30098 112.103 6.85227 112.103 6.30157C112.103 5.75087 111.676 5.28175 111.126 5.28175C110.576 5.28175 110.149 5.73047 110.149 6.30157V6.28117ZM110.922 6.95425H110.637V5.68968C110.759 5.68968 110.922 5.64889 111.126 5.64889C111.329 5.64889 111.472 5.68968 111.553 5.75087C111.635 5.81206 111.676 5.89364 111.676 6.01602C111.676 6.1384 111.553 6.28117 111.411 6.32196C111.533 6.38315 111.594 6.48513 111.635 6.6483C111.676 6.83187 111.696 6.91345 111.737 6.95425H111.431C111.39 6.91345 111.37 6.79108 111.329 6.6483C111.309 6.52593 111.228 6.46474 111.065 6.46474H110.922V6.97464V6.95425ZM110.943 6.24038H111.085C111.248 6.24038 111.37 6.17919 111.37 6.05681C111.37 5.93443 111.289 5.87324 111.105 5.87324C110.922 5.87324 110.983 5.87324 110.943 5.87324V6.24038Z" fill="#0668B2"/>
</svg>
