<svg width="112" height="32" viewBox="0 0 112 32" fill="none" xmlns="http://www.w3.org/2000/svg">
<path d="M63.5039 7.01611H64.6034V10.3407H68.7569V7.01611H69.8563V15.093H68.7569V11.3197H64.6034V15.093H63.5039V7.01611Z" fill="#0668B2"/>
<path d="M72.3809 7.01611H78.2243V7.99513H73.4396V10.4631H77.8578V11.3809H73.4396V14.1344H78.3057V15.093H72.3809V7.01611Z" fill="#0668B2"/>
<path d="M82.7852 7.01611H84.0068L86.9387 15.093H85.7374L84.9026 12.6659H81.7468L80.8713 15.093H79.7515L82.7852 7.01611ZM84.5972 11.7888L83.3553 8.21949L82.0725 11.7888H84.5972Z" fill="#0668B2"/>
<path d="M88.6079 7.01611H89.7074V14.1344H93.7387V15.093H88.6079V7.01611Z" fill="#0668B2"/>
<path d="M100.56 7.01611V7.97474H97.8517V15.093H96.7522V7.97474H94.0239V7.01611H100.56Z" fill="#0668B2"/>
<path d="M102.27 7.01611H103.369V10.3407H107.523V7.01611H108.622V15.093H107.523V11.3197H103.369V15.093H102.27V7.01611Z" fill="#0668B2"/>
<path d="M64.2165 18.9888H63.5039V24.1898H64.2165V18.9888Z" fill="#3B68AB"/>
<path d="M65.8047 18.9888H66.6395L69.2252 23.2108V18.9888H69.8971V24.2102H69.1031L66.4766 19.9882V24.2102H65.8047V18.9888Z" fill="#0668B2"/>
<path d="M71.933 22.5174C71.933 22.803 72.0144 23.0477 72.1366 23.2313C72.3605 23.578 72.7677 23.7412 73.3175 23.7412C73.8672 23.7412 73.8061 23.7004 74.0097 23.6392C74.4169 23.4964 74.6205 23.2313 74.6205 22.8437C74.6205 22.4562 74.5391 22.3542 74.3559 22.2319C74.1726 22.1095 73.9079 22.0075 73.5414 21.9259L72.8696 21.7627C72.4216 21.6608 72.1162 21.5384 71.933 21.416C71.6072 21.1917 71.4443 20.8653 71.4443 20.437C71.4443 20.0087 71.6072 19.5803 71.9126 19.2744C72.2384 18.9685 72.6659 18.8257 73.2564 18.8257C73.8468 18.8257 74.2337 18.9481 74.6002 19.2132C74.9667 19.4784 75.1499 19.8863 75.1499 20.4778H74.478C74.4373 20.1922 74.3762 19.9883 74.2541 19.8455C74.0504 19.5803 73.7043 19.4376 73.1953 19.4376C72.6863 19.4376 72.5031 19.5192 72.3402 19.7027C72.1569 19.8659 72.0755 20.0903 72.0755 20.3146C72.0755 20.539 72.1773 20.7633 72.3809 20.8857C72.5234 20.9673 72.8288 21.0489 73.2971 21.1713L74.0097 21.3344C74.3559 21.416 74.6205 21.518 74.8038 21.6608C75.1296 21.9055 75.2924 22.2523 75.2924 22.7214C75.2924 23.1905 75.0888 23.7208 74.6816 23.9655C74.2744 24.2103 73.8061 24.3327 73.2564 24.3327C72.7067 24.3327 72.1366 24.1695 71.7701 23.8432C71.4036 23.5168 71.2407 23.0681 71.2407 22.497H71.9126L71.933 22.5174Z" fill="#0668B2"/>
<path d="M77.5116 18.9888V22.2114C77.5116 22.5989 77.593 22.9049 77.7356 23.1496C77.9392 23.5371 78.3056 23.7207 78.8146 23.7207C79.3237 23.7207 79.8327 23.5167 80.0363 23.1088C80.1584 22.8845 80.2195 22.5785 80.2195 22.2114V18.9888H80.9321V21.9054C80.9321 22.5377 80.8507 23.0476 80.6674 23.3944C80.3417 24.0266 79.7512 24.3326 78.8757 24.3326C78.0002 24.3326 77.3894 24.0266 77.084 23.3944C76.9008 23.0476 76.8193 22.5581 76.8193 21.9054V18.9888H77.5319H77.5116Z" fill="#0668B2"/>
<path d="M82.5002 18.9891H84.862C85.2488 18.9891 85.5746 19.0503 85.8189 19.1523C86.3076 19.3767 86.5315 19.7846 86.5315 20.3761C86.5315 20.9676 86.4705 20.9472 86.3279 21.1512C86.2058 21.3551 86.0225 21.5183 85.7782 21.6203C85.9818 21.7019 86.1243 21.8038 86.2465 21.9466C86.3483 22.0894 86.4094 22.2933 86.4094 22.5993V23.2928C86.4501 23.4967 86.4501 23.6395 86.4908 23.7415C86.5315 23.9046 86.613 24.0066 86.7148 24.0678V24.1902H85.8596C85.8393 24.1494 85.8189 24.0882 85.7986 24.0066C85.7986 23.925 85.7782 23.8027 85.7578 23.5987L85.7171 22.7217C85.7171 22.3749 85.5746 22.1506 85.3506 22.0282C85.2285 21.967 85.0045 21.9262 84.7398 21.9262H83.1721V24.1698H82.4595V18.9688L82.5002 18.9891ZM84.8009 21.3755C85.1267 21.3755 85.371 21.3143 85.5542 21.1715C85.7375 21.0288 85.8393 20.8044 85.8393 20.4577C85.8393 20.1109 85.7171 19.8254 85.4524 19.703C85.3099 19.6214 85.1267 19.601 84.8824 19.601H83.2128V21.3755H84.8009Z" fill="#0668B2"/>
<path d="M89.6263 18.9888H90.4204L92.3139 24.1898H91.5402L90.9905 22.6193H88.9544L88.3843 24.1898H87.6514L89.606 18.9888H89.6263ZM90.7869 22.0686L89.9928 19.7638L89.158 22.0686H90.7869Z" fill="#0668B2"/>
<path d="M93.3726 18.9888H94.2073L96.7931 23.2108V18.9888H97.465V24.2102H96.6709L94.0445 19.9882V24.2102H93.3726V18.9888Z" fill="#0668B2"/>
<path d="M102.738 19.3767C103.105 19.7235 103.288 20.111 103.329 20.5597H102.636C102.555 20.213 102.413 19.9478 102.189 19.7642C101.965 19.5603 101.639 19.4787 101.232 19.4787C100.824 19.4787 100.315 19.6623 100.01 20.0294C99.7046 20.3965 99.5417 20.9472 99.5417 21.6815C99.5417 22.4158 99.6842 22.7829 99.9693 23.1704C100.254 23.558 100.662 23.7415 101.211 23.7415C101.761 23.7415 102.107 23.5376 102.372 23.15C102.514 22.9461 102.616 22.6605 102.698 22.3138H103.39C103.329 22.8645 103.125 23.3336 102.779 23.7007C102.372 24.1494 101.822 24.3738 101.13 24.3738C100.438 24.3738 100.03 24.1902 99.6232 23.8231C99.0938 23.3336 98.8291 22.5789 98.8291 21.5795C98.8291 20.5801 99.0327 20.1926 99.4399 19.6827C99.8675 19.1524 100.478 18.8872 101.232 18.8872C101.985 18.8872 102.392 19.0504 102.759 19.4175" fill="#0668B2"/>
<path d="M104.794 18.9888H108.561V19.6211H105.466V21.212H108.337V21.8239H105.466V23.5779H108.622V24.2102H104.794V18.9888Z" fill="#0668B2"/>
<path d="M61.2643 0H0V31.5122H61.2643V0Z" fill="#FBDF00"/>
<path d="M17.1023 11.1566C16.8173 11.0546 16.5119 10.973 16.1454 10.871C15.7992 10.7691 15.392 10.6875 14.9645 10.6059C14.5165 10.5243 14.0279 10.5039 13.5189 10.5039C12.8877 10.5039 12.2362 10.6059 11.6254 10.7895C10.9942 10.973 10.4241 11.2586 9.85402 11.6257C9.30429 12.0132 8.81564 12.4823 8.38807 13.0534C7.9605 13.6245 7.63474 14.2976 7.39041 15.0727C7.14609 15.8477 7.02393 16.7248 7.02393 17.7038C7.02393 18.744 7.16645 19.6414 7.45149 20.3961C7.73654 21.1712 8.10302 21.8034 8.57131 22.3337C9.0396 22.864 9.54861 23.2924 10.1187 23.5983C10.6888 23.9247 11.2589 24.149 11.8493 24.2918C12.4398 24.4346 12.9895 24.4957 13.5392 24.4957C14.089 24.4957 14.6183 24.455 15.0663 24.3938C15.5346 24.3122 15.9621 24.2306 16.349 24.1286C16.7358 24.0266 17.0616 23.9247 17.367 23.8227V22.3133C17.0819 22.4357 16.7765 22.5581 16.4304 22.7009C16.0843 22.8233 15.6771 22.9456 15.2292 23.0272C14.7812 23.1088 14.2926 23.17 13.7428 23.17C12.8063 23.17 12.0326 23.0068 11.3607 22.6805C10.7092 22.3745 10.1594 21.9462 9.75221 21.4159C9.34501 20.8856 9.0396 20.2737 8.836 19.621C8.63239 18.948 8.55095 18.2749 8.55095 17.561C8.55095 16.8471 8.65275 16.1741 8.85636 15.4806C9.05996 14.8075 9.36537 14.1956 9.77257 13.6653C10.1798 13.1146 10.7092 12.6863 11.3403 12.36C11.9715 12.0336 12.7248 11.8705 13.58 11.8501C14.089 11.8501 14.5573 11.8909 14.9645 11.9928C15.3717 12.0744 15.7585 12.1968 16.125 12.3396C16.4711 12.4823 16.8173 12.6047 17.1227 12.7679V11.177L17.1023 11.1566Z" fill="#0668B2"/>
<path d="M30.479 21.9056C30.3772 21.9872 30.2347 22.1096 30.0718 22.232C29.909 22.3748 29.7257 22.4971 29.5221 22.6399C29.3185 22.7623 29.1353 22.8847 28.952 22.9866C28.7688 23.0886 28.6466 23.1294 28.5244 23.1294C28.443 23.1294 28.3616 23.109 28.3412 23.0886C28.3005 23.0478 28.2801 23.0274 28.2598 22.9866C28.2598 22.9459 28.2598 22.8643 28.2394 22.7215C28.2394 22.5787 28.2394 22.4156 28.2394 22.2524V14.8893C28.2394 14.3794 28.2394 13.9307 28.1987 13.584C28.158 13.2168 28.0969 12.8905 27.9747 12.6049C27.8526 12.3194 27.6693 12.0338 27.4046 11.7483C27.1399 11.4628 26.8142 11.218 26.4273 11.0548C26.0405 10.8713 25.6333 10.7489 25.2261 10.6673C24.7985 10.5857 24.4117 10.5449 24.0248 10.5449C23.5158 10.5449 23.0475 10.6061 22.6199 10.7081C22.1924 10.8101 21.7852 10.9325 21.4187 11.0956C21.0522 11.2588 20.7264 11.4016 20.4414 11.5647C20.1563 11.7279 19.912 11.8707 19.7084 11.9931V13.4616C20.1971 13.1149 20.645 12.8293 21.0726 12.5845C21.5001 12.3398 21.9277 12.1562 22.3756 12.0338C22.8235 11.9115 23.3122 11.8503 23.8416 11.8503C24.5745 11.8503 25.165 11.9727 25.6129 12.197C26.0405 12.4214 26.3663 12.7477 26.5495 13.1352C26.7327 13.5432 26.8142 13.9919 26.8142 14.5222V16.2355C26.5088 16.2355 26.0812 16.2763 25.5926 16.3171C25.1039 16.3783 24.5542 16.4598 23.9637 16.5822C23.3733 16.7046 22.7828 16.8678 22.1924 17.0921C21.6019 17.3165 21.0726 17.602 20.5839 17.9692C20.0953 18.3363 19.7084 18.7646 19.403 19.2949C19.0976 19.8252 18.9551 20.4575 18.9551 21.1918C18.9551 21.6813 19.0569 22.13 19.2401 22.5379C19.4437 22.9459 19.6881 23.313 20.0342 23.6189C20.3599 23.9249 20.7468 24.1696 21.1947 24.3328C21.6223 24.496 22.0906 24.5776 22.5996 24.598C23.129 24.598 23.5972 24.5368 24.0248 24.4144C24.4727 24.292 24.8596 24.1492 25.2261 23.9657C25.5722 23.7821 25.898 23.5985 26.1626 23.415C26.4273 23.2314 26.6513 23.0682 26.8142 22.9255C26.8345 23.2722 26.8753 23.5577 26.916 23.8229C26.9567 24.0676 27.0585 24.2716 27.1807 24.394C27.3028 24.5368 27.5064 24.598 27.7915 24.598C28.0969 24.598 28.4634 24.4756 28.8909 24.2308C29.3185 23.9861 29.8682 23.6393 30.479 23.1906V21.9872V21.9056ZM26.7938 21.5589C26.5902 21.7425 26.3662 21.926 26.1219 22.1504C25.8572 22.3544 25.5722 22.5379 25.2668 22.7215C24.9614 22.9051 24.6153 23.0478 24.2488 23.1702C23.8823 23.2926 23.4751 23.3334 23.0475 23.3334C22.7828 23.3334 22.4978 23.2926 22.1924 23.211C21.887 23.1294 21.6019 23.007 21.3169 22.8235C21.0522 22.6399 20.8282 22.4156 20.645 22.13C20.4617 21.8445 20.3803 21.4977 20.3803 21.1102C20.3803 20.7023 20.4617 20.3351 20.6246 20.0088C20.7875 19.6825 20.9911 19.3765 21.2558 19.1114C21.5205 18.8462 21.8055 18.6014 22.1313 18.4179C22.4571 18.2139 22.7828 18.0507 23.129 17.908C23.5565 17.7448 24.0044 17.6224 24.4524 17.5408C24.9207 17.4593 25.3482 17.4185 25.7554 17.3777C26.1626 17.3573 26.5291 17.3369 26.8142 17.3369V21.5589H26.7938Z" fill="#0668B2"/>
<path d="M41.7588 12.0748C41.5755 11.9116 41.3923 11.7485 41.1683 11.5853C40.9444 11.4017 40.7 11.2385 40.4354 11.055C40.1707 10.8918 39.8856 10.749 39.6006 10.6471C39.3155 10.5451 39.0101 10.4839 38.6844 10.4839C38.2364 10.4839 37.7885 10.5859 37.3813 10.7898C36.9537 10.9938 36.5669 11.2589 36.2004 11.5649C35.8339 11.8708 35.4878 12.2176 35.1824 12.5643C34.877 12.911 34.6123 13.2374 34.3883 13.5433C34.1847 13.8493 34.0015 14.094 33.8997 14.2776V10.7286H32.4541V24.2106H33.8997V15.7461C34.1847 15.2566 34.5105 14.7875 34.8566 14.3388C35.2027 13.8901 35.5489 13.4821 35.9357 13.115C36.3226 12.7479 36.6891 12.4623 37.0759 12.2584C37.4627 12.0544 37.8496 11.932 38.2568 11.932C38.5826 11.932 38.9083 12.0136 39.2341 12.1768C39.5599 12.3399 39.8653 12.5235 40.1503 12.7479C40.4354 12.9722 40.7 13.1966 40.924 13.4006L41.7588 12.0544V12.0748Z" fill="#0668B2"/>
<path d="M54.2196 16.9698C54.2196 16.5007 54.1789 16.0112 54.0974 15.5217C54.0363 15.0321 53.8735 14.5222 53.6495 13.9919C53.4866 13.584 53.2423 13.1761 52.9369 12.7682C52.6315 12.3602 52.265 11.9727 51.8171 11.626C51.3691 11.2792 50.8601 11.0141 50.2697 10.7897C49.6792 10.5858 49.0073 10.4838 48.254 10.4634C47.2767 10.4634 46.4216 10.6469 45.6479 11.0345C44.8945 11.4016 44.243 11.9115 43.7136 12.5438C43.1843 13.1965 42.7771 13.9103 42.492 14.7262C42.207 15.542 42.0645 16.3987 42.0645 17.2961C42.0645 18.1936 42.1459 18.7239 42.3495 19.4173C42.5327 20.1108 42.7974 20.7635 43.1639 21.3754C43.5304 21.9873 43.9783 22.5176 44.5077 22.9867C45.0574 23.4558 45.6682 23.8229 46.3808 24.0677C47.0935 24.3328 47.8875 24.4552 48.763 24.4756C49.5163 24.4756 50.1882 24.394 50.8194 24.2309C51.4506 24.0677 52.0207 23.8433 52.5297 23.5782C53.0387 23.313 53.5273 23.0071 53.9345 22.6807V21.0694C53.7309 21.253 53.4663 21.457 53.1812 21.6813C52.8758 21.9057 52.5093 22.1504 52.1021 22.3544C51.6745 22.5788 51.2063 22.7623 50.6769 22.9051C50.1475 23.0479 49.5571 23.1295 48.9259 23.1295C48.3965 23.1295 47.8875 23.0479 47.3785 22.9051C46.8695 22.7419 46.3808 22.5176 45.9126 22.1912C45.4646 21.8649 45.0574 21.4774 44.6909 20.9879C44.3448 20.4983 44.0801 19.9272 43.8969 19.2542C43.7136 18.5811 43.6322 17.8264 43.6526 16.9698H54.1992H54.2196ZM43.8154 15.8276C43.9376 15.1341 44.1616 14.5222 44.467 14.0123C44.7724 13.5024 45.1389 13.0741 45.5461 12.7478C45.9533 12.4214 46.4012 12.1767 46.8695 12.0135C47.3378 11.8503 47.7857 11.7687 48.254 11.7687C49.0073 11.7687 49.6792 11.9523 50.29 12.2786C50.8805 12.6254 51.3691 13.0741 51.7153 13.6452C51.9799 14.0735 52.1632 14.461 52.265 14.8078C52.3872 15.1749 52.4686 15.5013 52.5093 15.8072H43.8154V15.8276Z" fill="#0668B2"/>
<path d="M54.2197 7.01611H42.085V8.40306H54.2197V7.01611Z" fill="#0668B2"/>
<path d="M111.778 4.6508C111.778 5.36467 111.208 5.93576 110.475 5.93576C109.742 5.93576 109.172 5.36467 109.172 4.6508C109.172 3.93693 109.742 3.38623 110.496 3.38623C111.249 3.38623 111.778 3.93693 111.778 4.6508ZM109.498 4.6508C109.498 5.22189 109.926 5.67061 110.496 5.67061C111.046 5.67061 111.453 5.22189 111.453 4.6712C111.453 4.1205 111.025 3.65138 110.475 3.65138C109.926 3.65138 109.498 4.1001 109.498 4.6712V4.6508ZM110.272 5.32388H109.987V4.05931C110.109 4.05931 110.272 4.01851 110.475 4.01851C110.679 4.01851 110.822 4.05931 110.903 4.1205C110.984 4.18169 111.025 4.26327 111.025 4.38565C111.025 4.50803 110.903 4.6508 110.76 4.69159C110.883 4.75278 110.944 4.85476 110.984 5.01793C111.025 5.2015 111.046 5.28308 111.086 5.32388H110.781C110.74 5.28308 110.72 5.16071 110.679 5.01793C110.659 4.89555 110.577 4.83437 110.414 4.83437H110.272V5.34427V5.32388ZM110.292 4.61001H110.435C110.598 4.61001 110.72 4.54882 110.72 4.42644C110.72 4.30406 110.638 4.24287 110.455 4.24287C110.272 4.24287 110.333 4.24287 110.292 4.24287V4.61001Z" fill="#0668B2"/>
</svg>
