<svg width="48" height="48" viewBox="0 0 48 48" fill="none" xmlns="http://www.w3.org/2000/svg">
<rect width="48" height="48" rx="24" fill="#008000" fill-opacity="0.59"/>
<path d="M11.4901 16.6436C10.6188 15.4818 10.9092 13.7392 12.3614 13.1583C13.8136 12.5774 14.6849 13.7392 14.9754 14.3201C15.2658 13.7392 16.4275 12.5774 17.8797 13.1583C19.3319 13.7392 19.3319 15.4818 18.4606 16.6436C17.5893 17.8053 14.9754 20.1288 14.9754 20.1288C14.9754 20.1288 12.3614 17.8053 11.4901 16.6436Z" stroke="white" stroke-width="1.5" stroke-linecap="round" stroke-linejoin="round"/>
<path d="M26.9286 30.0334C25.6875 28.3787 26.1012 25.8966 28.1696 25.0692C30.238 24.2419 31.4791 25.8966 31.8927 26.724C32.3064 25.8966 33.9611 24.2419 36.0295 25.0692C38.098 25.8966 38.098 28.3787 36.8569 30.0334C35.6159 31.6881 31.8927 34.9976 31.8927 34.9976C31.8927 34.9976 28.1696 31.6881 26.9286 30.0334Z" stroke="white" stroke-width="1.5" stroke-linecap="round" stroke-linejoin="round"/>
<path d="M21.1562 14.6914H31.8486C32.9531 14.6914 33.8486 15.5868 33.8486 16.6914V22.5" stroke="white" stroke-width="1.5"/>
<path fill-rule="evenodd" clip-rule="evenodd" d="M33.851 23.3268L36.3894 21.0642L35.9238 20.6484L33.851 22.4965L31.7788 20.6484L31.3125 21.0642L33.851 23.3268Z" fill="white"/>
<path d="M24.5391 29.5469H17.2314C16.1268 29.5469 15.2314 28.6514 15.2314 27.5469L15.2314 22.8817" stroke="white" stroke-width="1.5"/>
<path fill-rule="evenodd" clip-rule="evenodd" d="M15.2311 22.1615L12.6926 24.4241L13.1583 24.8398L15.2311 22.9918L17.3032 24.8398L17.7695 24.4241L15.2311 22.1615Z" fill="white"/>
</svg>
