<svg width="173" height="22" viewBox="0 0 173 22" fill="none" xmlns="http://www.w3.org/2000/svg">
<path d="M8 0H165V12C165 17.5228 160.523 22 155 22H18C12.4771 22 8 17.5228 8 12V0Z" fill="#AEB4BE"/>
<path d="M38.5336 15.13C37.5802 15.13 36.7612 14.9393 36.0766 14.558C35.4006 14.168 34.8806 13.622 34.5166 12.92C34.1526 12.2093 33.9706 11.373 33.9706 10.411C33.9706 9.69167 34.0746 9.046 34.2826 8.474C34.4906 7.89333 34.7896 7.39933 35.1796 6.992C35.5696 6.576 36.0462 6.25967 36.6096 6.043C37.1816 5.81767 37.8229 5.705 38.5336 5.705C39.0102 5.705 39.4782 5.76567 39.9376 5.887C40.3969 6.00833 40.7999 6.18167 41.1466 6.407C41.3286 6.51967 41.4499 6.65833 41.5106 6.823C41.5712 6.979 41.5842 7.135 41.5496 7.291C41.5149 7.43833 41.4412 7.564 41.3286 7.668C41.2246 7.772 41.0902 7.83267 40.9256 7.85C40.7696 7.85867 40.5962 7.80233 40.4056 7.681C40.1369 7.50767 39.8466 7.382 39.5346 7.304C39.2226 7.226 38.9062 7.187 38.5856 7.187C37.9702 7.187 37.4502 7.31267 37.0256 7.564C36.6009 7.81533 36.2802 8.17933 36.0636 8.656C35.8469 9.13267 35.7386 9.71767 35.7386 10.411C35.7386 11.0957 35.8469 11.6807 36.0636 12.166C36.2802 12.6513 36.6009 13.0197 37.0256 13.271C37.4502 13.5223 37.9702 13.648 38.5856 13.648C38.9149 13.648 39.2399 13.609 39.5606 13.531C39.8812 13.4443 40.1846 13.3143 40.4706 13.141C40.6612 13.0283 40.8302 12.9807 40.9776 12.998C41.1336 13.0067 41.2636 13.0587 41.3676 13.154C41.4716 13.2493 41.5409 13.3707 41.5756 13.518C41.6102 13.6567 41.6016 13.804 41.5496 13.96C41.4976 14.1073 41.3936 14.2373 41.2376 14.35C40.8909 14.6013 40.4749 14.7963 39.9896 14.935C39.5129 15.065 39.0276 15.13 38.5336 15.13ZM43.7555 15.104C43.4955 15.104 43.2962 15.0347 43.1575 14.896C43.0188 14.7487 42.9495 14.5407 42.9495 14.272V6.55C42.9495 6.28133 43.0188 6.07767 43.1575 5.939C43.2962 5.80033 43.4955 5.731 43.7555 5.731C44.0155 5.731 44.2148 5.80033 44.3535 5.939C44.5008 6.07767 44.5745 6.28133 44.5745 6.55V9.917H44.3925C44.5832 9.45767 44.8778 9.111 45.2765 8.877C45.6838 8.63433 46.1432 8.513 46.6545 8.513C47.1658 8.513 47.5862 8.60833 47.9155 8.799C48.2448 8.98967 48.4918 9.28 48.6565 9.67C48.8212 10.0513 48.9035 10.5367 48.9035 11.126V14.272C48.9035 14.5407 48.8342 14.7487 48.6955 14.896C48.5568 15.0347 48.3575 15.104 48.0975 15.104C47.8375 15.104 47.6338 15.0347 47.4865 14.896C47.3478 14.7487 47.2785 14.5407 47.2785 14.272V11.204C47.2785 10.71 47.1832 10.3503 46.9925 10.125C46.8105 9.89967 46.5245 9.787 46.1345 9.787C45.6578 9.787 45.2765 9.93867 44.9905 10.242C44.7132 10.5367 44.5745 10.931 44.5745 11.425V14.272C44.5745 14.8267 44.3015 15.104 43.7555 15.104ZM53.687 15.13C52.9677 15.13 52.348 14.9957 51.828 14.727C51.308 14.4583 50.905 14.077 50.619 13.583C50.3417 13.089 50.203 12.504 50.203 11.828C50.203 11.1693 50.3373 10.593 50.606 10.099C50.8833 9.605 51.2603 9.21933 51.737 8.942C52.2223 8.656 52.7727 8.513 53.388 8.513C53.8387 8.513 54.2417 8.58667 54.597 8.734C54.961 8.88133 55.2687 9.09367 55.52 9.371C55.78 9.64833 55.975 9.98633 56.105 10.385C56.2437 10.775 56.313 11.217 56.313 11.711C56.313 11.867 56.2567 11.9883 56.144 12.075C56.04 12.153 55.8883 12.192 55.689 12.192H51.516V11.256H55.169L54.961 11.451C54.961 11.0523 54.9003 10.7187 54.779 10.45C54.6663 10.1813 54.4973 9.97767 54.272 9.839C54.0553 9.69167 53.7823 9.618 53.453 9.618C53.089 9.618 52.777 9.70467 52.517 9.878C52.2657 10.0427 52.0707 10.281 51.932 10.593C51.802 10.8963 51.737 11.2603 51.737 11.685V11.776C51.737 12.4867 51.9017 13.0197 52.231 13.375C52.569 13.7217 53.063 13.895 53.713 13.895C53.9383 13.895 54.1897 13.869 54.467 13.817C54.753 13.7563 55.0217 13.6567 55.273 13.518C55.455 13.414 55.6153 13.3707 55.754 13.388C55.8927 13.3967 56.001 13.4443 56.079 13.531C56.1657 13.6177 56.2177 13.726 56.235 13.856C56.2523 13.9773 56.2263 14.103 56.157 14.233C56.0963 14.363 55.988 14.4757 55.832 14.571C55.5287 14.7617 55.1777 14.9047 54.779 15C54.389 15.0867 54.025 15.13 53.687 15.13ZM62.8909 17.444C62.6309 17.444 62.4315 17.3747 62.2929 17.236C62.1542 17.0973 62.0849 16.8937 62.0849 16.625V13.7H62.2279C62.0892 14.1247 61.8205 14.4713 61.4219 14.74C61.0319 15 60.5725 15.13 60.0439 15.13C59.4892 15.13 58.9995 14.9957 58.5749 14.727C58.1589 14.4583 57.8339 14.077 57.5999 13.583C57.3659 13.0803 57.2489 12.491 57.2489 11.815C57.2489 11.1303 57.3659 10.5453 57.5999 10.06C57.8339 9.566 58.1589 9.18467 58.5749 8.916C58.9995 8.64733 59.4892 8.513 60.0439 8.513C60.5812 8.513 61.0492 8.64733 61.4479 8.916C61.8465 9.18467 62.1109 9.54 62.2409 9.982L62.0979 10.372V9.358C62.0979 9.08933 62.1672 8.88567 62.3059 8.747C62.4445 8.60833 62.6439 8.539 62.9039 8.539C63.1639 8.539 63.3632 8.60833 63.5019 8.747C63.6405 8.88567 63.7099 9.08933 63.7099 9.358V16.625C63.7099 16.8937 63.6362 17.0973 63.4889 17.236C63.3502 17.3747 63.1509 17.444 62.8909 17.444ZM60.4989 13.895C60.8195 13.895 61.1012 13.817 61.3439 13.661C61.5865 13.505 61.7729 13.2753 61.9029 12.972C62.0415 12.66 62.1109 12.2743 62.1109 11.815C62.1109 11.1217 61.9635 10.606 61.6689 10.268C61.3742 9.92133 60.9842 9.748 60.4989 9.748C60.1782 9.748 59.8965 9.826 59.6539 9.982C59.4112 10.1293 59.2205 10.359 59.0819 10.671C58.9519 10.9743 58.8869 11.3557 58.8869 11.815C58.8869 12.4997 59.0342 13.0197 59.3289 13.375C59.6235 13.7217 60.0135 13.895 60.4989 13.895ZM67.6958 15.13C67.1671 15.13 66.7295 15.0347 66.3828 14.844C66.0361 14.6447 65.7761 14.35 65.6028 13.96C65.4381 13.57 65.3558 13.0847 65.3558 12.504V9.358C65.3558 9.08067 65.4251 8.877 65.5638 8.747C65.7025 8.60833 65.9018 8.539 66.1618 8.539C66.4218 8.539 66.6211 8.60833 66.7598 8.747C66.9071 8.877 66.9808 9.08067 66.9808 9.358V12.53C66.9808 12.9807 67.0718 13.3143 67.2538 13.531C67.4358 13.7477 67.7261 13.856 68.1248 13.856C68.5581 13.856 68.9135 13.7087 69.1908 13.414C69.4681 13.1107 69.6068 12.712 69.6068 12.218V9.358C69.6068 9.08067 69.6761 8.877 69.8148 8.747C69.9535 8.60833 70.1528 8.539 70.4128 8.539C70.6728 8.539 70.8721 8.60833 71.0108 8.747C71.1581 8.877 71.2318 9.08067 71.2318 9.358V14.272C71.2318 14.8267 70.9675 15.104 70.4388 15.104C70.1875 15.104 69.9925 15.0347 69.8538 14.896C69.7151 14.7487 69.6458 14.5407 69.6458 14.272V13.284L69.8278 13.674C69.6458 14.142 69.3685 14.5017 68.9958 14.753C68.6318 15.0043 68.1985 15.13 67.6958 15.13ZM76.0561 15.13C75.3368 15.13 74.7171 14.9957 74.1971 14.727C73.6771 14.4583 73.2741 14.077 72.9881 13.583C72.7108 13.089 72.5721 12.504 72.5721 11.828C72.5721 11.1693 72.7065 10.593 72.9751 10.099C73.2525 9.605 73.6295 9.21933 74.1061 8.942C74.5915 8.656 75.1418 8.513 75.7571 8.513C76.2078 8.513 76.6108 8.58667 76.9661 8.734C77.3301 8.88133 77.6378 9.09367 77.8891 9.371C78.1491 9.64833 78.3441 9.98633 78.4741 10.385C78.6128 10.775 78.6821 11.217 78.6821 11.711C78.6821 11.867 78.6258 11.9883 78.5131 12.075C78.4091 12.153 78.2575 12.192 78.0581 12.192H73.8851V11.256H77.5381L77.3301 11.451C77.3301 11.0523 77.2695 10.7187 77.1481 10.45C77.0355 10.1813 76.8665 9.97767 76.6411 9.839C76.4245 9.69167 76.1515 9.618 75.8221 9.618C75.4581 9.618 75.1461 9.70467 74.8861 9.878C74.6348 10.0427 74.4398 10.281 74.3011 10.593C74.1711 10.8963 74.1061 11.2603 74.1061 11.685V11.776C74.1061 12.4867 74.2708 13.0197 74.6001 13.375C74.9381 13.7217 75.4321 13.895 76.0821 13.895C76.3075 13.895 76.5588 13.869 76.8361 13.817C77.1221 13.7563 77.3908 13.6567 77.6421 13.518C77.8241 13.414 77.9845 13.3707 78.1231 13.388C78.2618 13.3967 78.3701 13.4443 78.4481 13.531C78.5348 13.6177 78.5868 13.726 78.6041 13.856C78.6215 13.9773 78.5955 14.103 78.5261 14.233C78.4655 14.363 78.3571 14.4757 78.2011 14.571C77.8978 14.7617 77.5468 14.9047 77.1481 15C76.7581 15.0867 76.3941 15.13 76.0561 15.13ZM87.9183 15.13C86.965 15.13 86.146 14.9393 85.4613 14.558C84.7853 14.168 84.2653 13.622 83.9013 12.92C83.5373 12.2093 83.3553 11.373 83.3553 10.411C83.3553 9.69167 83.4593 9.046 83.6673 8.474C83.8753 7.89333 84.1743 7.39933 84.5643 6.992C84.9543 6.576 85.431 6.25967 85.9943 6.043C86.5663 5.81767 87.2077 5.705 87.9183 5.705C88.395 5.705 88.863 5.76567 89.3223 5.887C89.7817 6.00833 90.1847 6.18167 90.5313 6.407C90.7133 6.51967 90.8347 6.65833 90.8953 6.823C90.956 6.979 90.969 7.135 90.9343 7.291C90.8997 7.43833 90.826 7.564 90.7133 7.668C90.6093 7.772 90.475 7.83267 90.3103 7.85C90.1543 7.85867 89.981 7.80233 89.7903 7.681C89.5217 7.50767 89.2313 7.382 88.9193 7.304C88.6073 7.226 88.291 7.187 87.9703 7.187C87.355 7.187 86.835 7.31267 86.4103 7.564C85.9857 7.81533 85.665 8.17933 85.4483 8.656C85.2317 9.13267 85.1233 9.71767 85.1233 10.411C85.1233 11.0957 85.2317 11.6807 85.4483 12.166C85.665 12.6513 85.9857 13.0197 86.4103 13.271C86.835 13.5223 87.355 13.648 87.9703 13.648C88.2997 13.648 88.6247 13.609 88.9453 13.531C89.266 13.4443 89.5693 13.3143 89.8553 13.141C90.046 13.0283 90.215 12.9807 90.3623 12.998C90.5183 13.0067 90.6483 13.0587 90.7523 13.154C90.8563 13.2493 90.9257 13.3707 90.9603 13.518C90.995 13.6567 90.9863 13.804 90.9343 13.96C90.8823 14.1073 90.7783 14.2373 90.6223 14.35C90.2757 14.6013 89.8597 14.7963 89.3743 14.935C88.8977 15.065 88.4123 15.13 87.9183 15.13ZM94.7762 15.13C94.1176 15.13 93.5456 14.9957 93.0602 14.727C92.5749 14.4583 92.1979 14.077 91.9292 13.583C91.6606 13.0803 91.5262 12.491 91.5262 11.815C91.5262 11.3037 91.5999 10.8487 91.7472 10.45C91.9032 10.0427 92.1242 9.696 92.4102 9.41C92.6962 9.11533 93.0386 8.89433 93.4372 8.747C93.8359 8.591 94.2822 8.513 94.7762 8.513C95.4349 8.513 96.0069 8.64733 96.4922 8.916C96.9776 9.18467 97.3546 9.566 97.6232 10.06C97.8919 10.554 98.0262 11.139 98.0262 11.815C98.0262 12.3263 97.9482 12.7857 97.7922 13.193C97.6449 13.6003 97.4282 13.9513 97.1422 14.246C96.8562 14.532 96.5139 14.753 96.1152 14.909C95.7166 15.0563 95.2702 15.13 94.7762 15.13ZM94.7762 13.895C95.0969 13.895 95.3786 13.817 95.6212 13.661C95.8639 13.505 96.0502 13.2753 96.1802 12.972C96.3189 12.66 96.3882 12.2743 96.3882 11.815C96.3882 11.1217 96.2409 10.606 95.9462 10.268C95.6516 9.92133 95.2616 9.748 94.7762 9.748C94.4556 9.748 94.1739 9.826 93.9312 9.982C93.6886 10.1293 93.4979 10.359 93.3592 10.671C93.2292 10.9743 93.1642 11.3557 93.1642 11.815C93.1642 12.4997 93.3116 13.0197 93.6062 13.375C93.9009 13.7217 94.2909 13.895 94.7762 13.895ZM101.538 15.13C100.819 15.13 100.277 14.9263 99.9135 14.519C99.5495 14.103 99.3675 13.4963 99.3675 12.699V6.55C99.3675 6.28133 99.4368 6.07767 99.5755 5.939C99.7141 5.80033 99.9135 5.731 100.173 5.731C100.433 5.731 100.633 5.80033 100.771 5.939C100.919 6.07767 100.992 6.28133 100.992 6.55V12.621C100.992 13.0197 101.075 13.3143 101.239 13.505C101.413 13.6957 101.655 13.791 101.967 13.791C102.037 13.791 102.102 13.791 102.162 13.791C102.223 13.7823 102.284 13.7737 102.344 13.765C102.466 13.7477 102.548 13.7823 102.591 13.869C102.635 13.947 102.656 14.1117 102.656 14.363C102.656 14.5797 102.613 14.7487 102.526 14.87C102.44 14.9913 102.297 15.065 102.097 15.091C102.011 15.0997 101.92 15.1083 101.824 15.117C101.729 15.1257 101.634 15.13 101.538 15.13ZM105.69 15.13C104.97 15.13 104.429 14.9263 104.065 14.519C103.701 14.103 103.519 13.4963 103.519 12.699V6.55C103.519 6.28133 103.588 6.07767 103.727 5.939C103.865 5.80033 104.065 5.731 104.325 5.731C104.585 5.731 104.784 5.80033 104.923 5.939C105.07 6.07767 105.144 6.28133 105.144 6.55V12.621C105.144 13.0197 105.226 13.3143 105.391 13.505C105.564 13.6957 105.807 13.791 106.119 13.791C106.188 13.791 106.253 13.791 106.314 13.791C106.374 13.7823 106.435 13.7737 106.496 13.765C106.617 13.7477 106.699 13.7823 106.743 13.869C106.786 13.947 106.808 14.1117 106.808 14.363C106.808 14.5797 106.764 14.7487 106.678 14.87C106.591 14.9913 106.448 15.065 106.249 15.091C106.162 15.0997 106.071 15.1083 105.976 15.117C105.88 15.1257 105.785 15.13 105.69 15.13ZM110.74 15.13C110.02 15.13 109.401 14.9957 108.881 14.727C108.361 14.4583 107.958 14.077 107.672 13.583C107.394 13.089 107.256 12.504 107.256 11.828C107.256 11.1693 107.39 10.593 107.659 10.099C107.936 9.605 108.313 9.21933 108.79 8.942C109.275 8.656 109.825 8.513 110.441 8.513C110.891 8.513 111.294 8.58667 111.65 8.734C112.014 8.88133 112.321 9.09367 112.573 9.371C112.833 9.64833 113.028 9.98633 113.158 10.385C113.296 10.775 113.366 11.217 113.366 11.711C113.366 11.867 113.309 11.9883 113.197 12.075C113.093 12.153 112.941 12.192 112.742 12.192H108.569V11.256H112.222L112.014 11.451C112.014 11.0523 111.953 10.7187 111.832 10.45C111.719 10.1813 111.55 9.97767 111.325 9.839C111.108 9.69167 110.835 9.618 110.506 9.618C110.142 9.618 109.83 9.70467 109.57 9.878C109.318 10.0427 109.123 10.281 108.985 10.593C108.855 10.8963 108.79 11.2603 108.79 11.685V11.776C108.79 12.4867 108.954 13.0197 109.284 13.375C109.622 13.7217 110.116 13.895 110.766 13.895C110.991 13.895 111.242 13.869 111.52 13.817C111.806 13.7563 112.074 13.6567 112.326 13.518C112.508 13.414 112.668 13.3707 112.807 13.388C112.945 13.3967 113.054 13.4443 113.132 13.531C113.218 13.6177 113.27 13.726 113.288 13.856C113.305 13.9773 113.279 14.103 113.21 14.233C113.149 14.363 113.041 14.4757 112.885 14.571C112.581 14.7617 112.23 14.9047 111.832 15C111.442 15.0867 111.078 15.13 110.74 15.13ZM117.591 15.13C116.923 15.13 116.343 14.9957 115.849 14.727C115.355 14.4497 114.973 14.0597 114.705 13.557C114.436 13.0543 114.302 12.465 114.302 11.789C114.302 11.2777 114.375 10.8227 114.523 10.424C114.679 10.0167 114.9 9.67433 115.186 9.397C115.472 9.111 115.818 8.89433 116.226 8.747C116.633 8.591 117.088 8.513 117.591 8.513C117.877 8.513 118.184 8.552 118.514 8.63C118.852 8.708 119.168 8.838 119.463 9.02C119.601 9.10667 119.692 9.21067 119.736 9.332C119.779 9.45333 119.788 9.579 119.762 9.709C119.736 9.83033 119.679 9.93867 119.593 10.034C119.515 10.1207 119.415 10.177 119.294 10.203C119.172 10.2203 119.038 10.19 118.891 10.112C118.7 9.99933 118.505 9.917 118.306 9.865C118.106 9.80433 117.916 9.774 117.734 9.774C117.448 9.774 117.196 9.82167 116.98 9.917C116.763 10.0037 116.577 10.1337 116.421 10.307C116.273 10.4717 116.161 10.6797 116.083 10.931C116.005 11.1823 115.966 11.4727 115.966 11.802C115.966 12.4433 116.117 12.9503 116.421 13.323C116.733 13.687 117.17 13.869 117.734 13.869C117.916 13.869 118.102 13.843 118.293 13.791C118.492 13.739 118.691 13.6567 118.891 13.544C119.038 13.466 119.168 13.44 119.281 13.466C119.402 13.492 119.502 13.5527 119.58 13.648C119.658 13.7347 119.705 13.843 119.723 13.973C119.74 14.0943 119.723 14.2157 119.671 14.337C119.627 14.4583 119.541 14.558 119.411 14.636C119.125 14.8093 118.821 14.935 118.501 15.013C118.18 15.091 117.877 15.13 117.591 15.13ZM123.722 15.13C123.159 15.13 122.686 15.0347 122.305 14.844C121.932 14.6533 121.655 14.376 121.473 14.012C121.291 13.6393 121.2 13.18 121.2 12.634V9.865H120.524C120.316 9.865 120.156 9.813 120.043 9.709C119.93 9.59633 119.874 9.44467 119.874 9.254C119.874 9.05467 119.93 8.903 120.043 8.799C120.156 8.695 120.316 8.643 120.524 8.643H121.2V7.46C121.2 7.19133 121.269 6.98767 121.408 6.849C121.555 6.71033 121.759 6.641 122.019 6.641C122.279 6.641 122.478 6.71033 122.617 6.849C122.756 6.98767 122.825 7.19133 122.825 7.46V8.643H124.203C124.411 8.643 124.571 8.695 124.684 8.799C124.797 8.903 124.853 9.05467 124.853 9.254C124.853 9.44467 124.797 9.59633 124.684 9.709C124.571 9.813 124.411 9.865 124.203 9.865H122.825V12.543C122.825 12.959 122.916 13.271 123.098 13.479C123.28 13.687 123.575 13.791 123.982 13.791C124.129 13.791 124.259 13.778 124.372 13.752C124.485 13.726 124.584 13.7087 124.671 13.7C124.775 13.6913 124.862 13.726 124.931 13.804C125 13.8733 125.035 14.0207 125.035 14.246C125.035 14.4193 125.005 14.5753 124.944 14.714C124.892 14.844 124.792 14.935 124.645 14.987C124.532 15.0217 124.385 15.052 124.203 15.078C124.021 15.1127 123.861 15.13 123.722 15.13ZM128.869 15.13C128.149 15.13 127.53 14.9957 127.01 14.727C126.49 14.4583 126.087 14.077 125.801 13.583C125.523 13.089 125.385 12.504 125.385 11.828C125.385 11.1693 125.519 10.593 125.788 10.099C126.065 9.605 126.442 9.21933 126.919 8.942C127.404 8.656 127.954 8.513 128.57 8.513C129.02 8.513 129.423 8.58667 129.779 8.734C130.143 8.88133 130.45 9.09367 130.702 9.371C130.962 9.64833 131.157 9.98633 131.287 10.385C131.425 10.775 131.495 11.217 131.495 11.711C131.495 11.867 131.438 11.9883 131.326 12.075C131.222 12.153 131.07 12.192 130.871 12.192H126.698V11.256H130.351L130.143 11.451C130.143 11.0523 130.082 10.7187 129.961 10.45C129.848 10.1813 129.679 9.97767 129.454 9.839C129.237 9.69167 128.964 9.618 128.635 9.618C128.271 9.618 127.959 9.70467 127.699 9.878C127.447 10.0427 127.252 10.281 127.114 10.593C126.984 10.8963 126.919 11.2603 126.919 11.685V11.776C126.919 12.4867 127.083 13.0197 127.413 13.375C127.751 13.7217 128.245 13.895 128.895 13.895C129.12 13.895 129.371 13.869 129.649 13.817C129.935 13.7563 130.203 13.6567 130.455 13.518C130.637 13.414 130.797 13.3707 130.936 13.388C131.074 13.3967 131.183 13.4443 131.261 13.531C131.347 13.6177 131.399 13.726 131.417 13.856C131.434 13.9773 131.408 14.103 131.339 14.233C131.278 14.363 131.17 14.4757 131.014 14.571C130.71 14.7617 130.359 14.9047 129.961 15C129.571 15.0867 129.207 15.13 128.869 15.13ZM135.226 15.13C134.671 15.13 134.181 14.9957 133.757 14.727C133.341 14.4583 133.016 14.077 132.782 13.583C132.548 13.0803 132.431 12.491 132.431 11.815C132.431 11.1303 132.548 10.5453 132.782 10.06C133.016 9.566 133.341 9.18467 133.757 8.916C134.181 8.64733 134.671 8.513 135.226 8.513C135.754 8.513 136.214 8.643 136.604 8.903C137.002 9.163 137.271 9.50533 137.41 9.93H137.267V6.55C137.267 6.28133 137.336 6.07767 137.475 5.939C137.613 5.80033 137.813 5.731 138.073 5.731C138.333 5.731 138.532 5.80033 138.671 5.939C138.818 6.07767 138.892 6.28133 138.892 6.55V14.272C138.892 14.5407 138.822 14.7487 138.684 14.896C138.545 15.0347 138.346 15.104 138.086 15.104C137.826 15.104 137.626 15.0347 137.488 14.896C137.349 14.7487 137.28 14.5407 137.28 14.272V13.258L137.423 13.648C137.293 14.0987 137.028 14.4583 136.63 14.727C136.231 14.9957 135.763 15.13 135.226 15.13ZM135.681 13.895C136.001 13.895 136.283 13.817 136.526 13.661C136.768 13.505 136.955 13.2753 137.085 12.972C137.223 12.66 137.293 12.2743 137.293 11.815C137.293 11.1217 137.145 10.606 136.851 10.268C136.556 9.92133 136.166 9.748 135.681 9.748C135.36 9.748 135.078 9.826 134.836 9.982C134.593 10.1293 134.402 10.359 134.264 10.671C134.134 10.9743 134.069 11.3557 134.069 11.815C134.069 12.4997 134.216 13.0197 134.511 13.375C134.805 13.7217 135.195 13.895 135.681 13.895Z" fill="white"/>
<path d="M165 0L173 6H165V0Z" fill="url(#paint0_linear_210_11471)"/>
<path d="M8 0L0 6H8V0Z" fill="url(#paint1_linear_210_11471)"/>
<defs>
<linearGradient id="paint0_linear_210_11471" x1="169" y1="0" x2="169" y2="6" gradientUnits="userSpaceOnUse">
<stop stop-color="#62666E"/>
<stop offset="1" stop-color="#AEB4BE"/>
</linearGradient>
<linearGradient id="paint1_linear_210_11471" x1="4" y1="0" x2="4" y2="6" gradientUnits="userSpaceOnUse">
<stop stop-color="#62666E"/>
<stop offset="1" stop-color="#AEB4BE"/>
</linearGradient>
</defs>
</svg>
