<svg width="48" height="48" viewBox="0 0 48 48" fill="none" xmlns="http://www.w3.org/2000/svg">
<rect width="48" height="48" rx="24" fill="#008000" fill-opacity="0.59"/>
<path d="M11.5827 24.0242C11.7265 23.2367 12.3615 22.4329 13.3852 21.7367C15.2302 20.4867 17.3352 20.4917 19.4452 20.4142C20.1452 20.3892 22.0227 20.3792 24.0002 20.3842C25.9777 20.3792 27.8565 20.3879 28.5552 20.4142C30.664 20.4917 32.7702 20.4867 34.6152 21.7379C35.6402 22.4329 36.274 23.2379 36.4177 24.0254C36.5427 24.7004 36.5227 27.0179 36.3802 28.6542C36.3052 29.5167 36.2277 29.9367 36.114 30.1129C35.7677 30.6454 34.7715 31.0942 33.304 31.3754C31.9277 31.6379 32.1327 31.6329 24.0002 31.6329C15.8677 31.6329 16.0727 31.6392 14.6965 31.3742C13.229 31.0942 12.2327 30.6454 11.8865 30.1129C11.7727 29.9379 11.6952 29.5167 11.6202 28.6542C11.4777 27.0179 11.4577 24.7004 11.5827 24.0242Z" stroke="white" stroke-width="1.5" stroke-linecap="round" stroke-linejoin="round"/>
<path d="M14.6252 20.3831L16.2665 14.7456C16.4165 14.3706 16.7102 14.0581 17.124 13.9169C21.1777 12.5381 26.824 12.5381 30.8765 13.9169C31.289 14.0581 31.5827 14.3706 31.734 14.7456L33.3752 20.3831M12.1252 24.1331L14.0002 24.7581M35.8752 24.1331L34.0002 24.7581M19.0002 31.0081L19.3077 30.2406C19.764 29.0994 19.9927 28.5281 20.469 28.2056C20.944 27.8831 21.559 27.8831 22.789 27.8831H25.2115C26.4415 27.8831 27.0565 27.8831 27.5315 28.2056C28.0065 28.5281 28.2365 29.0994 28.694 30.2406L29.0002 31.0081" stroke="white" stroke-width="1.5" stroke-linecap="round" stroke-linejoin="round"/>
<path d="M17.7514 32.3353V33.3378C17.7514 34.4316 17.7027 34.6366 17.3727 34.9553C17.2406 35.0726 17.0945 35.1729 16.9377 35.2541C16.6864 35.3791 16.6027 35.3828 14.6589 35.3828C12.6714 35.3828 12.6352 35.3803 12.3289 35.2428C12.1497 35.1584 11.9875 35.0419 11.8502 34.8991C11.5227 34.5053 11.5064 34.3891 11.5039 32.3153V27.8828M30.2464 32.3353V33.3378C30.2464 34.4316 30.2952 34.6366 30.6252 34.9553C30.7214 35.0491 30.9177 35.1828 31.0602 35.2541C31.3114 35.3791 31.3952 35.3828 33.3389 35.3828C35.3264 35.3828 35.3627 35.3803 35.6689 35.2428C35.8402 35.1653 36.0564 35.0103 36.1477 34.8991C36.4752 34.5053 36.4914 34.3891 36.4939 32.3153V27.8828" stroke="white" stroke-width="1.5" stroke-linecap="round"/>
<path d="M34 20.3828L35.875 19.7578M14 20.3828L12.125 19.7578" stroke="white" stroke-width="1.5" stroke-linecap="round" stroke-linejoin="round"/>
</svg>
