<svg width="17" height="17" viewBox="0 0 17 17" fill="none" xmlns="http://www.w3.org/2000/svg">
<path fill-rule="evenodd" clip-rule="evenodd" d="M13.2524 4.85409e-07H13.192C12.7778 -9.98761e-06 12.4203 -1.90244e-05 12.1244 0.0192886C11.8129 0.0396184 11.5013 0.0843391 11.1935 0.206299C10.4993 0.481362 9.94769 1.00896 9.66012 1.67302C9.53262 1.96746 9.48586 2.26549 9.46461 2.56345C9.44442 2.84643 9.44443 3.18834 9.44444 3.58459V3.64242C9.44443 4.03867 9.44442 4.38062 9.46461 4.6636C9.48586 4.96156 9.53262 5.2596 9.66012 5.55404C9.94769 6.2181 10.4993 6.74569 11.1935 7.02076C11.5013 7.14272 11.8129 7.18744 12.1244 7.20777C12.4203 7.22707 12.7777 7.22707 13.192 7.22705H13.2524C13.6667 7.22707 14.0242 7.22707 14.32 7.20777C14.6315 7.18744 14.9431 7.14272 15.2509 7.02076C15.9452 6.74569 16.4968 6.2181 16.7843 5.55404C16.9118 5.2596 16.9586 4.96156 16.9798 4.6636C17 4.38061 17 4.03869 17 3.64243V3.58463C17 3.18836 17 2.84644 16.9798 2.56345C16.9586 2.26549 16.9118 1.96746 16.7843 1.67302C16.4968 1.00896 15.9452 0.481362 15.2509 0.206299C14.9431 0.0843391 14.6315 0.0396184 14.32 0.0192886C14.0242 -1.90244e-05 13.6667 -9.98761e-06 13.2524 4.85409e-07ZM11.9164 1.87553C11.9557 1.85996 12.0377 1.83591 12.253 1.82186C12.4768 1.80725 12.7692 1.80676 13.2222 1.80676C13.6752 1.80676 13.9676 1.80725 14.1914 1.82186C14.4068 1.83591 14.4888 1.85996 14.5281 1.87553C14.7595 1.96722 14.9434 2.14308 15.0392 2.36444C15.0555 2.40203 15.0806 2.48047 15.0953 2.68644C15.1106 2.90052 15.1111 3.18024 15.1111 3.61353C15.1111 4.04681 15.1106 4.32653 15.0953 4.54061C15.0806 4.74658 15.0555 4.82503 15.0392 4.86262C14.9434 5.08397 14.7595 5.25984 14.5281 5.35152C14.4888 5.3671 14.4068 5.39114 14.1914 5.40519C13.9676 5.4198 13.6752 5.42029 13.2222 5.42029C12.7692 5.42029 12.4768 5.4198 12.253 5.40519C12.0377 5.39114 11.9557 5.3671 11.9164 5.35152C11.6849 5.25984 11.5011 5.08397 11.4052 4.86262C11.3889 4.82503 11.3638 4.74658 11.3491 4.54061C11.3338 4.32653 11.3333 4.04681 11.3333 3.61353C11.3333 3.18024 11.3338 2.90052 11.3491 2.68644C11.3638 2.48047 11.3889 2.40203 11.4052 2.36444C11.5011 2.14308 11.6849 1.96722 11.9164 1.87553Z" fill="#6F747F"/>
<path fill-rule="evenodd" clip-rule="evenodd" d="M3.74757 9.03382H3.80799C4.22225 9.0338 4.57974 9.0338 4.87558 9.0531C5.18709 9.07343 5.49867 9.11815 5.80649 9.24011C6.50074 9.51518 7.05232 10.0428 7.33988 10.7068C7.46738 11.0013 7.51414 11.2993 7.53539 11.5973C7.55558 11.8802 7.55557 12.2222 7.55556 12.6184V12.6762C7.55557 13.0725 7.55558 13.4144 7.53539 13.6974C7.51414 13.9954 7.46738 14.2934 7.33988 14.5879C7.05232 15.2519 6.50074 15.7795 5.80649 16.0546C5.49867 16.1765 5.18709 16.2213 4.87558 16.2416C4.57973 16.2609 4.22227 16.2609 3.80799 16.2609H3.74757C3.33329 16.2609 2.97583 16.2609 2.67997 16.2416C2.36847 16.2213 2.05689 16.1765 1.74907 16.0546C1.05482 15.7795 0.503243 15.2519 0.215676 14.5879C0.0881727 14.2934 0.0414192 13.9954 0.0201654 13.6974C-1.98891e-05 13.4144 -1.04416e-05 13.0725 5.07473e-07 12.6763V12.6184C-1.04416e-05 12.2222 -1.98891e-05 11.8802 0.0201654 11.5973C0.0414192 11.2993 0.0881727 11.0013 0.215676 10.7068C0.503243 10.0428 1.05482 9.51518 1.74907 9.24011C2.05689 9.11815 2.36847 9.07343 2.67997 9.0531C2.97582 9.0338 3.33331 9.0338 3.74757 9.03382ZM2.80855 10.8557C2.59322 10.8697 2.51121 10.8938 2.47191 10.9093C2.2405 11.001 2.05664 11.1769 1.96078 11.3983C1.9445 11.4358 1.91936 11.5143 1.90467 11.7203C1.8894 11.9343 1.88889 12.2141 1.88889 12.6473C1.88889 13.0806 1.8894 13.3603 1.90467 13.5744C1.91936 13.7804 1.9445 13.8588 1.96078 13.8964C2.05664 14.1178 2.2405 14.2937 2.47191 14.3853C2.51121 14.4009 2.59322 14.425 2.80855 14.439C3.03237 14.4536 3.3248 14.4541 3.77778 14.4541C4.23076 14.4541 4.52319 14.4536 4.74701 14.439C4.96234 14.425 5.04434 14.4009 5.08365 14.3853C5.31506 14.2937 5.49892 14.1178 5.59478 13.8964C5.61105 13.8588 5.63619 13.7804 5.65088 13.5744C5.66616 13.3603 5.66667 13.0806 5.66667 12.6473C5.66667 12.2141 5.66616 11.9343 5.65088 11.7203C5.63619 11.5143 5.61105 11.4358 5.59478 11.3983C5.49892 11.1769 5.31506 11.001 5.08365 10.9093C5.04434 10.8938 4.96234 10.8697 4.74701 10.8557C4.52319 10.8411 4.23076 10.8406 3.77778 10.8406C3.3248 10.8406 3.03237 10.8411 2.80855 10.8557Z" fill="#6F747F"/>
<path fill-rule="evenodd" clip-rule="evenodd" d="M13.192 9.03382H13.2524C13.6667 9.0338 14.0242 9.0338 14.32 9.0531C14.6315 9.07343 14.9431 9.11815 15.2509 9.24011C15.9452 9.51518 16.4968 10.0428 16.7843 10.7068C16.9118 11.0013 16.9586 11.2993 16.9798 11.5973C17 11.8803 17 12.2222 17 12.6184V12.6762C17 13.0725 17 13.4144 16.9798 13.6974C16.9586 13.9954 16.9118 14.2934 16.7843 14.5879C16.4968 15.2519 15.9452 15.7795 15.2509 16.0546C14.9431 16.1765 14.6315 16.2213 14.32 16.2416C14.0242 16.2609 13.6667 16.2609 13.2524 16.2609H13.192C12.7777 16.2609 12.4203 16.2609 12.1244 16.2416C11.8129 16.2213 11.5013 16.1765 11.1935 16.0546C10.4993 15.7795 9.94769 15.2519 9.66012 14.5879C9.53262 14.2934 9.48586 13.9954 9.46461 13.6974C9.44442 13.4144 9.44443 13.0725 9.44444 12.6763V12.6184C9.44443 12.2222 9.44442 11.8802 9.46461 11.5973C9.48586 11.2993 9.53262 11.0013 9.66012 10.7068C9.94769 10.0428 10.4993 9.51518 11.1935 9.24011C11.5013 9.11815 11.8129 9.07343 12.1244 9.0531C12.4203 9.0338 12.7778 9.0338 13.192 9.03382ZM12.253 10.8557C12.0377 10.8697 11.9557 10.8938 11.9164 10.9093C11.6849 11.001 11.5011 11.1769 11.4052 11.3983C11.3889 11.4358 11.3638 11.5143 11.3491 11.7203C11.3338 11.9343 11.3333 12.2141 11.3333 12.6473C11.3333 13.0806 11.3338 13.3603 11.3491 13.5744C11.3638 13.7804 11.3889 13.8588 11.4052 13.8964C11.5011 14.1178 11.6849 14.2937 11.9164 14.3853C11.9557 14.4009 12.0377 14.425 12.253 14.439C12.4768 14.4536 12.7692 14.4541 13.2222 14.4541C13.6752 14.4541 13.9676 14.4536 14.1914 14.439C14.4068 14.425 14.4888 14.4009 14.5281 14.3853C14.7595 14.2937 14.9434 14.1178 15.0392 13.8964C15.0555 13.8588 15.0806 13.7804 15.0953 13.5744C15.1106 13.3603 15.1111 13.0806 15.1111 12.6473C15.1111 12.2141 15.1106 11.9343 15.0953 11.7203C15.0806 11.5143 15.0555 11.4358 15.0392 11.3983C14.9434 11.1769 14.7595 11.001 14.5281 10.9093C14.4888 10.8938 14.4068 10.8697 14.1914 10.8557C13.9676 10.8411 13.6752 10.8406 13.2222 10.8406C12.7692 10.8406 12.4768 10.8411 12.253 10.8557Z" fill="#6F747F"/>
<path fill-rule="evenodd" clip-rule="evenodd" d="M3.74757 5.29384e-07H3.80798C4.22227 -1.05628e-05 4.57973 -2.03621e-05 4.87558 0.0192881C5.18709 0.0396178 5.49867 0.0843386 5.80649 0.206299C6.50074 0.481362 7.05231 1.00896 7.33988 1.67302C7.46738 1.96746 7.51414 2.26549 7.53539 2.56345C7.55558 2.84644 7.55557 3.18836 7.55556 3.58463V3.64243C7.55557 4.03869 7.55558 4.38061 7.53539 4.6636C7.51414 4.96156 7.46738 5.2596 7.33988 5.55404C7.05231 6.2181 6.50074 6.74569 5.80649 7.02076C5.49867 7.14272 5.18709 7.18744 4.87558 7.20777C4.57973 7.22707 4.22227 7.22706 3.80799 7.22705H3.74757C3.33329 7.22706 2.97583 7.22707 2.67997 7.20777C2.36847 7.18744 2.05689 7.14272 1.74906 7.02076C1.05482 6.74569 0.503242 6.2181 0.215676 5.55404C0.0881721 5.2596 0.0414186 4.96156 0.0201648 4.6636C-2.12876e-05 4.38061 -1.1043e-05 4.03869 5.53447e-07 3.64242V3.58463C-1.1043e-05 3.18836 -2.12876e-05 2.84644 0.0201648 2.56345C0.0414186 2.26549 0.0881721 1.96746 0.215676 1.67302C0.503242 1.00896 1.05482 0.481362 1.74906 0.206299C2.05689 0.0843386 2.36847 0.0396178 2.67997 0.0192881C2.97583 -2.03621e-05 3.33329 -1.05628e-05 3.74757 5.29384e-07ZM2.80855 1.82186C2.59322 1.83591 2.51121 1.85996 2.47191 1.87553C2.2405 1.96722 2.05664 2.14308 1.96078 2.36444C1.9445 2.40203 1.91936 2.48047 1.90467 2.68644C1.8894 2.90052 1.88889 3.18024 1.88889 3.61353C1.88889 4.04681 1.8894 4.32653 1.90467 4.54061C1.91936 4.74658 1.9445 4.82502 1.96078 4.86262C2.05664 5.08397 2.2405 5.25984 2.47191 5.35152C2.51121 5.3671 2.59322 5.39114 2.80855 5.40519C3.03237 5.4198 3.3248 5.42029 3.77778 5.42029C4.23076 5.42029 4.52319 5.4198 4.747 5.40519C4.96234 5.39114 5.04434 5.3671 5.08365 5.35152C5.31506 5.25984 5.49892 5.08397 5.59478 4.86262C5.61105 4.82502 5.63619 4.74658 5.65088 4.54061C5.66616 4.32653 5.66667 4.04681 5.66667 3.61353C5.66667 3.18024 5.66616 2.90052 5.65088 2.68644C5.63619 2.48047 5.61105 2.40203 5.59478 2.36444C5.49892 2.14308 5.31506 1.96722 5.08365 1.87553C5.04434 1.85996 4.96234 1.83591 4.747 1.82186C4.52319 1.80725 4.23076 1.80676 3.77778 1.80676C3.3248 1.80676 3.03237 1.80725 2.80855 1.82186Z" fill="#6F747F"/>
</svg>
