<svg width="71" height="35" viewBox="0 0 71 35" fill="none" xmlns="http://www.w3.org/2000/svg">
<g clip-path="url(#clip0_3311_1754)">
<path d="M17.4595 1.99219V27.5298H12.9708V26.3637C11.6543 27.3982 10.0198 27.9441 8.34605 27.9081C7.21339 27.9041 6.09329 27.6705 5.05334 27.2216C4.01339 26.7726 3.07514 26.1176 2.2952 25.2959C1.51527 24.4743 0.909827 23.5031 0.5154 22.4409C0.120972 21.3788 -0.0542603 20.2477 0.000275644 19.116C-0.0654334 17.9787 0.101514 16.8399 0.490905 15.7694C0.880295 14.6989 1.48394 13.7191 2.2649 12.89C3.04587 12.0609 3.98773 11.3999 5.03286 10.9474C6.078 10.495 7.20442 10.2606 8.34322 10.2587C9.98221 10.2275 11.5844 10.7463 12.8943 11.7323V1.99219H17.4595ZM13.0374 19.1146C13.0669 18.5367 12.977 17.959 12.7732 17.4175C12.5694 16.876 12.256 16.3824 11.8528 15.9676C11.4496 15.5528 10.9651 15.2257 10.4297 15.0067C9.89429 14.7878 9.31949 14.6817 8.74124 14.6951C8.17105 14.6938 7.6066 14.8091 7.08251 15.0338C6.55842 15.2585 6.08574 15.5879 5.69343 16.0018C5.30113 16.4158 4.99748 16.9055 4.80109 17.441C4.6047 17.9765 4.51972 18.5465 4.55136 19.116C4.52638 19.6803 4.61637 20.2437 4.81587 20.7721C5.01537 21.3005 5.3202 21.7828 5.71183 22.1897C6.10347 22.5966 6.57373 22.9196 7.09402 23.139C7.61432 23.3584 8.17379 23.4696 8.73841 23.466C9.31117 23.4812 9.88095 23.3786 10.4125 23.1647C10.9441 22.9508 11.4261 22.63 11.8288 22.2223C12.2315 21.8145 12.5462 21.3285 12.7536 20.7942C12.961 20.2599 13.0566 19.6887 13.0345 19.116M22.029 10.6327H26.5858V27.5284H22.029V10.6327ZM46.8638 10.6327V27.0311C46.8801 28.1143 46.6725 29.1892 46.254 30.1883C45.8355 31.1875 45.2151 32.0894 44.4318 32.8375C43.6485 33.5855 42.7191 34.1636 41.7019 34.5355C40.6848 34.9074 39.6018 35.065 38.5209 34.9985C36.8018 35.0798 35.1034 34.595 33.6861 33.6184C32.2687 32.6417 31.2106 31.2272 30.6737 29.5915L34.8607 28.0243C35.0766 28.8109 35.558 29.4985 36.2231 29.9704C36.8882 30.4423 37.6961 30.6694 38.5095 30.6131C39.0085 30.6498 39.5096 30.5801 39.9797 30.4085C40.4497 30.2369 40.8779 29.9673 41.2359 29.6176C41.5939 29.2679 41.8735 28.8461 42.0562 28.3802C42.2389 27.9142 42.3206 27.4148 42.2957 26.9149V25.5376C41.0677 26.5096 39.5382 27.021 37.9727 26.9829C36.8956 26.983 35.8296 26.7654 34.8386 26.3431C33.8477 25.9208 32.9523 25.3025 32.2061 24.5254C31.46 23.7484 30.8785 22.8284 30.4967 21.821C30.1148 20.8135 29.9404 19.7392 29.9839 18.6626C29.9353 17.5853 30.1042 16.5093 30.4805 15.4988C30.8568 14.4883 31.4328 13.564 32.174 12.7811C32.9153 11.9982 33.8067 11.3727 34.7949 10.942C35.7832 10.5113 36.848 10.2842 37.926 10.2742C39.5362 10.2443 41.104 10.7922 42.3453 11.8187V10.6469H46.861V10.6327H46.8638ZM42.4317 18.6711C42.4459 18.1451 42.3546 17.6216 42.1632 17.1315C41.9719 16.6413 41.6842 16.1945 41.3174 15.8175C40.9505 15.4404 40.5119 15.1406 40.0273 14.9359C39.5428 14.7312 39.0221 14.6257 38.4961 14.6256C37.9701 14.6255 37.4494 14.7308 36.9648 14.9354C36.4801 15.1399 36.0414 15.4395 35.6744 15.8164C35.3074 16.1934 35.0196 16.6401 34.8281 17.1301C34.6365 17.6202 34.545 18.1437 34.559 18.6696C34.5866 19.6957 35.0134 20.6705 35.7486 21.3865C36.4838 22.1025 37.4693 22.5031 38.4954 22.5031C39.5215 22.5031 40.507 22.1025 41.2422 21.3865C41.9774 20.6705 42.4042 19.6957 42.4317 18.6696M51.4206 10.6327H55.9787V27.5284H51.4206V10.6327ZM65.6701 10.6327H71.0003V14.9572H65.6673V21.2173C65.6474 21.484 65.6853 21.7519 65.7783 22.0026C65.8714 22.2534 66.0174 22.4811 66.2065 22.6702C66.3955 22.8593 66.6231 23.0054 66.8738 23.0985C67.1245 23.1916 67.3922 23.2294 67.6588 23.2095H70.9989V27.5341H66.7027C65.9681 27.5818 65.2316 27.4738 64.5416 27.2171C63.8515 26.9604 63.2235 26.5608 62.6985 26.0445C62.1735 25.5281 61.7635 24.9067 61.4952 24.2209C61.2269 23.5351 61.1065 22.8003 61.1417 22.0647V14.9516H58.7295V12.6108L63.1474 7.14137H65.6687L65.6701 10.6327ZM24.2968 2.02336H46.8624V5.5884H24.2982L24.2968 2.02336Z" fill="black"/>
<path d="M55.9795 3.80167L52.5361 0H51.4214V7.62884H52.5248L55.9795 3.80167Z" fill="#FFBB00"/>
</g>
<defs>
<clipPath id="clip0_3311_1754">
<rect width="71" height="35" fill="white"/>
</clipPath>
</defs>
</svg>
