<svg width="48" height="48" viewBox="0 0 48 48" fill="none" xmlns="http://www.w3.org/2000/svg">
<rect width="48" height="48" rx="24" fill="#008000" fill-opacity="0.59"/>
<path d="M35.5181 16.7993L24.2237 13.0363C24.0787 12.9879 23.9218 12.9879 23.7767 13.0363L12.4824 16.7993C12.3419 16.8462 12.2198 16.936 12.1332 17.0561C12.0466 17.1762 12 17.3204 12 17.4684V26.876C12 27.0631 12.0744 27.2426 12.2068 27.3749C12.3391 27.5072 12.5187 27.5815 12.7059 27.5815C12.8931 27.5815 13.0727 27.5072 13.205 27.3749C13.3374 27.2426 13.4118 27.0631 13.4118 26.876V18.4468L17.9625 19.9638C17.3886 20.8115 16.9997 21.7704 16.8212 22.7783C16.6426 23.7861 16.6783 24.8202 16.926 25.8133C17.1737 26.8064 17.6278 27.7363 18.2588 28.5424C18.8898 29.3485 19.6836 30.0128 20.5884 30.492C18.3236 31.2599 16.353 32.7957 14.9412 34.9606C14.8601 35.1159 14.8397 35.2959 14.884 35.4655C14.9283 35.6351 15.0342 35.7821 15.181 35.8779C15.3278 35.9737 15.5051 36.0115 15.6782 35.9839C15.8514 35.9563 16.008 35.8652 16.1177 35.7285C17.9378 32.9427 20.8096 31.3446 24.0002 31.3446C27.1909 31.3446 30.0627 32.9427 31.8827 35.7285C31.9917 35.8681 32.1493 35.9617 32.3241 35.9906C32.499 36.0194 32.6783 35.9815 32.8264 35.8844C32.9746 35.7872 33.0808 35.6379 33.1239 35.4661C33.167 35.2943 33.1439 35.1126 33.0592 34.9571C31.6474 32.7957 29.6791 31.2599 27.412 30.4885C28.3164 30.0087 29.1095 29.3441 29.7399 28.5377C30.3704 27.7314 30.8239 26.8014 31.071 25.8084C31.3181 24.8153 31.3534 23.7814 31.1744 22.7738C30.9954 21.7662 30.6062 20.8076 30.0321 19.9603L35.5181 18.1375C35.6584 18.0906 35.7805 18.0007 35.867 17.8807C35.9535 17.7606 36 17.6164 36 17.4684C36 17.3205 35.9535 17.1763 35.867 17.0562C35.7805 16.9361 35.6584 16.8463 35.5181 16.7993ZM29.8827 24.0537C29.8831 24.9906 29.6595 25.9141 29.2305 26.7471C28.8016 27.5801 28.1796 28.2987 27.4166 28.8428C26.6535 29.3869 25.7714 29.7409 24.8438 29.8753C23.9161 30.0096 22.9697 29.9204 22.0835 29.6152C21.1974 29.3099 20.397 28.7974 19.7491 28.1203C19.1012 27.4432 18.6246 26.6212 18.3589 25.7227C18.0933 24.8242 18.0463 23.8752 18.2219 22.9549C18.3975 22.0346 18.7905 21.1695 19.3684 20.4318L23.7767 21.9006C23.9218 21.949 24.0787 21.949 24.2237 21.9006L28.6321 20.4318C29.4436 21.4647 29.8841 22.7404 29.8827 24.0537ZM24.0002 20.4883L14.9412 17.4684L24.0002 14.4486L33.0592 17.4684L24.0002 20.4883Z" fill="white"/>
</svg>
