<svg width="17" height="17" viewBox="0 0 17 17" fill="none" xmlns="http://www.w3.org/2000/svg">
<path fill-rule="evenodd" clip-rule="evenodd" d="M17 0V13.2222H12.2778V17L6.51667 13.2222H0V0H17ZM15.1111 1.8889H1.8889V11.3333H7.08077L10.3889 13.5027V11.3333H15.1111V1.8889ZM8.54139 8.9014C8.84391 8.9014 9.09386 9.00101 9.29125 9.20023C9.48864 9.39945 9.58732 9.65032 9.58729 9.95284C9.58729 10.2517 9.48861 10.5007 9.29125 10.6999C9.09383 10.8991 8.84388 10.9987 8.54139 10.9987C8.2315 10.9987 7.97878 10.8991 7.78325 10.6999C7.58773 10.5007 7.48996 10.2461 7.48996 9.93623C7.48996 9.64109 7.58957 9.39483 7.78879 9.19744C7.98801 9.00005 8.23888 8.90137 8.54139 8.9014ZM8.9509 2.88057C9.79204 2.88057 10.4321 3.07979 10.8711 3.47823C11.2585 3.83608 11.4522 4.30093 11.4522 4.87276C11.4522 5.26013 11.3581 5.59123 11.17 5.86606C11.0053 6.10654 10.7277 6.36469 10.3372 6.64049L10.1628 6.7598C9.79389 7.00698 9.567 7.19605 9.48215 7.327C9.3973 7.45801 9.35487 7.69136 9.35487 8.02705V8.25394H7.72238V7.76696C7.72238 7.2984 7.77034 6.9719 7.86626 6.78747C7.9216 6.68045 7.99539 6.58545 8.08762 6.50246L8.19063 6.41661C8.23293 6.38312 8.28322 6.34472 8.34151 6.30142L8.93518 5.87642C9.1859 5.69243 9.35624 5.54787 9.4462 5.44274C9.56609 5.30255 9.62603 5.13838 9.62603 4.95023C9.62603 4.71412 9.54211 4.52688 9.37426 4.38852C9.20638 4.25019 8.97857 4.18103 8.69081 4.18103C8.21858 4.18103 7.6486 4.37102 6.98085 4.75101L6.48833 3.5225C7.30734 3.09455 8.1282 2.88057 8.9509 2.88057Z" fill="#6F747F"/>
</svg>
