<svg width="48" height="48" viewBox="0 0 48 48" fill="none" xmlns="http://www.w3.org/2000/svg">
<rect width="48" height="48" rx="24" fill="#008000" fill-opacity="0.59"/>
<path d="M29.0705 15.309C34.5637 25.6548 38.836 36 29.0705 36H18.8301C9.06463 36 13.3369 25.6548 18.8301 15.309M29.0705 15.309L30.832 12.2705C31.1766 11.6759 30.7043 10.9482 30.0199 11.0029C28.7442 11.1063 27.582 11.4272 26.6293 11.6468C25.4942 11.9097 24.6017 11.613 23.6422 11.5455C22.8159 11.4874 21.8929 11.6752 21.272 11.6468C20.2949 11.6029 19.1571 11.1063 17.8814 11.0029C17.1963 10.9482 16.724 11.6759 17.0686 12.2705L18.8301 15.309M29.0705 15.309H18.8301" stroke="white" stroke-width="1.5" stroke-linecap="round" stroke-linejoin="round"/>
<path d="M21.253 29.0345C21.7841 29.7251 22.4496 29.9825 23.3753 29.9825H24.657C25.2301 29.9816 25.7794 29.7532 26.1842 29.3475C26.589 28.9419 26.8161 28.3921 26.8158 27.819C26.8161 27.2459 26.589 26.6961 26.1842 26.2905C25.7794 25.8848 25.2301 25.6564 24.657 25.6555H23.2408C22.6676 25.6546 22.1182 25.4261 21.7134 25.0203C21.3086 24.6145 21.0815 24.0645 21.082 23.4913C21.0817 22.9183 21.3088 22.3685 21.7136 21.9628C22.1184 21.5571 22.6677 21.3287 23.2408 21.3278H24.5225C25.4482 21.3278 26.1137 21.5853 26.6441 22.2765M23.9489 21.3278V20.2461M23.9489 31.0642V29.9825" stroke="white" stroke-width="1.5" stroke-linecap="round" stroke-linejoin="round"/>
</svg>
