<svg width="173" height="22" viewBox="0 0 173 22" fill="none" xmlns="http://www.w3.org/2000/svg">
<path d="M8 0H165V12C165 17.5228 160.523 22 155 22H18C12.4771 22 8 17.5228 8 12V0Z" fill="#FF915D"/>
<path d="M58.8092 15.104C58.5405 15.104 58.3282 15.0303 58.1722 14.883C58.0249 14.727 57.9512 14.506 57.9512 14.22V6.719C57.9512 6.433 58.0249 6.21633 58.1722 6.069C58.3282 5.913 58.5492 5.835 58.8352 5.835H63.3722C63.5975 5.835 63.7665 5.89133 63.8792 6.004C63.9919 6.11667 64.0482 6.277 64.0482 6.485C64.0482 6.70167 63.9919 6.87067 63.8792 6.992C63.7665 7.10467 63.5975 7.161 63.3722 7.161H59.6152V9.748H63.0992C63.3159 9.748 63.4805 9.80433 63.5932 9.917C63.7145 10.0297 63.7752 10.19 63.7752 10.398C63.7752 10.6147 63.7145 10.7837 63.5932 10.905C63.4805 11.0177 63.3159 11.074 63.0992 11.074H59.6152V14.22C59.6152 14.8093 59.3465 15.104 58.8092 15.104ZM67.7655 15.13C67.1068 15.13 66.5348 14.9957 66.0495 14.727C65.5642 14.4583 65.1872 14.077 64.9185 13.583C64.6498 13.0803 64.5155 12.491 64.5155 11.815C64.5155 11.3037 64.5892 10.8487 64.7365 10.45C64.8925 10.0427 65.1135 9.696 65.3995 9.41C65.6855 9.11533 66.0278 8.89433 66.4265 8.747C66.8252 8.591 67.2715 8.513 67.7655 8.513C68.4242 8.513 68.9962 8.64733 69.4815 8.916C69.9668 9.18467 70.3438 9.566 70.6125 10.06C70.8812 10.554 71.0155 11.139 71.0155 11.815C71.0155 12.3263 70.9375 12.7857 70.7815 13.193C70.6342 13.6003 70.4175 13.9513 70.1315 14.246C69.8455 14.532 69.5032 14.753 69.1045 14.909C68.7058 15.0563 68.2595 15.13 67.7655 15.13ZM67.7655 13.895C68.0862 13.895 68.3678 13.817 68.6105 13.661C68.8532 13.505 69.0395 13.2753 69.1695 12.972C69.3082 12.66 69.3775 12.2743 69.3775 11.815C69.3775 11.1217 69.2302 10.606 68.9355 10.268C68.6408 9.92133 68.2508 9.748 67.7655 9.748C67.4448 9.748 67.1632 9.826 66.9205 9.982C66.6778 10.1293 66.4872 10.359 66.3485 10.671C66.2185 10.9743 66.1535 11.3557 66.1535 11.815C66.1535 12.4997 66.3008 13.0197 66.5955 13.375C66.8902 13.7217 67.2802 13.895 67.7655 13.895ZM74.5277 15.13C73.8084 15.13 73.2667 14.9263 72.9027 14.519C72.5387 14.103 72.3567 13.4963 72.3567 12.699V6.55C72.3567 6.28133 72.4261 6.07767 72.5647 5.939C72.7034 5.80033 72.9027 5.731 73.1627 5.731C73.4227 5.731 73.6221 5.80033 73.7607 5.939C73.9081 6.07767 73.9817 6.28133 73.9817 6.55V12.621C73.9817 13.0197 74.0641 13.3143 74.2287 13.505C74.4021 13.6957 74.6447 13.791 74.9567 13.791C75.0261 13.791 75.0911 13.791 75.1517 13.791C75.2124 13.7823 75.2731 13.7737 75.3337 13.765C75.4551 13.7477 75.5374 13.7823 75.5807 13.869C75.6241 13.947 75.6457 14.1117 75.6457 14.363C75.6457 14.5797 75.6024 14.7487 75.5157 14.87C75.4291 14.9913 75.2861 15.065 75.0867 15.091C75.0001 15.0997 74.9091 15.1083 74.8137 15.117C74.7184 15.1257 74.6231 15.13 74.5277 15.13ZM78.6791 15.13C77.9598 15.13 77.4181 14.9263 77.0541 14.519C76.6901 14.103 76.5081 13.4963 76.5081 12.699V6.55C76.5081 6.28133 76.5774 6.07767 76.7161 5.939C76.8548 5.80033 77.0541 5.731 77.3141 5.731C77.5741 5.731 77.7734 5.80033 77.9121 5.939C78.0594 6.07767 78.1331 6.28133 78.1331 6.55V12.621C78.1331 13.0197 78.2154 13.3143 78.3801 13.505C78.5534 13.6957 78.7961 13.791 79.1081 13.791C79.1774 13.791 79.2424 13.791 79.3031 13.791C79.3638 13.7823 79.4244 13.7737 79.4851 13.765C79.6064 13.7477 79.6888 13.7823 79.7321 13.869C79.7754 13.947 79.7971 14.1117 79.7971 14.363C79.7971 14.5797 79.7538 14.7487 79.6671 14.87C79.5804 14.9913 79.4374 15.065 79.2381 15.091C79.1514 15.0997 79.0604 15.1083 78.9651 15.117C78.8698 15.1257 78.7744 15.13 78.6791 15.13ZM83.495 15.13C82.8363 15.13 82.2643 14.9957 81.779 14.727C81.2936 14.4583 80.9166 14.077 80.648 13.583C80.3793 13.0803 80.245 12.491 80.245 11.815C80.245 11.3037 80.3186 10.8487 80.466 10.45C80.622 10.0427 80.843 9.696 81.129 9.41C81.415 9.11533 81.7573 8.89433 82.156 8.747C82.5546 8.591 83.001 8.513 83.495 8.513C84.1536 8.513 84.7256 8.64733 85.211 8.916C85.6963 9.18467 86.0733 9.566 86.342 10.06C86.6106 10.554 86.745 11.139 86.745 11.815C86.745 12.3263 86.667 12.7857 86.511 13.193C86.3636 13.6003 86.147 13.9513 85.861 14.246C85.575 14.532 85.2326 14.753 84.834 14.909C84.4353 15.0563 83.989 15.13 83.495 15.13ZM83.495 13.895C83.8156 13.895 84.0973 13.817 84.34 13.661C84.5826 13.505 84.769 13.2753 84.899 12.972C85.0376 12.66 85.107 12.2743 85.107 11.815C85.107 11.1217 84.9596 10.606 84.665 10.268C84.3703 9.92133 83.9803 9.748 83.495 9.748C83.1743 9.748 82.8926 9.826 82.65 9.982C82.4073 10.1293 82.2166 10.359 82.078 10.671C81.948 10.9743 81.883 11.3557 81.883 11.815C81.883 12.4997 82.0303 13.0197 82.325 13.375C82.6196 13.7217 83.0096 13.895 83.495 13.895ZM90.4163 15.104C90.1996 15.104 90.0133 15.052 89.8573 14.948C89.7013 14.8353 89.5756 14.662 89.4803 14.428L87.5953 9.618C87.5173 9.41 87.4913 9.228 87.5173 9.072C87.5519 8.90733 87.6343 8.77733 87.7643 8.682C87.8943 8.58667 88.0676 8.539 88.2843 8.539C88.4749 8.539 88.6309 8.58667 88.7523 8.682C88.8736 8.76867 88.9776 8.93767 89.0643 9.189L90.6373 13.518H90.3383L91.9633 9.085C92.0326 8.89433 92.1236 8.75567 92.2363 8.669C92.3576 8.58233 92.5136 8.539 92.7043 8.539C92.8949 8.539 93.0509 8.58667 93.1723 8.682C93.2936 8.76867 93.3846 8.903 93.4453 9.085L95.0443 13.518H94.7713L96.3573 9.15C96.4439 8.916 96.5523 8.75567 96.6823 8.669C96.8209 8.58233 96.9726 8.539 97.1373 8.539C97.3453 8.539 97.5056 8.591 97.6183 8.695C97.7309 8.799 97.7959 8.93333 97.8133 9.098C97.8306 9.254 97.8003 9.42733 97.7223 9.618L95.8503 14.428C95.7636 14.6533 95.6379 14.8223 95.4733 14.935C95.3173 15.0477 95.1309 15.104 94.9143 15.104C94.6976 15.104 94.5069 15.0477 94.3423 14.935C94.1863 14.8223 94.0649 14.6533 93.9783 14.428L92.2753 9.917H93.0163L91.3523 14.415C91.2656 14.649 91.1443 14.8223 90.9883 14.935C90.8323 15.0477 90.6416 15.104 90.4163 15.104ZM104.873 15.13C104.344 15.13 103.906 15.0347 103.56 14.844C103.213 14.6447 102.953 14.35 102.78 13.96C102.615 13.57 102.533 13.0847 102.533 12.504V9.358C102.533 9.08067 102.602 8.877 102.741 8.747C102.879 8.60833 103.079 8.539 103.339 8.539C103.599 8.539 103.798 8.60833 103.937 8.747C104.084 8.877 104.158 9.08067 104.158 9.358V12.53C104.158 12.9807 104.249 13.3143 104.431 13.531C104.613 13.7477 104.903 13.856 105.302 13.856C105.735 13.856 106.09 13.7087 106.368 13.414C106.645 13.1107 106.784 12.712 106.784 12.218V9.358C106.784 9.08067 106.853 8.877 106.992 8.747C107.13 8.60833 107.33 8.539 107.59 8.539C107.85 8.539 108.049 8.60833 108.188 8.747C108.335 8.877 108.409 9.08067 108.409 9.358V14.272C108.409 14.8267 108.144 15.104 107.616 15.104C107.364 15.104 107.169 15.0347 107.031 14.896C106.892 14.7487 106.823 14.5407 106.823 14.272V13.284L107.005 13.674C106.823 14.142 106.545 14.5017 106.173 14.753C105.809 15.0043 105.375 15.13 104.873 15.13ZM110.906 17.444C110.646 17.444 110.447 17.3747 110.308 17.236C110.169 17.0973 110.1 16.8937 110.1 16.625V9.358C110.1 9.08933 110.169 8.88567 110.308 8.747C110.447 8.60833 110.642 8.539 110.893 8.539C111.153 8.539 111.352 8.60833 111.491 8.747C111.63 8.88567 111.699 9.08933 111.699 9.358V10.372L111.556 9.982C111.686 9.54 111.95 9.18467 112.349 8.916C112.756 8.64733 113.229 8.513 113.766 8.513C114.321 8.513 114.806 8.64733 115.222 8.916C115.647 9.18467 115.976 9.566 116.21 10.06C116.444 10.5453 116.561 11.1303 116.561 11.815C116.561 12.491 116.444 13.0803 116.21 13.583C115.976 14.077 115.651 14.4583 115.235 14.727C114.819 14.9957 114.329 15.13 113.766 15.13C113.237 15.13 112.774 15 112.375 14.74C111.976 14.4713 111.708 14.1247 111.569 13.7H111.725V16.625C111.725 16.8937 111.651 17.0973 111.504 17.236C111.365 17.3747 111.166 17.444 110.906 17.444ZM113.311 13.895C113.632 13.895 113.913 13.817 114.156 13.661C114.399 13.505 114.585 13.2753 114.715 12.972C114.854 12.66 114.923 12.2743 114.923 11.815C114.923 11.1217 114.776 10.606 114.481 10.268C114.186 9.92133 113.796 9.748 113.311 9.748C112.99 9.748 112.709 9.826 112.466 9.982C112.223 10.1293 112.033 10.359 111.894 10.671C111.764 10.9743 111.699 11.3557 111.699 11.815C111.699 12.4997 111.846 13.0197 112.141 13.375C112.436 13.7217 112.826 13.895 113.311 13.895Z" fill="white"/>
<path d="M165 0L173 6H165V0Z" fill="url(#paint0_linear_210_11478)"/>
<path d="M8 0L0 6H8V0Z" fill="url(#paint1_linear_210_11478)"/>
<defs>
<linearGradient id="paint0_linear_210_11478" x1="169" y1="0" x2="169" y2="6" gradientUnits="userSpaceOnUse">
<stop stop-color="#6A3319"/>
<stop offset="1" stop-color="#FF915D"/>
</linearGradient>
<linearGradient id="paint1_linear_210_11478" x1="4" y1="0" x2="4" y2="6" gradientUnits="userSpaceOnUse">
<stop stop-color="#6A3319"/>
<stop offset="1" stop-color="#FF915D"/>
</linearGradient>
</defs>
</svg>
