<svg width="1407" height="66" viewBox="0 0 1407 66" fill="none" xmlns="http://www.w3.org/2000/svg">
<path d="M1.392 29.192C0.944004 29.192 0.600004 29.064 0.360004 28.808C0.120004 28.552 3.99351e-06 28.2 3.99351e-06 27.752V13.328C3.99351e-06 12.864 0.128004 12.512 0.384004 12.272C0.640004 12.016 0.992004 11.888 1.44 11.888C1.84 11.888 2.152 11.968 2.376 12.128C2.616 12.272 2.832 12.528 3.024 12.896L8.952 23.864H8.184L14.112 12.896C14.304 12.528 14.512 12.272 14.736 12.128C14.96 11.968 15.272 11.888 15.672 11.888C16.12 11.888 16.464 12.016 16.704 12.272C16.944 12.512 17.064 12.864 17.064 13.328V27.752C17.064 28.2 16.944 28.552 16.704 28.808C16.48 29.064 16.136 29.192 15.672 29.192C15.224 29.192 14.88 29.064 14.64 28.808C14.4 28.552 14.28 28.2 14.28 27.752V16.64H14.808L9.768 25.832C9.608 26.104 9.44 26.304 9.264 26.432C9.088 26.56 8.848 26.624 8.544 26.624C8.24 26.624 7.992 26.56 7.8 26.432C7.608 26.288 7.44 26.088 7.296 25.832L2.208 16.616H2.784V27.752C2.784 28.2 2.664 28.552 2.424 28.808C2.2 29.064 1.856 29.192 1.392 29.192ZM23.4759 33.512C23.1239 33.512 22.8359 33.416 22.6119 33.224C22.3879 33.048 22.2519 32.808 22.2039 32.504C22.1719 32.2 22.2279 31.88 22.3719 31.544L24.0039 27.92V29.168L19.6359 19.064C19.4919 18.712 19.4439 18.384 19.4919 18.08C19.5399 17.776 19.6839 17.536 19.9239 17.36C20.1799 17.168 20.5239 17.072 20.9559 17.072C21.3239 17.072 21.6199 17.16 21.8439 17.336C22.0679 17.496 22.2679 17.808 22.4439 18.272L25.6839 26.36H24.9639L28.2759 18.248C28.4519 17.8 28.6599 17.496 28.8999 17.336C29.1399 17.16 29.4599 17.072 29.8599 17.072C30.2119 17.072 30.4919 17.168 30.6999 17.36C30.9079 17.536 31.0359 17.776 31.0839 18.08C31.1319 18.368 31.0759 18.688 30.9159 19.04L25.0839 32.36C24.8759 32.808 24.6519 33.112 24.4119 33.272C24.1719 33.432 23.8599 33.512 23.4759 33.512ZM41.5684 29C41.0404 29 40.6324 28.864 40.3444 28.592C40.0724 28.304 39.9364 27.896 39.9364 27.368V13.712C39.9364 13.184 40.0724 12.784 40.3444 12.512C40.6324 12.224 41.0404 12.08 41.5684 12.08H50.1364C50.5364 12.08 50.8404 12.184 51.0484 12.392C51.2724 12.6 51.3844 12.896 51.3844 13.28C51.3844 13.68 51.2724 13.992 51.0484 14.216C50.8404 14.424 50.5364 14.528 50.1364 14.528H42.8884V19.184H49.6084C50.0244 19.184 50.3364 19.288 50.5444 19.496C50.7524 19.704 50.8564 20.008 50.8564 20.408C50.8564 20.808 50.7524 21.112 50.5444 21.32C50.3364 21.528 50.0244 21.632 49.6084 21.632H42.8884V26.552H50.1364C50.5364 26.552 50.8404 26.656 51.0484 26.864C51.2724 27.072 51.3844 27.376 51.3844 27.776C51.3844 28.176 51.2724 28.48 51.0484 28.688C50.8404 28.896 50.5364 29 50.1364 29H41.5684ZM55.4567 29.192C54.9767 29.192 54.6087 29.064 54.3527 28.808C54.0967 28.536 53.9687 28.152 53.9687 27.656V18.584C53.9687 18.088 54.0967 17.712 54.3527 17.456C54.6087 17.2 54.9687 17.072 55.4327 17.072C55.8967 17.072 56.2567 17.2 56.5127 17.456C56.7687 17.712 56.8967 18.088 56.8967 18.584V20.216L56.6327 19.616C56.9847 18.768 57.5287 18.128 58.2647 17.696C59.0167 17.248 59.8647 17.024 60.8087 17.024C61.7527 17.024 62.5287 17.2 63.1367 17.552C63.7447 17.904 64.2007 18.44 64.5047 19.16C64.8087 19.864 64.9607 20.76 64.9607 21.848V27.656C64.9607 28.152 64.8327 28.536 64.5767 28.808C64.3207 29.064 63.9527 29.192 63.4727 29.192C62.9927 29.192 62.6167 29.064 62.3447 28.808C62.0887 28.536 61.9607 28.152 61.9607 27.656V21.992C61.9607 21.08 61.7847 20.416 61.4327 20C61.0967 19.584 60.5687 19.376 59.8487 19.376C58.9687 19.376 58.2647 19.656 57.7367 20.216C57.2247 20.76 56.9687 21.488 56.9687 22.4V27.656C56.9687 28.68 56.4647 29.192 55.4567 29.192ZM77.7758 33.512C77.2958 33.512 76.9278 33.384 76.6718 33.128C76.4158 32.872 76.2878 32.496 76.2878 32V26.6H76.5518C76.2958 27.384 75.7998 28.024 75.0638 28.52C74.3438 29 73.4958 29.24 72.5198 29.24C71.4958 29.24 70.5918 28.992 69.8078 28.496C69.0398 28 68.4398 27.296 68.0078 26.384C67.5758 25.456 67.3598 24.368 67.3598 23.12C67.3598 21.856 67.5758 20.776 68.0078 19.88C68.4398 18.968 69.0398 18.264 69.8078 17.768C70.5918 17.272 71.4958 17.024 72.5198 17.024C73.5118 17.024 74.3758 17.272 75.1118 17.768C75.8478 18.264 76.3358 18.92 76.5758 19.736L76.3118 20.456V18.584C76.3118 18.088 76.4398 17.712 76.6958 17.456C76.9518 17.2 77.3198 17.072 77.7998 17.072C78.2798 17.072 78.6478 17.2 78.9038 17.456C79.1598 17.712 79.2878 18.088 79.2878 18.584V32C79.2878 32.496 79.1518 32.872 78.8798 33.128C78.6238 33.384 78.2558 33.512 77.7758 33.512ZM73.3598 26.96C73.9518 26.96 74.4718 26.816 74.9198 26.528C75.3678 26.24 75.7118 25.816 75.9518 25.256C76.2078 24.68 76.3358 23.968 76.3358 23.12C76.3358 21.84 76.0638 20.888 75.5198 20.264C74.9758 19.624 74.2558 19.304 73.3598 19.304C72.7678 19.304 72.2478 19.448 71.7998 19.736C71.3518 20.008 70.9998 20.432 70.7438 21.008C70.5038 21.568 70.3838 22.272 70.3838 23.12C70.3838 24.384 70.6558 25.344 71.1998 26C71.7438 26.64 72.4638 26.96 73.3598 26.96ZM86.6464 29.24C85.6704 29.24 84.8624 29.064 84.2224 28.712C83.5824 28.344 83.1024 27.8 82.7824 27.08C82.4784 26.36 82.3264 25.464 82.3264 24.392V18.584C82.3264 18.072 82.4544 17.696 82.7104 17.456C82.9664 17.2 83.3344 17.072 83.8144 17.072C84.2944 17.072 84.6624 17.2 84.9184 17.456C85.1904 17.696 85.3264 18.072 85.3264 18.584V24.44C85.3264 25.272 85.4944 25.888 85.8304 26.288C86.1664 26.688 86.7024 26.888 87.4384 26.888C88.2384 26.888 88.8944 26.616 89.4064 26.072C89.9184 25.512 90.1744 24.776 90.1744 23.864V18.584C90.1744 18.072 90.3024 17.696 90.5584 17.456C90.8144 17.2 91.1824 17.072 91.6624 17.072C92.1424 17.072 92.5104 17.2 92.7664 17.456C93.0384 17.696 93.1744 18.072 93.1744 18.584V27.656C93.1744 28.68 92.6864 29.192 91.7104 29.192C91.2464 29.192 90.8864 29.064 90.6304 28.808C90.3744 28.536 90.2464 28.152 90.2464 27.656V25.832L90.5824 26.552C90.2464 27.416 89.7344 28.08 89.0464 28.544C88.3744 29.008 87.5744 29.24 86.6464 29.24ZM97.7848 29.168C97.3048 29.168 96.9368 29.024 96.6808 28.736C96.4248 28.448 96.2968 28.048 96.2968 27.536V18.728C96.2968 18.2 96.4248 17.8 96.6808 17.528C96.9368 17.24 97.3048 17.096 97.7848 17.096C98.2648 17.096 98.6328 17.24 98.8888 17.528C99.1608 17.8 99.2968 18.2 99.2968 18.728V27.536C99.2968 28.048 99.1688 28.448 98.9128 28.736C98.6568 29.024 98.2808 29.168 97.7848 29.168ZM97.7848 14.864C97.2248 14.864 96.7848 14.728 96.4648 14.456C96.1608 14.168 96.0088 13.776 96.0088 13.28C96.0088 12.768 96.1608 12.376 96.4648 12.104C96.7848 11.832 97.2248 11.696 97.7848 11.696C98.3608 11.696 98.8008 11.832 99.1048 12.104C99.4088 12.376 99.5608 12.768 99.5608 13.28C99.5608 13.776 99.4088 14.168 99.1048 14.456C98.8008 14.728 98.3608 14.864 97.7848 14.864ZM103.95 29.192C103.454 29.192 103.07 29.064 102.798 28.808C102.542 28.536 102.414 28.152 102.414 27.656V18.584C102.414 18.088 102.542 17.712 102.798 17.456C103.054 17.2 103.414 17.072 103.878 17.072C104.342 17.072 104.702 17.2 104.958 17.456C105.214 17.712 105.342 18.088 105.342 18.584V20.096H105.102C105.326 19.136 105.766 18.408 106.422 17.912C107.078 17.416 107.95 17.12 109.038 17.024C109.374 16.992 109.638 17.08 109.83 17.288C110.038 17.48 110.158 17.784 110.19 18.2C110.222 18.6 110.126 18.928 109.902 19.184C109.694 19.424 109.374 19.568 108.942 19.616L108.414 19.664C107.438 19.76 106.702 20.064 106.206 20.576C105.71 21.072 105.462 21.776 105.462 22.688V27.656C105.462 28.152 105.334 28.536 105.078 28.808C104.822 29.064 104.446 29.192 103.95 29.192ZM113.3 29.168C112.82 29.168 112.452 29.024 112.196 28.736C111.94 28.448 111.812 28.048 111.812 27.536V18.728C111.812 18.2 111.94 17.8 112.196 17.528C112.452 17.24 112.82 17.096 113.3 17.096C113.78 17.096 114.148 17.24 114.404 17.528C114.676 17.8 114.812 18.2 114.812 18.728V27.536C114.812 28.048 114.684 28.448 114.428 28.736C114.172 29.024 113.796 29.168 113.3 29.168ZM113.3 14.864C112.74 14.864 112.3 14.728 111.98 14.456C111.676 14.168 111.524 13.776 111.524 13.28C111.524 12.768 111.676 12.376 111.98 12.104C112.3 11.832 112.74 11.696 113.3 11.696C113.876 11.696 114.316 11.832 114.62 12.104C114.924 12.376 115.076 12.768 115.076 13.28C115.076 13.776 114.924 14.168 114.62 14.456C114.316 14.728 113.876 14.864 113.3 14.864ZM123.714 29.24C122.386 29.24 121.242 28.992 120.282 28.496C119.322 28 118.578 27.296 118.05 26.384C117.538 25.472 117.282 24.392 117.282 23.144C117.282 21.928 117.53 20.864 118.026 19.952C118.538 19.04 119.234 18.328 120.114 17.816C121.01 17.288 122.026 17.024 123.162 17.024C123.994 17.024 124.738 17.16 125.394 17.432C126.066 17.704 126.634 18.096 127.098 18.608C127.578 19.12 127.938 19.744 128.178 20.48C128.434 21.2 128.562 22.016 128.562 22.928C128.562 23.216 128.458 23.44 128.25 23.6C128.058 23.744 127.778 23.816 127.41 23.816H119.706V22.088H126.45L126.066 22.448C126.066 21.712 125.954 21.096 125.73 20.6C125.522 20.104 125.21 19.728 124.794 19.472C124.394 19.2 123.89 19.064 123.282 19.064C122.61 19.064 122.034 19.224 121.554 19.544C121.09 19.848 120.73 20.288 120.474 20.864C120.234 21.424 120.114 22.096 120.114 22.88V23.048C120.114 24.36 120.418 25.344 121.026 26C121.65 26.64 122.562 26.96 123.762 26.96C124.178 26.96 124.642 26.912 125.154 26.816C125.682 26.704 126.178 26.52 126.642 26.264C126.978 26.072 127.274 25.992 127.53 26.024C127.786 26.04 127.986 26.128 128.13 26.288C128.29 26.448 128.386 26.648 128.418 26.888C128.45 27.112 128.402 27.344 128.274 27.584C128.162 27.824 127.962 28.032 127.674 28.208C127.114 28.56 126.466 28.824 125.73 29C125.01 29.16 124.338 29.24 123.714 29.24ZM135.233 29.24C134.545 29.24 133.817 29.168 133.049 29.024C132.281 28.88 131.593 28.632 130.985 28.28C130.729 28.12 130.545 27.936 130.433 27.728C130.337 27.504 130.297 27.288 130.313 27.08C130.345 26.856 130.425 26.664 130.553 26.504C130.697 26.344 130.873 26.24 131.081 26.192C131.305 26.144 131.545 26.184 131.801 26.312C132.441 26.616 133.041 26.832 133.601 26.96C134.161 27.072 134.713 27.128 135.257 27.128C136.025 27.128 136.593 27 136.961 26.744C137.345 26.472 137.537 26.12 137.537 25.688C137.537 25.32 137.409 25.04 137.153 24.848C136.913 24.64 136.545 24.488 136.049 24.392L133.649 23.936C132.657 23.744 131.897 23.384 131.369 22.856C130.857 22.312 130.601 21.616 130.601 20.768C130.601 20 130.809 19.336 131.225 18.776C131.657 18.216 132.249 17.784 133.001 17.48C133.753 17.176 134.617 17.024 135.593 17.024C136.297 17.024 136.953 17.104 137.561 17.264C138.185 17.408 138.785 17.64 139.361 17.96C139.601 18.088 139.761 18.256 139.841 18.464C139.937 18.672 139.961 18.888 139.913 19.112C139.865 19.32 139.769 19.512 139.625 19.688C139.481 19.848 139.297 19.952 139.073 20C138.865 20.032 138.625 19.984 138.353 19.856C137.857 19.6 137.377 19.416 136.913 19.304C136.465 19.192 136.033 19.136 135.617 19.136C134.833 19.136 134.249 19.272 133.865 19.544C133.497 19.816 133.313 20.176 133.313 20.624C133.313 20.96 133.425 21.24 133.649 21.464C133.873 21.688 134.217 21.84 134.681 21.92L137.081 22.376C138.121 22.568 138.905 22.92 139.433 23.432C139.977 23.944 140.249 24.632 140.249 25.496C140.249 26.664 139.793 27.584 138.881 28.256C137.969 28.912 136.753 29.24 135.233 29.24Z" fill="#0F172A"/>
<path d="M4.728 55.144C4.13067 55.144 3.52267 55.064 2.904 54.904C2.28534 54.7333 1.74667 54.4827 1.288 54.152C1.11734 54.0453 1 53.9173 0.936004 53.768C0.882671 53.608 0.872004 53.464 0.904004 53.336C0.936004 53.1973 1 53.08 1.096 52.984C1.20267 52.888 1.33067 52.8347 1.48 52.824C1.62934 52.8027 1.79467 52.8453 1.976 52.952C2.43467 53.2293 2.88267 53.432 3.32 53.56C3.75734 53.6773 4.21067 53.736 4.68 53.736C5.192 53.736 5.624 53.6613 5.976 53.512C6.328 53.3627 6.58934 53.144 6.76 52.856C6.94134 52.568 7.032 52.2213 7.032 51.816C7.032 51.208 6.82934 50.7547 6.424 50.456C6.02934 50.1467 5.45334 49.992 4.696 49.992H3.608C3.36267 49.992 3.176 49.9333 3.048 49.816C2.92 49.688 2.856 49.512 2.856 49.288C2.856 49.0747 2.92 48.9093 3.048 48.792C3.176 48.664 3.36267 48.6 3.608 48.6H4.536C4.99467 48.6 5.384 48.5253 5.704 48.376C6.024 48.216 6.26934 47.9973 6.44 47.72C6.62134 47.432 6.712 47.0853 6.712 46.68C6.712 46.136 6.53067 45.72 6.168 45.432C5.816 45.1333 5.29867 44.984 4.616 44.984C4.17867 44.984 3.76267 45.0427 3.368 45.16C2.984 45.2773 2.584 45.4853 2.168 45.784C2.008 45.8907 1.85334 45.9387 1.704 45.928C1.56534 45.9067 1.44267 45.8533 1.336 45.768C1.24 45.672 1.17067 45.5547 1.128 45.416C1.096 45.2773 1.10667 45.1333 1.16 44.984C1.21334 44.8347 1.32 44.7067 1.48 44.6C1.928 44.2693 2.43467 44.0187 3 43.848C3.56534 43.6667 4.14667 43.576 4.744 43.576C5.49067 43.576 6.13067 43.6933 6.664 43.928C7.208 44.1627 7.61867 44.4987 7.896 44.936C8.184 45.3733 8.328 45.896 8.328 46.504C8.328 46.9627 8.24267 47.3787 8.072 47.752C7.90134 48.1253 7.656 48.4453 7.336 48.712C7.02667 48.968 6.648 49.1493 6.2 49.256V49.08C6.97867 49.208 7.58134 49.528 8.008 50.04C8.43467 50.5413 8.648 51.1707 8.648 51.928C8.648 52.5893 8.488 53.1653 8.168 53.656C7.85867 54.136 7.41067 54.504 6.824 54.76C6.23734 55.016 5.53867 55.144 4.728 55.144ZM14.6738 55.144C14.0871 55.144 13.4951 55.064 12.8978 54.904C12.3004 54.7333 11.7564 54.472 11.2658 54.12C11.1058 54.024 10.9991 53.9013 10.9458 53.752C10.8924 53.6027 10.8818 53.4587 10.9138 53.32C10.9458 53.1707 11.0098 53.048 11.1058 52.952C11.2124 52.856 11.3404 52.8027 11.4898 52.792C11.6391 52.7707 11.7991 52.8133 11.9698 52.92C12.3858 53.1867 12.8124 53.3893 13.2498 53.528C13.6978 53.6667 14.1618 53.736 14.6418 53.736C15.1324 53.736 15.5538 53.6453 15.9058 53.464C16.2578 53.2827 16.5244 53.032 16.7058 52.712C16.8978 52.3813 16.9938 51.9973 16.9938 51.56C16.9938 50.888 16.7964 50.3387 16.4018 49.912C16.0071 49.4853 15.4578 49.272 14.7538 49.272C14.3484 49.272 13.9698 49.3467 13.6178 49.496C13.2658 49.6347 12.9298 49.8693 12.6098 50.2C12.5351 50.2853 12.4338 50.3653 12.3058 50.44C12.1884 50.504 12.0551 50.536 11.9058 50.536C11.6818 50.536 11.5111 50.4773 11.3938 50.36C11.2764 50.2427 11.2178 50.0827 11.2178 49.88V44.456C11.2178 44.2213 11.2818 44.04 11.4098 43.912C11.5378 43.784 11.7191 43.72 11.9538 43.72H17.3138C17.5484 43.72 17.7298 43.7787 17.8578 43.896C17.9858 44.0133 18.0498 44.184 18.0498 44.408C18.0498 44.632 17.9858 44.808 17.8578 44.936C17.7298 45.0533 17.5484 45.112 17.3138 45.112H12.8338V49.176H12.3858C12.6738 48.7707 13.0524 48.456 13.5218 48.232C14.0018 48.008 14.5298 47.896 15.1058 47.896C15.8204 47.896 16.4391 48.0453 16.9618 48.344C17.4844 48.6427 17.8898 49.064 18.1778 49.608C18.4658 50.1413 18.6098 50.7653 18.6098 51.48C18.6098 52.2053 18.4498 52.8453 18.1298 53.4C17.8098 53.944 17.3564 54.3707 16.7698 54.68C16.1831 54.9893 15.4844 55.144 14.6738 55.144ZM25.6543 55.112C25.3876 55.112 25.1796 55.0373 25.0303 54.888C24.8916 54.7387 24.8223 54.5307 24.8223 54.264V44.568C24.8223 44.2907 24.8969 44.0827 25.0463 43.944C25.1956 43.7947 25.4036 43.72 25.6703 43.72H29.4943C30.7103 43.72 31.6489 44.024 32.3103 44.632C32.9716 45.2293 33.3023 46.072 33.3023 47.16C33.3023 48.2587 32.9716 49.112 32.3103 49.72C31.6489 50.3173 30.7103 50.616 29.4943 50.616H26.4863V54.264C26.4863 54.5307 26.4169 54.7387 26.2783 54.888C26.1396 55.0373 25.9316 55.112 25.6543 55.112ZM26.4863 49.288H29.2543C30.0543 49.288 30.6569 49.112 31.0623 48.76C31.4783 48.3973 31.6863 47.864 31.6863 47.16C31.6863 46.4667 31.4783 45.944 31.0623 45.592C30.6569 45.2293 30.0543 45.048 29.2543 45.048H26.4863V49.288ZM37.9289 55.144C37.1395 55.144 36.4569 54.9787 35.8809 54.648C35.3155 54.3173 34.8729 53.848 34.5529 53.24C34.2329 52.632 34.0729 51.9173 34.0729 51.096C34.0729 50.4667 34.1635 49.9067 34.3449 49.416C34.5262 48.9253 34.7822 48.504 35.1129 48.152C35.4542 47.7893 35.8595 47.5173 36.3289 47.336C36.8089 47.144 37.3422 47.048 37.9289 47.048C38.7075 47.048 39.3795 47.2133 39.9449 47.544C40.5209 47.8747 40.9689 48.344 41.2889 48.952C41.6089 49.5493 41.7689 50.264 41.7689 51.096C41.7689 51.7147 41.6782 52.2747 41.4969 52.776C41.3155 53.2773 41.0542 53.704 40.7129 54.056C40.3822 54.408 39.9769 54.68 39.4969 54.872C39.0275 55.0533 38.5049 55.144 37.9289 55.144ZM37.9289 53.896C38.3662 53.896 38.7502 53.7893 39.0809 53.576C39.4115 53.3627 39.6675 53.048 39.8489 52.632C40.0409 52.216 40.1369 51.704 40.1369 51.096C40.1369 50.1787 39.9342 49.4853 39.5289 49.016C39.1235 48.5467 38.5902 48.312 37.9289 48.312C37.4809 48.312 37.0915 48.4187 36.7609 48.632C36.4302 48.8347 36.1689 49.144 35.9769 49.56C35.7955 49.976 35.7049 50.488 35.7049 51.096C35.7049 52.0027 35.9075 52.696 36.3129 53.176C36.7182 53.656 37.2569 53.896 37.9289 53.896ZM46.8336 55.144C46.1936 55.144 45.655 55.032 45.2176 54.808C44.7803 54.584 44.455 54.2533 44.2416 53.816C44.0283 53.3787 43.9216 52.8453 43.9216 52.216V48.44H42.9616C42.7483 48.44 42.583 48.3867 42.4656 48.28C42.3483 48.1627 42.2896 48.008 42.2896 47.816C42.2896 47.6133 42.3483 47.4587 42.4656 47.352C42.583 47.2453 42.7483 47.192 42.9616 47.192H43.9216V45.544C43.9216 45.2773 43.991 45.0747 44.1296 44.936C44.279 44.7973 44.4816 44.728 44.7376 44.728C44.9936 44.728 45.191 44.7973 45.3296 44.936C45.4683 45.0747 45.5376 45.2773 45.5376 45.544V47.192H47.4096C47.623 47.192 47.7883 47.2453 47.9056 47.352C48.023 47.4587 48.0816 47.6133 48.0816 47.816C48.0816 48.008 48.023 48.1627 47.9056 48.28C47.7883 48.3867 47.623 48.44 47.4096 48.44H45.5376V52.088C45.5376 52.6533 45.655 53.08 45.8896 53.368C46.135 53.656 46.5296 53.8 47.0736 53.8C47.2656 53.8 47.431 53.784 47.5696 53.752C47.719 53.7093 47.8416 53.6827 47.9376 53.672C48.055 53.672 48.151 53.7147 48.2256 53.8C48.3003 53.8747 48.3376 54.024 48.3376 54.248C48.3376 54.408 48.3056 54.5573 48.2416 54.696C48.1883 54.8347 48.087 54.9253 47.9376 54.968C47.8096 55.0107 47.6336 55.048 47.4096 55.08C47.1963 55.1227 47.0043 55.144 46.8336 55.144ZM52.9353 55.144C52.0819 55.144 51.3459 54.984 50.7273 54.664C50.1193 54.3333 49.6446 53.8693 49.3033 53.272C48.9726 52.664 48.8073 51.944 48.8073 51.112C48.8073 50.3013 48.9726 49.592 49.3033 48.984C49.6339 48.376 50.0873 47.9013 50.6633 47.56C51.2393 47.2187 51.8953 47.048 52.6313 47.048C53.1753 47.048 53.6606 47.1387 54.0873 47.32C54.5139 47.4907 54.8766 47.7467 55.1753 48.088C55.4846 48.4187 55.7139 48.824 55.8633 49.304C56.0233 49.784 56.1033 50.3227 56.1033 50.92C56.1033 51.1013 56.0499 51.24 55.9433 51.336C55.8366 51.4213 55.6766 51.464 55.4633 51.464H50.0873V50.472H55.0153L54.7433 50.696C54.7433 50.1627 54.6633 49.7093 54.5033 49.336C54.3539 48.9627 54.1246 48.68 53.8153 48.488C53.5166 48.2853 53.1433 48.184 52.6953 48.184C52.1939 48.184 51.7673 48.3013 51.4153 48.536C51.0739 48.7707 50.8126 49.096 50.6313 49.512C50.4499 49.928 50.3593 50.4133 50.3593 50.968V51.064C50.3593 52.0027 50.5779 52.712 51.0153 53.192C51.4633 53.6613 52.1086 53.896 52.9513 53.896C53.2713 53.896 53.6073 53.8533 53.9593 53.768C54.3219 53.6827 54.6633 53.5387 54.9833 53.336C55.1646 53.2293 55.3246 53.1813 55.4633 53.192C55.6126 53.2027 55.7299 53.2507 55.8153 53.336C55.9113 53.4213 55.9699 53.528 55.9913 53.656C56.0126 53.784 55.9913 53.9173 55.9273 54.056C55.8633 54.184 55.7513 54.3013 55.5913 54.408C55.2286 54.6533 54.8073 54.84 54.3273 54.968C53.8473 55.0853 53.3833 55.144 52.9353 55.144ZM58.665 55.112C58.409 55.112 58.2117 55.0427 58.073 54.904C57.9343 54.7547 57.865 54.552 57.865 54.296V47.896C57.865 47.6293 57.9343 47.4267 58.073 47.288C58.2117 47.1493 58.4037 47.08 58.649 47.08C58.905 47.08 59.097 47.1493 59.225 47.288C59.3637 47.4267 59.433 47.6293 59.433 47.896V49.144L59.257 48.856C59.4917 48.2587 59.8597 47.8107 60.361 47.512C60.8623 47.2027 61.4383 47.048 62.089 47.048C62.7077 47.048 63.2197 47.1653 63.625 47.4C64.041 47.624 64.3503 47.9707 64.553 48.44C64.7557 48.8987 64.857 49.48 64.857 50.184V54.296C64.857 54.552 64.7877 54.7547 64.649 54.904C64.5103 55.0427 64.313 55.112 64.057 55.112C63.7903 55.112 63.5877 55.0427 63.449 54.904C63.3103 54.7547 63.241 54.552 63.241 54.296V50.28C63.241 49.608 63.1077 49.1173 62.841 48.808C62.585 48.4987 62.1797 48.344 61.625 48.344C60.9743 48.344 60.4517 48.5467 60.057 48.952C59.673 49.3573 59.481 49.9013 59.481 50.584V54.296C59.481 54.84 59.209 55.112 58.665 55.112ZM70.4118 55.144C69.7718 55.144 69.2331 55.032 68.7958 54.808C68.3584 54.584 68.0331 54.2533 67.8198 53.816C67.6064 53.3787 67.4998 52.8453 67.4998 52.216V48.44H66.5398C66.3264 48.44 66.1611 48.3867 66.0438 48.28C65.9264 48.1627 65.8678 48.008 65.8678 47.816C65.8678 47.6133 65.9264 47.4587 66.0438 47.352C66.1611 47.2453 66.3264 47.192 66.5398 47.192H67.4998V45.544C67.4998 45.2773 67.5691 45.0747 67.7078 44.936C67.8571 44.7973 68.0598 44.728 68.3158 44.728C68.5718 44.728 68.7691 44.7973 68.9078 44.936C69.0464 45.0747 69.1158 45.2773 69.1158 45.544V47.192H70.9878C71.2011 47.192 71.3664 47.2453 71.4838 47.352C71.6011 47.4587 71.6598 47.6133 71.6598 47.816C71.6598 48.008 71.6011 48.1627 71.4838 48.28C71.3664 48.3867 71.2011 48.44 70.9878 48.44H69.1158V52.088C69.1158 52.6533 69.2331 53.08 69.4678 53.368C69.7131 53.656 70.1078 53.8 70.6518 53.8C70.8438 53.8 71.0091 53.784 71.1478 53.752C71.2971 53.7093 71.4198 53.6827 71.5158 53.672C71.6331 53.672 71.7291 53.7147 71.8038 53.8C71.8784 53.8747 71.9158 54.024 71.9158 54.248C71.9158 54.408 71.8838 54.5573 71.8198 54.696C71.7664 54.8347 71.6651 54.9253 71.5158 54.968C71.3878 55.0107 71.2118 55.048 70.9878 55.08C70.7744 55.1227 70.5824 55.144 70.4118 55.144ZM73.8681 55.096C73.6121 55.096 73.4148 55.0213 73.2761 54.872C73.1375 54.712 73.0681 54.4933 73.0681 54.216V47.976C73.0681 47.6987 73.1375 47.4853 73.2761 47.336C73.4148 47.1867 73.6121 47.112 73.8681 47.112C74.1241 47.112 74.3215 47.1867 74.4601 47.336C74.6095 47.4853 74.6841 47.6987 74.6841 47.976V54.216C74.6841 54.4933 74.6148 54.712 74.4761 54.872C74.3375 55.0213 74.1348 55.096 73.8681 55.096ZM73.8681 45.448C73.5481 45.448 73.2975 45.368 73.1161 45.208C72.9455 45.048 72.8601 44.824 72.8601 44.536C72.8601 44.2373 72.9455 44.0133 73.1161 43.864C73.2975 43.704 73.5481 43.624 73.8681 43.624C74.1881 43.624 74.4335 43.704 74.6041 43.864C74.7855 44.0133 74.8761 44.2373 74.8761 44.536C74.8761 44.824 74.7855 45.048 74.6041 45.208C74.4335 45.368 74.1881 45.448 73.8681 45.448ZM79.4548 55.144C78.9108 55.144 78.4201 55.0373 77.9828 54.824C77.5561 54.6107 77.2201 54.3227 76.9748 53.96C76.7294 53.5973 76.6068 53.1867 76.6068 52.728C76.6068 52.152 76.7508 51.6987 77.0388 51.368C77.3374 51.0267 77.8228 50.7867 78.4948 50.648C79.1774 50.4987 80.0948 50.424 81.2468 50.424H81.9988V51.416H81.2628C80.4948 51.416 79.8868 51.4533 79.4388 51.528C78.9908 51.6027 78.6708 51.7307 78.4788 51.912C78.2974 52.0827 78.2068 52.3227 78.2068 52.632C78.2068 53.0373 78.3454 53.368 78.6228 53.624C78.9001 53.8693 79.2841 53.992 79.7748 53.992C80.1694 53.992 80.5161 53.9013 80.8148 53.72C81.1134 53.528 81.3481 53.272 81.5188 52.952C81.7001 52.632 81.7908 52.264 81.7908 51.848V50.008C81.7908 49.4 81.6628 48.9627 81.4068 48.696C81.1508 48.4293 80.7294 48.296 80.1428 48.296C79.8014 48.296 79.4441 48.3387 79.0708 48.424C78.7081 48.5093 78.3294 48.6533 77.9348 48.856C77.7534 48.9413 77.5988 48.968 77.4708 48.936C77.3428 48.904 77.2414 48.8347 77.1668 48.728C77.0921 48.6107 77.0494 48.488 77.0388 48.36C77.0388 48.2213 77.0708 48.088 77.1348 47.96C77.2094 47.832 77.3321 47.736 77.5028 47.672C77.9721 47.448 78.4361 47.288 78.8948 47.192C79.3534 47.096 79.7854 47.048 80.1908 47.048C80.9054 47.048 81.4921 47.16 81.9508 47.384C82.4201 47.608 82.7668 47.9493 82.9908 48.408C83.2148 48.8667 83.3268 49.4587 83.3268 50.184V54.296C83.3268 54.552 83.2628 54.7547 83.1348 54.904C83.0068 55.0427 82.8201 55.112 82.5748 55.112C82.3401 55.112 82.1534 55.0427 82.0148 54.904C81.8761 54.7547 81.8068 54.552 81.8068 54.296V53.256H81.9508C81.8654 53.6507 81.7054 53.992 81.4708 54.28C81.2468 54.5573 80.9641 54.7707 80.6228 54.92C80.2814 55.0693 79.8921 55.144 79.4548 55.144ZM88.0645 55.144C87.2325 55.144 86.6032 54.904 86.1765 54.424C85.7605 53.9333 85.5525 53.2293 85.5525 52.312V44.424C85.5525 44.1573 85.6218 43.9547 85.7605 43.816C85.8992 43.6773 86.0965 43.608 86.3525 43.608C86.6085 43.608 86.8058 43.6773 86.9445 43.816C87.0938 43.9547 87.1685 44.1573 87.1685 44.424V52.216C87.1685 52.7493 87.2752 53.1493 87.4885 53.416C87.7125 53.672 88.0325 53.8 88.4485 53.8C88.5445 53.8 88.6298 53.8 88.7045 53.8C88.7792 53.7893 88.8538 53.7787 88.9285 53.768C89.0565 53.7573 89.1472 53.7947 89.2005 53.88C89.2538 53.9547 89.2805 54.1147 89.2805 54.36C89.2805 54.584 89.2325 54.76 89.1365 54.888C89.0405 55.0053 88.8858 55.08 88.6725 55.112C88.5765 55.1227 88.4752 55.128 88.3685 55.128C88.2618 55.1387 88.1605 55.144 88.0645 55.144ZM95.7339 55C95.4459 55 95.2219 54.9253 95.0619 54.776C94.9125 54.616 94.8379 54.392 94.8379 54.104V44.616C94.8379 44.328 94.9125 44.1093 95.0619 43.96C95.2219 43.8 95.4459 43.72 95.7339 43.72H101.574C101.798 43.72 101.969 43.7787 102.086 43.896C102.203 44.0027 102.262 44.1627 102.262 44.376C102.262 44.6 102.203 44.7707 102.086 44.888C101.969 45.0053 101.798 45.064 101.574 45.064H96.4379V48.6H101.222C101.457 48.6 101.627 48.6587 101.734 48.776C101.851 48.8933 101.91 49.0587 101.91 49.272C101.91 49.496 101.851 49.6667 101.734 49.784C101.627 49.8907 101.457 49.944 101.222 49.944H96.4379V53.656H101.574C101.798 53.656 101.969 53.7147 102.086 53.832C102.203 53.9493 102.262 54.1147 102.262 54.328C102.262 54.552 102.203 54.7227 102.086 54.84C101.969 54.9467 101.798 55 101.574 55H95.7339ZM104.884 55.112C104.628 55.112 104.43 55.0427 104.292 54.904C104.153 54.7547 104.084 54.552 104.084 54.296V47.896C104.084 47.6293 104.153 47.4267 104.292 47.288C104.43 47.1493 104.622 47.08 104.868 47.08C105.124 47.08 105.316 47.1493 105.444 47.288C105.582 47.4267 105.652 47.6293 105.652 47.896V49.144L105.476 48.856C105.71 48.2587 106.078 47.8107 106.58 47.512C107.081 47.2027 107.657 47.048 108.308 47.048C108.926 47.048 109.438 47.1653 109.844 47.4C110.26 47.624 110.569 47.9707 110.772 48.44C110.974 48.8987 111.076 49.48 111.076 50.184V54.296C111.076 54.552 111.006 54.7547 110.868 54.904C110.729 55.0427 110.532 55.112 110.276 55.112C110.009 55.112 109.806 55.0427 109.668 54.904C109.529 54.7547 109.46 54.552 109.46 54.296V50.28C109.46 49.608 109.326 49.1173 109.06 48.808C108.804 48.4987 108.398 48.344 107.844 48.344C107.193 48.344 106.67 48.5467 106.276 48.952C105.892 49.3573 105.7 49.9013 105.7 50.584V54.296C105.7 54.84 105.428 55.112 104.884 55.112ZM119.671 57.992C119.415 57.992 119.217 57.9227 119.079 57.784C118.94 57.6453 118.871 57.4427 118.871 57.176V53.272H119.047C118.876 53.8373 118.54 54.2907 118.039 54.632C117.548 54.9733 116.961 55.144 116.279 55.144C115.596 55.144 114.993 54.984 114.471 54.664C113.959 54.3333 113.559 53.864 113.271 53.256C112.983 52.6373 112.839 51.9173 112.839 51.096C112.839 50.2533 112.983 49.5333 113.271 48.936C113.559 48.3387 113.959 47.8747 114.471 47.544C114.993 47.2133 115.596 47.048 116.279 47.048C116.972 47.048 117.564 47.224 118.055 47.576C118.556 47.9173 118.892 48.376 119.063 48.952L118.887 49.288V47.896C118.887 47.6293 118.956 47.4267 119.095 47.288C119.233 47.1493 119.431 47.08 119.687 47.08C119.943 47.08 120.14 47.1493 120.279 47.288C120.417 47.4267 120.487 47.6293 120.487 47.896V57.176C120.487 57.4427 120.412 57.6453 120.263 57.784C120.124 57.9227 119.927 57.992 119.671 57.992ZM116.695 53.896C117.132 53.896 117.516 53.7893 117.847 53.576C118.177 53.3627 118.433 53.048 118.615 52.632C118.807 52.216 118.903 51.704 118.903 51.096C118.903 50.1787 118.7 49.4853 118.295 49.016C117.889 48.5467 117.356 48.312 116.695 48.312C116.247 48.312 115.857 48.4187 115.527 48.632C115.196 48.8347 114.935 49.144 114.743 49.56C114.561 49.976 114.471 50.488 114.471 51.096C114.471 52.0027 114.673 52.696 115.079 53.176C115.484 53.656 116.023 53.896 116.695 53.896ZM125.54 55.144C124.91 55.144 124.382 55.0267 123.956 54.792C123.54 54.5573 123.225 54.2107 123.012 53.752C122.809 53.2827 122.708 52.696 122.708 51.992V47.896C122.708 47.6187 122.777 47.416 122.916 47.288C123.054 47.1493 123.252 47.08 123.508 47.08C123.764 47.08 123.961 47.1493 124.1 47.288C124.249 47.416 124.324 47.6187 124.324 47.896V52.008C124.324 52.6373 124.452 53.1013 124.708 53.4C124.964 53.6987 125.369 53.848 125.924 53.848C126.532 53.848 127.022 53.6453 127.396 53.24C127.78 52.824 127.972 52.28 127.972 51.608V47.896C127.972 47.6187 128.041 47.416 128.18 47.288C128.318 47.1493 128.521 47.08 128.788 47.08C129.044 47.08 129.241 47.1493 129.38 47.288C129.518 47.416 129.588 47.6187 129.588 47.896V54.296C129.588 54.84 129.326 55.112 128.804 55.112C128.558 55.112 128.366 55.0427 128.228 54.904C128.089 54.7547 128.02 54.552 128.02 54.296V52.936L128.228 53.288C128.014 53.8853 127.673 54.344 127.204 54.664C126.734 54.984 126.18 55.144 125.54 55.144ZM132.665 55.096C132.409 55.096 132.212 55.0213 132.073 54.872C131.934 54.712 131.865 54.4933 131.865 54.216V47.976C131.865 47.6987 131.934 47.4853 132.073 47.336C132.212 47.1867 132.409 47.112 132.665 47.112C132.921 47.112 133.118 47.1867 133.257 47.336C133.406 47.4853 133.481 47.6987 133.481 47.976V54.216C133.481 54.4933 133.412 54.712 133.273 54.872C133.134 55.0213 132.932 55.096 132.665 55.096ZM132.665 45.448C132.345 45.448 132.094 45.368 131.913 45.208C131.742 45.048 131.657 44.824 131.657 44.536C131.657 44.2373 131.742 44.0133 131.913 43.864C132.094 43.704 132.345 43.624 132.665 43.624C132.985 43.624 133.23 43.704 133.401 43.864C133.582 44.0133 133.673 44.2373 133.673 44.536C133.673 44.824 133.582 45.048 133.401 45.208C133.23 45.368 132.985 45.448 132.665 45.448ZM136.572 55.112C136.305 55.112 136.102 55.0427 135.964 54.904C135.825 54.7547 135.756 54.552 135.756 54.296V47.896C135.756 47.6293 135.825 47.4267 135.964 47.288C136.102 47.1493 136.294 47.08 136.54 47.08C136.796 47.08 136.988 47.1493 137.116 47.288C137.254 47.4267 137.324 47.6293 137.324 47.896V49.064H137.164C137.334 48.424 137.649 47.9387 138.108 47.608C138.566 47.2773 139.153 47.0853 139.868 47.032C140.06 47.0213 140.209 47.0693 140.316 47.176C140.433 47.2827 140.497 47.448 140.508 47.672C140.529 47.896 140.481 48.0773 140.364 48.216C140.246 48.344 140.065 48.4187 139.82 48.44L139.516 48.472C138.822 48.536 138.294 48.7547 137.932 49.128C137.569 49.5013 137.388 50.0133 137.388 50.664V54.296C137.388 54.552 137.318 54.7547 137.18 54.904C137.052 55.0427 136.849 55.112 136.572 55.112ZM144.049 57.992C143.857 57.992 143.697 57.9387 143.569 57.832C143.451 57.736 143.382 57.6027 143.361 57.432C143.35 57.272 143.382 57.096 143.457 56.904L144.545 54.456V55.144L141.553 48.184C141.478 47.992 141.451 47.8107 141.473 47.64C141.494 47.4693 141.574 47.336 141.713 47.24C141.851 47.1333 142.038 47.08 142.273 47.08C142.475 47.08 142.635 47.128 142.753 47.224C142.87 47.32 142.977 47.4853 143.073 47.72L145.489 53.688H145.041L147.489 47.72C147.585 47.4747 147.697 47.3093 147.825 47.224C147.953 47.128 148.129 47.08 148.353 47.08C148.545 47.08 148.694 47.1333 148.801 47.24C148.918 47.336 148.987 47.4693 149.009 47.64C149.041 47.8 149.014 47.976 148.929 48.168L144.929 57.368C144.822 57.6133 144.699 57.7787 144.561 57.864C144.433 57.9493 144.262 57.992 144.049 57.992Z" fill="#008000"/>
<path d="M155.876 55.112C155.673 55.112 155.513 55.0533 155.396 54.936C155.289 54.8187 155.236 54.6533 155.236 54.44V48.232H154.212C154.041 48.232 153.903 48.1893 153.796 48.104C153.7 48.008 153.652 47.88 153.652 47.72C153.652 47.56 153.7 47.4373 153.796 47.352C153.903 47.2667 154.041 47.224 154.212 47.224H155.588L155.236 47.56V46.952C155.236 45.9387 155.481 45.1653 155.972 44.632C156.473 44.0987 157.204 43.7893 158.164 43.704L158.628 43.656C158.777 43.6453 158.895 43.672 158.98 43.736C159.076 43.8 159.135 43.88 159.156 43.976C159.188 44.072 159.193 44.1733 159.172 44.28C159.151 44.376 159.103 44.4613 159.028 44.536C158.953 44.6107 158.863 44.6533 158.756 44.664L158.388 44.696C157.737 44.7493 157.263 44.9467 156.964 45.288C156.676 45.6293 156.532 46.1307 156.532 46.792V47.464L156.34 47.224H158.26C158.441 47.224 158.58 47.2667 158.676 47.352C158.772 47.4373 158.82 47.56 158.82 47.72C158.82 47.88 158.772 48.008 158.676 48.104C158.58 48.1893 158.441 48.232 158.26 48.232H156.532V54.44C156.532 54.888 156.313 55.112 155.876 55.112ZM163.161 55.144C162.404 55.144 161.748 54.9787 161.193 54.648C160.639 54.3173 160.207 53.8533 159.897 53.256C159.599 52.648 159.449 51.9333 159.449 51.112C159.449 50.4933 159.535 49.9387 159.705 49.448C159.876 48.9467 160.127 48.52 160.457 48.168C160.788 47.816 161.177 47.5493 161.625 47.368C162.084 47.176 162.596 47.08 163.161 47.08C163.919 47.08 164.575 47.2453 165.129 47.576C165.684 47.9067 166.111 48.376 166.409 48.984C166.719 49.5813 166.873 50.2907 166.873 51.112C166.873 51.7307 166.788 52.2853 166.617 52.776C166.447 53.2667 166.196 53.6933 165.865 54.056C165.535 54.408 165.14 54.68 164.681 54.872C164.233 55.0533 163.727 55.144 163.161 55.144ZM163.161 54.104C163.641 54.104 164.063 53.9867 164.425 53.752C164.788 53.5173 165.065 53.176 165.257 52.728C165.46 52.28 165.561 51.7413 165.561 51.112C165.561 50.1413 165.343 49.4 164.905 48.888C164.479 48.376 163.897 48.12 163.161 48.12C162.671 48.12 162.244 48.2373 161.881 48.472C161.529 48.696 161.252 49.032 161.049 49.48C160.857 49.9173 160.761 50.4613 160.761 51.112C160.761 52.072 160.98 52.8133 161.417 53.336C161.855 53.848 162.436 54.104 163.161 54.104ZM169.476 55.112C169.263 55.112 169.097 55.0533 168.98 54.936C168.873 54.8187 168.82 54.6533 168.82 54.44V47.768C168.82 47.5547 168.873 47.3947 168.98 47.288C169.087 47.1707 169.241 47.112 169.444 47.112C169.647 47.112 169.801 47.1707 169.908 47.288C170.025 47.3947 170.084 47.5547 170.084 47.768V49.064H169.924C170.095 48.4347 170.42 47.9493 170.9 47.608C171.38 47.2667 171.972 47.0853 172.676 47.064C172.836 47.0533 172.964 47.0907 173.06 47.176C173.156 47.2507 173.209 47.384 173.22 47.576C173.231 47.7573 173.188 47.9013 173.092 48.008C172.996 48.1147 172.847 48.1787 172.644 48.2L172.388 48.232C171.663 48.296 171.103 48.5307 170.708 48.936C170.324 49.3307 170.132 49.8747 170.132 50.568V54.44C170.132 54.6533 170.073 54.8187 169.956 54.936C169.849 55.0533 169.689 55.112 169.476 55.112ZM180.407 57.992C180.247 57.992 180.119 57.9493 180.023 57.864C179.927 57.7787 179.869 57.6613 179.847 57.512C179.837 57.3733 179.863 57.2293 179.927 57.08L181.031 54.6V55.16L177.959 48.024C177.895 47.864 177.874 47.7147 177.895 47.576C177.917 47.4373 177.981 47.3253 178.087 47.24C178.194 47.1547 178.343 47.112 178.535 47.112C178.706 47.112 178.839 47.1493 178.935 47.224C179.031 47.2987 179.117 47.432 179.191 47.624L181.815 54.056H181.383L184.039 47.624C184.125 47.432 184.215 47.2987 184.311 47.224C184.407 47.1493 184.546 47.112 184.727 47.112C184.898 47.112 185.026 47.1547 185.111 47.24C185.207 47.3253 185.261 47.4373 185.271 47.576C185.293 47.704 185.271 47.848 185.207 48.008L181.111 57.48C181.026 57.672 180.93 57.8053 180.823 57.88C180.727 57.9547 180.589 57.992 180.407 57.992ZM190.021 55.144C189.263 55.144 188.607 54.9787 188.053 54.648C187.498 54.3173 187.066 53.8533 186.757 53.256C186.458 52.648 186.309 51.9333 186.309 51.112C186.309 50.4933 186.394 49.9387 186.565 49.448C186.735 48.9467 186.986 48.52 187.317 48.168C187.647 47.816 188.037 47.5493 188.485 47.368C188.943 47.176 189.455 47.08 190.021 47.08C190.778 47.08 191.434 47.2453 191.989 47.576C192.543 47.9067 192.97 48.376 193.269 48.984C193.578 49.5813 193.733 50.2907 193.733 51.112C193.733 51.7307 193.647 52.2853 193.477 52.776C193.306 53.2667 193.055 53.6933 192.725 54.056C192.394 54.408 191.999 54.68 191.541 54.872C191.093 55.0533 190.586 55.144 190.021 55.144ZM190.021 54.104C190.501 54.104 190.922 53.9867 191.285 53.752C191.647 53.5173 191.925 53.176 192.117 52.728C192.319 52.28 192.421 51.7413 192.421 51.112C192.421 50.1413 192.202 49.4 191.765 48.888C191.338 48.376 190.757 48.12 190.021 48.12C189.53 48.12 189.103 48.2373 188.741 48.472C188.389 48.696 188.111 49.032 187.909 49.48C187.717 49.9173 187.621 50.4613 187.621 51.112C187.621 52.072 187.839 52.8133 188.277 53.336C188.714 53.848 189.295 54.104 190.021 54.104ZM198.431 55.144C197.802 55.144 197.279 55.032 196.863 54.808C196.458 54.5733 196.149 54.2267 195.935 53.768C195.733 53.3093 195.631 52.7387 195.631 52.056V47.768C195.631 47.544 195.685 47.3787 195.791 47.272C195.909 47.1653 196.069 47.112 196.271 47.112C196.485 47.112 196.645 47.1653 196.751 47.272C196.869 47.3787 196.927 47.544 196.927 47.768V52.04C196.927 52.7227 197.066 53.2347 197.343 53.576C197.631 53.9067 198.079 54.072 198.687 54.072C199.349 54.072 199.887 53.848 200.303 53.4C200.719 52.952 200.927 52.3653 200.927 51.64V47.768C200.927 47.544 200.981 47.3787 201.087 47.272C201.205 47.1653 201.37 47.112 201.583 47.112C201.786 47.112 201.941 47.1653 202.047 47.272C202.165 47.3787 202.223 47.544 202.223 47.768V54.44C202.223 54.888 202.015 55.112 201.599 55.112C201.397 55.112 201.237 55.0533 201.119 54.936C201.013 54.8187 200.959 54.6533 200.959 54.44V52.984L201.167 53.208C200.954 53.8373 200.602 54.3173 200.111 54.648C199.631 54.9787 199.071 55.144 198.431 55.144ZM205.304 55.112C205.091 55.112 204.925 55.0533 204.808 54.936C204.701 54.8187 204.648 54.6533 204.648 54.44V47.768C204.648 47.5547 204.701 47.3947 204.808 47.288C204.915 47.1707 205.069 47.112 205.272 47.112C205.475 47.112 205.629 47.1707 205.736 47.288C205.853 47.3947 205.912 47.5547 205.912 47.768V49.064H205.752C205.923 48.4347 206.248 47.9493 206.728 47.608C207.208 47.2667 207.8 47.0853 208.504 47.064C208.664 47.0533 208.792 47.0907 208.888 47.176C208.984 47.2507 209.037 47.384 209.048 47.576C209.059 47.7573 209.016 47.9013 208.92 48.008C208.824 48.1147 208.675 48.1787 208.472 48.2L208.216 48.232C207.491 48.296 206.931 48.5307 206.536 48.936C206.152 49.3307 205.96 49.8747 205.96 50.568V54.44C205.96 54.6533 205.901 54.8187 205.784 54.936C205.677 55.0533 205.517 55.112 205.304 55.112ZM215.164 55.112C214.95 55.112 214.785 55.0533 214.668 54.936C214.561 54.8187 214.508 54.6533 214.508 54.44V47.768C214.508 47.5547 214.561 47.3947 214.668 47.288C214.774 47.1707 214.929 47.112 215.132 47.112C215.334 47.112 215.489 47.1707 215.596 47.288C215.713 47.3947 215.772 47.5547 215.772 47.768V49.064H215.612C215.782 48.4347 216.108 47.9493 216.588 47.608C217.068 47.2667 217.66 47.0853 218.364 47.064C218.524 47.0533 218.652 47.0907 218.748 47.176C218.844 47.2507 218.897 47.384 218.908 47.576C218.918 47.7573 218.876 47.9013 218.78 48.008C218.684 48.1147 218.534 48.1787 218.332 48.2L218.076 48.232C217.35 48.296 216.79 48.5307 216.396 48.936C216.012 49.3307 215.82 49.8747 215.82 50.568V54.44C215.82 54.6533 215.761 54.8187 215.644 54.936C215.537 55.0533 215.377 55.112 215.164 55.112ZM223.652 55.144C222.831 55.144 222.121 54.984 221.524 54.664C220.937 54.3333 220.479 53.8693 220.148 53.272C219.828 52.6747 219.668 51.96 219.668 51.128C219.668 50.3173 219.828 49.6133 220.148 49.016C220.468 48.408 220.905 47.9333 221.46 47.592C222.025 47.2507 222.676 47.08 223.412 47.08C223.935 47.08 224.404 47.1707 224.82 47.352C225.236 47.5227 225.588 47.7733 225.876 48.104C226.175 48.4347 226.399 48.8347 226.548 49.304C226.708 49.7733 226.788 50.3013 226.788 50.888C226.788 51.0587 226.74 51.1867 226.644 51.272C226.548 51.3467 226.409 51.384 226.228 51.384H220.66V50.536H225.924L225.668 50.744C225.668 50.168 225.583 49.6827 225.412 49.288C225.241 48.8827 224.991 48.5733 224.66 48.36C224.34 48.1467 223.935 48.04 223.444 48.04C222.9 48.04 222.436 48.168 222.052 48.424C221.679 48.6693 221.396 49.016 221.204 49.464C221.012 49.9013 220.916 50.4133 220.916 51V51.096C220.916 52.0773 221.151 52.824 221.62 53.336C222.1 53.848 222.777 54.104 223.652 54.104C224.015 54.104 224.372 54.056 224.724 53.96C225.087 53.864 225.439 53.704 225.78 53.48C225.929 53.384 226.063 53.3413 226.18 53.352C226.308 53.352 226.409 53.3893 226.484 53.464C226.559 53.528 226.607 53.6133 226.628 53.72C226.66 53.816 226.649 53.9227 226.596 54.04C226.553 54.1573 226.463 54.2587 226.324 54.344C225.972 54.6 225.556 54.7973 225.076 54.936C224.596 55.0747 224.121 55.144 223.652 55.144ZM231.466 55.112C231.285 55.112 231.125 55.064 230.986 54.968C230.847 54.8613 230.73 54.7013 230.634 54.488L227.866 48.024C227.791 47.864 227.765 47.7147 227.786 47.576C227.807 47.4373 227.871 47.3253 227.978 47.24C228.085 47.1547 228.234 47.112 228.426 47.112C228.597 47.112 228.73 47.1493 228.826 47.224C228.922 47.2987 229.007 47.432 229.082 47.624L231.706 54.04H231.274L233.946 47.624C234.021 47.432 234.106 47.2987 234.202 47.224C234.298 47.1493 234.437 47.112 234.618 47.112C234.789 47.112 234.917 47.1547 235.002 47.24C235.098 47.3253 235.151 47.4373 235.162 47.576C235.183 47.704 235.162 47.848 235.098 48.008L232.298 54.488C232.223 54.7013 232.111 54.8613 231.962 54.968C231.823 55.064 231.658 55.112 231.466 55.112ZM237.444 55.08C237.231 55.08 237.071 55.0213 236.964 54.904C236.858 54.776 236.804 54.6 236.804 54.376V47.832C236.804 47.608 236.858 47.4373 236.964 47.32C237.071 47.2027 237.231 47.144 237.444 47.144C237.647 47.144 237.807 47.2027 237.924 47.32C238.042 47.4373 238.1 47.608 238.1 47.832V54.376C238.1 54.6 238.042 54.776 237.924 54.904C237.818 55.0213 237.658 55.08 237.444 55.08ZM237.444 45.352C237.178 45.352 236.97 45.2827 236.82 45.144C236.671 44.9947 236.596 44.7973 236.596 44.552C236.596 44.296 236.671 44.104 236.82 43.976C236.97 43.8373 237.178 43.768 237.444 43.768C237.722 43.768 237.93 43.8373 238.068 43.976C238.218 44.104 238.292 44.296 238.292 44.552C238.292 44.7973 238.218 44.9947 238.068 45.144C237.93 45.2827 237.722 45.352 237.444 45.352ZM244.027 55.144C243.206 55.144 242.496 54.984 241.899 54.664C241.312 54.3333 240.854 53.8693 240.523 53.272C240.203 52.6747 240.043 51.96 240.043 51.128C240.043 50.3173 240.203 49.6133 240.523 49.016C240.843 48.408 241.28 47.9333 241.835 47.592C242.4 47.2507 243.051 47.08 243.787 47.08C244.31 47.08 244.779 47.1707 245.195 47.352C245.611 47.5227 245.963 47.7733 246.251 48.104C246.55 48.4347 246.774 48.8347 246.923 49.304C247.083 49.7733 247.163 50.3013 247.163 50.888C247.163 51.0587 247.115 51.1867 247.019 51.272C246.923 51.3467 246.784 51.384 246.603 51.384H241.035V50.536H246.299L246.043 50.744C246.043 50.168 245.958 49.6827 245.787 49.288C245.616 48.8827 245.366 48.5733 245.035 48.36C244.715 48.1467 244.31 48.04 243.819 48.04C243.275 48.04 242.811 48.168 242.427 48.424C242.054 48.6693 241.771 49.016 241.579 49.464C241.387 49.9013 241.291 50.4133 241.291 51V51.096C241.291 52.0773 241.526 52.824 241.995 53.336C242.475 53.848 243.152 54.104 244.027 54.104C244.39 54.104 244.747 54.056 245.099 53.96C245.462 53.864 245.814 53.704 246.155 53.48C246.304 53.384 246.438 53.3413 246.555 53.352C246.683 53.352 246.784 53.3893 246.859 53.464C246.934 53.528 246.982 53.6133 247.003 53.72C247.035 53.816 247.024 53.9227 246.971 54.04C246.928 54.1573 246.838 54.2587 246.699 54.344C246.347 54.6 245.931 54.7973 245.451 54.936C244.971 55.0747 244.496 55.144 244.027 55.144ZM251.633 55.112C251.452 55.112 251.292 55.064 251.153 54.968C251.014 54.872 250.902 54.7173 250.817 54.504L248.433 48.024C248.369 47.8427 248.348 47.6827 248.369 47.544C248.401 47.4053 248.47 47.2987 248.577 47.224C248.684 47.1493 248.817 47.112 248.977 47.112C249.137 47.112 249.265 47.1493 249.361 47.224C249.468 47.2987 249.553 47.4373 249.617 47.64L251.857 54.04H251.473L253.777 47.64C253.852 47.448 253.942 47.3147 254.049 47.24C254.166 47.1547 254.316 47.112 254.497 47.112C254.668 47.112 254.812 47.1547 254.929 47.24C255.046 47.3253 255.137 47.4587 255.201 47.64L257.457 54.04H257.089L259.361 47.608C259.436 47.416 259.526 47.288 259.633 47.224C259.74 47.1493 259.868 47.112 260.017 47.112C260.188 47.112 260.316 47.1547 260.401 47.24C260.497 47.3253 260.55 47.4373 260.561 47.576C260.572 47.7147 260.545 47.864 260.481 48.024L258.097 54.504C258.022 54.7067 257.91 54.8613 257.761 54.968C257.622 55.064 257.462 55.112 257.281 55.112C257.1 55.112 256.94 55.064 256.801 54.968C256.662 54.8613 256.556 54.7067 256.481 54.504L254.113 48.008H254.801L252.449 54.504C252.374 54.7067 252.268 54.8613 252.129 54.968C251.99 55.064 251.825 55.112 251.633 55.112Z" fill="#64748B"/>
<rect x="937.604" y="16.5" width="256" height="39" rx="9.5" fill="white"/>
<rect x="937.604" y="16.5" width="256" height="39" rx="9.5" stroke="#E2E8F0"/>
<path d="M989.514 42.126C989.075 42.126 988.646 42.0887 988.226 42.014C987.806 41.9393 987.414 41.832 987.05 41.692C986.695 41.552 986.373 41.3747 986.084 41.16C985.972 41.076 985.893 40.9827 985.846 40.88C985.809 40.768 985.799 40.6607 985.818 40.558C985.846 40.446 985.893 40.3527 985.958 40.278C986.033 40.2033 986.121 40.1613 986.224 40.152C986.327 40.1427 986.439 40.1753 986.56 40.25C986.98 40.5487 987.428 40.768 987.904 40.908C988.38 41.0387 988.917 41.104 989.514 41.104C990.354 41.104 990.975 40.95 991.376 40.642C991.787 40.3247 991.992 39.9093 991.992 39.396C991.992 38.976 991.843 38.6493 991.544 38.416C991.255 38.1733 990.765 37.982 990.074 37.842L988.618 37.548C987.741 37.3613 987.083 37.058 986.644 36.638C986.215 36.2087 986 35.6393 986 34.93C986 34.4913 986.089 34.0947 986.266 33.74C986.443 33.376 986.691 33.068 987.008 32.816C987.325 32.5547 987.703 32.354 988.142 32.214C988.581 32.074 989.066 32.004 989.598 32.004C990.186 32.004 990.732 32.088 991.236 32.256C991.749 32.4147 992.211 32.6573 992.622 32.984C992.725 33.068 992.795 33.166 992.832 33.278C992.869 33.3807 992.874 33.4833 992.846 33.586C992.818 33.6793 992.767 33.7587 992.692 33.824C992.627 33.8893 992.538 33.9267 992.426 33.936C992.323 33.9453 992.207 33.908 992.076 33.824C991.703 33.544 991.315 33.3433 990.914 33.222C990.513 33.0913 990.069 33.026 989.584 33.026C989.089 33.026 988.66 33.1007 988.296 33.25C987.941 33.3993 987.661 33.6187 987.456 33.908C987.26 34.188 987.162 34.5147 987.162 34.888C987.162 35.336 987.297 35.6907 987.568 35.952C987.848 36.2133 988.301 36.4047 988.926 36.526L990.382 36.834C991.325 37.03 992.02 37.3287 992.468 37.73C992.925 38.122 993.154 38.6587 993.154 39.34C993.154 39.7507 993.07 40.1287 992.902 40.474C992.734 40.8193 992.491 41.118 992.174 41.37C991.857 41.6127 991.474 41.7993 991.026 41.93C990.578 42.0607 990.074 42.126 989.514 42.126ZM997.847 42.126C997.129 42.126 996.508 41.986 995.985 41.706C995.472 41.4167 995.071 41.0107 994.781 40.488C994.501 39.9653 994.361 39.34 994.361 38.612C994.361 37.9027 994.501 37.2867 994.781 36.764C995.061 36.232 995.444 35.8167 995.929 35.518C996.424 35.2193 996.993 35.07 997.637 35.07C998.095 35.07 998.505 35.1493 998.869 35.308C999.233 35.4573 999.541 35.6767 999.793 35.966C1000.05 36.2553 1000.25 36.6053 1000.38 37.016C1000.52 37.4267 1000.59 37.8887 1000.59 38.402C1000.59 38.5513 1000.55 38.6633 1000.47 38.738C1000.38 38.8033 1000.26 38.836 1000.1 38.836H995.229V38.094H999.835L999.611 38.276C999.611 37.772 999.537 37.3473 999.387 37.002C999.238 36.6473 999.019 36.3767 998.729 36.19C998.449 36.0033 998.095 35.91 997.665 35.91C997.189 35.91 996.783 36.022 996.447 36.246C996.121 36.4607 995.873 36.764 995.705 37.156C995.537 37.5387 995.453 37.9867 995.453 38.5V38.584C995.453 39.4427 995.659 40.096 996.069 40.544C996.489 40.992 997.082 41.216 997.847 41.216C998.165 41.216 998.477 41.174 998.785 41.09C999.103 41.006 999.411 40.866 999.709 40.67C999.84 40.586 999.957 40.5487 1000.06 40.558C1000.17 40.558 1000.26 40.5907 1000.33 40.656C1000.39 40.712 1000.43 40.7867 1000.45 40.88C1000.48 40.964 1000.47 41.0573 1000.42 41.16C1000.39 41.2627 1000.31 41.3513 1000.19 41.426C999.877 41.65 999.513 41.8227 999.093 41.944C998.673 42.0653 998.258 42.126 997.847 42.126ZM1004.37 42.126C1003.91 42.126 1003.49 42.0373 1003.11 41.86C1002.75 41.6733 1002.46 41.4213 1002.25 41.104C1002.03 40.7867 1001.92 40.432 1001.92 40.04C1001.92 39.536 1002.05 39.1393 1002.3 38.85C1002.56 38.5607 1002.99 38.3553 1003.58 38.234C1004.17 38.1127 1004.99 38.052 1006.01 38.052H1006.64V38.794H1006.03C1005.27 38.794 1004.67 38.8313 1004.23 38.906C1003.81 38.9713 1003.5 39.088 1003.32 39.256C1003.16 39.424 1003.07 39.662 1003.07 39.97C1003.07 40.3527 1003.2 40.6653 1003.46 40.908C1003.74 41.1507 1004.1 41.272 1004.56 41.272C1004.93 41.272 1005.26 41.1833 1005.54 41.006C1005.83 40.8287 1006.05 40.586 1006.21 40.278C1006.38 39.97 1006.46 39.6153 1006.46 39.214V37.618C1006.46 37.0393 1006.34 36.624 1006.11 36.372C1005.88 36.1107 1005.49 35.98 1004.96 35.98C1004.64 35.98 1004.31 36.022 1003.98 36.106C1003.66 36.19 1003.31 36.3253 1002.95 36.512C1002.82 36.5773 1002.7 36.6007 1002.61 36.582C1002.52 36.554 1002.44 36.5027 1002.39 36.428C1002.33 36.3533 1002.3 36.2693 1002.29 36.176C1002.28 36.0733 1002.3 35.9753 1002.34 35.882C1002.4 35.7887 1002.48 35.714 1002.6 35.658C1003.01 35.4527 1003.41 35.3033 1003.81 35.21C1004.22 35.1167 1004.6 35.07 1004.96 35.07C1005.55 35.07 1006.04 35.168 1006.42 35.364C1006.8 35.5507 1007.09 35.84 1007.27 36.232C1007.46 36.6147 1007.55 37.1093 1007.55 37.716V41.51C1007.55 41.6967 1007.51 41.8413 1007.41 41.944C1007.33 42.0467 1007.2 42.098 1007.03 42.098C1006.86 42.098 1006.72 42.0467 1006.63 41.944C1006.54 41.8413 1006.49 41.6967 1006.49 41.51V40.418H1006.61C1006.54 40.7727 1006.4 41.076 1006.18 41.328C1005.98 41.58 1005.72 41.776 1005.41 41.916C1005.1 42.056 1004.76 42.126 1004.37 42.126ZM1010.23 42.098C1010.04 42.098 1009.9 42.0467 1009.8 41.944C1009.7 41.8413 1009.66 41.6967 1009.66 41.51V35.672C1009.66 35.4853 1009.7 35.3453 1009.8 35.252C1009.89 35.1493 1010.02 35.098 1010.2 35.098C1010.38 35.098 1010.51 35.1493 1010.61 35.252C1010.71 35.3453 1010.76 35.4853 1010.76 35.672V36.806H1010.62C1010.77 36.2553 1011.06 35.8307 1011.48 35.532C1011.9 35.2333 1012.41 35.0747 1013.03 35.056C1013.17 35.0467 1013.28 35.0793 1013.37 35.154C1013.45 35.2193 1013.5 35.336 1013.51 35.504C1013.52 35.6627 1013.48 35.7887 1013.39 35.882C1013.31 35.9753 1013.18 36.0313 1013 36.05L1012.78 36.078C1012.14 36.134 1011.65 36.3393 1011.31 36.694C1010.97 37.0393 1010.8 37.5153 1010.8 38.122V41.51C1010.8 41.6967 1010.75 41.8413 1010.65 41.944C1010.56 42.0467 1010.42 42.098 1010.23 42.098ZM1017.48 42.126C1016.79 42.126 1016.21 41.9767 1015.71 41.678C1015.22 41.3793 1014.83 40.964 1014.56 40.432C1014.3 39.8907 1014.17 39.2653 1014.17 38.556C1014.17 38.0147 1014.25 37.5293 1014.4 37.1C1014.55 36.6707 1014.76 36.3067 1015.05 36.008C1015.34 35.7 1015.69 35.4667 1016.09 35.308C1016.5 35.1493 1016.96 35.07 1017.48 35.07C1017.81 35.07 1018.16 35.1213 1018.53 35.224C1018.89 35.3267 1019.22 35.504 1019.52 35.756C1019.61 35.8213 1019.67 35.9007 1019.7 35.994C1019.73 36.0873 1019.73 36.1807 1019.7 36.274C1019.67 36.358 1019.63 36.4327 1019.56 36.498C1019.5 36.554 1019.41 36.5867 1019.31 36.596C1019.22 36.6053 1019.12 36.5727 1019.02 36.498C1018.77 36.3113 1018.53 36.1807 1018.27 36.106C1018.02 36.0313 1017.78 35.994 1017.55 35.994C1017.18 35.994 1016.86 36.0547 1016.59 36.176C1016.32 36.288 1016.09 36.4513 1015.91 36.666C1015.72 36.8807 1015.58 37.1467 1015.47 37.464C1015.38 37.7813 1015.33 38.15 1015.33 38.57C1015.33 39.382 1015.53 40.026 1015.91 40.502C1016.29 40.9687 1016.84 41.202 1017.55 41.202C1017.78 41.202 1018.02 41.1647 1018.26 41.09C1018.51 41.0153 1018.76 40.8847 1019.02 40.698C1019.12 40.6233 1019.22 40.5907 1019.31 40.6C1019.4 40.6093 1019.48 40.6467 1019.55 40.712C1019.61 40.768 1019.66 40.8427 1019.67 40.936C1019.7 41.0293 1019.7 41.1227 1019.67 41.216C1019.65 41.3 1019.59 41.3747 1019.49 41.44C1019.19 41.6827 1018.87 41.86 1018.51 41.972C1018.16 42.0747 1017.81 42.126 1017.48 42.126ZM1021.63 42.098C1021.45 42.098 1021.31 42.0467 1021.21 41.944C1021.12 41.8413 1021.07 41.6967 1021.07 41.51V32.606C1021.07 32.4193 1021.12 32.2793 1021.21 32.186C1021.31 32.0833 1021.45 32.032 1021.63 32.032C1021.81 32.032 1021.95 32.0833 1022.05 32.186C1022.15 32.2793 1022.21 32.4193 1022.21 32.606V36.708H1022.02C1022.22 36.1667 1022.54 35.7607 1022.98 35.49C1023.42 35.21 1023.94 35.07 1024.52 35.07C1025.06 35.07 1025.51 35.168 1025.86 35.364C1026.22 35.56 1026.49 35.8587 1026.67 36.26C1026.85 36.652 1026.94 37.1513 1026.94 37.758V41.51C1026.94 41.6967 1026.89 41.8413 1026.78 41.944C1026.69 42.0467 1026.56 42.098 1026.38 42.098C1026.19 42.098 1026.05 42.0467 1025.94 41.944C1025.85 41.8413 1025.8 41.6967 1025.8 41.51V37.828C1025.8 37.1933 1025.68 36.7313 1025.43 36.442C1025.18 36.1433 1024.79 35.994 1024.25 35.994C1023.62 35.994 1023.13 36.19 1022.75 36.582C1022.39 36.9647 1022.21 37.478 1022.21 38.122V41.51C1022.21 41.902 1022.01 42.098 1021.63 42.098ZM1036.08 42.126C1035.47 42.126 1034.93 41.9673 1034.49 41.65C1034.05 41.3327 1033.75 40.908 1033.6 40.376L1033.76 40.222V41.51C1033.76 41.6967 1033.71 41.8413 1033.6 41.944C1033.51 42.0467 1033.38 42.098 1033.2 42.098C1033.01 42.098 1032.87 42.0467 1032.78 41.944C1032.69 41.8413 1032.64 41.6967 1032.64 41.51V32.606C1032.64 32.4193 1032.69 32.2793 1032.78 32.186C1032.87 32.0833 1033.01 32.032 1033.2 32.032C1033.38 32.032 1033.52 32.0833 1033.62 32.186C1033.72 32.2793 1033.77 32.4193 1033.77 32.606V36.778H1033.6C1033.76 36.2553 1034.06 35.84 1034.5 35.532C1034.94 35.224 1035.47 35.07 1036.08 35.07C1036.7 35.07 1037.23 35.2147 1037.68 35.504C1038.13 35.784 1038.47 36.19 1038.71 36.722C1038.97 37.2447 1039.09 37.87 1039.09 38.598C1039.09 39.3167 1038.97 39.942 1038.71 40.474C1038.47 40.9967 1038.12 41.4027 1037.66 41.692C1037.22 41.9813 1036.69 42.126 1036.08 42.126ZM1035.84 41.216C1036.27 41.216 1036.64 41.1133 1036.95 40.908C1037.27 40.7027 1037.51 40.404 1037.68 40.012C1037.86 39.62 1037.94 39.1487 1037.94 38.598C1037.94 37.7487 1037.75 37.1 1037.37 36.652C1037 36.204 1036.49 35.98 1035.84 35.98C1035.42 35.98 1035.06 36.0827 1034.74 36.288C1034.42 36.484 1034.17 36.778 1034 37.17C1033.83 37.5527 1033.74 38.0287 1033.74 38.598C1033.74 39.438 1033.94 40.0867 1034.32 40.544C1034.7 40.992 1035.21 41.216 1035.84 41.216ZM1042.22 44.618C1042.08 44.618 1041.97 44.5807 1041.88 44.506C1041.8 44.4313 1041.75 44.3287 1041.73 44.198C1041.72 44.0767 1041.74 43.9507 1041.8 43.82L1042.76 41.65V42.14L1040.08 35.896C1040.02 35.756 1040 35.6253 1040.02 35.504C1040.04 35.3827 1040.09 35.2847 1040.19 35.21C1040.28 35.1353 1040.41 35.098 1040.58 35.098C1040.73 35.098 1040.85 35.1307 1040.93 35.196C1041.01 35.2613 1041.09 35.378 1041.15 35.546L1043.45 41.174H1043.07L1045.4 35.546C1045.47 35.378 1045.55 35.2613 1045.63 35.196C1045.72 35.1307 1045.84 35.098 1046 35.098C1046.15 35.098 1046.26 35.1353 1046.33 35.21C1046.42 35.2847 1046.46 35.3827 1046.47 35.504C1046.49 35.616 1046.47 35.742 1046.42 35.882L1042.83 44.17C1042.76 44.338 1042.67 44.4547 1042.58 44.52C1042.5 44.5853 1042.38 44.618 1042.22 44.618ZM1053.58 42.126C1052.91 42.126 1052.39 41.9207 1052.04 41.51C1051.68 41.0993 1051.51 40.5113 1051.51 39.746V32.606C1051.51 32.4193 1051.55 32.2793 1051.65 32.186C1051.74 32.0833 1051.88 32.032 1052.07 32.032C1052.24 32.032 1052.38 32.0833 1052.49 32.186C1052.59 32.2793 1052.64 32.4193 1052.64 32.606V39.662C1052.64 40.166 1052.74 40.544 1052.93 40.796C1053.14 41.0387 1053.44 41.16 1053.83 41.16C1053.91 41.16 1053.99 41.1553 1054.05 41.146C1054.12 41.1367 1054.18 41.132 1054.25 41.132C1054.35 41.1227 1054.42 41.146 1054.46 41.202C1054.51 41.258 1054.53 41.37 1054.53 41.538C1054.53 41.706 1054.49 41.832 1054.42 41.916C1054.34 42 1054.22 42.056 1054.05 42.084C1053.98 42.0933 1053.9 42.1027 1053.82 42.112C1053.73 42.1213 1053.65 42.126 1053.58 42.126ZM1058.65 42.126C1057.93 42.126 1057.31 41.986 1056.78 41.706C1056.27 41.4167 1055.87 41.0107 1055.58 40.488C1055.3 39.9653 1055.16 39.34 1055.16 38.612C1055.16 37.9027 1055.3 37.2867 1055.58 36.764C1055.86 36.232 1056.24 35.8167 1056.73 35.518C1057.22 35.2193 1057.79 35.07 1058.44 35.07C1058.89 35.07 1059.3 35.1493 1059.67 35.308C1060.03 35.4573 1060.34 35.6767 1060.59 35.966C1060.85 36.2553 1061.05 36.6053 1061.18 37.016C1061.32 37.4267 1061.39 37.8887 1061.39 38.402C1061.39 38.5513 1061.35 38.6633 1061.26 38.738C1061.18 38.8033 1061.06 38.836 1060.9 38.836H1056.03V38.094H1060.63L1060.41 38.276C1060.41 37.772 1060.34 37.3473 1060.19 37.002C1060.04 36.6473 1059.82 36.3767 1059.53 36.19C1059.25 36.0033 1058.89 35.91 1058.46 35.91C1057.99 35.91 1057.58 36.022 1057.25 36.246C1056.92 36.4607 1056.67 36.764 1056.5 37.156C1056.34 37.5387 1056.25 37.9867 1056.25 38.5V38.584C1056.25 39.4427 1056.46 40.096 1056.87 40.544C1057.29 40.992 1057.88 41.216 1058.65 41.216C1058.96 41.216 1059.28 41.174 1059.58 41.09C1059.9 41.006 1060.21 40.866 1060.51 40.67C1060.64 40.586 1060.76 40.5487 1060.86 40.558C1060.97 40.558 1061.06 40.5907 1061.12 40.656C1061.19 40.712 1061.23 40.7867 1061.25 40.88C1061.28 40.964 1061.27 41.0573 1061.22 41.16C1061.18 41.2627 1061.11 41.3513 1060.98 41.426C1060.68 41.65 1060.31 41.8227 1059.89 41.944C1059.47 42.0653 1059.06 42.126 1058.65 42.126ZM1065.17 42.126C1064.71 42.126 1064.29 42.0373 1063.91 41.86C1063.55 41.6733 1063.26 41.4213 1063.05 41.104C1062.83 40.7867 1062.72 40.432 1062.72 40.04C1062.72 39.536 1062.85 39.1393 1063.1 38.85C1063.36 38.5607 1063.79 38.3553 1064.38 38.234C1064.97 38.1127 1065.78 38.052 1066.81 38.052H1067.44V38.794H1066.83C1066.07 38.794 1065.47 38.8313 1065.03 38.906C1064.6 38.9713 1064.3 39.088 1064.12 39.256C1063.96 39.424 1063.87 39.662 1063.87 39.97C1063.87 40.3527 1064 40.6653 1064.26 40.908C1064.53 41.1507 1064.9 41.272 1065.36 41.272C1065.73 41.272 1066.06 41.1833 1066.34 41.006C1066.62 40.8287 1066.85 40.586 1067.01 40.278C1067.18 39.97 1067.26 39.6153 1067.26 39.214V37.618C1067.26 37.0393 1067.14 36.624 1066.91 36.372C1066.68 36.1107 1066.29 35.98 1065.76 35.98C1065.43 35.98 1065.11 36.022 1064.78 36.106C1064.45 36.19 1064.11 36.3253 1063.75 36.512C1063.61 36.5773 1063.5 36.6007 1063.41 36.582C1063.32 36.554 1063.24 36.5027 1063.19 36.428C1063.13 36.3533 1063.1 36.2693 1063.09 36.176C1063.08 36.0733 1063.1 35.9753 1063.14 35.882C1063.2 35.7887 1063.28 35.714 1063.4 35.658C1063.81 35.4527 1064.21 35.3033 1064.61 35.21C1065.01 35.1167 1065.4 35.07 1065.76 35.07C1066.35 35.07 1066.83 35.168 1067.22 35.364C1067.6 35.5507 1067.88 35.84 1068.07 36.232C1068.26 36.6147 1068.35 37.1093 1068.35 37.716V41.51C1068.35 41.6967 1068.3 41.8413 1068.21 41.944C1068.13 42.0467 1068 42.098 1067.83 42.098C1067.66 42.098 1067.52 42.0467 1067.43 41.944C1067.33 41.8413 1067.29 41.6967 1067.29 41.51V40.418H1067.41C1067.34 40.7727 1067.19 41.076 1066.98 41.328C1066.77 41.58 1066.52 41.776 1066.21 41.916C1065.9 42.056 1065.56 42.126 1065.17 42.126ZM1073.05 42.126C1072.44 42.126 1071.91 41.9813 1071.45 41.692C1071 41.4027 1070.65 40.9967 1070.4 40.474C1070.16 39.942 1070.04 39.3167 1070.04 38.598C1070.04 37.87 1070.16 37.2447 1070.4 36.722C1070.65 36.19 1071 35.784 1071.45 35.504C1071.91 35.2147 1072.44 35.07 1073.05 35.07C1073.66 35.07 1074.19 35.224 1074.63 35.532C1075.07 35.84 1075.36 36.2553 1075.51 36.778H1075.36V32.606C1075.36 32.4193 1075.4 32.2793 1075.5 32.186C1075.6 32.0833 1075.74 32.032 1075.93 32.032C1076.11 32.032 1076.24 32.0833 1076.34 32.186C1076.44 32.2793 1076.49 32.4193 1076.49 32.606V41.51C1076.49 41.6967 1076.44 41.8413 1076.35 41.944C1076.26 42.0467 1076.12 42.098 1075.93 42.098C1075.75 42.098 1075.61 42.0467 1075.51 41.944C1075.42 41.8413 1075.37 41.6967 1075.37 41.51V40.18L1075.52 40.376C1075.37 40.908 1075.08 41.3327 1074.63 41.65C1074.19 41.9673 1073.66 42.126 1073.05 42.126ZM1073.28 41.216C1073.7 41.216 1074.07 41.1133 1074.39 40.908C1074.71 40.7027 1074.95 40.404 1075.12 40.012C1075.29 39.62 1075.38 39.1487 1075.38 38.598C1075.38 37.7487 1075.19 37.1 1074.81 36.652C1074.44 36.204 1073.93 35.98 1073.28 35.98C1072.85 35.98 1072.48 36.0827 1072.16 36.288C1071.86 36.484 1071.61 36.778 1071.44 37.17C1071.27 37.5527 1071.18 38.0287 1071.18 38.598C1071.18 39.438 1071.37 40.0867 1071.76 40.544C1072.14 40.992 1072.65 41.216 1073.28 41.216ZM1082.95 42.098C1082.77 42.098 1082.62 42.0467 1082.52 41.944C1082.43 41.832 1082.38 41.6827 1082.38 41.496V32.634C1082.38 32.438 1082.43 32.2887 1082.52 32.186C1082.62 32.0833 1082.77 32.032 1082.95 32.032C1083.14 32.032 1083.28 32.0833 1083.37 32.186C1083.48 32.2887 1083.53 32.438 1083.53 32.634V41.496C1083.53 41.6827 1083.48 41.832 1083.39 41.944C1083.3 42.0467 1083.15 42.098 1082.95 42.098ZM1086.61 42C1086.4 42 1086.24 41.9487 1086.13 41.846C1086.03 41.734 1085.98 41.5753 1085.98 41.37V32.76C1085.98 32.5547 1086.03 32.4007 1086.13 32.298C1086.24 32.186 1086.4 32.13 1086.61 32.13H1089.31C1090.9 32.13 1092.14 32.55 1093 33.39C1093.87 34.23 1094.31 35.4527 1094.31 37.058C1094.31 37.8607 1094.19 38.57 1093.97 39.186C1093.76 39.7927 1093.43 40.306 1093 40.726C1092.57 41.146 1092.05 41.4633 1091.44 41.678C1090.82 41.8927 1090.11 42 1089.31 42H1086.61ZM1087.12 41.02H1089.22C1089.88 41.02 1090.44 40.936 1090.92 40.768C1091.4 40.6 1091.8 40.3527 1092.12 40.026C1092.45 39.6993 1092.69 39.2887 1092.85 38.794C1093.01 38.29 1093.09 37.7113 1093.09 37.058C1093.09 35.742 1092.77 34.7573 1092.12 34.104C1091.48 33.4413 1090.51 33.11 1089.22 33.11H1087.12V41.02ZM1102.65 42.126C1101.99 42.126 1101.41 41.9813 1100.93 41.692C1100.44 41.4027 1100.06 40.9967 1099.79 40.474C1099.53 39.942 1099.4 39.3167 1099.4 38.598C1099.4 38.0567 1099.48 37.5713 1099.63 37.142C1099.78 36.7033 1099.99 36.33 1100.28 36.022C1100.57 35.714 1100.91 35.4807 1101.31 35.322C1101.71 35.154 1102.16 35.07 1102.65 35.07C1103.31 35.07 1103.89 35.2147 1104.37 35.504C1104.86 35.7933 1105.23 36.204 1105.49 36.736C1105.76 37.2587 1105.9 37.8793 1105.9 38.598C1105.9 39.1393 1105.82 39.6247 1105.67 40.054C1105.52 40.4833 1105.31 40.8567 1105.02 41.174C1104.73 41.482 1104.38 41.72 1103.98 41.888C1103.59 42.0467 1103.14 42.126 1102.65 42.126ZM1102.65 41.216C1103.07 41.216 1103.44 41.1133 1103.76 40.908C1104.07 40.7027 1104.32 40.404 1104.48 40.012C1104.66 39.62 1104.75 39.1487 1104.75 38.598C1104.75 37.7487 1104.56 37.1 1104.18 36.652C1103.8 36.204 1103.29 35.98 1102.65 35.98C1102.22 35.98 1101.85 36.0827 1101.53 36.288C1101.22 36.484 1100.98 36.778 1100.8 37.17C1100.63 37.5527 1100.55 38.0287 1100.55 38.598C1100.55 39.438 1100.74 40.0867 1101.12 40.544C1101.51 40.992 1102.02 41.216 1102.65 41.216ZM1108.18 42.098C1107.99 42.098 1107.84 42.0467 1107.74 41.944C1107.65 41.8413 1107.6 41.6967 1107.6 41.51V35.672C1107.6 35.4853 1107.65 35.3453 1107.74 35.252C1107.83 35.1493 1107.97 35.098 1108.15 35.098C1108.32 35.098 1108.46 35.1493 1108.55 35.252C1108.66 35.3453 1108.71 35.4853 1108.71 35.672V36.806H1108.57C1108.72 36.2553 1109 35.8307 1109.42 35.532C1109.84 35.2333 1110.36 35.0747 1110.98 35.056C1111.12 35.0467 1111.23 35.0793 1111.31 35.154C1111.4 35.2193 1111.44 35.336 1111.45 35.504C1111.46 35.6627 1111.42 35.7887 1111.34 35.882C1111.26 35.9753 1111.12 36.0313 1110.95 36.05L1110.72 36.078C1110.09 36.134 1109.6 36.3393 1109.25 36.694C1108.92 37.0393 1108.75 37.5153 1108.75 38.122V41.51C1108.75 41.6967 1108.7 41.8413 1108.6 41.944C1108.5 42.0467 1108.36 42.098 1108.18 42.098ZM1119.11 42.126C1118.43 42.126 1117.84 41.9767 1117.35 41.678C1116.85 41.3793 1116.47 40.964 1116.2 40.432C1115.94 39.8907 1115.81 39.2653 1115.81 38.556C1115.81 38.0147 1115.88 37.5293 1116.03 37.1C1116.18 36.6707 1116.4 36.3067 1116.69 36.008C1116.98 35.7 1117.33 35.4667 1117.73 35.308C1118.14 35.1493 1118.6 35.07 1119.11 35.07C1119.45 35.07 1119.8 35.1213 1120.16 35.224C1120.53 35.3267 1120.86 35.504 1121.16 35.756C1121.25 35.8213 1121.31 35.9007 1121.34 35.994C1121.37 36.0873 1121.37 36.1807 1121.34 36.274C1121.31 36.358 1121.26 36.4327 1121.2 36.498C1121.13 36.554 1121.05 36.5867 1120.95 36.596C1120.85 36.6053 1120.76 36.5727 1120.65 36.498C1120.41 36.3113 1120.16 36.1807 1119.91 36.106C1119.66 36.0313 1119.42 35.994 1119.18 35.994C1118.82 35.994 1118.5 36.0547 1118.23 36.176C1117.96 36.288 1117.73 36.4513 1117.54 36.666C1117.36 36.8807 1117.21 37.1467 1117.11 37.464C1117.02 37.7813 1116.97 38.15 1116.97 38.57C1116.97 39.382 1117.16 40.026 1117.54 40.502C1117.93 40.9687 1118.47 41.202 1119.18 41.202C1119.42 41.202 1119.65 41.1647 1119.9 41.09C1120.15 41.0153 1120.4 40.8847 1120.65 40.698C1120.76 40.6233 1120.85 40.5907 1120.95 40.6C1121.04 40.6093 1121.12 40.6467 1121.18 40.712C1121.25 40.768 1121.29 40.8427 1121.31 40.936C1121.34 41.0293 1121.34 41.1227 1121.31 41.216C1121.28 41.3 1121.22 41.3747 1121.13 41.44C1120.83 41.6827 1120.5 41.86 1120.15 41.972C1119.79 42.0747 1119.45 42.126 1119.11 42.126ZM1125.12 42.126C1124.57 42.126 1124.11 42.028 1123.75 41.832C1123.39 41.6267 1123.12 41.3233 1122.93 40.922C1122.76 40.5207 1122.67 40.0213 1122.67 39.424V35.672C1122.67 35.476 1122.71 35.3313 1122.81 35.238C1122.91 35.1447 1123.05 35.098 1123.23 35.098C1123.41 35.098 1123.55 35.1447 1123.65 35.238C1123.75 35.3313 1123.8 35.476 1123.8 35.672V39.41C1123.8 40.0073 1123.92 40.4553 1124.17 40.754C1124.42 41.0433 1124.81 41.188 1125.34 41.188C1125.92 41.188 1126.39 40.992 1126.76 40.6C1127.12 40.208 1127.3 39.6947 1127.3 39.06V35.672C1127.3 35.476 1127.35 35.3313 1127.44 35.238C1127.54 35.1447 1127.69 35.098 1127.88 35.098C1128.05 35.098 1128.19 35.1447 1128.28 35.238C1128.38 35.3313 1128.44 35.476 1128.44 35.672V41.51C1128.44 41.902 1128.25 42.098 1127.89 42.098C1127.71 42.098 1127.57 42.0467 1127.47 41.944C1127.38 41.8413 1127.33 41.6967 1127.33 41.51V40.236L1127.51 40.432C1127.32 40.9827 1127.02 41.4027 1126.59 41.692C1126.17 41.9813 1125.68 42.126 1125.12 42.126ZM1132.85 42.126C1132.43 42.126 1132.01 42.0747 1131.58 41.972C1131.16 41.8693 1130.77 41.692 1130.4 41.44C1130.31 41.3747 1130.24 41.3 1130.21 41.216C1130.17 41.1227 1130.16 41.034 1130.16 40.95C1130.18 40.8567 1130.22 40.7773 1130.28 40.712C1130.34 40.6467 1130.42 40.6093 1130.5 40.6C1130.59 40.5813 1130.7 40.6 1130.81 40.656C1131.17 40.88 1131.52 41.0387 1131.86 41.132C1132.2 41.216 1132.54 41.258 1132.88 41.258C1133.41 41.258 1133.81 41.16 1134.08 40.964C1134.36 40.768 1134.49 40.502 1134.49 40.166C1134.49 39.9047 1134.4 39.6993 1134.22 39.55C1134.05 39.3913 1133.77 39.27 1133.38 39.186L1132.11 38.906C1131.52 38.7847 1131.08 38.5747 1130.79 38.276C1130.51 37.9773 1130.37 37.59 1130.37 37.114C1130.37 36.694 1130.48 36.3347 1130.7 36.036C1130.92 35.728 1131.23 35.49 1131.63 35.322C1132.04 35.154 1132.5 35.07 1133.03 35.07C1133.45 35.07 1133.83 35.126 1134.2 35.238C1134.57 35.3407 1134.91 35.5087 1135.2 35.742C1135.3 35.8073 1135.36 35.8867 1135.39 35.98C1135.42 36.064 1135.43 36.1527 1135.4 36.246C1135.38 36.33 1135.34 36.4047 1135.27 36.47C1135.21 36.526 1135.13 36.5587 1135.04 36.568C1134.94 36.5773 1134.85 36.5493 1134.74 36.484C1134.46 36.2973 1134.18 36.162 1133.89 36.078C1133.6 35.9847 1133.31 35.938 1133.03 35.938C1132.51 35.938 1132.12 36.0407 1131.84 36.246C1131.57 36.4513 1131.44 36.722 1131.44 37.058C1131.44 37.3193 1131.52 37.534 1131.69 37.702C1131.86 37.87 1132.12 37.9913 1132.47 38.066L1133.75 38.332C1134.36 38.4627 1134.81 38.6727 1135.11 38.962C1135.41 39.242 1135.57 39.6247 1135.57 40.11C1135.57 40.726 1135.32 41.216 1134.83 41.58C1134.33 41.944 1133.67 42.126 1132.85 42.126ZM1139.96 42.126C1139.43 42.126 1138.98 42.0327 1138.61 41.846C1138.26 41.65 1137.99 41.37 1137.82 41.006C1137.64 40.6327 1137.55 40.18 1137.55 39.648V36.078H1136.61C1136.45 36.078 1136.33 36.0407 1136.25 35.966C1136.16 35.882 1136.12 35.77 1136.12 35.63C1136.12 35.49 1136.16 35.3827 1136.25 35.308C1136.33 35.2333 1136.45 35.196 1136.61 35.196H1137.55V33.586C1137.55 33.3993 1137.6 33.2593 1137.7 33.166C1137.81 33.0633 1137.95 33.012 1138.12 33.012C1138.3 33.012 1138.44 33.0633 1138.53 33.166C1138.63 33.2593 1138.68 33.3993 1138.68 33.586V35.196H1140.45C1140.61 35.196 1140.73 35.2333 1140.81 35.308C1140.9 35.3827 1140.94 35.49 1140.94 35.63C1140.94 35.77 1140.9 35.882 1140.81 35.966C1140.73 36.0407 1140.61 36.078 1140.45 36.078H1138.68V39.536C1138.68 40.068 1138.8 40.474 1139.02 40.754C1139.24 41.0247 1139.61 41.16 1140.11 41.16C1140.29 41.16 1140.44 41.1413 1140.56 41.104C1140.69 41.0667 1140.8 41.048 1140.88 41.048C1140.97 41.0387 1141.04 41.0667 1141.09 41.132C1141.15 41.1973 1141.18 41.3093 1141.18 41.468C1141.18 41.58 1141.15 41.6827 1141.11 41.776C1141.07 41.8693 1141 41.9347 1140.9 41.972C1140.78 42.0093 1140.64 42.042 1140.45 42.07C1140.27 42.1073 1140.11 42.126 1139.96 42.126ZM1144.88 42.126C1144.22 42.126 1143.65 41.9813 1143.16 41.692C1142.68 41.4027 1142.3 40.9967 1142.03 40.474C1141.77 39.942 1141.63 39.3167 1141.63 38.598C1141.63 38.0567 1141.71 37.5713 1141.86 37.142C1142.01 36.7033 1142.23 36.33 1142.52 36.022C1142.81 35.714 1143.15 35.4807 1143.54 35.322C1143.94 35.154 1144.39 35.07 1144.88 35.07C1145.55 35.07 1146.12 35.2147 1146.6 35.504C1147.09 35.7933 1147.46 36.204 1147.72 36.736C1148 37.2587 1148.13 37.8793 1148.13 38.598C1148.13 39.1393 1148.06 39.6247 1147.91 40.054C1147.76 40.4833 1147.54 40.8567 1147.25 41.174C1146.96 41.482 1146.61 41.72 1146.21 41.888C1145.82 42.0467 1145.38 42.126 1144.88 42.126ZM1144.88 41.216C1145.3 41.216 1145.67 41.1133 1145.99 40.908C1146.31 40.7027 1146.55 40.404 1146.72 40.012C1146.89 39.62 1146.98 39.1487 1146.98 38.598C1146.98 37.7487 1146.79 37.1 1146.41 36.652C1146.04 36.204 1145.53 35.98 1144.88 35.98C1144.45 35.98 1144.08 36.0827 1143.76 36.288C1143.45 36.484 1143.21 36.778 1143.03 37.17C1142.87 37.5527 1142.78 38.0287 1142.78 38.598C1142.78 39.438 1142.97 40.0867 1143.36 40.544C1143.74 40.992 1144.25 41.216 1144.88 41.216ZM1150.42 42.098C1150.24 42.098 1150.1 42.0467 1150 41.944C1149.91 41.8413 1149.86 41.6967 1149.86 41.51V35.672C1149.86 35.4853 1149.91 35.3453 1150 35.252C1150.1 35.1493 1150.23 35.098 1150.41 35.098C1150.59 35.098 1150.72 35.1493 1150.81 35.252C1150.92 35.3453 1150.97 35.4853 1150.97 35.672V36.904L1150.81 36.708C1150.99 36.1853 1151.28 35.784 1151.67 35.504C1152.07 35.2147 1152.55 35.07 1153.1 35.07C1153.67 35.07 1154.14 35.21 1154.5 35.49C1154.86 35.7607 1155.1 36.1853 1155.22 36.764H1155.01C1155.18 36.2413 1155.48 35.8307 1155.91 35.532C1156.35 35.224 1156.86 35.07 1157.44 35.07C1157.95 35.07 1158.37 35.168 1158.7 35.364C1159.03 35.56 1159.28 35.8587 1159.45 36.26C1159.62 36.652 1159.7 37.1513 1159.7 37.758V41.51C1159.7 41.6967 1159.65 41.8413 1159.55 41.944C1159.46 42.0467 1159.32 42.098 1159.13 42.098C1158.95 42.098 1158.81 42.0467 1158.71 41.944C1158.62 41.8413 1158.57 41.6967 1158.57 41.51V37.814C1158.57 37.1887 1158.46 36.7313 1158.25 36.442C1158.03 36.1433 1157.67 35.994 1157.16 35.994C1156.6 35.994 1156.15 36.19 1155.83 36.582C1155.51 36.9647 1155.35 37.4873 1155.35 38.15V41.51C1155.35 41.6967 1155.3 41.8413 1155.2 41.944C1155.1 42.0467 1154.96 42.098 1154.78 42.098C1154.6 42.098 1154.46 42.0467 1154.36 41.944C1154.26 41.8413 1154.22 41.6967 1154.22 41.51V37.814C1154.22 37.1887 1154.1 36.7313 1153.88 36.442C1153.67 36.1433 1153.31 35.994 1152.8 35.994C1152.24 35.994 1151.8 36.19 1151.47 36.582C1151.15 36.9647 1151 37.4873 1151 38.15V41.51C1151 41.902 1150.8 42.098 1150.42 42.098ZM1164.89 42.126C1164.17 42.126 1163.55 41.986 1163.03 41.706C1162.51 41.4167 1162.11 41.0107 1161.82 40.488C1161.54 39.9653 1161.4 39.34 1161.4 38.612C1161.4 37.9027 1161.54 37.2867 1161.82 36.764C1162.1 36.232 1162.49 35.8167 1162.97 35.518C1163.47 35.2193 1164.04 35.07 1164.68 35.07C1165.14 35.07 1165.55 35.1493 1165.91 35.308C1166.28 35.4573 1166.58 35.6767 1166.84 35.966C1167.1 36.2553 1167.29 36.6053 1167.42 37.016C1167.56 37.4267 1167.63 37.8887 1167.63 38.402C1167.63 38.5513 1167.59 38.6633 1167.51 38.738C1167.42 38.8033 1167.3 38.836 1167.14 38.836H1162.27V38.094H1166.88L1166.65 38.276C1166.65 37.772 1166.58 37.3473 1166.43 37.002C1166.28 36.6473 1166.06 36.3767 1165.77 36.19C1165.49 36.0033 1165.14 35.91 1164.71 35.91C1164.23 35.91 1163.83 36.022 1163.49 36.246C1163.16 36.4607 1162.92 36.764 1162.75 37.156C1162.58 37.5387 1162.5 37.9867 1162.5 38.5V38.584C1162.5 39.4427 1162.7 40.096 1163.11 40.544C1163.53 40.992 1164.12 41.216 1164.89 41.216C1165.21 41.216 1165.52 41.174 1165.83 41.09C1166.15 41.006 1166.45 40.866 1166.75 40.67C1166.88 40.586 1167 40.5487 1167.1 40.558C1167.21 40.558 1167.3 40.5907 1167.37 40.656C1167.43 40.712 1167.48 40.7867 1167.49 40.88C1167.52 40.964 1167.51 41.0573 1167.47 41.16C1167.43 41.2627 1167.35 41.3513 1167.23 41.426C1166.92 41.65 1166.56 41.8227 1166.14 41.944C1165.72 42.0653 1165.3 42.126 1164.89 42.126ZM1169.85 42.098C1169.66 42.098 1169.52 42.0467 1169.42 41.944C1169.32 41.8413 1169.28 41.6967 1169.28 41.51V35.672C1169.28 35.4853 1169.32 35.3453 1169.42 35.252C1169.51 35.1493 1169.64 35.098 1169.82 35.098C1170 35.098 1170.13 35.1493 1170.23 35.252C1170.33 35.3453 1170.38 35.4853 1170.38 35.672V36.806H1170.24C1170.39 36.2553 1170.68 35.8307 1171.1 35.532C1171.52 35.2333 1172.03 35.0747 1172.65 35.056C1172.79 35.0467 1172.9 35.0793 1172.99 35.154C1173.07 35.2193 1173.12 35.336 1173.13 35.504C1173.13 35.6627 1173.1 35.7887 1173.01 35.882C1172.93 35.9753 1172.8 36.0313 1172.62 36.05L1172.4 36.078C1171.76 36.134 1171.27 36.3393 1170.93 36.694C1170.59 37.0393 1170.42 37.5153 1170.42 38.122V41.51C1170.42 41.6967 1170.37 41.8413 1170.27 41.944C1170.18 42.0467 1170.04 42.098 1169.85 42.098ZM1174.55 42.056C1174.32 42.056 1174.13 41.986 1173.99 41.846C1173.85 41.6967 1173.78 41.51 1173.78 41.286C1173.78 41.062 1173.85 40.88 1173.99 40.74C1174.13 40.5907 1174.32 40.516 1174.55 40.516C1174.79 40.516 1174.97 40.5907 1175.1 40.74C1175.24 40.88 1175.31 41.062 1175.31 41.286C1175.31 41.51 1175.24 41.6967 1175.1 41.846C1174.97 41.986 1174.79 42.056 1174.55 42.056ZM1177.74 42.056C1177.5 42.056 1177.32 41.986 1177.18 41.846C1177.04 41.6967 1176.97 41.51 1176.97 41.286C1176.97 41.062 1177.04 40.88 1177.18 40.74C1177.32 40.5907 1177.5 40.516 1177.74 40.516C1177.97 40.516 1178.15 40.5907 1178.28 40.74C1178.42 40.88 1178.49 41.062 1178.49 41.286C1178.49 41.51 1178.42 41.6967 1178.28 41.846C1178.15 41.986 1177.97 42.056 1177.74 42.056ZM1180.92 42.056C1180.69 42.056 1180.5 41.986 1180.36 41.846C1180.22 41.6967 1180.15 41.51 1180.15 41.286C1180.15 41.062 1180.22 40.88 1180.36 40.74C1180.5 40.5907 1180.69 40.516 1180.92 40.516C1181.16 40.516 1181.34 40.5907 1181.47 40.74C1181.61 40.88 1181.68 41.062 1181.68 41.286C1181.68 41.51 1181.61 41.6967 1181.47 41.846C1181.34 41.986 1181.16 42.056 1180.92 42.056Z" fill="#6B7280"/>
<path d="M967.704 47L961.404 40.7C960.904 41.1 960.329 41.4167 959.679 41.65C959.029 41.8833 958.337 42 957.604 42C955.787 42 954.25 41.3708 952.992 40.1125C951.733 38.8542 951.104 37.3167 951.104 35.5C951.104 33.6833 951.733 32.1458 952.992 30.8875C954.25 29.6292 955.787 29 957.604 29C959.421 29 960.958 29.6292 962.217 30.8875C963.475 32.1458 964.104 33.6833 964.104 35.5C964.104 36.2333 963.987 36.925 963.754 37.575C963.521 38.225 963.204 38.8 962.804 39.3L969.104 45.6L967.704 47ZM957.604 40C958.854 40 959.917 39.5625 960.792 38.6875C961.667 37.8125 962.104 36.75 962.104 35.5C962.104 34.25 961.667 33.1875 960.792 32.3125C959.917 31.4375 958.854 31 957.604 31C956.354 31 955.292 31.4375 954.417 32.3125C953.542 33.1875 953.104 34.25 953.104 35.5C953.104 36.75 953.542 37.8125 954.417 38.6875C955.292 39.5625 956.354 40 957.604 40Z" fill="#94A3B8"/>
<path d="M1205.14 41.144C1204.64 41.144 1204.15 41.1013 1203.67 41.016C1203.19 40.9307 1202.74 40.808 1202.33 40.648C1201.92 40.488 1201.55 40.2853 1201.22 40.04C1201.1 39.944 1201.01 39.8373 1200.95 39.72C1200.91 39.592 1200.9 39.4693 1200.92 39.352C1200.95 39.224 1201.01 39.1173 1201.08 39.032C1201.17 38.9467 1201.27 38.8987 1201.38 38.888C1201.5 38.8773 1201.63 38.9147 1201.77 39C1202.25 39.3413 1202.76 39.592 1203.3 39.752C1203.85 39.9013 1204.46 39.976 1205.14 39.976C1206.1 39.976 1206.81 39.8 1207.27 39.448C1207.74 39.0853 1207.98 38.6107 1207.98 38.024C1207.98 37.544 1207.81 37.1707 1207.46 36.904C1207.13 36.6267 1206.57 36.408 1205.78 36.248L1204.12 35.912C1203.12 35.6987 1202.37 35.352 1201.86 34.872C1201.37 34.3813 1201.13 33.7307 1201.13 32.92C1201.13 32.4187 1201.23 31.9653 1201.43 31.56C1201.63 31.144 1201.92 30.792 1202.28 30.504C1202.64 30.2053 1203.07 29.976 1203.58 29.816C1204.08 29.656 1204.63 29.576 1205.24 29.576C1205.91 29.576 1206.54 29.672 1207.11 29.864C1207.7 30.0453 1208.23 30.3227 1208.7 30.696C1208.81 30.792 1208.89 30.904 1208.94 31.032C1208.98 31.1493 1208.98 31.2667 1208.95 31.384C1208.92 31.4907 1208.86 31.5813 1208.78 31.656C1208.7 31.7307 1208.6 31.7733 1208.47 31.784C1208.35 31.7947 1208.22 31.752 1208.07 31.656C1207.65 31.336 1207.2 31.1067 1206.74 30.968C1206.29 30.8187 1205.78 30.744 1205.22 30.744C1204.66 30.744 1204.17 30.8293 1203.75 31C1203.35 31.1707 1203.03 31.4213 1202.79 31.752C1202.57 32.072 1202.46 32.4453 1202.46 32.872C1202.46 33.384 1202.61 33.7893 1202.92 34.088C1203.24 34.3867 1203.76 34.6053 1204.47 34.744L1206.14 35.096C1207.21 35.32 1208.01 35.6613 1208.52 36.12C1209.04 36.568 1209.3 37.1813 1209.3 37.96C1209.3 38.4293 1209.21 38.8613 1209.02 39.256C1208.82 39.6507 1208.55 39.992 1208.18 40.28C1207.82 40.5573 1207.38 40.7707 1206.87 40.92C1206.36 41.0693 1205.78 41.144 1205.14 41.144ZM1211.8 41.112C1211.59 41.112 1211.43 41.0533 1211.32 40.936C1211.22 40.8187 1211.16 40.6533 1211.16 40.44V30.264C1211.16 30.0507 1211.22 29.8907 1211.32 29.784C1211.43 29.6667 1211.59 29.608 1211.8 29.608C1212.01 29.608 1212.17 29.6667 1212.28 29.784C1212.4 29.8907 1212.46 30.0507 1212.46 30.264V34.952H1212.25C1212.48 34.3333 1212.84 33.8693 1213.34 33.56C1213.85 33.24 1214.44 33.08 1215.1 33.08C1215.72 33.08 1216.23 33.192 1216.64 33.416C1217.05 33.64 1217.36 33.9813 1217.56 34.44C1217.77 34.888 1217.87 35.4587 1217.87 36.152V40.44C1217.87 40.6533 1217.81 40.8187 1217.69 40.936C1217.59 41.0533 1217.43 41.112 1217.23 41.112C1217.01 41.112 1216.85 41.0533 1216.73 40.936C1216.63 40.8187 1216.57 40.6533 1216.57 40.44V36.232C1216.57 35.5067 1216.43 34.9787 1216.14 34.648C1215.86 34.3067 1215.41 34.136 1214.8 34.136C1214.08 34.136 1213.51 34.36 1213.08 34.808C1212.67 35.2453 1212.46 35.832 1212.46 36.568V40.44C1212.46 40.888 1212.24 41.112 1211.8 41.112ZM1223.49 41.144C1222.73 41.144 1222.08 40.9787 1221.52 40.648C1220.97 40.3173 1220.53 39.8533 1220.23 39.256C1219.93 38.648 1219.78 37.9333 1219.78 37.112C1219.78 36.4933 1219.86 35.9387 1220.03 35.448C1220.2 34.9467 1220.45 34.52 1220.79 34.168C1221.12 33.816 1221.51 33.5493 1221.95 33.368C1222.41 33.176 1222.92 33.08 1223.49 33.08C1224.25 33.08 1224.9 33.2453 1225.46 33.576C1226.01 33.9067 1226.44 34.376 1226.74 34.984C1227.05 35.5813 1227.2 36.2907 1227.2 37.112C1227.2 37.7307 1227.12 38.2853 1226.95 38.776C1226.77 39.2667 1226.52 39.6933 1226.19 40.056C1225.86 40.408 1225.47 40.68 1225.01 40.872C1224.56 41.0533 1224.05 41.144 1223.49 41.144ZM1223.49 40.104C1223.97 40.104 1224.39 39.9867 1224.75 39.752C1225.12 39.5173 1225.39 39.176 1225.59 38.728C1225.79 38.28 1225.89 37.7413 1225.89 37.112C1225.89 36.1413 1225.67 35.4 1225.23 34.888C1224.81 34.376 1224.23 34.12 1223.49 34.12C1223 34.12 1222.57 34.2373 1222.21 34.472C1221.86 34.696 1221.58 35.032 1221.38 35.48C1221.19 35.9173 1221.09 36.4613 1221.09 37.112C1221.09 38.072 1221.31 38.8133 1221.75 39.336C1222.18 39.848 1222.76 40.104 1223.49 40.104ZM1231.73 41.112C1231.55 41.112 1231.39 41.064 1231.25 40.968C1231.11 40.872 1231 40.7173 1230.91 40.504L1228.53 34.024C1228.46 33.8427 1228.44 33.6827 1228.46 33.544C1228.49 33.4053 1228.56 33.2987 1228.67 33.224C1228.78 33.1493 1228.91 33.112 1229.07 33.112C1229.23 33.112 1229.36 33.1493 1229.45 33.224C1229.56 33.2987 1229.65 33.4373 1229.71 33.64L1231.95 40.04H1231.57L1233.87 33.64C1233.95 33.448 1234.04 33.3147 1234.14 33.24C1234.26 33.1547 1234.41 33.112 1234.59 33.112C1234.76 33.112 1234.91 33.1547 1235.02 33.24C1235.14 33.3253 1235.23 33.4587 1235.29 33.64L1237.55 40.04H1237.18L1239.45 33.608C1239.53 33.416 1239.62 33.288 1239.73 33.224C1239.83 33.1493 1239.96 33.112 1240.11 33.112C1240.28 33.112 1240.41 33.1547 1240.49 33.24C1240.59 33.3253 1240.64 33.4373 1240.65 33.576C1240.67 33.7147 1240.64 33.864 1240.57 34.024L1238.19 40.504C1238.12 40.7067 1238 40.8613 1237.85 40.968C1237.72 41.064 1237.56 41.112 1237.37 41.112C1237.19 41.112 1237.03 41.064 1236.89 40.968C1236.76 40.8613 1236.65 40.7067 1236.57 40.504L1234.21 34.008H1234.89L1232.54 40.504C1232.47 40.7067 1232.36 40.8613 1232.22 40.968C1232.08 41.064 1231.92 41.112 1231.73 41.112ZM1247.24 41.064C1246.97 41.064 1246.76 40.984 1246.6 40.824C1246.44 40.6533 1246.36 40.44 1246.36 40.184C1246.36 39.928 1246.44 39.72 1246.6 39.56C1246.76 39.3893 1246.97 39.304 1247.24 39.304C1247.51 39.304 1247.72 39.3893 1247.86 39.56C1248.02 39.72 1248.1 39.928 1248.1 40.184C1248.1 40.44 1248.02 40.6533 1247.86 40.824C1247.72 40.984 1247.51 41.064 1247.24 41.064ZM1247.24 34.92C1246.97 34.92 1246.76 34.8347 1246.6 34.664C1246.44 34.4933 1246.36 34.2853 1246.36 34.04C1246.36 33.7733 1246.44 33.56 1246.6 33.4C1246.76 33.24 1246.97 33.16 1247.24 33.16C1247.51 33.16 1247.72 33.24 1247.86 33.4C1248.02 33.56 1248.1 33.7733 1248.1 34.04C1248.1 34.2853 1248.02 34.4933 1247.86 34.664C1247.72 34.8347 1247.51 34.92 1247.24 34.92ZM1308.9 41C1308.67 41 1308.49 40.9413 1308.36 40.824C1308.24 40.696 1308.18 40.5147 1308.18 40.28V30.44C1308.18 30.2053 1308.24 30.0293 1308.36 29.912C1308.49 29.784 1308.67 29.72 1308.9 29.72H1314.86C1315.04 29.72 1315.18 29.768 1315.27 29.864C1315.37 29.96 1315.42 30.0933 1315.42 30.264C1315.42 30.4453 1315.37 30.584 1315.27 30.68C1315.18 30.776 1315.04 30.824 1314.86 30.824H1309.46V34.728H1314.52C1314.7 34.728 1314.84 34.776 1314.94 34.872C1315.03 34.9573 1315.08 35.0907 1315.08 35.272C1315.08 35.4533 1315.03 35.592 1314.94 35.688C1314.84 35.784 1314.7 35.832 1314.52 35.832H1309.46V39.896H1314.86C1315.04 39.896 1315.18 39.944 1315.27 40.04C1315.37 40.136 1315.42 40.2693 1315.42 40.44C1315.42 40.6213 1315.37 40.76 1315.27 40.856C1315.18 40.952 1315.04 41 1314.86 41H1308.9ZM1317.98 41.112C1317.76 41.112 1317.6 41.0533 1317.5 40.936C1317.39 40.8187 1317.34 40.6533 1317.34 40.44V33.768C1317.34 33.5547 1317.39 33.3947 1317.5 33.288C1317.6 33.1707 1317.76 33.112 1317.96 33.112C1318.16 33.112 1318.32 33.1707 1318.42 33.288C1318.54 33.3947 1318.6 33.5547 1318.6 33.768V35.144L1318.42 34.952C1318.65 34.3333 1319.01 33.8693 1319.51 33.56C1320.02 33.24 1320.61 33.08 1321.27 33.08C1321.89 33.08 1322.4 33.192 1322.81 33.416C1323.22 33.64 1323.53 33.9813 1323.74 34.44C1323.94 34.888 1324.04 35.4587 1324.04 36.152V40.44C1324.04 40.6533 1323.98 40.8187 1323.86 40.936C1323.76 41.0533 1323.6 41.112 1323.4 41.112C1323.19 41.112 1323.02 41.0533 1322.9 40.936C1322.8 40.8187 1322.74 40.6533 1322.74 40.44V36.232C1322.74 35.5067 1322.6 34.9787 1322.31 34.648C1322.03 34.3067 1321.59 34.136 1320.97 34.136C1320.25 34.136 1319.68 34.36 1319.26 34.808C1318.84 35.2453 1318.63 35.832 1318.63 36.568V40.44C1318.63 40.888 1318.41 41.112 1317.98 41.112ZM1332.69 43.992C1332.47 43.992 1332.31 43.9333 1332.19 43.816C1332.08 43.7093 1332.03 43.5493 1332.03 43.336V39.176H1332.21C1332.03 39.7733 1331.7 40.2533 1331.2 40.616C1330.7 40.968 1330.09 41.144 1329.39 41.144C1328.7 41.144 1328.09 40.9787 1327.57 40.648C1327.05 40.3173 1326.65 39.8533 1326.37 39.256C1326.09 38.648 1325.95 37.9333 1325.95 37.112C1325.95 36.28 1326.09 35.5653 1326.37 34.968C1326.65 34.36 1327.05 33.896 1327.57 33.576C1328.09 33.2453 1328.7 33.08 1329.39 33.08C1330.09 33.08 1330.7 33.2613 1331.2 33.624C1331.71 33.976 1332.05 34.456 1332.22 35.064L1332.05 35.288V33.768C1332.05 33.5547 1332.1 33.3947 1332.21 33.288C1332.32 33.1707 1332.48 33.112 1332.69 33.112C1332.9 33.112 1333.06 33.1707 1333.17 33.288C1333.27 33.3947 1333.33 33.5547 1333.33 33.768V43.336C1333.33 43.5493 1333.27 43.7093 1333.15 43.816C1333.04 43.9333 1332.89 43.992 1332.69 43.992ZM1329.66 40.104C1330.14 40.104 1330.56 39.9867 1330.93 39.752C1331.29 39.5173 1331.57 39.176 1331.76 38.728C1331.96 38.28 1332.06 37.7413 1332.06 37.112C1332.06 36.1413 1331.84 35.4 1331.41 34.888C1330.98 34.376 1330.4 34.12 1329.66 34.12C1329.17 34.12 1328.74 34.2373 1328.38 34.472C1328.03 34.696 1327.75 35.032 1327.55 35.48C1327.36 35.9173 1327.26 36.4613 1327.26 37.112C1327.26 38.072 1327.48 38.8133 1327.92 39.336C1328.35 39.848 1328.94 40.104 1329.66 40.104ZM1338.51 41.144C1337.88 41.144 1337.36 41.032 1336.94 40.808C1336.54 40.5733 1336.23 40.2267 1336.01 39.768C1335.81 39.3093 1335.71 38.7387 1335.71 38.056V33.768C1335.71 33.544 1335.76 33.3787 1335.87 33.272C1335.99 33.1653 1336.15 33.112 1336.35 33.112C1336.56 33.112 1336.72 33.1653 1336.83 33.272C1336.95 33.3787 1337.01 33.544 1337.01 33.768V38.04C1337.01 38.7227 1337.14 39.2347 1337.42 39.576C1337.71 39.9067 1338.16 40.072 1338.77 40.072C1339.43 40.072 1339.97 39.848 1340.38 39.4C1340.8 38.952 1341.01 38.3653 1341.01 37.64V33.768C1341.01 33.544 1341.06 33.3787 1341.17 33.272C1341.28 33.1653 1341.45 33.112 1341.66 33.112C1341.86 33.112 1342.02 33.1653 1342.13 33.272C1342.24 33.3787 1342.3 33.544 1342.3 33.768V40.44C1342.3 40.888 1342.09 41.112 1341.68 41.112C1341.47 41.112 1341.31 41.0533 1341.2 40.936C1341.09 40.8187 1341.04 40.6533 1341.04 40.44V38.984L1341.25 39.208C1341.03 39.8373 1340.68 40.3173 1340.19 40.648C1339.71 40.9787 1339.15 41.144 1338.51 41.144ZM1345.37 41.08C1345.15 41.08 1344.99 41.0213 1344.89 40.904C1344.78 40.776 1344.73 40.6 1344.73 40.376V33.832C1344.73 33.608 1344.78 33.4373 1344.89 33.32C1344.99 33.2027 1345.15 33.144 1345.37 33.144C1345.57 33.144 1345.73 33.2027 1345.85 33.32C1345.96 33.4373 1346.02 33.608 1346.02 33.832V40.376C1346.02 40.6 1345.96 40.776 1345.85 40.904C1345.74 41.0213 1345.58 41.08 1345.37 41.08ZM1345.37 31.352C1345.1 31.352 1344.89 31.2827 1344.74 31.144C1344.59 30.9947 1344.52 30.7973 1344.52 30.552C1344.52 30.296 1344.59 30.104 1344.74 29.976C1344.89 29.8373 1345.1 29.768 1345.37 29.768C1345.64 29.768 1345.85 29.8373 1345.99 29.976C1346.14 30.104 1346.21 30.296 1346.21 30.552C1346.21 30.7973 1346.14 30.9947 1345.99 31.144C1345.85 31.2827 1345.64 31.352 1345.37 31.352ZM1349.1 41.112C1348.89 41.112 1348.72 41.0533 1348.61 40.936C1348.5 40.8187 1348.45 40.6533 1348.45 40.44V33.768C1348.45 33.5547 1348.5 33.3947 1348.61 33.288C1348.71 33.1707 1348.87 33.112 1349.07 33.112C1349.27 33.112 1349.43 33.1707 1349.53 33.288C1349.65 33.3947 1349.71 33.5547 1349.71 33.768V35.064H1349.55C1349.72 34.4347 1350.05 33.9493 1350.53 33.608C1351.01 33.2667 1351.6 33.0853 1352.3 33.064C1352.46 33.0533 1352.59 33.0907 1352.69 33.176C1352.78 33.2507 1352.83 33.384 1352.85 33.576C1352.86 33.7573 1352.81 33.9013 1352.72 34.008C1352.62 34.1147 1352.47 34.1787 1352.27 34.2L1352.01 34.232C1351.29 34.296 1350.73 34.5307 1350.33 34.936C1349.95 35.3307 1349.76 35.8747 1349.76 36.568V40.44C1349.76 40.6533 1349.7 40.8187 1349.58 40.936C1349.47 41.0533 1349.31 41.112 1349.1 41.112ZM1354.82 41.08C1354.61 41.08 1354.45 41.0213 1354.34 40.904C1354.23 40.776 1354.18 40.6 1354.18 40.376V33.832C1354.18 33.608 1354.23 33.4373 1354.34 33.32C1354.45 33.2027 1354.61 33.144 1354.82 33.144C1355.02 33.144 1355.18 33.2027 1355.3 33.32C1355.42 33.4373 1355.48 33.608 1355.48 33.832V40.376C1355.48 40.6 1355.42 40.776 1355.3 40.904C1355.19 41.0213 1355.03 41.08 1354.82 41.08ZM1354.82 31.352C1354.55 31.352 1354.34 31.2827 1354.2 31.144C1354.05 30.9947 1353.97 30.7973 1353.97 30.552C1353.97 30.296 1354.05 30.104 1354.2 29.976C1354.34 29.8373 1354.55 29.768 1354.82 29.768C1355.1 29.768 1355.3 29.8373 1355.44 29.976C1355.59 30.104 1355.67 30.296 1355.67 30.552C1355.67 30.7973 1355.59 30.9947 1355.44 31.144C1355.3 31.2827 1355.1 31.352 1354.82 31.352ZM1361.4 41.144C1360.58 41.144 1359.87 40.984 1359.27 40.664C1358.69 40.3333 1358.23 39.8693 1357.9 39.272C1357.58 38.6747 1357.42 37.96 1357.42 37.128C1357.42 36.3173 1357.58 35.6133 1357.9 35.016C1358.22 34.408 1358.66 33.9333 1359.21 33.592C1359.78 33.2507 1360.43 33.08 1361.16 33.08C1361.68 33.08 1362.15 33.1707 1362.57 33.352C1362.99 33.5227 1363.34 33.7733 1363.63 34.104C1363.92 34.4347 1364.15 34.8347 1364.3 35.304C1364.46 35.7733 1364.54 36.3013 1364.54 36.888C1364.54 37.0587 1364.49 37.1867 1364.39 37.272C1364.3 37.3467 1364.16 37.384 1363.98 37.384H1358.41V36.536H1363.67L1363.42 36.744C1363.42 36.168 1363.33 35.6827 1363.16 35.288C1362.99 34.8827 1362.74 34.5733 1362.41 34.36C1362.09 34.1467 1361.68 34.04 1361.19 34.04C1360.65 34.04 1360.19 34.168 1359.8 34.424C1359.43 34.6693 1359.15 35.016 1358.95 35.464C1358.76 35.9013 1358.67 36.4133 1358.67 37V37.096C1358.67 38.0773 1358.9 38.824 1359.37 39.336C1359.85 39.848 1360.53 40.104 1361.4 40.104C1361.76 40.104 1362.12 40.056 1362.47 39.96C1362.84 39.864 1363.19 39.704 1363.53 39.48C1363.68 39.384 1363.81 39.3413 1363.93 39.352C1364.06 39.352 1364.16 39.3893 1364.23 39.464C1364.31 39.528 1364.36 39.6133 1364.38 39.72C1364.41 39.816 1364.4 39.9227 1364.35 40.04C1364.3 40.1573 1364.21 40.2587 1364.07 40.344C1363.72 40.6 1363.31 40.7973 1362.83 40.936C1362.35 41.0747 1361.87 41.144 1361.4 41.144ZM1369.04 41.144C1368.56 41.144 1368.07 41.0853 1367.58 40.968C1367.1 40.8507 1366.65 40.648 1366.24 40.36C1366.13 40.2853 1366.06 40.2 1366.01 40.104C1365.97 39.9973 1365.96 39.896 1365.97 39.8C1365.99 39.6933 1366.03 39.6027 1366.09 39.528C1366.17 39.4533 1366.25 39.4107 1366.35 39.4C1366.46 39.3787 1366.57 39.4 1366.7 39.464C1367.12 39.72 1367.52 39.9013 1367.9 40.008C1368.3 40.104 1368.69 40.152 1369.07 40.152C1369.68 40.152 1370.14 40.04 1370.45 39.816C1370.76 39.592 1370.91 39.288 1370.91 38.904C1370.91 38.6053 1370.81 38.3707 1370.61 38.2C1370.4 38.0187 1370.08 37.88 1369.65 37.784L1368.19 37.464C1367.52 37.3253 1367.02 37.0853 1366.69 36.744C1366.37 36.4027 1366.21 35.96 1366.21 35.416C1366.21 34.936 1366.33 34.5253 1366.57 34.184C1366.83 33.832 1367.19 33.56 1367.65 33.368C1368.1 33.176 1368.64 33.08 1369.25 33.08C1369.72 33.08 1370.16 33.144 1370.57 33.272C1371 33.3893 1371.38 33.5813 1371.73 33.848C1371.83 33.9227 1371.9 34.0133 1371.93 34.12C1371.98 34.216 1371.98 34.3173 1371.95 34.424C1371.93 34.52 1371.88 34.6053 1371.81 34.68C1371.73 34.744 1371.64 34.7813 1371.53 34.792C1371.43 34.8027 1371.32 34.7707 1371.2 34.696C1370.88 34.4827 1370.55 34.328 1370.22 34.232C1369.89 34.1253 1369.57 34.072 1369.25 34.072C1368.65 34.072 1368.2 34.1893 1367.89 34.424C1367.58 34.6587 1367.42 34.968 1367.42 35.352C1367.42 35.6507 1367.52 35.896 1367.71 36.088C1367.9 36.28 1368.2 36.4187 1368.61 36.504L1370.06 36.808C1370.76 36.9573 1371.27 37.1973 1371.61 37.528C1371.97 37.848 1372.14 38.2853 1372.14 38.84C1372.14 39.544 1371.86 40.104 1371.29 40.52C1370.73 40.936 1369.98 41.144 1369.04 41.144Z" fill="black"/>
</svg>
