<svg width="48" height="48" viewBox="0 0 48 48" fill="none" xmlns="http://www.w3.org/2000/svg">
<rect width="48" height="48" rx="24" fill="#008000" fill-opacity="0.59"/>
<path d="M15.0714 27.1403C15.9771 27.1401 16.855 27.4528 17.5566 28.0254C18.2581 28.598 18.7403 29.3954 18.9214 30.2826H30V14.5711H12.7143C11.8807 14.5711 11.0813 14.9022 10.4919 15.4915C9.90255 16.0808 9.57143 16.8801 9.57143 17.7134V30.2826H11.2214C11.4026 29.3954 11.8847 28.598 12.5863 28.0254C13.2879 27.4528 14.1658 27.1401 15.0714 27.1403ZM15.0714 34.9961C14.1658 34.9962 13.2879 34.6836 12.5863 34.111C11.8847 33.5383 11.4026 32.741 11.2214 31.8538H8V17.7134C8 16.4634 8.49668 15.2645 9.38078 14.3805C10.2649 13.4966 11.464 13 12.7143 13H30C30.4168 13 30.8165 13.1655 31.1112 13.4602C31.4059 13.7548 31.5714 14.1545 31.5714 14.5711V17.7134H36.2857L41 23.998V31.8538H37.7786C37.5982 32.7417 37.1164 33.54 36.4148 34.1134C35.7131 34.6868 34.8348 35 33.9286 35C33.0224 35 32.144 34.6868 31.4424 34.1134C30.7407 33.54 30.2589 32.7417 30.0786 31.8538H18.9214C18.7403 32.741 18.2581 33.5383 17.5566 34.111C16.855 34.6836 15.9771 34.9962 15.0714 34.9961ZM15.0714 28.7115C14.4463 28.7115 13.8467 28.9598 13.4047 29.4017C12.9626 29.8437 12.7143 30.4432 12.7143 31.0682C12.7143 31.6932 12.9626 32.2927 13.4047 32.7346C13.8467 33.1766 14.4463 33.4249 15.0714 33.4249C15.6966 33.4249 16.2961 33.1766 16.7382 32.7346C17.1802 32.2927 17.4286 31.6932 17.4286 31.0682C17.4286 30.4432 17.1802 29.8437 16.7382 29.4017C16.2961 28.9598 15.6966 28.7115 15.0714 28.7115ZM33.9286 27.1403C34.8342 27.1401 35.7121 27.4528 36.4137 28.0254C37.1153 28.598 37.5974 29.3954 37.7786 30.2826H39.4286V24.5008L39.0514 23.998H31.5714V27.9259C32.2314 27.4388 33.0486 27.1403 33.9286 27.1403ZM33.9286 28.7115C33.3034 28.7115 32.7039 28.9598 32.2618 29.4017C31.8198 29.8437 31.5714 30.4432 31.5714 31.0682C31.5714 31.6932 31.8198 32.2927 32.2618 32.7346C32.7039 33.1766 33.3034 33.4249 33.9286 33.4249C34.5537 33.4249 35.1533 33.1766 35.5953 32.7346C36.0374 32.2927 36.2857 31.6932 36.2857 31.0682C36.2857 30.4432 36.0374 29.8437 35.5953 29.4017C35.1533 28.9598 34.5537 28.7115 33.9286 28.7115ZM31.5714 19.2846V22.4269H37.8571L35.5 19.2846H31.5714Z" fill="white"/>
</svg>
