<svg width="17" height="16" viewBox="0 0 17 16" fill="none" xmlns="http://www.w3.org/2000/svg">
<path d="M16.162 8.20833C16.162 3.33333 12.5305 0 8.5 0C4.50939 0 0.838028 3.25 0.838028 8.25C0.319249 8.54167 0 9.125 0 9.79167V11.5417C0 12.5417 0.758216 13.3333 1.67606 13.3333C2.15493 13.3333 2.55399 12.9167 2.55399 12.4583V8.16667C2.55399 4.75 5.06807 1.79167 8.30047 1.70833C11.6925 1.58333 14.446 4.41667 14.446 7.91667V14.2083H8.5C8.02113 14.2083 7.66197 14.625 7.66197 15.125C7.66197 15.5833 8.02113 16 8.5 16H14.446C15.4038 16 16.162 15.2083 16.162 14.2083V13.125C16.6807 12.875 17 12.3333 17 11.6667V9.625C17 9 16.6807 8.45833 16.162 8.20833ZM5.10798 8.875C5.10798 8.41667 5.46714 8 5.94601 8C6.42488 8 6.78404 8.41667 6.78404 8.875C6.78404 9.375 6.42488 9.79167 5.94601 9.79167C5.46714 9.79167 5.10798 9.375 5.10798 8.875ZM10.216 8.875C10.216 8.41667 10.5751 8 11.054 8C11.5329 8 11.892 8.41667 11.892 8.875C11.892 9.375 11.5329 9.79167 11.054 9.79167C10.5751 9.79167 10.216 9.375 10.216 8.875ZM13.608 7.125C13.2089 4.625 11.0939 2.66667 8.53991 2.66667C5.94601 2.66667 3.19249 4.91667 3.39202 8.41667C5.50704 7.5 7.10329 5.54167 7.54225 3.16667C8.65962 5.5 10.9343 7.125 13.608 7.125Z" fill="#6F747F" fill-opacity="0.56"/>
</svg>
