<svg width="173" height="22" viewBox="0 0 173 22" fill="none" xmlns="http://www.w3.org/2000/svg">
<path d="M8 0H165V12C165 17.5228 160.523 22 155 22H18C12.4771 22 8 17.5228 8 12V0Z" fill="#65BDFF"/>
<path d="M43.1934 15.104C42.9247 15.104 42.7167 15.0303 42.5694 14.883C42.4307 14.727 42.3614 14.5147 42.3614 14.246V6.589C42.3614 6.31167 42.4307 6.09933 42.5694 5.952C42.7167 5.80467 42.9247 5.731 43.1934 5.731C43.462 5.731 43.6657 5.80467 43.8044 5.952C43.9517 6.09933 44.0254 6.31167 44.0254 6.589V14.246C44.0254 14.5147 43.956 14.727 43.8174 14.883C43.6787 15.0303 43.4707 15.104 43.1934 15.104ZM46.6803 15.104C46.4203 15.104 46.221 15.0347 46.0823 14.896C45.9436 14.7487 45.8743 14.5407 45.8743 14.272V9.358C45.8743 9.08933 45.9436 8.88567 46.0823 8.747C46.221 8.60833 46.416 8.539 46.6673 8.539C46.9186 8.539 47.1136 8.60833 47.2523 8.747C47.391 8.88567 47.4603 9.08933 47.4603 9.358V10.242L47.3173 9.917C47.508 9.45767 47.8026 9.111 48.2013 8.877C48.6086 8.63433 49.068 8.513 49.5793 8.513C50.0906 8.513 50.511 8.60833 50.8403 8.799C51.1696 8.98967 51.4166 9.28 51.5813 9.67C51.746 10.0513 51.8283 10.5367 51.8283 11.126V14.272C51.8283 14.5407 51.759 14.7487 51.6203 14.896C51.4816 15.0347 51.2823 15.104 51.0223 15.104C50.7623 15.104 50.5586 15.0347 50.4113 14.896C50.2726 14.7487 50.2033 14.5407 50.2033 14.272V11.204C50.2033 10.71 50.108 10.3503 49.9173 10.125C49.7353 9.89967 49.4493 9.787 49.0593 9.787C48.5826 9.787 48.2013 9.93867 47.9153 10.242C47.638 10.5367 47.4993 10.931 47.4993 11.425V14.272C47.4993 14.8267 47.2263 15.104 46.6803 15.104ZM55.8058 15.13C55.4331 15.13 55.0388 15.091 54.6228 15.013C54.2068 14.935 53.8341 14.8007 53.5048 14.61C53.3661 14.5233 53.2665 14.4237 53.2058 14.311C53.1538 14.1897 53.1321 14.0727 53.1408 13.96C53.1581 13.8387 53.2015 13.7347 53.2708 13.648C53.3488 13.5613 53.4441 13.505 53.5568 13.479C53.6781 13.453 53.8081 13.4747 53.9468 13.544C54.2935 13.7087 54.6185 13.8257 54.9218 13.895C55.2251 13.9557 55.5241 13.986 55.8188 13.986C56.2348 13.986 56.5425 13.9167 56.7418 13.778C56.9498 13.6307 57.0538 13.44 57.0538 13.206C57.0538 13.0067 56.9845 12.855 56.8458 12.751C56.7158 12.6383 56.5165 12.556 56.2478 12.504L54.9478 12.257C54.4105 12.153 53.9988 11.958 53.7128 11.672C53.4355 11.3773 53.2968 11.0003 53.2968 10.541C53.2968 10.125 53.4095 9.76533 53.6348 9.462C53.8688 9.15867 54.1895 8.92467 54.5968 8.76C55.0041 8.59533 55.4721 8.513 56.0008 8.513C56.3821 8.513 56.7375 8.55633 57.0668 8.643C57.4048 8.721 57.7298 8.84667 58.0418 9.02C58.1718 9.08933 58.2585 9.18033 58.3018 9.293C58.3538 9.40567 58.3668 9.52267 58.3408 9.644C58.3148 9.75667 58.2628 9.86067 58.1848 9.956C58.1068 10.0427 58.0071 10.099 57.8858 10.125C57.7731 10.1423 57.6431 10.1163 57.4958 10.047C57.2271 9.90833 56.9671 9.80867 56.7158 9.748C56.4731 9.68733 56.2391 9.657 56.0138 9.657C55.5891 9.657 55.2728 9.73067 55.0648 9.878C54.8655 10.0253 54.7658 10.2203 54.7658 10.463C54.7658 10.645 54.8265 10.7967 54.9478 10.918C55.0691 11.0393 55.2555 11.1217 55.5068 11.165L56.8068 11.412C57.3701 11.516 57.7948 11.7067 58.0808 11.984C58.3755 12.2613 58.5228 12.634 58.5228 13.102C58.5228 13.7347 58.2758 14.233 57.7818 14.597C57.2878 14.9523 56.6291 15.13 55.8058 15.13ZM62.1274 15.13C61.5988 15.13 61.1611 15.0347 60.8144 14.844C60.4678 14.6447 60.2078 14.35 60.0344 13.96C59.8698 13.57 59.7874 13.0847 59.7874 12.504V9.358C59.7874 9.08067 59.8568 8.877 59.9954 8.747C60.1341 8.60833 60.3334 8.539 60.5934 8.539C60.8534 8.539 61.0528 8.60833 61.1914 8.747C61.3388 8.877 61.4124 9.08067 61.4124 9.358V12.53C61.4124 12.9807 61.5034 13.3143 61.6854 13.531C61.8674 13.7477 62.1578 13.856 62.5564 13.856C62.9898 13.856 63.3451 13.7087 63.6224 13.414C63.8998 13.1107 64.0384 12.712 64.0384 12.218V9.358C64.0384 9.08067 64.1078 8.877 64.2464 8.747C64.3851 8.60833 64.5844 8.539 64.8444 8.539C65.1044 8.539 65.3038 8.60833 65.4424 8.747C65.5898 8.877 65.6634 9.08067 65.6634 9.358V14.272C65.6634 14.8267 65.3991 15.104 64.8704 15.104C64.6191 15.104 64.4241 15.0347 64.2854 14.896C64.1468 14.7487 64.0774 14.5407 64.0774 14.272V13.284L64.2594 13.674C64.0774 14.142 63.8001 14.5017 63.4274 14.753C63.0634 15.0043 62.6301 15.13 62.1274 15.13ZM68.1868 15.104C67.9181 15.104 67.7101 15.0347 67.5628 14.896C67.4241 14.7487 67.3548 14.5407 67.3548 14.272V9.358C67.3548 9.08933 67.4241 8.88567 67.5628 8.747C67.7014 8.60833 67.8964 8.539 68.1478 8.539C68.3991 8.539 68.5941 8.60833 68.7328 8.747C68.8714 8.88567 68.9408 9.08933 68.9408 9.358V10.177H68.8108C68.9321 9.657 69.1704 9.26267 69.5258 8.994C69.8811 8.72533 70.3534 8.565 70.9428 8.513C71.1248 8.49567 71.2678 8.54333 71.3718 8.656C71.4844 8.76 71.5494 8.92467 71.5668 9.15C71.5841 9.36667 71.5321 9.54433 71.4108 9.683C71.2981 9.813 71.1248 9.891 70.8908 9.917L70.6048 9.943C70.0761 9.995 69.6774 10.1597 69.4088 10.437C69.1401 10.7057 69.0058 11.087 69.0058 11.581V14.272C69.0058 14.5407 68.9364 14.7487 68.7978 14.896C68.6591 15.0347 68.4554 15.104 68.1868 15.104ZM75.477 15.13C74.7577 15.13 74.138 14.9957 73.618 14.727C73.098 14.4583 72.695 14.077 72.409 13.583C72.1317 13.089 71.993 12.504 71.993 11.828C71.993 11.1693 72.1274 10.593 72.396 10.099C72.6734 9.605 73.0504 9.21933 73.527 8.942C74.0124 8.656 74.5627 8.513 75.178 8.513C75.6287 8.513 76.0317 8.58667 76.387 8.734C76.751 8.88133 77.0587 9.09367 77.31 9.371C77.57 9.64833 77.765 9.98633 77.895 10.385C78.0337 10.775 78.103 11.217 78.103 11.711C78.103 11.867 78.0467 11.9883 77.934 12.075C77.83 12.153 77.6784 12.192 77.479 12.192H73.306V11.256H76.959L76.751 11.451C76.751 11.0523 76.6904 10.7187 76.569 10.45C76.4564 10.1813 76.2874 9.97767 76.062 9.839C75.8454 9.69167 75.5724 9.618 75.243 9.618C74.879 9.618 74.567 9.70467 74.307 9.878C74.0557 10.0427 73.8607 10.281 73.722 10.593C73.592 10.8963 73.527 11.2603 73.527 11.685V11.776C73.527 12.4867 73.6917 13.0197 74.021 13.375C74.359 13.7217 74.853 13.895 75.503 13.895C75.7284 13.895 75.9797 13.869 76.257 13.817C76.543 13.7563 76.8117 13.6567 77.063 13.518C77.245 13.414 77.4054 13.3707 77.544 13.388C77.6827 13.3967 77.791 13.4443 77.869 13.531C77.9557 13.6177 78.0077 13.726 78.025 13.856C78.0424 13.9773 78.0164 14.103 77.947 14.233C77.8864 14.363 77.778 14.4757 77.622 14.571C77.3187 14.7617 76.9677 14.9047 76.569 15C76.179 15.0867 75.815 15.13 75.477 15.13ZM81.8339 15.13C81.2793 15.13 80.7896 14.9957 80.3649 14.727C79.9489 14.4583 79.6239 14.077 79.3899 13.583C79.1559 13.0803 79.0389 12.491 79.0389 11.815C79.0389 11.1303 79.1559 10.5453 79.3899 10.06C79.6239 9.566 79.9489 9.18467 80.3649 8.916C80.7896 8.64733 81.2793 8.513 81.8339 8.513C82.3626 8.513 82.8219 8.643 83.2119 8.903C83.6106 9.163 83.8793 9.50533 84.0179 9.93H83.8749V6.55C83.8749 6.28133 83.9443 6.07767 84.0829 5.939C84.2216 5.80033 84.4209 5.731 84.6809 5.731C84.9409 5.731 85.1403 5.80033 85.2789 5.939C85.4263 6.07767 85.4999 6.28133 85.4999 6.55V14.272C85.4999 14.5407 85.4306 14.7487 85.2919 14.896C85.1533 15.0347 84.9539 15.104 84.6939 15.104C84.4339 15.104 84.2346 15.0347 84.0959 14.896C83.9573 14.7487 83.8879 14.5407 83.8879 14.272V13.258L84.0309 13.648C83.9009 14.0987 83.6366 14.4583 83.2379 14.727C82.8393 14.9957 82.3713 15.13 81.8339 15.13ZM82.2889 13.895C82.6096 13.895 82.8913 13.817 83.1339 13.661C83.3766 13.505 83.5629 13.2753 83.6929 12.972C83.8316 12.66 83.9009 12.2743 83.9009 11.815C83.9009 11.1217 83.7536 10.606 83.4589 10.268C83.1643 9.92133 82.7743 9.748 82.2889 9.748C81.9683 9.748 81.6866 9.826 81.4439 9.982C81.2013 10.1293 81.0106 10.359 80.8719 10.671C80.7419 10.9743 80.6769 11.3557 80.6769 11.815C80.6769 12.4997 80.8243 13.0197 81.1189 13.375C81.4136 13.7217 81.8036 13.895 82.2889 13.895ZM91.7541 15C91.4681 15 91.2471 14.9263 91.0911 14.779C90.9438 14.623 90.8701 14.402 90.8701 14.116V6.719C90.8701 6.433 90.9438 6.21633 91.0911 6.069C91.2471 5.913 91.4681 5.835 91.7541 5.835H94.2761C95.8101 5.835 96.9931 6.22933 97.8251 7.018C98.6658 7.80667 99.0861 8.93767 99.0861 10.411C99.0861 11.1477 98.9778 11.802 98.7611 12.374C98.5531 12.9373 98.2411 13.414 97.8251 13.804C97.4178 14.194 96.9151 14.493 96.3171 14.701C95.7278 14.9003 95.0475 15 94.2761 15H91.7541ZM92.5341 13.622H94.1721C94.7095 13.622 95.1731 13.557 95.5631 13.427C95.9618 13.2883 96.2911 13.089 96.5511 12.829C96.8198 12.5603 97.0191 12.2267 97.1491 11.828C97.2791 11.4207 97.3441 10.9483 97.3441 10.411C97.3441 9.33633 97.0798 8.53467 96.5511 8.006C96.0225 7.47733 95.2295 7.213 94.1721 7.213H92.5341V13.622ZM103.749 15.13C103.03 15.13 102.41 14.9957 101.89 14.727C101.37 14.4583 100.967 14.077 100.681 13.583C100.404 13.089 100.265 12.504 100.265 11.828C100.265 11.1693 100.4 10.593 100.668 10.099C100.946 9.605 101.323 9.21933 101.799 8.942C102.285 8.656 102.835 8.513 103.45 8.513C103.901 8.513 104.304 8.58667 104.659 8.734C105.023 8.88133 105.331 9.09367 105.582 9.371C105.842 9.64833 106.037 9.98633 106.167 10.385C106.306 10.775 106.375 11.217 106.375 11.711C106.375 11.867 106.319 11.9883 106.206 12.075C106.102 12.153 105.951 12.192 105.751 12.192H101.578V11.256H105.231L105.023 11.451C105.023 11.0523 104.963 10.7187 104.841 10.45C104.729 10.1813 104.56 9.97767 104.334 9.839C104.118 9.69167 103.845 9.618 103.515 9.618C103.151 9.618 102.839 9.70467 102.579 9.878C102.328 10.0427 102.133 10.281 101.994 10.593C101.864 10.8963 101.799 11.2603 101.799 11.685V11.776C101.799 12.4867 101.964 13.0197 102.293 13.375C102.631 13.7217 103.125 13.895 103.775 13.895C104.001 13.895 104.252 13.869 104.529 13.817C104.815 13.7563 105.084 13.6567 105.335 13.518C105.517 13.414 105.678 13.3707 105.816 13.388C105.955 13.3967 106.063 13.4443 106.141 13.531C106.228 13.6177 106.28 13.726 106.297 13.856C106.315 13.9773 106.289 14.103 106.219 14.233C106.159 14.363 106.05 14.4757 105.894 14.571C105.591 14.7617 105.24 14.9047 104.841 15C104.451 15.0867 104.087 15.13 103.749 15.13ZM110.549 15.13C109.986 15.13 109.513 15.0347 109.132 14.844C108.759 14.6533 108.482 14.376 108.3 14.012C108.118 13.6393 108.027 13.18 108.027 12.634V9.865H107.351C107.143 9.865 106.983 9.813 106.87 9.709C106.757 9.59633 106.701 9.44467 106.701 9.254C106.701 9.05467 106.757 8.903 106.87 8.799C106.983 8.695 107.143 8.643 107.351 8.643H108.027V7.46C108.027 7.19133 108.096 6.98767 108.235 6.849C108.382 6.71033 108.586 6.641 108.846 6.641C109.106 6.641 109.305 6.71033 109.444 6.849C109.583 6.98767 109.652 7.19133 109.652 7.46V8.643H111.03C111.238 8.643 111.398 8.695 111.511 8.799C111.624 8.903 111.68 9.05467 111.68 9.254C111.68 9.44467 111.624 9.59633 111.511 9.709C111.398 9.813 111.238 9.865 111.03 9.865H109.652V12.543C109.652 12.959 109.743 13.271 109.925 13.479C110.107 13.687 110.402 13.791 110.809 13.791C110.956 13.791 111.086 13.778 111.199 13.752C111.312 13.726 111.411 13.7087 111.498 13.7C111.602 13.6913 111.689 13.726 111.758 13.804C111.827 13.8733 111.862 14.0207 111.862 14.246C111.862 14.4193 111.832 14.5753 111.771 14.714C111.719 14.844 111.619 14.935 111.472 14.987C111.359 15.0217 111.212 15.052 111.03 15.078C110.848 15.1127 110.688 15.13 110.549 15.13ZM114.719 15.13C114.26 15.13 113.848 15.0433 113.484 14.87C113.129 14.688 112.847 14.4453 112.639 14.142C112.44 13.8387 112.34 13.4963 112.34 13.115C112.34 12.647 112.462 12.2787 112.704 12.01C112.947 11.7327 113.341 11.5333 113.887 11.412C114.433 11.2907 115.166 11.23 116.084 11.23H116.734V12.166H116.097C115.56 12.166 115.131 12.192 114.81 12.244C114.49 12.296 114.26 12.387 114.121 12.517C113.991 12.6383 113.926 12.8117 113.926 13.037C113.926 13.323 114.026 13.557 114.225 13.739C114.425 13.921 114.702 14.012 115.057 14.012C115.343 14.012 115.595 13.947 115.811 13.817C116.037 13.6783 116.214 13.492 116.344 13.258C116.474 13.024 116.539 12.7553 116.539 12.452V10.957C116.539 10.5237 116.444 10.2117 116.253 10.021C116.063 9.83033 115.742 9.735 115.291 9.735C115.04 9.735 114.767 9.76533 114.472 9.826C114.186 9.88667 113.883 9.99067 113.562 10.138C113.398 10.216 113.25 10.2377 113.12 10.203C112.999 10.1683 112.904 10.099 112.834 9.995C112.765 9.88233 112.73 9.761 112.73 9.631C112.73 9.501 112.765 9.37533 112.834 9.254C112.904 9.124 113.021 9.02867 113.185 8.968C113.584 8.80333 113.965 8.68633 114.329 8.617C114.702 8.54767 115.04 8.513 115.343 8.513C115.967 8.513 116.479 8.60833 116.877 8.799C117.285 8.98967 117.588 9.28 117.787 9.67C117.987 10.0513 118.086 10.5453 118.086 11.152V14.272C118.086 14.5407 118.021 14.7487 117.891 14.896C117.761 15.0347 117.575 15.104 117.332 15.104C117.09 15.104 116.899 15.0347 116.76 14.896C116.63 14.7487 116.565 14.5407 116.565 14.272V13.648H116.669C116.609 13.9513 116.487 14.2157 116.305 14.441C116.132 14.6577 115.911 14.8267 115.642 14.948C115.374 15.0693 115.066 15.13 114.719 15.13ZM120.542 15.091C120.282 15.091 120.082 15.013 119.944 14.857C119.805 14.701 119.736 14.4843 119.736 14.207V9.436C119.736 9.15 119.805 8.93333 119.944 8.786C120.082 8.63 120.282 8.552 120.542 8.552C120.802 8.552 121.001 8.63 121.14 8.786C121.287 8.93333 121.361 9.15 121.361 9.436V14.207C121.361 14.4843 121.291 14.701 121.153 14.857C121.014 15.013 120.81 15.091 120.542 15.091ZM120.542 7.343C120.238 7.343 120 7.26933 119.827 7.122C119.662 6.966 119.58 6.75367 119.58 6.485C119.58 6.20767 119.662 5.99533 119.827 5.848C120 5.70067 120.238 5.627 120.542 5.627C120.854 5.627 121.092 5.70067 121.257 5.848C121.421 5.99533 121.504 6.20767 121.504 6.485C121.504 6.75367 121.421 6.966 121.257 7.122C121.092 7.26933 120.854 7.343 120.542 7.343ZM125.22 15.13C124.501 15.13 123.959 14.9263 123.595 14.519C123.231 14.103 123.049 13.4963 123.049 12.699V6.55C123.049 6.28133 123.118 6.07767 123.257 5.939C123.396 5.80033 123.595 5.731 123.855 5.731C124.115 5.731 124.314 5.80033 124.453 5.939C124.6 6.07767 124.674 6.28133 124.674 6.55V12.621C124.674 13.0197 124.756 13.3143 124.921 13.505C125.094 13.6957 125.337 13.791 125.649 13.791C125.718 13.791 125.783 13.791 125.844 13.791C125.905 13.7823 125.965 13.7737 126.026 13.765C126.147 13.7477 126.23 13.7823 126.273 13.869C126.316 13.947 126.338 14.1117 126.338 14.363C126.338 14.5797 126.295 14.7487 126.208 14.87C126.121 14.9913 125.978 15.065 125.779 15.091C125.692 15.0997 125.601 15.1083 125.506 15.117C125.411 15.1257 125.315 15.13 125.22 15.13ZM129.464 15.13C129.091 15.13 128.697 15.091 128.281 15.013C127.865 14.935 127.492 14.8007 127.163 14.61C127.024 14.5233 126.925 14.4237 126.864 14.311C126.812 14.1897 126.79 14.0727 126.799 13.96C126.816 13.8387 126.86 13.7347 126.929 13.648C127.007 13.5613 127.102 13.505 127.215 13.479C127.336 13.453 127.466 13.4747 127.605 13.544C127.952 13.7087 128.277 13.8257 128.58 13.895C128.883 13.9557 129.182 13.986 129.477 13.986C129.893 13.986 130.201 13.9167 130.4 13.778C130.608 13.6307 130.712 13.44 130.712 13.206C130.712 13.0067 130.643 12.855 130.504 12.751C130.374 12.6383 130.175 12.556 129.906 12.504L128.606 12.257C128.069 12.153 127.657 11.958 127.371 11.672C127.094 11.3773 126.955 11.0003 126.955 10.541C126.955 10.125 127.068 9.76533 127.293 9.462C127.527 9.15867 127.848 8.92467 128.255 8.76C128.662 8.59533 129.13 8.513 129.659 8.513C130.04 8.513 130.396 8.55633 130.725 8.643C131.063 8.721 131.388 8.84667 131.7 9.02C131.83 9.08933 131.917 9.18033 131.96 9.293C132.012 9.40567 132.025 9.52267 131.999 9.644C131.973 9.75667 131.921 9.86067 131.843 9.956C131.765 10.0427 131.665 10.099 131.544 10.125C131.431 10.1423 131.301 10.1163 131.154 10.047C130.885 9.90833 130.625 9.80867 130.374 9.748C130.131 9.68733 129.897 9.657 129.672 9.657C129.247 9.657 128.931 9.73067 128.723 9.878C128.524 10.0253 128.424 10.2203 128.424 10.463C128.424 10.645 128.485 10.7967 128.606 10.918C128.727 11.0393 128.914 11.1217 129.165 11.165L130.465 11.412C131.028 11.516 131.453 11.7067 131.739 11.984C132.034 12.2613 132.181 12.634 132.181 13.102C132.181 13.7347 131.934 14.233 131.44 14.597C130.946 14.9523 130.287 15.13 129.464 15.13Z" fill="white"/>
<path d="M165 0L173 6H165V0Z" fill="url(#paint0_linear_210_11467)"/>
<path d="M8 0L0 6H8V0Z" fill="url(#paint1_linear_210_11467)"/>
<defs>
<linearGradient id="paint0_linear_210_11467" x1="169" y1="0" x2="169" y2="6" gradientUnits="userSpaceOnUse">
<stop stop-color="#314D62"/>
<stop offset="1" stop-color="#65BDFF"/>
</linearGradient>
<linearGradient id="paint1_linear_210_11467" x1="4" y1="0" x2="4" y2="6" gradientUnits="userSpaceOnUse">
<stop stop-color="#314D62"/>
<stop offset="1" stop-color="#65BDFF"/>
</linearGradient>
</defs>
</svg>
