<svg width="143" height="32" viewBox="0 0 143 32" fill="none" xmlns="http://www.w3.org/2000/svg">
<mask id="mask0_3311_2541" style="mask-type:luminance" maskUnits="userSpaceOnUse" x="0" y="0" width="143" height="32">
<path d="M143 0H0V32H143V0Z" fill="white"/>
</mask>
<g mask="url(#mask0_3311_2541)">
<path d="M59.3626 21.5576C57.4236 21.5576 56.6306 19.9416 56.6306 18.1386C56.6306 16.3126 57.4236 14.6956 59.3626 14.6956C61.3016 14.6956 62.0936 16.3116 62.0936 18.1386C62.0936 19.9386 61.2996 21.5576 59.3626 21.5576ZM59.3626 24.5086C63.3776 24.5086 66.4346 22.1656 66.4346 18.1386C66.4346 14.0866 63.3776 11.7446 59.3626 11.7446C55.3476 11.7446 52.2876 14.0866 52.2876 18.1386C52.2876 22.1656 55.3466 24.5086 59.3626 24.5086Z" fill="#ED3237"/>
<path d="M66.0508 14.9756H68.4508V19.9416C68.4508 22.8416 69.3618 24.5076 73.1208 24.5076C74.0043 24.4877 74.8855 24.4095 75.7588 24.2736L75.6208 21.5336C75.1986 21.6232 74.7699 21.6784 74.3388 21.6986C73.0068 21.6986 72.6568 20.9476 72.6568 19.4726V14.9726H75.5998V12.0266H72.6578L72.6508 7.80664L68.5248 9.28564V12.0266H66.0508V14.9756Z" fill="#ED3237"/>
<path d="M90.3047 24.2228H94.5047V18.1848H94.5507L97.9157 24.2228H103.005L98.4297 17.6228L102.656 12.0228H98.0557L94.5557 17.1508H94.5047V7.82275L90.3047 9.28175V24.2228Z" fill="#ED3237"/>
<path d="M41.0986 24.2228H45.2986V18.1848H45.3446L48.7096 24.2228H53.7986L49.2226 17.6228L53.4496 12.0228H48.8496L45.3496 17.1508H45.2986V7.82275L41.0986 9.21275V24.2228Z" fill="#ED3237"/>
<path d="M80.2356 20.3748C80.2356 19.1888 81.3706 18.7388 82.8106 18.7388C83.4486 18.7388 84.0626 18.7858 84.6106 18.8098C84.6485 19.5438 84.3937 20.2629 83.9022 20.8094C83.4107 21.3558 82.7225 21.685 81.9886 21.7248C80.9946 21.7248 80.2396 21.2248 80.2396 20.3748M88.8176 24.2858C88.6444 23.3241 88.565 22.3479 88.5806 21.3708V16.7708C88.5766 13.0038 85.8586 11.6528 82.7176 11.6528C81.0369 11.6167 79.3659 11.9152 77.8016 12.5308L77.8736 15.4218C79.0807 14.7832 80.4314 14.4648 81.7966 14.4968C83.3316 14.4968 84.5846 14.9478 84.6076 16.6298C83.9515 16.5211 83.2877 16.4653 82.6226 16.4628C80.3526 16.4628 76.2666 16.9138 76.2666 20.6828C76.2666 23.3608 78.4406 24.5698 80.8746 24.5698C81.6684 24.6033 82.4555 24.412 83.1454 24.0181C83.8353 23.6241 84.4 23.0434 84.7746 22.3428H84.8216C84.8216 22.9828 84.8916 23.6218 84.9156 24.2858H88.8176Z" fill="#ED3237"/>
<path d="M0.341797 15.9858C0.341797 7.28779 8.5148 0.237793 18.5968 0.237793C28.6788 0.237793 36.8498 7.28779 36.8498 15.9858C36.8498 24.6838 28.6778 31.7378 18.5968 31.7378C8.5158 31.7378 0.341797 24.6818 0.341797 15.9858Z" fill="#1E4679"/>
<path d="M16.3797 5.33178L20.6207 3.92578L20.6417 26.9258L16.3647 28.3598L16.3797 5.33178Z" fill="#ED3237"/>
<path d="M18.8967 19.6736C17.0537 21.9016 15.2737 24.1736 11.9357 24.1736C7.22475 24.1786 4.98975 19.6076 4.98975 15.7856C4.98975 12.1136 6.73575 7.76855 11.3267 7.76855C12.2945 7.82573 13.2406 8.0779 14.1084 8.50992C14.9763 8.94193 15.7478 9.54488 16.3767 10.2826V13.3986C14.9998 12.6253 13.4629 12.1804 11.8857 12.0986C8.97575 12.0496 6.40875 13.3166 6.45375 16.1986C6.48475 18.1846 8.44375 19.5336 10.3947 19.5336C13.3817 19.5336 15.1947 16.7966 16.7027 14.7176C17.1257 14.1766 18.3147 12.5796 18.5027 12.3226C20.1787 9.96855 22.1227 7.81855 25.4607 7.81855C29.3907 7.81855 31.5967 10.9966 32.2217 14.2676H30.4487C30.052 13.7304 29.5333 13.2953 28.9354 12.998C28.3375 12.7007 27.6775 12.5497 27.0097 12.5576C23.9227 12.5576 22.0757 15.4076 20.5337 17.5066C20.5337 17.5066 19.3337 19.1476 18.8967 19.6736ZM32.3237 17.6086C31.9237 20.8996 30.0877 24.2206 26.0707 24.2276C23.7247 24.2276 21.8937 22.6216 20.6257 20.6506V18.3686C22.0995 19.2904 23.766 19.8599 25.4957 20.0326C27.7137 20.0656 29.7197 19.2106 30.5477 17.6076L32.3237 17.6086Z" fill="#FEFEFE"/>
<path d="M133.947 17.6827C134.103 16.2057 134.947 14.5047 137.004 14.5047C137.405 14.5085 137.8 14.596 138.165 14.7617C138.531 14.9273 138.857 15.1675 139.124 15.4667C139.391 15.766 139.592 16.1176 139.715 16.4993C139.838 16.8809 139.88 17.2839 139.838 17.6827H133.947ZM141.2 21.9137C140.162 22.6132 138.95 23.0087 137.7 23.0557C137.202 23.0583 136.709 22.9612 136.249 22.7702C135.789 22.5791 135.372 22.298 135.023 21.9433C134.673 21.5885 134.398 21.1675 134.214 20.7049C134.03 20.2422 133.941 19.7475 133.951 19.2497H142.074C142.074 15.5787 140.847 12.8027 137.053 12.8027C133.839 12.8027 131.719 15.2027 131.719 18.5777C131.719 22.2937 133.572 24.7557 137.61 24.7557C138.846 24.7679 140.071 24.516 141.203 24.0167L141.2 21.9137ZM125.154 24.4877H127.254V14.7727H130.267V13.0727H127.254V11.8407C127.254 10.2957 127.477 9.13266 129.285 9.13266C129.623 9.12592 129.96 9.17111 130.285 9.26666L130.374 7.56666C129.911 7.48306 129.441 7.43757 128.971 7.43066C125.869 7.43066 125.154 9.24366 125.154 12.0197V13.0717H122.477V14.7717H125.154V24.4877ZM120.089 8.14666H117.724V10.5197H120.089V8.14666ZM117.854 24.4877H119.954V13.0717H117.854V24.4877ZM111.654 24.4877H113.754V7.69966H111.654V24.4877Z" fill="#1E4679"/>
</g>
</svg>
