<svg width="173" height="22" viewBox="0 0 173 22" fill="none" xmlns="http://www.w3.org/2000/svg">
<path d="M8 0H165V12C165 17.5228 160.523 22 155 22H18C12.4771 22 8 17.5228 8 12V0Z" fill="#569260"/>
<path d="M53.3559 15.104C53.0873 15.104 52.8793 15.0303 52.7319 14.883C52.5933 14.727 52.5239 14.5147 52.5239 14.246V6.576C52.5239 6.29867 52.5933 6.09067 52.7319 5.952C52.8793 5.80467 53.0873 5.731 53.3559 5.731C53.6246 5.731 53.8283 5.80467 53.9669 5.952C54.1143 6.09067 54.1879 6.29867 54.1879 6.576V9.891H54.2139L57.9449 6.147C58.0836 6.00833 58.2223 5.90433 58.3609 5.835C58.4996 5.76567 58.6556 5.731 58.8289 5.731C59.0803 5.731 59.2579 5.796 59.3619 5.926C59.4746 6.056 59.5179 6.20767 59.4919 6.381C59.4746 6.55433 59.3923 6.71467 59.2449 6.862L55.4489 10.619L55.4619 9.865L59.4269 13.895C59.6089 14.0683 59.7043 14.2503 59.7129 14.441C59.7216 14.6317 59.6609 14.792 59.5309 14.922C59.4096 15.0433 59.2276 15.104 58.9849 15.104C58.7769 15.104 58.6079 15.0607 58.4779 14.974C58.3566 14.8873 58.2136 14.7617 58.0489 14.597L54.2139 10.762H54.1879V14.246C54.1879 14.5147 54.1186 14.727 53.9799 14.883C53.8413 15.0303 53.6333 15.104 53.3559 15.104ZM63.8808 15.104C63.6121 15.104 63.4041 15.0303 63.2568 14.883C63.1181 14.727 63.0488 14.5103 63.0488 14.233V10.281L63.3998 11.282L60.2668 6.875C60.1541 6.719 60.1021 6.55433 60.1108 6.381C60.1281 6.199 60.2018 6.04733 60.3318 5.926C60.4618 5.796 60.6438 5.731 60.8778 5.731C61.0511 5.731 61.2071 5.77433 61.3458 5.861C61.4931 5.94767 61.6318 6.082 61.7618 6.264L64.0888 9.566H63.7248L66.0648 6.264C66.2034 6.07333 66.3378 5.939 66.4678 5.861C66.5978 5.77433 66.7581 5.731 66.9488 5.731C67.1741 5.731 67.3474 5.79167 67.4688 5.913C67.5988 6.02567 67.6638 6.16867 67.6638 6.342C67.6724 6.51533 67.6118 6.69733 67.4818 6.888L64.3748 11.282L64.7128 10.281V14.233C64.7128 14.8137 64.4354 15.104 63.8808 15.104ZM72.6063 15.13C71.653 15.13 70.834 14.9393 70.1493 14.558C69.4733 14.168 68.9533 13.622 68.5893 12.92C68.2253 12.2093 68.0433 11.373 68.0433 10.411C68.0433 9.69167 68.1473 9.046 68.3553 8.474C68.5633 7.89333 68.8623 7.39933 69.2523 6.992C69.6423 6.576 70.119 6.25967 70.6823 6.043C71.2543 5.81767 71.8956 5.705 72.6063 5.705C73.083 5.705 73.551 5.76567 74.0103 5.887C74.4696 6.00833 74.8726 6.18167 75.2193 6.407C75.4013 6.51967 75.5226 6.65833 75.5833 6.823C75.644 6.979 75.657 7.135 75.6223 7.291C75.5876 7.43833 75.514 7.564 75.4013 7.668C75.2973 7.772 75.163 7.83267 74.9983 7.85C74.8423 7.85867 74.669 7.80233 74.4783 7.681C74.2096 7.50767 73.9193 7.382 73.6073 7.304C73.2953 7.226 72.979 7.187 72.6583 7.187C72.043 7.187 71.523 7.31267 71.0983 7.564C70.6736 7.81533 70.353 8.17933 70.1363 8.656C69.9196 9.13267 69.8113 9.71767 69.8113 10.411C69.8113 11.0957 69.9196 11.6807 70.1363 12.166C70.353 12.6513 70.6736 13.0197 71.0983 13.271C71.523 13.5223 72.043 13.648 72.6583 13.648C72.9876 13.648 73.3126 13.609 73.6333 13.531C73.954 13.4443 74.2573 13.3143 74.5433 13.141C74.734 13.0283 74.903 12.9807 75.0503 12.998C75.2063 13.0067 75.3363 13.0587 75.4403 13.154C75.5443 13.2493 75.6136 13.3707 75.6483 13.518C75.683 13.6567 75.6743 13.804 75.6223 13.96C75.5703 14.1073 75.4663 14.2373 75.3103 14.35C74.9636 14.6013 74.5476 14.7963 74.0623 14.935C73.5856 15.065 73.1003 15.13 72.6063 15.13ZM81.5915 15C81.3055 15 81.0845 14.9263 80.9285 14.779C80.7812 14.623 80.7075 14.402 80.7075 14.116V6.719C80.7075 6.433 80.7812 6.21633 80.9285 6.069C81.0845 5.913 81.3055 5.835 81.5915 5.835H84.1135C85.6475 5.835 86.8305 6.22933 87.6625 7.018C88.5032 7.80667 88.9235 8.93767 88.9235 10.411C88.9235 11.1477 88.8152 11.802 88.5985 12.374C88.3905 12.9373 88.0785 13.414 87.6625 13.804C87.2552 14.194 86.7525 14.493 86.1545 14.701C85.5652 14.9003 84.8849 15 84.1135 15H81.5915ZM82.3715 13.622H84.0095C84.5469 13.622 85.0105 13.557 85.4005 13.427C85.7992 13.2883 86.1285 13.089 86.3885 12.829C86.6572 12.5603 86.8565 12.2267 86.9865 11.828C87.1165 11.4207 87.1815 10.9483 87.1815 10.411C87.1815 9.33633 86.9172 8.53467 86.3885 8.006C85.8599 7.47733 85.0669 7.213 84.0095 7.213H82.3715V13.622ZM93.5869 15.13C92.8676 15.13 92.2479 14.9957 91.7279 14.727C91.2079 14.4583 90.8049 14.077 90.5189 13.583C90.2416 13.089 90.1029 12.504 90.1029 11.828C90.1029 11.1693 90.2372 10.593 90.5059 10.099C90.7832 9.605 91.1602 9.21933 91.6369 8.942C92.1222 8.656 92.6726 8.513 93.2879 8.513C93.7386 8.513 94.1416 8.58667 94.4969 8.734C94.8609 8.88133 95.1686 9.09367 95.4199 9.371C95.6799 9.64833 95.8749 9.98633 96.0049 10.385C96.1436 10.775 96.2129 11.217 96.2129 11.711C96.2129 11.867 96.1566 11.9883 96.0439 12.075C95.9399 12.153 95.7882 12.192 95.5889 12.192H91.4159V11.256H95.0689L94.8609 11.451C94.8609 11.0523 94.8002 10.7187 94.6789 10.45C94.5662 10.1813 94.3972 9.97767 94.1719 9.839C93.9552 9.69167 93.6822 9.618 93.3529 9.618C92.9889 9.618 92.6769 9.70467 92.4169 9.878C92.1656 10.0427 91.9706 10.281 91.8319 10.593C91.7019 10.8963 91.6369 11.2603 91.6369 11.685V11.776C91.6369 12.4867 91.8016 13.0197 92.1309 13.375C92.4689 13.7217 92.9629 13.895 93.6129 13.895C93.8382 13.895 94.0896 13.869 94.3669 13.817C94.6529 13.7563 94.9216 13.6567 95.1729 13.518C95.3549 13.414 95.5152 13.3707 95.6539 13.388C95.7926 13.3967 95.9009 13.4443 95.9789 13.531C96.0656 13.6177 96.1176 13.726 96.1349 13.856C96.1522 13.9773 96.1262 14.103 96.0569 14.233C95.9962 14.363 95.8879 14.4757 95.7319 14.571C95.4286 14.7617 95.0776 14.9047 94.6789 15C94.2889 15.0867 93.9249 15.13 93.5869 15.13ZM100.386 15.13C99.8231 15.13 99.3507 15.0347 98.9694 14.844C98.5967 14.6533 98.3194 14.376 98.1374 14.012C97.9554 13.6393 97.8644 13.18 97.8644 12.634V9.865H97.1884C96.9804 9.865 96.8201 9.813 96.7074 9.709C96.5947 9.59633 96.5384 9.44467 96.5384 9.254C96.5384 9.05467 96.5947 8.903 96.7074 8.799C96.8201 8.695 96.9804 8.643 97.1884 8.643H97.8644V7.46C97.8644 7.19133 97.9337 6.98767 98.0724 6.849C98.2197 6.71033 98.4234 6.641 98.6834 6.641C98.9434 6.641 99.1427 6.71033 99.2814 6.849C99.4201 6.98767 99.4894 7.19133 99.4894 7.46V8.643H100.867C101.075 8.643 101.236 8.695 101.348 8.799C101.461 8.903 101.517 9.05467 101.517 9.254C101.517 9.44467 101.461 9.59633 101.348 9.709C101.236 9.813 101.075 9.865 100.867 9.865H99.4894V12.543C99.4894 12.959 99.5804 13.271 99.7624 13.479C99.9444 13.687 100.239 13.791 100.646 13.791C100.794 13.791 100.924 13.778 101.036 13.752C101.149 13.726 101.249 13.7087 101.335 13.7C101.439 13.6913 101.526 13.726 101.595 13.804C101.665 13.8733 101.699 14.0207 101.699 14.246C101.699 14.4193 101.669 14.5753 101.608 14.714C101.556 14.844 101.457 14.935 101.309 14.987C101.197 15.0217 101.049 15.052 100.867 15.078C100.685 15.1127 100.525 15.13 100.386 15.13ZM104.557 15.13C104.097 15.13 103.686 15.0433 103.322 14.87C102.966 14.688 102.685 14.4453 102.477 14.142C102.277 13.8387 102.178 13.4963 102.178 13.115C102.178 12.647 102.299 12.2787 102.542 12.01C102.784 11.7327 103.179 11.5333 103.725 11.412C104.271 11.2907 105.003 11.23 105.922 11.23H106.572V12.166H105.935C105.397 12.166 104.968 12.192 104.648 12.244C104.327 12.296 104.097 12.387 103.959 12.517C103.829 12.6383 103.764 12.8117 103.764 13.037C103.764 13.323 103.863 13.557 104.063 13.739C104.262 13.921 104.539 14.012 104.895 14.012C105.181 14.012 105.432 13.947 105.649 13.817C105.874 13.6783 106.052 13.492 106.182 13.258C106.312 13.024 106.377 12.7553 106.377 12.452V10.957C106.377 10.5237 106.281 10.2117 106.091 10.021C105.9 9.83033 105.579 9.735 105.129 9.735C104.877 9.735 104.604 9.76533 104.31 9.826C104.024 9.88667 103.72 9.99067 103.4 10.138C103.235 10.216 103.088 10.2377 102.958 10.203C102.836 10.1683 102.741 10.099 102.672 9.995C102.602 9.88233 102.568 9.761 102.568 9.631C102.568 9.501 102.602 9.37533 102.672 9.254C102.741 9.124 102.858 9.02867 103.023 8.968C103.421 8.80333 103.803 8.68633 104.167 8.617C104.539 8.54767 104.877 8.513 105.181 8.513C105.805 8.513 106.316 8.60833 106.715 8.799C107.122 8.98967 107.425 9.28 107.625 9.67C107.824 10.0513 107.924 10.5453 107.924 11.152V14.272C107.924 14.5407 107.859 14.7487 107.729 14.896C107.599 15.0347 107.412 15.104 107.17 15.104C106.927 15.104 106.736 15.0347 106.598 14.896C106.468 14.7487 106.403 14.5407 106.403 14.272V13.648H106.507C106.446 13.9513 106.325 14.2157 106.143 14.441C105.969 14.6577 105.748 14.8267 105.48 14.948C105.211 15.0693 104.903 15.13 104.557 15.13ZM110.379 15.091C110.119 15.091 109.92 15.013 109.781 14.857C109.642 14.701 109.573 14.4843 109.573 14.207V9.436C109.573 9.15 109.642 8.93333 109.781 8.786C109.92 8.63 110.119 8.552 110.379 8.552C110.639 8.552 110.838 8.63 110.977 8.786C111.124 8.93333 111.198 9.15 111.198 9.436V14.207C111.198 14.4843 111.129 14.701 110.99 14.857C110.851 15.013 110.648 15.091 110.379 15.091ZM110.379 7.343C110.076 7.343 109.837 7.26933 109.664 7.122C109.499 6.966 109.417 6.75367 109.417 6.485C109.417 6.20767 109.499 5.99533 109.664 5.848C109.837 5.70067 110.076 5.627 110.379 5.627C110.691 5.627 110.929 5.70067 111.094 5.848C111.259 5.99533 111.341 6.20767 111.341 6.485C111.341 6.75367 111.259 6.966 111.094 7.122C110.929 7.26933 110.691 7.343 110.379 7.343ZM115.058 15.13C114.338 15.13 113.797 14.9263 113.433 14.519C113.069 14.103 112.887 13.4963 112.887 12.699V6.55C112.887 6.28133 112.956 6.07767 113.095 5.939C113.233 5.80033 113.433 5.731 113.693 5.731C113.953 5.731 114.152 5.80033 114.291 5.939C114.438 6.07767 114.512 6.28133 114.512 6.55V12.621C114.512 13.0197 114.594 13.3143 114.759 13.505C114.932 13.6957 115.175 13.791 115.487 13.791C115.556 13.791 115.621 13.791 115.682 13.791C115.742 13.7823 115.803 13.7737 115.864 13.765C115.985 13.7477 116.067 13.7823 116.111 13.869C116.154 13.947 116.176 14.1117 116.176 14.363C116.176 14.5797 116.132 14.7487 116.046 14.87C115.959 14.9913 115.816 15.065 115.617 15.091C115.53 15.0997 115.439 15.1083 115.344 15.117C115.248 15.1257 115.153 15.13 115.058 15.13ZM119.301 15.13C118.929 15.13 118.534 15.091 118.118 15.013C117.702 14.935 117.33 14.8007 117 14.61C116.862 14.5233 116.762 14.4237 116.701 14.311C116.649 14.1897 116.628 14.0727 116.636 13.96C116.654 13.8387 116.697 13.7347 116.766 13.648C116.844 13.5613 116.94 13.505 117.052 13.479C117.174 13.453 117.304 13.4747 117.442 13.544C117.789 13.7087 118.114 13.8257 118.417 13.895C118.721 13.9557 119.02 13.986 119.314 13.986C119.73 13.986 120.038 13.9167 120.237 13.778C120.445 13.6307 120.549 13.44 120.549 13.206C120.549 13.0067 120.48 12.855 120.341 12.751C120.211 12.6383 120.012 12.556 119.743 12.504L118.443 12.257C117.906 12.153 117.494 11.958 117.208 11.672C116.931 11.3773 116.792 11.0003 116.792 10.541C116.792 10.125 116.905 9.76533 117.13 9.462C117.364 9.15867 117.685 8.92467 118.092 8.76C118.5 8.59533 118.968 8.513 119.496 8.513C119.878 8.513 120.233 8.55633 120.562 8.643C120.9 8.721 121.225 8.84667 121.537 9.02C121.667 9.08933 121.754 9.18033 121.797 9.293C121.849 9.40567 121.862 9.52267 121.836 9.644C121.81 9.75667 121.758 9.86067 121.68 9.956C121.602 10.0427 121.503 10.099 121.381 10.125C121.269 10.1423 121.139 10.1163 120.991 10.047C120.723 9.90833 120.463 9.80867 120.211 9.748C119.969 9.68733 119.735 9.657 119.509 9.657C119.085 9.657 118.768 9.73067 118.56 9.878C118.361 10.0253 118.261 10.2203 118.261 10.463C118.261 10.645 118.322 10.7967 118.443 10.918C118.565 11.0393 118.751 11.1217 119.002 11.165L120.302 11.412C120.866 11.516 121.29 11.7067 121.576 11.984C121.871 12.2613 122.018 12.634 122.018 13.102C122.018 13.7347 121.771 14.233 121.277 14.597C120.783 14.9523 120.125 15.13 119.301 15.13Z" fill="white"/>
<path d="M165 0L173 6H165V0Z" fill="url(#paint0_linear_210_11482)"/>
<path d="M8 0L0 6H8V0Z" fill="url(#paint1_linear_210_11482)"/>
<defs>
<linearGradient id="paint0_linear_210_11482" x1="169" y1="0" x2="169" y2="6" gradientUnits="userSpaceOnUse">
<stop stop-color="#3B6A43"/>
<stop offset="1" stop-color="#569260"/>
</linearGradient>
<linearGradient id="paint1_linear_210_11482" x1="4" y1="0" x2="4" y2="6" gradientUnits="userSpaceOnUse">
<stop stop-color="#3B6A43"/>
<stop offset="1" stop-color="#569260"/>
</linearGradient>
</defs>
</svg>
