<svg width="48" height="48" viewBox="0 0 48 48" fill="none" xmlns="http://www.w3.org/2000/svg">
<rect width="48" height="48" rx="24" fill="#008000" fill-opacity="0.59"/>
<path d="M22.8659 35.2158L21.3257 33.8276C19.3006 31.9739 17.6134 30.3782 16.2642 29.0405C14.915 27.7029 13.8434 26.5131 13.0493 25.4713C12.2535 24.4294 11.6922 23.4763 11.3653 22.6121C11.0384 21.7479 10.875 20.8734 10.875 19.9888C10.875 18.2941 11.4506 16.8725 12.6017 15.724C13.7528 14.5756 15.1757 14.0013 16.8704 14.0013C18.0429 14.0013 19.142 14.3011 20.1679 14.9006C21.1938 15.5002 22.0931 16.372 22.8659 17.516C23.6386 16.372 24.5379 15.5002 25.5638 14.9006C26.5897 14.3011 27.6889 14.0009 28.8613 14C30.4041 14 31.7134 14.4796 32.789 15.4389C33.8655 16.3982 34.5228 17.5924 34.7608 19.0215H33.3912C33.1798 17.929 32.6513 17.0408 31.8057 16.3569C30.9601 15.6729 29.9787 15.331 28.8613 15.331C27.7803 15.331 26.7989 15.6365 25.9169 16.2476C25.0349 16.8587 24.1969 17.7838 23.4028 19.0228H22.3316C21.5233 17.7678 20.6764 16.8392 19.7909 16.237C18.9053 15.6348 17.9318 15.3332 16.8704 15.3323C15.571 15.3323 14.4687 15.7751 13.5636 16.6606C12.6594 17.5471 12.2073 18.6565 12.2073 19.9888C12.2073 20.7384 12.3628 21.4996 12.6736 22.2724C12.9845 23.0451 13.5396 23.9333 14.339 24.937C15.1384 25.9407 16.2265 27.1211 17.6032 28.4783C18.9799 29.8355 20.7342 31.48 22.8659 33.4119C23.5462 32.799 24.2151 32.1933 24.8723 31.5946C25.5296 30.9977 26.1172 30.4515 26.635 29.9558L26.7816 30.1024L27.1093 30.4315L27.4397 30.7606L27.5863 30.9071C27.0622 31.4019 26.4787 31.9383 25.8356 32.5166C25.1925 33.0948 24.5393 33.6903 23.8758 34.3032L22.8659 35.2158ZM31.8324 31.0137V27.0168H27.8354V25.6844H31.8324V21.6875H33.1647V25.6844H37.1616V27.0168H33.1647V31.0137H31.8324Z" fill="white"/>
</svg>
