<svg width="48" height="48" viewBox="0 0 48 48" fill="none" xmlns="http://www.w3.org/2000/svg">
<rect width="48" height="48" rx="24" fill="#008000" fill-opacity="0.59"/>
<path d="M20.6154 18.9283H16.1985C17.2928 17.2481 18.9014 15.9663 20.7845 15.2738C22.6675 14.5813 24.7241 14.5152 26.6478 15.0855C28.5715 15.6557 30.2592 16.8317 31.4593 18.4381C32.6595 20.0446 33.3078 21.9955 33.3077 24H35C35.0023 21.7393 34.3066 19.5329 33.0077 17.6816C31.7088 15.8303 29.8699 14.4243 27.7418 13.6553C25.6137 12.8863 23.3 12.7917 21.1161 13.3844C18.9322 13.9771 16.9845 15.2282 15.5385 16.9672V13.8566H13.8462V20.6189H20.6154V18.9283ZM27.3846 29.0717H31.8015C30.7072 30.7519 29.0986 32.0337 27.2155 32.7262C25.3325 33.4187 23.2759 33.4848 21.3522 32.9145C19.4285 32.3443 17.7408 31.1683 16.5407 29.5619C15.3405 27.9554 14.6922 26.0045 14.6923 24H13C12.9977 26.2607 13.6934 28.4671 14.9923 30.3184C16.2912 32.1697 18.1301 33.5757 20.2582 34.3447C22.3863 35.1137 24.7 35.2083 26.8839 34.6156C29.0678 34.0229 31.0155 32.7718 32.4615 31.0328V34.1434H34.1538V27.3811H27.3846V29.0717Z" fill="white"/>
</svg>
