<svg width="152" height="35" viewBox="0 0 152 35" fill="none" xmlns="http://www.w3.org/2000/svg">
<path d="M54.2302 27.5046C54.4713 27.3514 54.7563 27.2712 55.0852 27.2712C55.4433 27.2712 55.7502 27.3587 55.9986 27.5337C56.2544 27.7087 56.4371 27.9566 56.5613 28.2775L57.3798 27.9858C57.2044 27.5046 56.9121 27.1254 56.5102 26.8556C56.1083 26.5858 55.6333 26.4473 55.0852 26.4473C54.5883 26.4473 54.1571 26.5639 53.7844 26.79C53.4117 27.016 53.1194 27.3368 52.9075 27.7452C52.6956 28.1535 52.5933 28.6348 52.5933 29.1816C52.5933 29.7285 52.6956 30.2098 52.9002 30.6254C53.1048 31.041 53.3971 31.3618 53.7625 31.5879C54.1279 31.8139 54.5517 31.9306 55.0267 31.9306C55.2606 31.9306 55.4871 31.8941 55.699 31.8358C55.911 31.7702 56.0936 31.6681 56.2544 31.5368C56.3567 31.4493 56.4517 31.3473 56.5248 31.2233L56.6052 31.8212H57.3798V28.9921H55.2971V29.7723H56.5906C56.5686 29.9691 56.5321 30.1441 56.4663 30.29C56.3713 30.5014 56.2471 30.6618 56.101 30.7785C55.9475 30.8952 55.7867 30.9754 55.6113 31.0264C55.436 31.0775 55.2606 31.0993 55.0852 31.0993C54.7563 31.0993 54.4713 31.0191 54.2302 30.866C53.989 30.7129 53.799 30.4868 53.6675 30.2025C53.536 29.9181 53.4702 29.5754 53.4702 29.1889C53.4702 28.8025 53.536 28.4598 53.6675 28.1754C53.799 27.891 53.989 27.6723 54.2302 27.5191V27.5046ZM61.1871 28.5691C61.0483 28.3941 60.8656 28.2629 60.6536 28.1608C60.4417 28.066 60.186 28.015 59.901 28.015C59.6013 28.015 59.3383 28.066 59.1117 28.1754C58.8925 28.2848 58.7098 28.4306 58.5636 28.6202C58.4248 28.8098 58.3152 29.0139 58.2494 29.2546C58.1836 29.4879 58.1471 29.7285 58.1471 29.9764C58.1471 30.2243 58.1836 30.465 58.2567 30.691C58.3298 30.9171 58.4394 31.1285 58.5856 31.3035C58.7317 31.4858 58.9217 31.6243 59.1483 31.7264C59.3748 31.8285 59.6525 31.8796 59.9594 31.8796C60.1713 31.8796 60.3613 31.8577 60.5294 31.8212C60.6975 31.7775 60.8583 31.7191 61.019 31.6316C61.1725 31.5441 61.3333 31.4348 61.4867 31.2889L61.0263 30.7275C60.8875 30.866 60.7267 30.9754 60.5586 31.0337C60.3833 31.0993 60.2006 31.1285 59.9886 31.1285C59.7036 31.1285 59.4771 31.0483 59.2944 30.8952C59.1117 30.7421 59.0094 30.5087 58.9948 30.2171H61.5817L61.6036 30.0202V29.8671C61.6036 29.6118 61.5671 29.3785 61.5013 29.1598C61.4356 28.941 61.326 28.7368 61.1871 28.5691ZM58.9729 29.6046C58.9875 29.4514 59.0313 29.3056 59.1044 29.1671C59.1775 29.0358 59.2798 28.9264 59.4113 28.8389C59.5429 28.7514 59.711 28.7077 59.9083 28.7077C60.0471 28.7077 60.1786 28.7296 60.2883 28.7806C60.3979 28.8316 60.4929 28.89 60.566 28.9702C60.639 29.0504 60.6975 29.1379 60.734 29.24C60.7706 29.3421 60.7925 29.4441 60.7925 29.5608V29.6046H58.9656H58.9729ZM64.3733 28.015C64.1833 28.015 64.0079 28.0514 63.8398 28.1098C63.6717 28.1754 63.5256 28.2775 63.394 28.4087C63.3429 28.4671 63.299 28.5254 63.2552 28.591V28.0733H62.4148V31.7993H63.2552V29.9837C63.2552 29.6993 63.2844 29.4587 63.3502 29.2764C63.416 29.0868 63.511 28.9556 63.6425 28.8681C63.774 28.7806 63.9275 28.7368 64.1175 28.7368C64.3733 28.7368 64.556 28.8171 64.6802 28.9702C64.8044 29.1233 64.8629 29.3712 64.8629 29.7066V31.8066H65.7033V29.3931C65.7033 28.9483 65.5863 28.6056 65.3525 28.3723C65.1186 28.1316 64.7898 28.015 64.3733 28.015ZM69.5179 28.5691C69.379 28.3941 69.1963 28.2629 68.9844 28.1608C68.7725 28.0587 68.5167 28.015 68.2317 28.015C67.9321 28.015 67.669 28.066 67.4425 28.1754C67.2233 28.2848 67.0406 28.4306 66.8944 28.6202C66.7556 28.8098 66.646 29.0139 66.5802 29.2546C66.443 29.7236 66.443 30.222 66.5802 30.691C66.6533 30.9171 66.7629 31.1285 66.909 31.3035C67.0552 31.4858 67.2452 31.6243 67.4717 31.7264C67.6983 31.8285 67.976 31.8796 68.2829 31.8796C68.4948 31.8796 68.6848 31.8577 68.8529 31.8212C69.021 31.7775 69.1817 31.7191 69.3425 31.6316C69.496 31.5441 69.6567 31.4348 69.8102 31.2889L69.3498 30.7275C69.211 30.866 69.0502 30.9754 68.8821 31.0337C68.7067 31.0993 68.524 31.1285 68.3121 31.1285C68.0271 31.1285 67.8006 31.0483 67.6179 30.8952C67.4352 30.7421 67.3329 30.5087 67.3183 30.2171H69.9052L69.9271 30.0202V29.8671C69.9271 29.6118 69.8906 29.3785 69.8248 29.1598C69.759 28.941 69.6494 28.7368 69.5106 28.5691H69.5179ZM67.3036 29.6046C67.3183 29.4514 67.3621 29.3056 67.4352 29.1671C67.5083 29.0358 67.6106 28.9264 67.7421 28.8389C67.8736 28.7514 68.0417 28.7077 68.239 28.7077C68.3779 28.7077 68.5094 28.7296 68.619 28.7806C68.7286 28.8316 68.8236 28.89 68.8967 28.9702C68.9698 29.0504 69.0283 29.1379 69.0648 29.24C69.1013 29.3421 69.1233 29.4441 69.1233 29.5608V29.6046H67.2963H67.3036ZM72.6236 28.015C72.4483 28.015 72.2802 28.0587 72.1048 28.1535C71.9294 28.2483 71.7833 28.3723 71.659 28.54C71.6371 28.5691 71.6152 28.6056 71.6006 28.6348V28.0806H70.7529V31.8066H71.5933V30.1587C71.5933 29.9546 71.5933 29.8014 71.6152 29.6848C71.6298 29.5681 71.6444 29.4806 71.6736 29.4077C71.7175 29.2764 71.776 29.1671 71.8563 29.0868C71.9367 29.0066 72.0317 28.941 72.134 28.9046C72.2363 28.8608 72.3386 28.8462 72.4483 28.8462C72.5286 28.8462 72.6163 28.8608 72.704 28.8827C72.7917 28.9046 72.8648 28.9337 72.9233 28.9702L73.3325 28.2118C73.2083 28.1389 73.0986 28.0879 72.9817 28.0587C72.8648 28.0296 72.7552 28.015 72.631 28.015H72.6236ZM75.4298 28.015C75.1083 28.015 74.8086 28.066 74.5383 28.1608C74.2679 28.2556 74.0048 28.4233 73.7636 28.6493L74.2313 29.2035C74.3921 29.0431 74.5675 28.9191 74.7648 28.8462C74.9621 28.766 75.1594 28.7296 75.3567 28.7296C75.6198 28.7296 75.8244 28.7879 75.9706 28.9118C76.1167 29.0358 76.1898 29.2181 76.1898 29.4587V29.5681H75.0863C74.911 29.5681 74.7429 29.5827 74.5821 29.6191C74.4213 29.6556 74.2825 29.7066 74.1583 29.7796C74.0194 29.8671 73.9025 29.9837 73.8148 30.1368C73.7271 30.29 73.6833 30.465 73.6833 30.6764C73.6833 30.9171 73.7417 31.1285 73.8586 31.3108C73.9756 31.4931 74.1436 31.6316 74.3556 31.7337C74.5675 31.8358 74.816 31.8868 75.0936 31.8868C75.3129 31.8868 75.5102 31.8431 75.6929 31.7556C75.9013 31.6534 76.0762 31.494 76.1971 31.2962L76.2483 31.8212H77.0229V29.4733C77.0229 29.0212 76.884 28.6639 76.599 28.4087C76.3213 28.1535 75.9267 28.0296 75.4225 28.0296L75.4298 28.015ZM76.0583 30.7421C75.9706 30.8806 75.8463 30.9973 75.7002 31.0775C75.554 31.1577 75.386 31.2014 75.2033 31.2014C74.9986 31.2014 74.8306 31.1577 74.7063 31.0629C74.647 31.0195 74.5993 30.9622 74.5675 30.8961C74.5356 30.83 74.5206 30.757 74.5236 30.6837C74.5236 30.6035 74.5383 30.5306 74.5748 30.4723C74.6113 30.4139 74.6479 30.3629 74.699 30.3191C74.7721 30.2754 74.8525 30.2389 74.9402 30.2243C75.0279 30.2098 75.1229 30.1952 75.2106 30.1952H76.1971V30.2681C76.1971 30.4431 76.1533 30.6035 76.0583 30.7421ZM79.0763 31.1066C78.9886 31.1066 78.9229 31.0775 78.8644 31.0264C78.8133 30.9754 78.784 30.8879 78.784 30.7712V26.5421H77.9436V30.9389C77.9436 31.2671 78.024 31.5077 78.1848 31.6535C78.3456 31.7993 78.5502 31.8796 78.7913 31.8796C78.8717 31.8796 78.9594 31.8723 79.0617 31.8504C79.164 31.8358 79.259 31.8066 79.354 31.7629V31.0556C79.3029 31.0702 79.2517 31.0848 79.2079 31.0921C79.1567 31.0993 79.1129 31.1066 79.069 31.1066H79.0763ZM82.0506 26.5421H82.9275V31.8066H82.0506V26.5421ZM85.9163 28.015C85.7263 28.015 85.5509 28.0514 85.3829 28.1098C85.2148 28.1754 85.0686 28.2775 84.9371 28.4087C84.886 28.4671 84.8421 28.5254 84.7983 28.591V28.0733H83.9579V31.7993H84.7983V29.9837C84.7983 29.6993 84.8275 29.4587 84.8933 29.2764C84.959 29.0868 85.054 28.9556 85.1856 28.8681C85.3171 28.7806 85.4706 28.7368 85.6606 28.7368C85.9163 28.7368 86.099 28.8171 86.2233 28.9702C86.3475 29.1233 86.406 29.3712 86.406 29.7066V31.8066H87.2463V29.3931C87.2463 28.9483 87.1294 28.6056 86.8956 28.3723C86.6617 28.1316 86.3329 28.015 85.9163 28.015ZM90.4836 29.7941C90.3448 29.7139 90.1913 29.641 90.0306 29.5973C89.8698 29.5462 89.709 29.5025 89.5629 29.466C89.4021 29.4223 89.2706 29.3858 89.161 29.3421C89.0744 29.3121 88.9949 29.265 88.9271 29.2035C88.9021 29.1774 88.8827 29.1465 88.8701 29.1126C88.8575 29.0788 88.8521 29.0427 88.854 29.0066C88.854 28.8973 88.9052 28.8171 89.0148 28.7514C89.1244 28.6858 89.256 28.6566 89.4167 28.6566C89.5921 28.6566 89.7602 28.6931 89.9063 28.7733C90.0598 28.8462 90.184 28.9629 90.2863 29.116L90.8125 28.715C90.6736 28.4816 90.4836 28.3066 90.2425 28.19C90.0013 28.0733 89.731 28.015 89.4386 28.015C89.0294 28.015 88.7006 28.1098 88.4448 28.3066C88.189 28.5035 88.0648 28.766 88.0648 29.0941C88.0648 29.2837 88.1013 29.4368 88.1817 29.5608C88.2548 29.6848 88.3571 29.7868 88.4813 29.8671C88.6056 29.9473 88.7371 30.0129 88.8833 30.0639C89.0294 30.115 89.1756 30.1587 89.3144 30.1952C89.4606 30.2316 89.5921 30.2681 89.7163 30.3191C89.8406 30.3702 89.9356 30.4212 90.0086 30.4796C90.0817 30.5452 90.1256 30.6327 90.1256 30.7421C90.1256 30.866 90.0671 30.9754 89.9502 31.0629C89.8333 31.1504 89.6725 31.1941 89.4679 31.1941C89.2267 31.1941 89.0221 31.1358 88.854 31.0118C88.686 30.8879 88.5544 30.7493 88.4594 30.5962L87.8821 31.0921C87.9698 31.216 88.0867 31.3327 88.2329 31.4566C88.3717 31.5806 88.5471 31.6754 88.759 31.7556C88.9636 31.8358 89.2048 31.8723 89.4679 31.8723C89.7675 31.8723 90.0306 31.8212 90.2498 31.7191C90.4763 31.6171 90.6517 31.4785 90.776 31.2889C90.9002 31.1066 90.9586 30.8952 90.9586 30.6473C90.9586 30.4285 90.9148 30.2535 90.8271 30.115C90.7394 29.9764 90.6225 29.8671 90.4836 29.7796V29.7941ZM94.1594 29.6848C94.1594 29.991 94.1302 30.2535 94.079 30.4723C94.0279 30.691 93.9402 30.8587 93.816 30.9681C93.6917 31.0775 93.5236 31.1358 93.3044 31.1358C93.1144 31.1358 92.9683 31.0993 92.8586 31.0191C92.744 30.941 92.6611 30.8247 92.6248 30.691C92.5736 30.5452 92.5517 30.3775 92.5517 30.1806V28.0733H91.7113V30.4066C91.7113 30.7129 91.7625 30.9754 91.8648 31.1941C91.9671 31.4129 92.1133 31.5806 92.3179 31.69C92.5152 31.8066 92.7636 31.865 93.056 31.865C93.3336 31.865 93.5821 31.7993 93.8013 31.6681C93.9402 31.5806 94.0644 31.4639 94.1594 31.3181V31.7921H94.9998V28.066H94.1594V29.6702V29.6848ZM97.8644 28.015C97.689 28.015 97.521 28.0587 97.3456 28.1535C97.1702 28.2483 97.024 28.3723 96.8998 28.54C96.8779 28.5691 96.856 28.6056 96.8413 28.6348V28.0806H95.9936V31.8066H96.834V30.1587C96.834 29.9546 96.834 29.8014 96.8559 29.6848C96.8706 29.5681 96.8852 29.4806 96.9144 29.4077C96.9583 29.2764 97.0167 29.1671 97.0971 29.0868C97.1775 29.0066 97.2725 28.941 97.3748 28.9046C97.4771 28.8608 97.5794 28.8462 97.689 28.8462C97.7694 28.8462 97.8571 28.8608 97.9448 28.8827C98.0325 28.9046 98.1056 28.9337 98.164 28.9702L98.5733 28.2118C98.449 28.1389 98.3394 28.0879 98.2225 28.0587C98.1056 28.0296 97.9959 28.015 97.8717 28.015H97.8644ZM100.678 28.015C100.356 28.015 100.057 28.066 99.7863 28.1608C99.516 28.2556 99.2529 28.4233 99.0117 28.6493L99.4794 29.2035C99.6402 29.0431 99.8156 28.9191 100.013 28.8462C100.21 28.766 100.407 28.7296 100.605 28.7296C100.868 28.7296 101.072 28.7879 101.219 28.9118C101.365 29.0358 101.438 29.2181 101.438 29.4587V29.5681H100.334C100.159 29.5681 99.991 29.5827 99.8302 29.6191C99.6694 29.6556 99.5306 29.7066 99.4063 29.7796C99.2675 29.8671 99.1506 29.9837 99.0629 30.1368C98.9752 30.29 98.9313 30.465 98.9313 30.6764C98.9313 30.9171 98.9898 31.1285 99.1067 31.3108C99.2236 31.4931 99.3917 31.6316 99.6036 31.7337C99.8156 31.8358 100.064 31.8868 100.342 31.8868C100.561 31.8868 100.758 31.8431 100.941 31.7556C101.149 31.6534 101.324 31.494 101.445 31.2962L101.496 31.8212H102.271V29.4733C102.271 29.0212 102.132 28.6639 101.847 28.4087C101.569 28.1535 101.175 28.0296 100.671 28.0296L100.678 28.015ZM101.306 30.7421C101.219 30.8806 101.094 30.9973 100.948 31.0775C100.802 31.1577 100.634 31.2014 100.451 31.2014C100.247 31.2014 100.079 31.1577 99.9544 31.0629C99.8951 31.0195 99.8474 30.9622 99.8156 30.8961C99.7837 30.83 99.7686 30.757 99.7717 30.6837C99.7717 30.6035 99.7863 30.5306 99.8229 30.4723C99.8521 30.4139 99.896 30.3629 99.9471 30.3191C100.02 30.2754 100.101 30.2389 100.188 30.2243C100.276 30.2098 100.371 30.1952 100.459 30.1952H101.445V30.2681C101.445 30.4431 101.401 30.6035 101.306 30.7421ZM105.165 28.015C104.975 28.015 104.799 28.0514 104.631 28.1098C104.463 28.1754 104.317 28.2775 104.186 28.4087C104.134 28.4671 104.091 28.5254 104.047 28.591V28.0733H103.206V31.7993H104.047V29.9837C104.047 29.6993 104.076 29.4587 104.142 29.2764C104.207 29.0868 104.302 28.9556 104.434 28.8681C104.566 28.7806 104.719 28.7368 104.909 28.7368C105.165 28.7368 105.347 28.8171 105.472 28.9702C105.596 29.1233 105.654 29.3712 105.654 29.7066V31.8066H106.495V29.3931C106.495 28.9483 106.378 28.6056 106.144 28.3723C105.91 28.1316 105.581 28.015 105.165 28.015ZM108.519 28.9118C108.658 28.7952 108.841 28.7368 109.06 28.7368C109.279 28.7368 109.462 28.7952 109.601 28.9118C109.739 29.0285 109.834 29.1816 109.893 29.3785L110.638 29.0941C110.507 28.7296 110.302 28.4525 110.032 28.2775C109.754 28.1025 109.432 28.015 109.067 28.015C108.775 28.015 108.512 28.066 108.292 28.1681C108.066 28.2702 107.883 28.416 107.73 28.5983C107.584 28.7806 107.467 28.9848 107.394 29.2181C107.321 29.4514 107.277 29.6921 107.277 29.9473C107.277 30.2025 107.313 30.4431 107.394 30.6691C107.467 30.9025 107.584 31.1066 107.73 31.2962C107.876 31.4785 108.066 31.6243 108.292 31.7264C108.519 31.8285 108.775 31.8796 109.067 31.8796C109.432 31.8796 109.754 31.7921 110.032 31.6098C110.309 31.4275 110.507 31.1577 110.638 30.8004L109.893 30.516C109.834 30.7056 109.732 30.8587 109.601 30.9754C109.462 31.0921 109.286 31.1504 109.06 31.1504C108.833 31.1504 108.658 31.0921 108.519 30.9827C108.38 30.866 108.278 30.7202 108.212 30.5379C108.146 30.3556 108.117 30.1587 108.117 29.9546C108.117 29.7504 108.146 29.5535 108.212 29.3712C108.278 29.1889 108.38 29.0431 108.519 28.9264V28.9118ZM114.256 28.5691C114.117 28.3941 113.934 28.2629 113.722 28.1608C113.51 28.0587 113.254 28.015 112.969 28.015C112.67 28.015 112.407 28.066 112.18 28.1754C111.961 28.2848 111.778 28.4306 111.632 28.6202C111.493 28.8098 111.384 29.0139 111.318 29.2546C111.181 29.7236 111.181 30.222 111.318 30.691C111.391 30.9171 111.501 31.1285 111.647 31.3035C111.793 31.4858 111.983 31.6243 112.209 31.7264C112.436 31.8285 112.714 31.8796 113.021 31.8796C113.232 31.8796 113.422 31.8577 113.591 31.8212C113.759 31.7775 113.919 31.7191 114.08 31.6316C114.234 31.5441 114.394 31.4348 114.548 31.2889L114.087 30.7275C113.949 30.866 113.788 30.9754 113.62 31.0337C113.444 31.0993 113.262 31.1285 113.05 31.1285C112.765 31.1285 112.538 31.0483 112.356 30.8952C112.173 30.7421 112.071 30.5087 112.056 30.2171H114.643L114.665 30.0202V29.8671C114.665 29.6118 114.628 29.3785 114.562 29.1598C114.497 28.941 114.387 28.7368 114.248 28.5691H114.256ZM112.041 29.6046C112.056 29.4514 112.1 29.3056 112.173 29.1671C112.246 29.0358 112.348 28.9264 112.48 28.8389C112.611 28.7514 112.779 28.7077 112.977 28.7077C113.116 28.7077 113.247 28.7296 113.357 28.7806C113.466 28.8316 113.561 28.89 113.634 28.9702C113.707 29.0504 113.766 29.1379 113.802 29.24C113.839 29.3421 113.861 29.4441 113.861 29.5608V29.6046H112.034H112.041ZM118.384 26.5421H117.507V31.8066H120.664V31.0337H118.384V26.5421ZM121.212 26.5421H122.126V27.4681H121.212V26.5421ZM121.249 28.0806H122.089V31.8066H121.249V28.0806ZM127.906 28.2264C127.709 28.0879 127.453 28.0223 127.139 28.0223C126.925 28.0186 126.714 28.0688 126.525 28.1683C126.336 28.2677 126.175 28.4131 126.057 28.591C126.057 28.5983 126.043 28.6129 126.036 28.6202C126.014 28.5837 125.999 28.5546 125.977 28.5181C125.853 28.3431 125.707 28.2191 125.524 28.1389C125.349 28.0587 125.159 28.0223 124.954 28.0223C124.822 28.0223 124.691 28.0441 124.567 28.0806C124.435 28.1171 124.318 28.1827 124.209 28.2702C124.099 28.3577 124.004 28.4743 123.916 28.6202C123.916 28.6202 123.909 28.6348 123.902 28.6421V28.0879H123.061V31.8139H123.902V29.8889C123.902 29.6337 123.931 29.4296 123.989 29.2546C124.048 29.0868 124.136 28.9556 124.252 28.8754C124.369 28.7879 124.508 28.7441 124.676 28.7441C124.888 28.7441 125.049 28.8171 125.166 28.9702C125.283 29.1233 125.341 29.3493 125.341 29.6556V31.8066H126.182V29.8816C126.182 29.6264 126.211 29.415 126.269 29.2473C126.328 29.0796 126.416 28.9483 126.525 28.8681C126.647 28.7829 126.793 28.7394 126.942 28.7441C127.095 28.7441 127.227 28.7806 127.329 28.8535C127.431 28.9264 127.504 29.0358 127.556 29.1743C127.607 29.3129 127.629 29.4879 127.629 29.6993V31.8139H128.469V29.4952C128.469 29.24 128.425 28.9993 128.33 28.7733C128.242 28.5473 128.096 28.365 127.899 28.2264H127.906ZM129.404 28.0806H130.245V31.8066H129.404V28.0806ZM129.368 26.5421H130.281V27.4681H129.368V26.5421ZM132.364 26.7098L131.516 27.1764V28.0806H130.807V28.7296H131.516V30.7639C131.516 31.0337 131.567 31.2452 131.662 31.4129C131.757 31.5733 131.889 31.6973 132.05 31.7702C132.211 31.8431 132.386 31.8796 132.576 31.8796C132.686 31.8796 132.788 31.8723 132.89 31.8504C132.992 31.8358 133.095 31.8066 133.197 31.7702V31.1212C133.124 31.1431 133.051 31.1577 132.978 31.1723C132.912 31.1868 132.854 31.1941 132.802 31.1941C132.634 31.1941 132.517 31.1358 132.459 31.0264C132.401 30.9171 132.364 30.7493 132.364 30.5379V28.7368H133.197V28.0879H132.364V26.7098ZM136.734 28.5691C136.595 28.3941 136.412 28.2629 136.201 28.1608C135.989 28.066 135.733 28.015 135.448 28.015C135.148 28.015 134.885 28.066 134.659 28.1754C134.439 28.2848 134.257 28.4306 134.111 28.6202C133.972 28.8098 133.862 29.0139 133.796 29.2546C133.731 29.4879 133.694 29.7285 133.694 29.9764C133.694 30.2243 133.731 30.465 133.804 30.691C133.877 30.9171 133.986 31.1285 134.132 31.3035C134.279 31.4858 134.469 31.6243 134.695 31.7264C134.922 31.8285 135.199 31.8796 135.506 31.8796C135.718 31.8796 135.908 31.8577 136.076 31.8212C136.244 31.7775 136.405 31.7191 136.566 31.6316C136.719 31.5441 136.88 31.4348 137.034 31.2889L136.573 30.7275C136.434 30.866 136.274 30.9754 136.106 31.0337C135.93 31.0993 135.747 31.1285 135.536 31.1285C135.251 31.1285 135.024 31.0483 134.841 30.8952C134.659 30.7421 134.556 30.5087 134.542 30.2171H137.129L137.151 30.0202V29.8671C137.151 29.6118 137.114 29.3785 137.048 29.1598C136.982 28.941 136.873 28.7368 136.734 28.5691ZM134.527 29.6046C134.542 29.4514 134.586 29.3056 134.659 29.1671C134.732 29.0358 134.834 28.9264 134.966 28.8389C135.097 28.7514 135.265 28.7077 135.462 28.7077C135.601 28.7077 135.733 28.7296 135.842 28.7806C135.952 28.8316 136.047 28.89 136.12 28.9702C136.193 29.0504 136.252 29.1379 136.288 29.24C136.325 29.3421 136.347 29.4441 136.347 29.5608V29.6046H134.52H134.527ZM140.527 26.5421V28.6129C140.527 28.6129 140.483 28.5473 140.461 28.5181C140.337 28.3577 140.183 28.2264 140.008 28.1462C139.825 28.0587 139.635 28.015 139.423 28.015C139.124 28.015 138.846 28.0952 138.597 28.2483C138.349 28.4014 138.152 28.6202 138.013 28.9118C137.874 29.2035 137.794 29.5462 137.794 29.9473C137.794 30.3118 137.859 30.6473 137.991 30.9389C138.122 31.2306 138.312 31.4639 138.554 31.6316C138.795 31.7993 139.087 31.8868 139.423 31.8868C139.628 31.8868 139.818 31.8431 139.993 31.7629C140.169 31.6827 140.322 31.5587 140.461 31.391C140.49 31.3618 140.512 31.3254 140.534 31.2889V31.8212H141.374V26.5566H140.534L140.527 26.5421ZM140.147 30.9608C140.001 31.0556 139.825 31.1066 139.635 31.1066C139.445 31.1066 139.262 31.0556 139.116 30.9608C138.97 30.866 138.853 30.7275 138.766 30.5525C138.685 30.3775 138.641 30.1733 138.641 29.94C138.641 29.7066 138.685 29.5025 138.766 29.3275C138.846 29.1525 138.963 29.0139 139.116 28.9191C139.262 28.8243 139.438 28.7733 139.635 28.7733C139.832 28.7733 140.001 28.8243 140.147 28.9191C140.293 29.0139 140.41 29.1525 140.49 29.3275C140.571 29.5025 140.614 29.7066 140.614 29.9327C140.614 30.1587 140.571 30.3702 140.49 30.5452C140.41 30.7202 140.293 30.8587 140.147 30.9535V30.9608Z" fill="black"/>
<path fill-rule="evenodd" clip-rule="evenodd" d="M52.6006 20.7079L55.7867 3.19336H55.8306L61.2675 14.4152L66.6971 3.19336H66.7483L70.0075 20.7079H66.7702L65.4329 12.1913H65.3817L61.2894 20.7079H61.2383L57.0729 12.1913H57.029L55.7575 20.7079H52.6006ZM78.0094 13.635H81.7583L79.8364 9.09961L78.0094 13.635ZM71.1475 20.7079L79.8071 3.19336H79.851L88.8321 20.7079H85.1344L83.1394 16.4642H76.7306L74.7794 20.7079H71.1402H71.1475ZM105.136 20.7079L108.322 3.19336H108.373L113.803 14.4152L119.232 3.19336H119.283L122.543 20.7079H119.305L117.968 12.1913H117.917L113.824 20.7079H113.781L109.615 12.1913H109.564L108.3 20.7079H105.136ZM130.544 13.635H134.293L132.371 9.09961L130.544 13.635ZM123.683 20.7079L132.342 3.19336H132.393L141.374 20.7079H137.677L135.682 16.4642H129.273L127.322 20.7079H123.683ZM103.55 18.1923C102.476 19.4319 99.2383 20.7007 96.7244 20.7007C91.8794 20.7007 87.8821 16.8725 87.8821 11.9215C87.8821 6.97044 92.1206 3.19336 96.6952 3.19336C99.5964 3.19336 101.643 4.24336 103.301 5.73086L101.328 8.26836C99.9179 7.21836 98.8217 6.29232 96.6002 6.29232C93.531 6.29232 91.251 8.95378 91.251 12.1694C91.251 15.385 94.174 17.6163 96.7244 17.6163C97.9448 17.6163 99.3552 17.0986 100.327 16.4642V13.584H95.4529L96.476 10.485H103.543V18.1923H103.55Z" fill="black"/>
<path d="M52.6006 23.3555H141.374V23.793H52.6006V23.3555Z" fill="#E51E26"/>
<path d="M27.7986 34.6868C37.283 34.6868 44.9716 27.0151 44.9716 17.5514C44.9716 8.0878 37.283 0.416016 27.7986 0.416016C18.3141 0.416016 10.6255 8.0878 10.6255 17.5514C10.6255 27.0151 18.3141 34.6868 27.7986 34.6868Z" fill="#E51E26"/>
<path fill-rule="evenodd" clip-rule="evenodd" d="M21.0169 9.13627C20.9 9.07793 20.7027 9.07794 20.5785 9.06335C20.2131 9.02689 19.8404 9.02689 19.4823 9.07793C18.3569 9.23106 17.3923 9.87273 16.7785 10.8279C16.3327 11.5206 16.055 12.3227 15.9235 13.1394C15.7773 14.0654 15.7919 15.0134 15.8942 15.9467C16.0331 17.2081 16.3035 18.5206 16.7639 19.7019C17.3412 21.1821 19.8477 27.8102 25.7231 31.004C25.7231 31.004 21.4919 30.8071 16.7054 23.6977C14.7031 20.7227 13.1393 16.6904 13.4243 13.0811C13.5558 11.3602 14.2062 9.42793 15.8504 8.61856C17.4946 7.80918 19.4531 8.34148 21.0169 9.14356V9.13627Z" fill="black"/>
<path fill-rule="evenodd" clip-rule="evenodd" d="M34.5799 9.13627C34.6968 9.07793 34.8941 9.07794 35.0184 9.06335C35.3837 9.02689 35.7564 9.02689 36.1145 9.07793C37.2399 9.23106 38.2045 9.87273 38.8184 10.8279C39.2641 11.5206 39.5418 12.3227 39.6734 13.1394C39.8195 14.0654 39.8049 15.0134 39.7026 15.9467C39.5637 17.2081 39.2934 18.5206 38.833 19.7019C38.2557 21.1821 35.7491 27.8102 29.8737 31.004C29.8737 31.004 34.1049 30.8071 38.8914 23.6977C40.8937 20.7227 42.4576 16.6904 42.1726 13.0811C42.041 11.3602 41.3907 9.42793 39.7464 8.61856C38.1022 7.80918 36.1437 8.34148 34.5799 9.14356V9.13627ZM28.668 28.1238C28.7776 28.0071 28.8799 27.8977 28.9822 27.7738C26.9507 29.0061 26.0372 26.505 26.0372 26.505C25.7376 25.7831 25.6353 25.0029 25.5841 24.2227C25.511 23.1727 25.5622 22.0498 25.8107 20.9925C26.1249 19.68 27.4768 13.7884 32.6872 10.0186C32.6872 10.0186 28.5876 11.0175 25.0945 17.755C23.633 20.5696 22.9241 24.1644 23.801 27.0446C23.801 27.0446 24.0568 28.1019 24.8972 28.7363C25.1384 28.8602 27.0822 29.7863 28.6753 28.1165L28.668 28.1238Z" fill="white"/>
<path fill-rule="evenodd" clip-rule="evenodd" d="M28.6902 28.1021C29.1872 27.5699 29.6183 27.0011 29.8595 26.3594C30.1372 25.6303 30.2541 24.8501 30.2906 24.0699C30.3345 23.0126 30.2541 21.8969 29.9691 20.8469C29.6183 19.5417 28.0983 13.6938 22.7783 10.0771C22.7783 10.0771 26.9072 10.9594 30.5976 17.5876C32.1395 20.3584 33.1041 23.924 32.3076 26.8334C31.9276 28.2188 31.0141 29.6844 29.2822 30.0709C27.5502 30.4574 25.5626 29.4511 24.8976 28.7438C24.8976 28.7438 27.0095 29.9032 28.6902 28.1021Z" fill="black"/>
</svg>
