<svg width="17" height="17" viewBox="0 0 17 17" fill="none" xmlns="http://www.w3.org/2000/svg">
<path d="M17.0003 13.9644L15.9987 13.1059L14.167 14.6759V9.71436H12.7503V14.6759L10.9186 13.1059L9.91699 13.9644L13.4586 17.0001L17.0003 13.9644Z" fill="#6F747F"/>
<path d="M8.49994 15.786H1.41666V1.21457H7.08328V4.85743C7.0844 5.17918 7.23402 5.48748 7.49945 5.715C7.76488 5.94251 8.12456 6.07076 8.49994 6.07172H12.7499V7.89315H14.1666V4.85743C14.1691 4.77764 14.1514 4.69833 14.1147 4.62496C14.078 4.55159 14.0232 4.48591 13.9541 4.43243L8.99577 0.182422C8.93368 0.12284 8.8571 0.0756515 8.77144 0.0441815C8.68577 0.0127116 8.59309 -0.00227441 8.49994 0.000279258H1.41666C1.04128 0.0012402 0.681599 0.129482 0.416167 0.356997C0.150736 0.584513 0.00112109 0.892813 0 1.21457V15.786C0.00112109 16.1078 0.150736 16.4161 0.416167 16.6436C0.681599 16.8711 1.04128 16.9993 1.41666 17.0003H8.49994V15.786ZM8.49994 1.45742L12.4666 4.85743H8.49994V1.45742Z" fill="#6F747F"/>
</svg>
