<svg width="17" height="17" viewBox="0 0 17 17" fill="none" xmlns="http://www.w3.org/2000/svg">
<path d="M4.85714 1.54887e-07C4.21305 1.54887e-07 3.59533 0.210698 3.13988 0.585743C2.68444 0.960788 2.42857 1.46946 2.42857 1.99985V7.12547C2.81795 7.04148 3.22271 6.99948 3.64286 6.99948V1.99985C3.64286 1.73466 3.77079 1.48032 3.99851 1.2928C4.22624 1.10528 4.53509 0.999926 4.85714 0.999926H9.71428V4.49967C9.71428 4.89746 9.90619 5.27897 10.2478 5.56025C10.5894 5.84153 11.0526 5.99956 11.5357 5.99956H15.7857V13.999C15.7857 14.2642 15.6578 14.5185 15.4301 14.706C15.2023 14.8935 14.8935 14.9989 14.5714 14.9989H7.28571V15.9988H14.5714C15.2155 15.9988 15.8332 15.7881 16.2887 15.4131C16.7441 15.038 17 14.5294 17 13.999V5.4126C16.9996 5.01494 16.8074 4.63369 16.4657 4.35268L11.713 0.437968C11.3713 0.157337 10.9084 -0.000180305 10.4259 1.54887e-07H4.85714ZM15.5344 4.99963H11.5357C11.3747 4.99963 11.2203 4.94696 11.1064 4.85319C10.9925 4.75943 10.9286 4.63227 10.9286 4.49967V1.20691L15.5344 4.99963ZM7.28571 10.9992C7.28571 11.7948 6.90191 12.5578 6.21875 13.1204C5.53558 13.6829 4.609 13.999 3.64286 13.999C2.67671 13.999 1.75014 13.6829 1.06697 13.1204C0.3838 12.5578 0 11.7948 0 10.9992C0 10.2036 0.3838 9.44059 1.06697 8.87802C1.75014 8.31546 2.67671 7.99941 3.64286 7.99941C4.609 7.99941 5.53558 8.31546 6.21875 8.87802C6.90191 9.44059 7.28571 10.2036 7.28571 10.9992ZM6.07143 14.4629C5.33306 14.814 4.49547 14.9989 3.64286 14.9989C2.79035 14.9992 1.95277 14.8147 1.21429 14.4639V16.7498C1.21423 16.794 1.22841 16.8374 1.25537 16.8756C1.28233 16.9138 1.32112 16.9455 1.36777 16.9673C1.41442 16.9892 1.46728 17.0004 1.52095 17C1.57462 16.9995 1.62718 16.9874 1.67329 16.9647L3.64286 15.9978L5.61243 16.9637C5.65853 16.9864 5.7111 16.9985 5.76477 16.999C5.81844 16.9994 5.87129 16.9882 5.91794 16.9663C5.9646 16.9445 6.00338 16.9128 6.03034 16.8746C6.05731 16.8364 6.07148 16.793 6.07143 16.7488V14.4629Z" fill="#6F747F" fill-opacity="0.7"/>
</svg>
