<svg width="17" height="17" viewBox="0 0 17 17" fill="none" xmlns="http://www.w3.org/2000/svg">
<path fill-rule="evenodd" clip-rule="evenodd" d="M7.7775 0.0307885C9.24451 -0.0944126 10.7189 0.163616 12.0562 0.779598C13.3935 1.39558 14.5479 2.34839 15.4062 3.54469V1.85946C15.4062 1.64811 15.4902 1.44541 15.6396 1.29595C15.7891 1.1465 15.9918 1.06254 16.2031 1.06254C16.4145 1.06254 16.6172 1.1465 16.7666 1.29595C16.916 1.44541 17 1.64811 17 1.85946V6.37537H12.4844C12.273 6.37537 12.0703 6.29141 11.9209 6.14196C11.7715 5.9925 11.6875 5.7898 11.6875 5.57845C11.6875 5.36709 11.7715 5.16439 11.9209 5.01493C12.0703 4.86548 12.273 4.78152 12.4844 4.78152H14.3193C13.5927 3.64447 12.5489 2.74521 11.3169 2.1948C10.0849 1.64439 8.71871 1.46696 7.38701 1.68442C6.05532 1.90188 4.81649 2.50471 3.82356 3.41844C2.83063 4.33216 2.1271 5.51676 1.79988 6.8259C1.77574 6.92873 1.7314 7.02575 1.66944 7.11129C1.60747 7.19684 1.52912 7.26921 1.43894 7.32421C1.34875 7.3792 1.24854 7.41571 1.14412 7.43162C1.0397 7.44753 0.933157 7.44253 0.830689 7.41689C0.728221 7.39125 0.631872 7.3455 0.547244 7.28229C0.462616 7.21908 0.391398 7.13968 0.337731 7.0487C0.284064 6.95772 0.249019 6.85697 0.234634 6.75232C0.220249 6.64768 0.226811 6.54121 0.253937 6.43912C0.683765 4.72035 1.63986 3.17883 2.98859 2.03006C4.33732 0.881281 6.01126 0.182662 7.77644 0.031851L7.7775 0.0307885ZM4.165 15.812C5.30399 16.4872 6.58493 16.8869 7.90572 16.9793C9.22652 17.0717 10.5506 16.8543 11.7725 16.3443C12.9944 15.8344 14.0803 15.046 14.9436 14.0421C15.8069 13.0382 16.4238 11.8464 16.745 10.5619C16.7928 10.3581 16.7586 10.1436 16.6496 9.96489C16.5406 9.78616 16.3657 9.65748 16.1626 9.60667C15.9595 9.55587 15.7446 9.58701 15.5643 9.69338C15.384 9.79974 15.2528 9.97278 15.1991 10.1751C14.8717 11.484 14.1681 12.6683 13.1753 13.5818C12.1824 14.4952 10.9438 15.0979 9.61232 15.3154C8.28084 15.5328 6.91484 15.3555 5.683 14.8053C4.45116 14.2551 3.40743 13.3562 2.68069 12.2195H4.51562C4.72697 12.2195 4.92966 12.1355 5.0791 11.9861C5.22854 11.8366 5.3125 11.6339 5.3125 11.4226C5.3125 11.2112 5.22854 11.0085 5.0791 10.859C4.92966 10.7096 4.72697 10.6256 4.51562 10.6256H0V15.1415C0 15.3529 0.0839562 15.5556 0.233399 15.705C0.382842 15.8545 0.585531 15.9385 0.796875 15.9385C1.00822 15.9385 1.21091 15.8545 1.36035 15.705C1.50979 15.5556 1.59375 15.3529 1.59375 15.1415V13.4563C2.27883 14.4108 3.15434 15.2129 4.165 15.812Z" fill="#6F747F" fill-opacity="0.7"/>
</svg>
