<svg width="173" height="22" viewBox="0 0 173 22" fill="none" xmlns="http://www.w3.org/2000/svg">
<path d="M8 0H165V12C165 17.5228 160.523 22 155 22H18C12.4771 22 8 17.5228 8 12V0Z" fill="#65BDFF"/>
<path d="M38.3186 14.6821C38.0673 14.6821 37.8723 14.6128 37.7336 14.4741C37.6036 14.3355 37.5386 14.1361 37.5386 13.8761V6.14112C37.5386 5.87246 37.6036 5.66879 37.7336 5.53012C37.8723 5.38279 38.0499 5.30912 38.2666 5.30912C38.4659 5.30912 38.6133 5.34812 38.7086 5.42612C38.8126 5.49546 38.9339 5.61679 39.0726 5.79012L44.0516 12.2511H43.7136V6.10212C43.7136 5.85079 43.7786 5.65579 43.9086 5.51712C44.0473 5.37846 44.2423 5.30912 44.4936 5.30912C44.7449 5.30912 44.9356 5.37846 45.0656 5.51712C45.1956 5.65579 45.2606 5.85079 45.2606 6.10212V13.9021C45.2606 14.1448 45.1999 14.3355 45.0786 14.4741C44.9573 14.6128 44.7926 14.6821 44.5846 14.6821C44.3853 14.6821 44.2249 14.6431 44.1036 14.5651C43.9909 14.4871 43.8653 14.3615 43.7266 14.1881L38.7606 7.72712H39.0856V13.8761C39.0856 14.1361 39.0206 14.3355 38.8906 14.4741C38.7606 14.6128 38.5699 14.6821 38.3186 14.6821ZM50.0062 14.7081C49.3475 14.7081 48.7755 14.5738 48.2902 14.3051C47.8049 14.0365 47.4279 13.6551 47.1592 13.1611C46.8905 12.6585 46.7562 12.0691 46.7562 11.3931C46.7562 10.8818 46.8299 10.4268 46.9772 10.0281C47.1332 9.62079 47.3542 9.27412 47.6402 8.98812C47.9262 8.69346 48.2685 8.47246 48.6672 8.32512C49.0659 8.16912 49.5122 8.09112 50.0062 8.09112C50.6649 8.09112 51.2369 8.22546 51.7222 8.49412C52.2075 8.76279 52.5845 9.14412 52.8532 9.63812C53.1219 10.1321 53.2562 10.7171 53.2562 11.3931C53.2562 11.9045 53.1782 12.3638 53.0222 12.7711C52.8749 13.1785 52.6582 13.5295 52.3722 13.8241C52.0862 14.1101 51.7439 14.3311 51.3452 14.4871C50.9465 14.6345 50.5002 14.7081 50.0062 14.7081ZM50.0062 13.4731C50.3269 13.4731 50.6085 13.3951 50.8512 13.2391C51.0939 13.0831 51.2802 12.8535 51.4102 12.5501C51.5489 12.2381 51.6182 11.8525 51.6182 11.3931C51.6182 10.6998 51.4709 10.1841 51.1762 9.84612C50.8815 9.49946 50.4915 9.32612 50.0062 9.32612C49.6855 9.32612 49.4039 9.40412 49.1612 9.56012C48.9185 9.70746 48.7279 9.93712 48.5892 10.2491C48.4592 10.5525 48.3942 10.9338 48.3942 11.3931C48.3942 12.0778 48.5415 12.5978 48.8362 12.9531C49.1309 13.2998 49.5209 13.4731 50.0062 13.4731ZM55.4294 14.6821C55.1694 14.6821 54.9701 14.6128 54.8314 14.4741C54.6928 14.3268 54.6234 14.1188 54.6234 13.8501V8.93612C54.6234 8.66746 54.6928 8.46379 54.8314 8.32512C54.9701 8.18646 55.1651 8.11712 55.4164 8.11712C55.6678 8.11712 55.8628 8.18646 56.0014 8.32512C56.1401 8.46379 56.2094 8.66746 56.2094 8.93612V9.88512L56.0664 9.49512C56.2398 9.06179 56.5084 8.71946 56.8724 8.46812C57.2364 8.21679 57.6698 8.09112 58.1724 8.09112C58.6838 8.09112 59.1041 8.21246 59.4334 8.45512C59.7628 8.69779 59.9924 9.07046 60.1224 9.57312H59.9404C60.1138 9.11379 60.3998 8.75412 60.7984 8.49412C61.1971 8.22546 61.6564 8.09112 62.1764 8.09112C62.6618 8.09112 63.0604 8.18646 63.3724 8.37712C63.6931 8.56779 63.9314 8.85812 64.0874 9.24812C64.2434 9.62946 64.3214 10.1148 64.3214 10.7041V13.8501C64.3214 14.1188 64.2478 14.3268 64.1004 14.4741C63.9618 14.6128 63.7624 14.6821 63.5024 14.6821C63.2424 14.6821 63.0431 14.6128 62.9044 14.4741C62.7658 14.3268 62.6964 14.1188 62.6964 13.8501V10.7691C62.6964 10.2838 62.6141 9.92846 62.4494 9.70312C62.2934 9.47779 62.0248 9.36512 61.6434 9.36512C61.2188 9.36512 60.8851 9.51679 60.6424 9.82012C60.3998 10.1148 60.2784 10.5265 60.2784 11.0551V13.8501C60.2784 14.1188 60.2091 14.3268 60.0704 14.4741C59.9318 14.6128 59.7324 14.6821 59.4724 14.6821C59.2124 14.6821 59.0088 14.6128 58.8614 14.4741C58.7228 14.3268 58.6534 14.1188 58.6534 13.8501V10.7691C58.6534 10.2838 58.5711 9.92846 58.4064 9.70312C58.2504 9.47779 57.9861 9.36512 57.6134 9.36512C57.1888 9.36512 56.8551 9.51679 56.6124 9.82012C56.3698 10.1148 56.2484 10.5265 56.2484 11.0551V13.8501C56.2484 14.4048 55.9754 14.6821 55.4294 14.6821ZM66.8038 14.6691C66.5438 14.6691 66.3445 14.5911 66.2058 14.4351C66.0672 14.2791 65.9978 14.0625 65.9978 13.7851V9.01412C65.9978 8.72812 66.0672 8.51146 66.2058 8.36412C66.3445 8.20812 66.5438 8.13012 66.8038 8.13012C67.0638 8.13012 67.2632 8.20812 67.4018 8.36412C67.5492 8.51146 67.6228 8.72812 67.6228 9.01412V13.7851C67.6228 14.0625 67.5535 14.2791 67.4148 14.4351C67.2762 14.5911 67.0725 14.6691 66.8038 14.6691ZM66.8038 6.92112C66.5005 6.92112 66.2622 6.84746 66.0888 6.70012C65.9242 6.54412 65.8418 6.33179 65.8418 6.06312C65.8418 5.78579 65.9242 5.57346 66.0888 5.42612C66.2622 5.27879 66.5005 5.20512 66.8038 5.20512C67.1158 5.20512 67.3542 5.27879 67.5188 5.42612C67.6835 5.57346 67.7658 5.78579 67.7658 6.06312C67.7658 6.33179 67.6835 6.54412 67.5188 6.70012C67.3542 6.84746 67.1158 6.92112 66.8038 6.92112ZM70.1173 14.6821C69.8573 14.6821 69.658 14.6128 69.5193 14.4741C69.3806 14.3268 69.3113 14.1188 69.3113 13.8501V8.93612C69.3113 8.66746 69.3806 8.46379 69.5193 8.32512C69.658 8.18646 69.853 8.11712 70.1043 8.11712C70.3556 8.11712 70.5506 8.18646 70.6893 8.32512C70.828 8.46379 70.8973 8.66746 70.8973 8.93612V9.82012L70.7543 9.49512C70.945 9.03579 71.2396 8.68912 71.6383 8.45512C72.0456 8.21246 72.505 8.09112 73.0163 8.09112C73.5276 8.09112 73.948 8.18646 74.2773 8.37712C74.6066 8.56779 74.8536 8.85812 75.0183 9.24812C75.183 9.62946 75.2653 10.1148 75.2653 10.7041V13.8501C75.2653 14.1188 75.196 14.3268 75.0573 14.4741C74.9186 14.6128 74.7193 14.6821 74.4593 14.6821C74.1993 14.6821 73.9956 14.6128 73.8483 14.4741C73.7096 14.3268 73.6403 14.1188 73.6403 13.8501V10.7821C73.6403 10.2881 73.545 9.92846 73.3543 9.70312C73.1723 9.47779 72.8863 9.36512 72.4963 9.36512C72.0196 9.36512 71.6383 9.51679 71.3523 9.82012C71.075 10.1148 70.9363 10.5091 70.9363 11.0031V13.8501C70.9363 14.4048 70.6633 14.6821 70.1173 14.6821ZM80.0488 14.7081C79.3295 14.7081 78.7098 14.5738 78.1898 14.3051C77.6698 14.0365 77.2668 13.6551 76.9808 13.1611C76.7035 12.6671 76.5648 12.0821 76.5648 11.4061C76.5648 10.7475 76.6991 10.1711 76.9678 9.67712C77.2451 9.18312 77.6221 8.79746 78.0988 8.52012C78.5841 8.23412 79.1345 8.09112 79.7498 8.09112C80.2005 8.09112 80.6035 8.16479 80.9588 8.31212C81.3228 8.45946 81.6305 8.67179 81.8818 8.94912C82.1418 9.22646 82.3368 9.56446 82.4668 9.96312C82.6055 10.3531 82.6748 10.7951 82.6748 11.2891C82.6748 11.4451 82.6185 11.5665 82.5058 11.6531C82.4018 11.7311 82.2501 11.7701 82.0508 11.7701H77.8778V10.8341H81.5308L81.3228 11.0291C81.3228 10.6305 81.2621 10.2968 81.1408 10.0281C81.0281 9.75946 80.8591 9.55579 80.6338 9.41712C80.4171 9.26979 80.1441 9.19612 79.8148 9.19612C79.4508 9.19612 79.1388 9.28279 78.8788 9.45612C78.6275 9.62079 78.4325 9.85912 78.2938 10.1711C78.1638 10.4745 78.0988 10.8385 78.0988 11.2631V11.3541C78.0988 12.0648 78.2635 12.5978 78.5928 12.9531C78.9308 13.2998 79.4248 13.4731 80.0748 13.4731C80.3001 13.4731 80.5515 13.4471 80.8288 13.3951C81.1148 13.3345 81.3835 13.2348 81.6348 13.0961C81.8168 12.9921 81.9771 12.9488 82.1158 12.9661C82.2545 12.9748 82.3628 13.0225 82.4408 13.1091C82.5275 13.1958 82.5795 13.3041 82.5968 13.4341C82.6141 13.5555 82.5881 13.6811 82.5188 13.8111C82.4581 13.9411 82.3498 14.0538 82.1938 14.1491C81.8905 14.3398 81.5395 14.4828 81.1408 14.5781C80.7508 14.6648 80.3868 14.7081 80.0488 14.7081ZM87.0947 14.7081C86.3754 14.7081 85.7557 14.5738 85.2357 14.3051C84.7157 14.0365 84.3127 13.6551 84.0267 13.1611C83.7494 12.6671 83.6107 12.0821 83.6107 11.4061C83.6107 10.7475 83.745 10.1711 84.0137 9.67712C84.291 9.18312 84.668 8.79746 85.1447 8.52012C85.63 8.23412 86.1804 8.09112 86.7957 8.09112C87.2464 8.09112 87.6494 8.16479 88.0047 8.31212C88.3687 8.45946 88.6764 8.67179 88.9277 8.94912C89.1877 9.22646 89.3827 9.56446 89.5127 9.96312C89.6514 10.3531 89.7207 10.7951 89.7207 11.2891C89.7207 11.4451 89.6644 11.5665 89.5517 11.6531C89.4477 11.7311 89.296 11.7701 89.0967 11.7701H84.9237V10.8341H88.5767L88.3687 11.0291C88.3687 10.6305 88.308 10.2968 88.1867 10.0281C88.074 9.75946 87.905 9.55579 87.6797 9.41712C87.463 9.26979 87.19 9.19612 86.8607 9.19612C86.4967 9.19612 86.1847 9.28279 85.9247 9.45612C85.6734 9.62079 85.4784 9.85912 85.3397 10.1711C85.2097 10.4745 85.1447 10.8385 85.1447 11.2631V11.3541C85.1447 12.0648 85.3094 12.5978 85.6387 12.9531C85.9767 13.2998 86.4707 13.4731 87.1207 13.4731C87.346 13.4731 87.5974 13.4471 87.8747 13.3951C88.1607 13.3345 88.4294 13.2348 88.6807 13.0961C88.8627 12.9921 89.023 12.9488 89.1617 12.9661C89.3004 12.9748 89.4087 13.0225 89.4867 13.1091C89.5734 13.1958 89.6254 13.3041 89.6427 13.4341C89.66 13.5555 89.634 13.6811 89.5647 13.8111C89.504 13.9411 89.3957 14.0538 89.2397 14.1491C88.9364 14.3398 88.5854 14.4828 88.1867 14.5781C87.7967 14.6648 87.4327 14.7081 87.0947 14.7081ZM95.5769 14.5781C95.2909 14.5781 95.0699 14.5045 94.9139 14.3571C94.7666 14.2011 94.6929 13.9801 94.6929 13.6941V6.29712C94.6929 6.01112 94.7666 5.79446 94.9139 5.64712C95.0699 5.49112 95.2909 5.41312 95.5769 5.41312H98.0989C99.6329 5.41312 100.816 5.80746 101.648 6.59612C102.489 7.38479 102.909 8.51579 102.909 9.98912C102.909 10.7258 102.801 11.3801 102.584 11.9521C102.376 12.5155 102.064 12.9921 101.648 13.3821C101.241 13.7721 100.738 14.0711 100.14 14.2791C99.5506 14.4785 98.8702 14.5781 98.0989 14.5781H95.5769ZM96.3569 13.2001H97.9949C98.5322 13.2001 98.9959 13.1351 99.3859 13.0051C99.7846 12.8665 100.114 12.6671 100.374 12.4071C100.643 12.1385 100.842 11.8048 100.972 11.4061C101.102 10.9988 101.167 10.5265 101.167 9.98912C101.167 8.91446 100.903 8.11279 100.374 7.58412C99.8452 7.05546 99.0522 6.79112 97.9949 6.79112H96.3569V13.2001ZM107.572 14.7081C106.853 14.7081 106.233 14.5738 105.713 14.3051C105.193 14.0365 104.79 13.6551 104.504 13.1611C104.227 12.6671 104.088 12.0821 104.088 11.4061C104.088 10.7475 104.223 10.1711 104.491 9.67712C104.769 9.18312 105.146 8.79746 105.622 8.52012C106.108 8.23412 106.658 8.09112 107.273 8.09112C107.724 8.09112 108.127 8.16479 108.482 8.31212C108.846 8.45946 109.154 8.67179 109.405 8.94912C109.665 9.22646 109.86 9.56446 109.99 9.96312C110.129 10.3531 110.198 10.7951 110.198 11.2891C110.198 11.4451 110.142 11.5665 110.029 11.6531C109.925 11.7311 109.774 11.7701 109.574 11.7701H105.401V10.8341H109.054L108.846 11.0291C108.846 10.6305 108.786 10.2968 108.664 10.0281C108.552 9.75946 108.383 9.55579 108.157 9.41712C107.941 9.26979 107.668 9.19612 107.338 9.19612C106.974 9.19612 106.662 9.28279 106.402 9.45612C106.151 9.62079 105.956 9.85912 105.817 10.1711C105.687 10.4745 105.622 10.8385 105.622 11.2631V11.3541C105.622 12.0648 105.787 12.5978 106.116 12.9531C106.454 13.2998 106.948 13.4731 107.598 13.4731C107.824 13.4731 108.075 13.4471 108.352 13.3951C108.638 13.3345 108.907 13.2348 109.158 13.0961C109.34 12.9921 109.501 12.9488 109.639 12.9661C109.778 12.9748 109.886 13.0225 109.964 13.1091C110.051 13.1958 110.103 13.3041 110.12 13.4341C110.138 13.5555 110.112 13.6811 110.042 13.8111C109.982 13.9411 109.873 14.0538 109.717 14.1491C109.414 14.3398 109.063 14.4828 108.664 14.5781C108.274 14.6648 107.91 14.7081 107.572 14.7081ZM114.372 14.7081C113.808 14.7081 113.336 14.6128 112.955 14.4221C112.582 14.2315 112.305 13.9541 112.123 13.5901C111.941 13.2175 111.85 12.7581 111.85 12.2121V9.44312H111.174C110.966 9.44312 110.805 9.39112 110.693 9.28712C110.58 9.17446 110.524 9.02279 110.524 8.83212C110.524 8.63279 110.58 8.48112 110.693 8.37712C110.805 8.27312 110.966 8.22112 111.174 8.22112H111.85V7.03812C111.85 6.76946 111.919 6.56579 112.058 6.42712C112.205 6.28846 112.409 6.21912 112.669 6.21912C112.929 6.21912 113.128 6.28846 113.267 6.42712C113.405 6.56579 113.475 6.76946 113.475 7.03812V8.22112H114.853C115.061 8.22112 115.221 8.27312 115.334 8.37712C115.446 8.48112 115.503 8.63279 115.503 8.83212C115.503 9.02279 115.446 9.17446 115.334 9.28712C115.221 9.39112 115.061 9.44312 114.853 9.44312H113.475V12.1211C113.475 12.5371 113.566 12.8491 113.748 13.0571C113.93 13.2651 114.224 13.3691 114.632 13.3691C114.779 13.3691 114.909 13.3561 115.022 13.3301C115.134 13.3041 115.234 13.2868 115.321 13.2781C115.425 13.2695 115.511 13.3041 115.581 13.3821C115.65 13.4515 115.685 13.5988 115.685 13.8241C115.685 13.9975 115.654 14.1535 115.594 14.2921C115.542 14.4221 115.442 14.5131 115.295 14.5651C115.182 14.5998 115.035 14.6301 114.853 14.6561C114.671 14.6908 114.51 14.7081 114.372 14.7081ZM118.542 14.7081C118.083 14.7081 117.671 14.6215 117.307 14.4481C116.952 14.2661 116.67 14.0235 116.462 13.7201C116.263 13.4168 116.163 13.0745 116.163 12.6931C116.163 12.2251 116.284 11.8568 116.527 11.5881C116.77 11.3108 117.164 11.1115 117.71 10.9901C118.256 10.8688 118.988 10.8081 119.907 10.8081H120.557V11.7441H119.92C119.383 11.7441 118.954 11.7701 118.633 11.8221C118.312 11.8741 118.083 11.9651 117.944 12.0951C117.814 12.2165 117.749 12.3898 117.749 12.6151C117.749 12.9011 117.849 13.1351 118.048 13.3171C118.247 13.4991 118.525 13.5901 118.88 13.5901C119.166 13.5901 119.417 13.5251 119.634 13.3951C119.859 13.2565 120.037 13.0701 120.167 12.8361C120.297 12.6021 120.362 12.3335 120.362 12.0301V10.5351C120.362 10.1018 120.267 9.78979 120.076 9.59912C119.885 9.40846 119.565 9.31312 119.114 9.31312C118.863 9.31312 118.59 9.34346 118.295 9.40412C118.009 9.46479 117.706 9.56879 117.385 9.71612C117.22 9.79412 117.073 9.81579 116.943 9.78112C116.822 9.74646 116.726 9.67712 116.657 9.57312C116.588 9.46046 116.553 9.33912 116.553 9.20912C116.553 9.07912 116.588 8.95346 116.657 8.83212C116.726 8.70212 116.843 8.60679 117.008 8.54612C117.407 8.38146 117.788 8.26446 118.152 8.19512C118.525 8.12579 118.863 8.09112 119.166 8.09112C119.79 8.09112 120.301 8.18646 120.7 8.37712C121.107 8.56779 121.411 8.85812 121.61 9.24812C121.809 9.62946 121.909 10.1235 121.909 10.7301V13.8501C121.909 14.1188 121.844 14.3268 121.714 14.4741C121.584 14.6128 121.398 14.6821 121.155 14.6821C120.912 14.6821 120.722 14.6128 120.583 14.4741C120.453 14.3268 120.388 14.1188 120.388 13.8501V13.2261H120.492C120.431 13.5295 120.31 13.7938 120.128 14.0191C119.955 14.2358 119.734 14.4048 119.465 14.5261C119.196 14.6475 118.889 14.7081 118.542 14.7081ZM124.364 14.6691C124.104 14.6691 123.905 14.5911 123.766 14.4351C123.628 14.2791 123.558 14.0625 123.558 13.7851V9.01412C123.558 8.72812 123.628 8.51146 123.766 8.36412C123.905 8.20812 124.104 8.13012 124.364 8.13012C124.624 8.13012 124.824 8.20812 124.962 8.36412C125.11 8.51146 125.183 8.72812 125.183 9.01412V13.7851C125.183 14.0625 125.114 14.2791 124.975 14.4351C124.837 14.5911 124.633 14.6691 124.364 14.6691ZM124.364 6.92112C124.061 6.92112 123.823 6.84746 123.649 6.70012C123.485 6.54412 123.402 6.33179 123.402 6.06312C123.402 5.78579 123.485 5.57346 123.649 5.42612C123.823 5.27879 124.061 5.20512 124.364 5.20512C124.676 5.20512 124.915 5.27879 125.079 5.42612C125.244 5.57346 125.326 5.78579 125.326 6.06312C125.326 6.33179 125.244 6.54412 125.079 6.70012C124.915 6.84746 124.676 6.92112 124.364 6.92112ZM129.043 14.7081C128.324 14.7081 127.782 14.5045 127.418 14.0971C127.054 13.6811 126.872 13.0745 126.872 12.2771V6.12812C126.872 5.85946 126.941 5.65579 127.08 5.51712C127.219 5.37846 127.418 5.30912 127.678 5.30912C127.938 5.30912 128.137 5.37846 128.276 5.51712C128.423 5.65579 128.497 5.85946 128.497 6.12812V12.1991C128.497 12.5978 128.579 12.8925 128.744 13.0831C128.917 13.2738 129.16 13.3691 129.472 13.3691C129.541 13.3691 129.606 13.3691 129.667 13.3691C129.728 13.3605 129.788 13.3518 129.849 13.3431C129.97 13.3258 130.053 13.3605 130.096 13.4471C130.139 13.5251 130.161 13.6898 130.161 13.9411C130.161 14.1578 130.118 14.3268 130.031 14.4481C129.944 14.5695 129.801 14.6431 129.602 14.6691C129.515 14.6778 129.424 14.6865 129.329 14.6951C129.234 14.7038 129.138 14.7081 129.043 14.7081ZM133.287 14.7081C132.914 14.7081 132.52 14.6691 132.104 14.5911C131.688 14.5131 131.315 14.3788 130.986 14.1881C130.847 14.1015 130.747 14.0018 130.687 13.8891C130.635 13.7678 130.613 13.6508 130.622 13.5381C130.639 13.4168 130.682 13.3128 130.752 13.2261C130.83 13.1395 130.925 13.0831 131.038 13.0571C131.159 13.0311 131.289 13.0528 131.428 13.1221C131.774 13.2868 132.099 13.4038 132.403 13.4731C132.706 13.5338 133.005 13.5641 133.3 13.5641C133.716 13.5641 134.023 13.4948 134.223 13.3561C134.431 13.2088 134.535 13.0181 134.535 12.7841C134.535 12.5848 134.465 12.4331 134.327 12.3291C134.197 12.2165 133.997 12.1341 133.729 12.0821L132.429 11.8351C131.891 11.7311 131.48 11.5361 131.194 11.2501C130.916 10.9555 130.778 10.5785 130.778 10.1191C130.778 9.70312 130.89 9.34346 131.116 9.04012C131.35 8.73679 131.67 8.50279 132.078 8.33812C132.485 8.17346 132.953 8.09112 133.482 8.09112C133.863 8.09112 134.218 8.13446 134.548 8.22112C134.886 8.29912 135.211 8.42479 135.523 8.59812C135.653 8.66746 135.739 8.75846 135.783 8.87112C135.835 8.98379 135.848 9.10079 135.822 9.22212C135.796 9.33479 135.744 9.43879 135.666 9.53412C135.588 9.62079 135.488 9.67712 135.367 9.70312C135.254 9.72046 135.124 9.69446 134.977 9.62512C134.708 9.48646 134.448 9.38679 134.197 9.32612C133.954 9.26546 133.72 9.23512 133.495 9.23512C133.07 9.23512 132.754 9.30879 132.546 9.45612C132.346 9.60346 132.247 9.79846 132.247 10.0411C132.247 10.2231 132.307 10.3748 132.429 10.4961C132.55 10.6175 132.736 10.6998 132.988 10.7431L134.288 10.9901C134.851 11.0941 135.276 11.2848 135.562 11.5621C135.856 11.8395 136.004 12.2121 136.004 12.6801C136.004 13.3128 135.757 13.8111 135.263 14.1751C134.769 14.5305 134.11 14.7081 133.287 14.7081Z" fill="white"/>
<path d="M165 0L173 6H165V0Z" fill="url(#paint0_linear_210_11468)"/>
<path d="M8 0L0 6H8V0Z" fill="url(#paint1_linear_210_11468)"/>
<defs>
<linearGradient id="paint0_linear_210_11468" x1="169" y1="0" x2="169" y2="6" gradientUnits="userSpaceOnUse">
<stop stop-color="#314D62"/>
<stop offset="1" stop-color="#65BDFF"/>
</linearGradient>
<linearGradient id="paint1_linear_210_11468" x1="4" y1="0" x2="4" y2="6" gradientUnits="userSpaceOnUse">
<stop stop-color="#314D62"/>
<stop offset="1" stop-color="#65BDFF"/>
</linearGradient>
</defs>
</svg>
