<svg width="173" height="22" viewBox="0 0 173 22" fill="none" xmlns="http://www.w3.org/2000/svg">
<path d="M8 0H165V12C165 17.5228 160.523 22 155 22H18C12.4771 22 8 17.5228 8 12V0Z" fill="#4D4D4D"/>
<path d="M45.2805 15.104C45.0292 15.104 44.8342 15.0347 44.6955 14.896C44.5655 14.7573 44.5005 14.558 44.5005 14.298V6.563C44.5005 6.29433 44.5655 6.09067 44.6955 5.952C44.8342 5.80467 45.0118 5.731 45.2285 5.731C45.4278 5.731 45.5752 5.77 45.6705 5.848C45.7745 5.91733 45.8958 6.03867 46.0345 6.212L51.0135 12.673H50.6755V6.524C50.6755 6.27267 50.7405 6.07767 50.8705 5.939C51.0092 5.80033 51.2042 5.731 51.4555 5.731C51.7068 5.731 51.8975 5.80033 52.0275 5.939C52.1575 6.07767 52.2225 6.27267 52.2225 6.524V14.324C52.2225 14.5667 52.1618 14.7573 52.0405 14.896C51.9192 15.0347 51.7545 15.104 51.5465 15.104C51.3472 15.104 51.1868 15.065 51.0655 14.987C50.9528 14.909 50.8272 14.7833 50.6885 14.61L45.7225 8.149H46.0475V14.298C46.0475 14.558 45.9825 14.7573 45.8525 14.896C45.7225 15.0347 45.5318 15.104 45.2805 15.104ZM56.9681 15.13C56.3095 15.13 55.7375 14.9957 55.2521 14.727C54.7668 14.4583 54.3898 14.077 54.1211 13.583C53.8525 13.0803 53.7181 12.491 53.7181 11.815C53.7181 11.3037 53.7918 10.8487 53.9391 10.45C54.0951 10.0427 54.3161 9.696 54.6021 9.41C54.8881 9.11533 55.2305 8.89433 55.6291 8.747C56.0278 8.591 56.4741 8.513 56.9681 8.513C57.6268 8.513 58.1988 8.64733 58.6841 8.916C59.1695 9.18467 59.5465 9.566 59.8151 10.06C60.0838 10.554 60.2181 11.139 60.2181 11.815C60.2181 12.3263 60.1401 12.7857 59.9841 13.193C59.8368 13.6003 59.6201 13.9513 59.3341 14.246C59.0481 14.532 58.7058 14.753 58.3071 14.909C57.9085 15.0563 57.4621 15.13 56.9681 15.13ZM56.9681 13.895C57.2888 13.895 57.5705 13.817 57.8131 13.661C58.0558 13.505 58.2421 13.2753 58.3721 12.972C58.5108 12.66 58.5801 12.2743 58.5801 11.815C58.5801 11.1217 58.4328 10.606 58.1381 10.268C57.8435 9.92133 57.4535 9.748 56.9681 9.748C56.6475 9.748 56.3658 9.826 56.1231 9.982C55.8805 10.1293 55.6898 10.359 55.5511 10.671C55.4211 10.9743 55.3561 11.3557 55.3561 11.815C55.3561 12.4997 55.5035 13.0197 55.7981 13.375C56.0928 13.7217 56.4828 13.895 56.9681 13.895ZM64.4079 15.13C63.8445 15.13 63.3722 15.0347 62.9909 14.844C62.6182 14.6533 62.3409 14.376 62.1589 14.012C61.9769 13.6393 61.8859 13.18 61.8859 12.634V9.865H61.2099C61.0019 9.865 60.8415 9.813 60.7289 9.709C60.6162 9.59633 60.5599 9.44467 60.5599 9.254C60.5599 9.05467 60.6162 8.903 60.7289 8.799C60.8415 8.695 61.0019 8.643 61.2099 8.643H61.8859V7.46C61.8859 7.19133 61.9552 6.98767 62.0939 6.849C62.2412 6.71033 62.4449 6.641 62.7049 6.641C62.9649 6.641 63.1642 6.71033 63.3029 6.849C63.4415 6.98767 63.5109 7.19133 63.5109 7.46V8.643H64.8889C65.0969 8.643 65.2572 8.695 65.3699 8.799C65.4825 8.903 65.5389 9.05467 65.5389 9.254C65.5389 9.44467 65.4825 9.59633 65.3699 9.709C65.2572 9.813 65.0969 9.865 64.8889 9.865H63.5109V12.543C63.5109 12.959 63.6019 13.271 63.7839 13.479C63.9659 13.687 64.2605 13.791 64.6679 13.791C64.8152 13.791 64.9452 13.778 65.0579 13.752C65.1705 13.726 65.2702 13.7087 65.3569 13.7C65.4609 13.6913 65.5475 13.726 65.6169 13.804C65.6862 13.8733 65.7209 14.0207 65.7209 14.246C65.7209 14.4193 65.6905 14.5753 65.6299 14.714C65.5779 14.844 65.4782 14.935 65.3309 14.987C65.2182 15.0217 65.0709 15.052 64.8889 15.078C64.7069 15.1127 64.5465 15.13 64.4079 15.13ZM71.0024 15.104C70.7338 15.104 70.5258 15.0303 70.3784 14.883C70.2398 14.727 70.1704 14.5147 70.1704 14.246V6.589C70.1704 6.31167 70.2398 6.09933 70.3784 5.952C70.5258 5.80467 70.7338 5.731 71.0024 5.731C71.2711 5.731 71.4748 5.80467 71.6134 5.952C71.7608 6.09933 71.8344 6.31167 71.8344 6.589V14.246C71.8344 14.5147 71.7651 14.727 71.6264 14.883C71.4878 15.0303 71.2798 15.104 71.0024 15.104ZM74.4894 15.104C74.2294 15.104 74.03 15.0347 73.8914 14.896C73.7527 14.7487 73.6834 14.5407 73.6834 14.272V9.358C73.6834 9.08933 73.7527 8.88567 73.8914 8.747C74.03 8.60833 74.225 8.539 74.4764 8.539C74.7277 8.539 74.9227 8.60833 75.0614 8.747C75.2 8.88567 75.2694 9.08933 75.2694 9.358V10.242L75.1264 9.917C75.317 9.45767 75.6117 9.111 76.0104 8.877C76.4177 8.63433 76.877 8.513 77.3884 8.513C77.8997 8.513 78.32 8.60833 78.6494 8.799C78.9787 8.98967 79.2257 9.28 79.3904 9.67C79.555 10.0513 79.6374 10.5367 79.6374 11.126V14.272C79.6374 14.5407 79.568 14.7487 79.4294 14.896C79.2907 15.0347 79.0914 15.104 78.8314 15.104C78.5714 15.104 78.3677 15.0347 78.2204 14.896C78.0817 14.7487 78.0124 14.5407 78.0124 14.272V11.204C78.0124 10.71 77.917 10.3503 77.7264 10.125C77.5444 9.89967 77.2584 9.787 76.8684 9.787C76.3917 9.787 76.0104 9.93867 75.7244 10.242C75.447 10.5367 75.3084 10.931 75.3084 11.425V14.272C75.3084 14.8267 75.0354 15.104 74.4894 15.104ZM84.1999 15.13C83.6365 15.13 83.1642 15.0347 82.7829 14.844C82.4102 14.6533 82.1329 14.376 81.9509 14.012C81.7689 13.6393 81.6779 13.18 81.6779 12.634V9.865H81.0019C80.7939 9.865 80.6335 9.813 80.5209 9.709C80.4082 9.59633 80.3519 9.44467 80.3519 9.254C80.3519 9.05467 80.4082 8.903 80.5209 8.799C80.6335 8.695 80.7939 8.643 81.0019 8.643H81.6779V7.46C81.6779 7.19133 81.7472 6.98767 81.8859 6.849C82.0332 6.71033 82.2369 6.641 82.4969 6.641C82.7569 6.641 82.9562 6.71033 83.0949 6.849C83.2335 6.98767 83.3029 7.19133 83.3029 7.46V8.643H84.6809C84.8889 8.643 85.0492 8.695 85.1619 8.799C85.2745 8.903 85.3309 9.05467 85.3309 9.254C85.3309 9.44467 85.2745 9.59633 85.1619 9.709C85.0492 9.813 84.8889 9.865 84.6809 9.865H83.3029V12.543C83.3029 12.959 83.3939 13.271 83.5759 13.479C83.7579 13.687 84.0525 13.791 84.4599 13.791C84.6072 13.791 84.7372 13.778 84.8499 13.752C84.9625 13.726 85.0622 13.7087 85.1489 13.7C85.2529 13.6913 85.3395 13.726 85.4089 13.804C85.4782 13.8733 85.5129 14.0207 85.5129 14.246C85.5129 14.4193 85.4825 14.5753 85.4219 14.714C85.3699 14.844 85.2702 14.935 85.1229 14.987C85.0102 15.0217 84.8629 15.052 84.6809 15.078C84.4989 15.1127 84.3385 15.13 84.1999 15.13ZM89.3467 15.13C88.6273 15.13 88.0077 14.9957 87.4877 14.727C86.9677 14.4583 86.5647 14.077 86.2787 13.583C86.0013 13.089 85.8627 12.504 85.8627 11.828C85.8627 11.1693 85.997 10.593 86.2657 10.099C86.543 9.605 86.92 9.21933 87.3967 8.942C87.882 8.656 88.4323 8.513 89.0477 8.513C89.4983 8.513 89.9013 8.58667 90.2567 8.734C90.6207 8.88133 90.9283 9.09367 91.1797 9.371C91.4397 9.64833 91.6347 9.98633 91.7647 10.385C91.9033 10.775 91.9727 11.217 91.9727 11.711C91.9727 11.867 91.9163 11.9883 91.8037 12.075C91.6997 12.153 91.548 12.192 91.3487 12.192H87.1757V11.256H90.8287L90.6207 11.451C90.6207 11.0523 90.56 10.7187 90.4387 10.45C90.326 10.1813 90.157 9.97767 89.9317 9.839C89.715 9.69167 89.442 9.618 89.1127 9.618C88.7487 9.618 88.4367 9.70467 88.1767 9.878C87.9253 10.0427 87.7303 10.281 87.5917 10.593C87.4617 10.8963 87.3967 11.2603 87.3967 11.685V11.776C87.3967 12.4867 87.5613 13.0197 87.8907 13.375C88.2287 13.7217 88.7227 13.895 89.3727 13.895C89.598 13.895 89.8493 13.869 90.1267 13.817C90.4127 13.7563 90.6813 13.6567 90.9327 13.518C91.1147 13.414 91.275 13.3707 91.4137 13.388C91.5523 13.3967 91.6607 13.4443 91.7387 13.531C91.8253 13.6177 91.8773 13.726 91.8947 13.856C91.912 13.9773 91.886 14.103 91.8167 14.233C91.756 14.363 91.6477 14.4757 91.4917 14.571C91.1883 14.7617 90.8373 14.9047 90.4387 15C90.0487 15.0867 89.6847 15.13 89.3467 15.13ZM94.0916 15.104C93.8229 15.104 93.6149 15.0347 93.4676 14.896C93.3289 14.7487 93.2596 14.5407 93.2596 14.272V9.358C93.2596 9.08933 93.3289 8.88567 93.4676 8.747C93.6062 8.60833 93.8012 8.539 94.0526 8.539C94.3039 8.539 94.4989 8.60833 94.6376 8.747C94.7762 8.88567 94.8456 9.08933 94.8456 9.358V10.177H94.7156C94.8369 9.657 95.0752 9.26267 95.4306 8.994C95.7859 8.72533 96.2582 8.565 96.8476 8.513C97.0296 8.49567 97.1726 8.54333 97.2766 8.656C97.3892 8.76 97.4542 8.92467 97.4716 9.15C97.4889 9.36667 97.4369 9.54433 97.3156 9.683C97.2029 9.813 97.0296 9.891 96.7956 9.917L96.5096 9.943C95.9809 9.995 95.5822 10.1597 95.3136 10.437C95.0449 10.7057 94.9106 11.087 94.9106 11.581V14.272C94.9106 14.5407 94.8412 14.7487 94.7026 14.896C94.5639 15.0347 94.3602 15.104 94.0916 15.104ZM101.382 15.13C100.662 15.13 100.043 14.9957 99.5228 14.727C99.0028 14.4583 98.5998 14.077 98.3138 13.583C98.0365 13.089 97.8978 12.504 97.8978 11.828C97.8978 11.1693 98.0321 10.593 98.3008 10.099C98.5781 9.605 98.9551 9.21933 99.4318 8.942C99.9171 8.656 100.467 8.513 101.083 8.513C101.533 8.513 101.936 8.58667 102.292 8.734C102.656 8.88133 102.963 9.09367 103.215 9.371C103.475 9.64833 103.67 9.98633 103.8 10.385C103.938 10.775 104.008 11.217 104.008 11.711C104.008 11.867 103.951 11.9883 103.839 12.075C103.735 12.153 103.583 12.192 103.384 12.192H99.2108V11.256H102.864L102.656 11.451C102.656 11.0523 102.595 10.7187 102.474 10.45C102.361 10.1813 102.192 9.97767 101.967 9.839C101.75 9.69167 101.477 9.618 101.148 9.618C100.784 9.618 100.472 9.70467 100.212 9.878C99.9605 10.0427 99.7655 10.281 99.6268 10.593C99.4968 10.8963 99.4318 11.2603 99.4318 11.685V11.776C99.4318 12.4867 99.5965 13.0197 99.9258 13.375C100.264 13.7217 100.758 13.895 101.408 13.895C101.633 13.895 101.884 13.869 102.162 13.817C102.448 13.7563 102.716 13.6567 102.968 13.518C103.15 13.414 103.31 13.3707 103.449 13.388C103.587 13.3967 103.696 13.4443 103.774 13.531C103.86 13.6177 103.912 13.726 103.93 13.856C103.947 13.9773 103.921 14.103 103.852 14.233C103.791 14.363 103.683 14.4757 103.527 14.571C103.223 14.7617 102.872 14.9047 102.474 15C102.084 15.0867 101.72 15.13 101.382 15.13ZM107.622 15.13C107.249 15.13 106.855 15.091 106.439 15.013C106.023 14.935 105.65 14.8007 105.321 14.61C105.182 14.5233 105.082 14.4237 105.022 14.311C104.97 14.1897 104.948 14.0727 104.957 13.96C104.974 13.8387 105.017 13.7347 105.087 13.648C105.165 13.5613 105.26 13.505 105.373 13.479C105.494 13.453 105.624 13.4747 105.763 13.544C106.109 13.7087 106.434 13.8257 106.738 13.895C107.041 13.9557 107.34 13.986 107.635 13.986C108.051 13.986 108.358 13.9167 108.558 13.778C108.766 13.6307 108.87 13.44 108.87 13.206C108.87 13.0067 108.8 12.855 108.662 12.751C108.532 12.6383 108.332 12.556 108.064 12.504L106.764 12.257C106.226 12.153 105.815 11.958 105.529 11.672C105.251 11.3773 105.113 11.0003 105.113 10.541C105.113 10.125 105.225 9.76533 105.451 9.462C105.685 9.15867 106.005 8.92467 106.413 8.76C106.82 8.59533 107.288 8.513 107.817 8.513C108.198 8.513 108.553 8.55633 108.883 8.643C109.221 8.721 109.546 8.84667 109.858 9.02C109.988 9.08933 110.074 9.18033 110.118 9.293C110.17 9.40567 110.183 9.52267 110.157 9.644C110.131 9.75667 110.079 9.86067 110.001 9.956C109.923 10.0427 109.823 10.099 109.702 10.125C109.589 10.1423 109.459 10.1163 109.312 10.047C109.043 9.90833 108.783 9.80867 108.532 9.748C108.289 9.68733 108.055 9.657 107.83 9.657C107.405 9.657 107.089 9.73067 106.881 9.878C106.681 10.0253 106.582 10.2203 106.582 10.463C106.582 10.645 106.642 10.7967 106.764 10.918C106.885 11.0393 107.071 11.1217 107.323 11.165L108.623 11.412C109.186 11.516 109.611 11.7067 109.897 11.984C110.191 12.2613 110.339 12.634 110.339 13.102C110.339 13.7347 110.092 14.233 109.598 14.597C109.104 14.9523 108.445 15.13 107.622 15.13ZM114.491 15.13C113.928 15.13 113.455 15.0347 113.074 14.844C112.701 14.6533 112.424 14.376 112.242 14.012C112.06 13.6393 111.969 13.18 111.969 12.634V9.865H111.293C111.085 9.865 110.925 9.813 110.812 9.709C110.699 9.59633 110.643 9.44467 110.643 9.254C110.643 9.05467 110.699 8.903 110.812 8.799C110.925 8.695 111.085 8.643 111.293 8.643H111.969V7.46C111.969 7.19133 112.038 6.98767 112.177 6.849C112.324 6.71033 112.528 6.641 112.788 6.641C113.048 6.641 113.247 6.71033 113.386 6.849C113.525 6.98767 113.594 7.19133 113.594 7.46V8.643H114.972C115.18 8.643 115.34 8.695 115.453 8.799C115.566 8.903 115.622 9.05467 115.622 9.254C115.622 9.44467 115.566 9.59633 115.453 9.709C115.34 9.813 115.18 9.865 114.972 9.865H113.594V12.543C113.594 12.959 113.685 13.271 113.867 13.479C114.049 13.687 114.344 13.791 114.751 13.791C114.898 13.791 115.028 13.778 115.141 13.752C115.254 13.726 115.353 13.7087 115.44 13.7C115.544 13.6913 115.631 13.726 115.7 13.804C115.769 13.8733 115.804 14.0207 115.804 14.246C115.804 14.4193 115.774 14.5753 115.713 14.714C115.661 14.844 115.561 14.935 115.414 14.987C115.301 15.0217 115.154 15.052 114.972 15.078C114.79 15.1127 114.63 15.13 114.491 15.13ZM119.638 15.13C118.918 15.13 118.299 14.9957 117.779 14.727C117.259 14.4583 116.856 14.077 116.57 13.583C116.292 13.089 116.154 12.504 116.154 11.828C116.154 11.1693 116.288 10.593 116.557 10.099C116.834 9.605 117.211 9.21933 117.688 8.942C118.173 8.656 118.723 8.513 119.339 8.513C119.789 8.513 120.192 8.58667 120.548 8.734C120.912 8.88133 121.219 9.09367 121.471 9.371C121.731 9.64833 121.926 9.98633 122.056 10.385C122.194 10.775 122.264 11.217 122.264 11.711C122.264 11.867 122.207 11.9883 122.095 12.075C121.991 12.153 121.839 12.192 121.64 12.192H117.467V11.256H121.12L120.912 11.451C120.912 11.0523 120.851 10.7187 120.73 10.45C120.617 10.1813 120.448 9.97767 120.223 9.839C120.006 9.69167 119.733 9.618 119.404 9.618C119.04 9.618 118.728 9.70467 118.468 9.878C118.216 10.0427 118.021 10.281 117.883 10.593C117.753 10.8963 117.688 11.2603 117.688 11.685V11.776C117.688 12.4867 117.852 13.0197 118.182 13.375C118.52 13.7217 119.014 13.895 119.664 13.895C119.889 13.895 120.14 13.869 120.418 13.817C120.704 13.7563 120.972 13.6567 121.224 13.518C121.406 13.414 121.566 13.3707 121.705 13.388C121.843 13.3967 121.952 13.4443 122.03 13.531C122.116 13.6177 122.168 13.726 122.186 13.856C122.203 13.9773 122.177 14.103 122.108 14.233C122.047 14.363 121.939 14.4757 121.783 14.571C121.479 14.7617 121.128 14.9047 120.73 15C120.34 15.0867 119.976 15.13 119.638 15.13ZM125.995 15.13C125.44 15.13 124.95 14.9957 124.526 14.727C124.11 14.4583 123.785 14.077 123.551 13.583C123.317 13.0803 123.2 12.491 123.2 11.815C123.2 11.1303 123.317 10.5453 123.551 10.06C123.785 9.566 124.11 9.18467 124.526 8.916C124.95 8.64733 125.44 8.513 125.995 8.513C126.523 8.513 126.983 8.643 127.373 8.903C127.771 9.163 128.04 9.50533 128.179 9.93H128.036V6.55C128.036 6.28133 128.105 6.07767 128.244 5.939C128.382 5.80033 128.582 5.731 128.842 5.731C129.102 5.731 129.301 5.80033 129.44 5.939C129.587 6.07767 129.661 6.28133 129.661 6.55V14.272C129.661 14.5407 129.591 14.7487 129.453 14.896C129.314 15.0347 129.115 15.104 128.855 15.104C128.595 15.104 128.395 15.0347 128.257 14.896C128.118 14.7487 128.049 14.5407 128.049 14.272V13.258L128.192 13.648C128.062 14.0987 127.797 14.4583 127.399 14.727C127 14.9957 126.532 15.13 125.995 15.13ZM126.45 13.895C126.77 13.895 127.052 13.817 127.295 13.661C127.537 13.505 127.724 13.2753 127.854 12.972C127.992 12.66 128.062 12.2743 128.062 11.815C128.062 11.1217 127.914 10.606 127.62 10.268C127.325 9.92133 126.935 9.748 126.45 9.748C126.129 9.748 125.847 9.826 125.605 9.982C125.362 10.1293 125.171 10.359 125.033 10.671C124.903 10.9743 124.838 11.3557 124.838 11.815C124.838 12.4997 124.985 13.0197 125.28 13.375C125.574 13.7217 125.964 13.895 126.45 13.895Z" fill="white"/>
<path d="M165 0L173 6H165V0Z" fill="url(#paint0_linear_210_11486)"/>
<path d="M8 0L0 6H8V0Z" fill="url(#paint1_linear_210_11486)"/>
<defs>
<linearGradient id="paint0_linear_210_11486" x1="169" y1="0" x2="169" y2="6" gradientUnits="userSpaceOnUse">
<stop stop-color="#090909"/>
<stop offset="1" stop-color="#4D4D4D"/>
</linearGradient>
<linearGradient id="paint1_linear_210_11486" x1="4" y1="0" x2="4" y2="6" gradientUnits="userSpaceOnUse">
<stop stop-color="#090909"/>
<stop offset="1" stop-color="#4D4D4D"/>
</linearGradient>
</defs>
</svg>
