<svg width="173" height="22" viewBox="0 0 173 22" fill="none" xmlns="http://www.w3.org/2000/svg">
<path d="M8 0H165V12C165 17.5228 160.523 22 155 22H18C12.4771 22 8 17.5228 8 12V0Z" fill="#4FCB4F"/>
<path d="M33.3179 15.104C33.0492 15.104 32.8412 15.0303 32.6939 14.883C32.5552 14.727 32.4859 14.5147 32.4859 14.246V6.68C32.4859 6.40267 32.5595 6.19467 32.7069 6.056C32.8542 5.90867 33.0622 5.835 33.3309 5.835H36.4639C37.4692 5.835 38.2449 6.08633 38.7909 6.589C39.3369 7.09167 39.6099 7.79367 39.6099 8.695C39.6099 9.59633 39.3369 10.3027 38.7909 10.814C38.2449 11.3167 37.4692 11.568 36.4639 11.568H34.1499V14.246C34.1499 14.5147 34.0805 14.727 33.9419 14.883C33.8032 15.0303 33.5952 15.104 33.3179 15.104ZM34.1499 10.255H36.2039C36.7932 10.255 37.2395 10.125 37.5429 9.865C37.8462 9.59633 37.9979 9.20633 37.9979 8.695C37.9979 8.18367 37.8462 7.798 37.5429 7.538C37.2395 7.278 36.7932 7.148 36.2039 7.148H34.1499V10.255ZM42.5986 15.13C42.1393 15.13 41.7276 15.0433 41.3636 14.87C41.0083 14.688 40.7266 14.4453 40.5186 14.142C40.3193 13.8387 40.2196 13.4963 40.2196 13.115C40.2196 12.647 40.341 12.2787 40.5836 12.01C40.8263 11.7327 41.2206 11.5333 41.7666 11.412C42.3126 11.2907 43.045 11.23 43.9636 11.23H44.6136V12.166H43.9766C43.4393 12.166 43.0103 12.192 42.6896 12.244C42.369 12.296 42.1393 12.387 42.0006 12.517C41.8706 12.6383 41.8056 12.8117 41.8056 13.037C41.8056 13.323 41.9053 13.557 42.1046 13.739C42.304 13.921 42.5813 14.012 42.9366 14.012C43.2226 14.012 43.474 13.947 43.6906 13.817C43.916 13.6783 44.0936 13.492 44.2236 13.258C44.3536 13.024 44.4186 12.7553 44.4186 12.452V10.957C44.4186 10.5237 44.3233 10.2117 44.1326 10.021C43.942 9.83033 43.6213 9.735 43.1706 9.735C42.9193 9.735 42.6463 9.76533 42.3516 9.826C42.0656 9.88667 41.7623 9.99067 41.4416 10.138C41.277 10.216 41.1296 10.2377 40.9996 10.203C40.8783 10.1683 40.783 10.099 40.7136 9.995C40.6443 9.88233 40.6096 9.761 40.6096 9.631C40.6096 9.501 40.6443 9.37533 40.7136 9.254C40.783 9.124 40.9 9.02867 41.0646 8.968C41.4633 8.80333 41.8446 8.68633 42.2086 8.617C42.5813 8.54767 42.9193 8.513 43.2226 8.513C43.8466 8.513 44.358 8.60833 44.7566 8.799C45.164 8.98967 45.4673 9.28 45.6666 9.67C45.866 10.0513 45.9656 10.5453 45.9656 11.152V14.272C45.9656 14.5407 45.9006 14.7487 45.7706 14.896C45.6406 15.0347 45.4543 15.104 45.2116 15.104C44.969 15.104 44.7783 15.0347 44.6396 14.896C44.5096 14.7487 44.4446 14.5407 44.4446 14.272V13.648H44.5486C44.488 13.9513 44.3666 14.2157 44.1846 14.441C44.0113 14.6577 43.7903 14.8267 43.5216 14.948C43.253 15.0693 42.9453 15.13 42.5986 15.13ZM49.1635 17.444C48.9729 17.444 48.8169 17.392 48.6955 17.288C48.5742 17.1927 48.5005 17.0627 48.4745 16.898C48.4572 16.7333 48.4875 16.56 48.5655 16.378L49.4495 14.415V15.091L47.0835 9.618C47.0055 9.42733 46.9795 9.24967 47.0055 9.085C47.0315 8.92033 47.1095 8.79033 47.2395 8.695C47.3782 8.591 47.5645 8.539 47.7985 8.539C47.9979 8.539 48.1582 8.58667 48.2795 8.682C48.4009 8.76867 48.5092 8.93767 48.6045 9.189L50.3595 13.57H49.9695L51.7635 9.176C51.8589 8.93333 51.9715 8.76867 52.1015 8.682C52.2315 8.58667 52.4049 8.539 52.6215 8.539C52.8122 8.539 52.9639 8.591 53.0765 8.695C53.1892 8.79033 53.2585 8.92033 53.2845 9.085C53.3105 9.241 53.2802 9.41433 53.1935 9.605L50.0345 16.82C49.9219 17.0627 49.8005 17.2273 49.6705 17.314C49.5405 17.4007 49.3715 17.444 49.1635 17.444ZM55.2263 15.104C54.9663 15.104 54.767 15.0347 54.6283 14.896C54.4896 14.7487 54.4203 14.5407 54.4203 14.272V9.358C54.4203 9.08933 54.4896 8.88567 54.6283 8.747C54.767 8.60833 54.962 8.539 55.2133 8.539C55.4646 8.539 55.6596 8.60833 55.7983 8.747C55.937 8.88567 56.0063 9.08933 56.0063 9.358V10.307L55.8633 9.917C56.0366 9.48367 56.3053 9.14133 56.6693 8.89C57.0333 8.63867 57.4666 8.513 57.9693 8.513C58.4806 8.513 58.901 8.63433 59.2303 8.877C59.5596 9.11967 59.7893 9.49233 59.9193 9.995H59.7373C59.9106 9.53567 60.1967 9.176 60.5953 8.916C60.994 8.64733 61.4533 8.513 61.9733 8.513C62.4587 8.513 62.8573 8.60833 63.1693 8.799C63.49 8.98967 63.7283 9.28 63.8843 9.67C64.0403 10.0513 64.1183 10.5367 64.1183 11.126V14.272C64.1183 14.5407 64.0447 14.7487 63.8973 14.896C63.7587 15.0347 63.5593 15.104 63.2993 15.104C63.0393 15.104 62.84 15.0347 62.7013 14.896C62.5627 14.7487 62.4933 14.5407 62.4933 14.272V11.191C62.4933 10.7057 62.411 10.3503 62.2463 10.125C62.0903 9.89967 61.8217 9.787 61.4403 9.787C61.0157 9.787 60.682 9.93867 60.4393 10.242C60.1967 10.5367 60.0753 10.9483 60.0753 11.477V14.272C60.0753 14.5407 60.006 14.7487 59.8673 14.896C59.7287 15.0347 59.5293 15.104 59.2693 15.104C59.0093 15.104 58.8056 15.0347 58.6583 14.896C58.5196 14.7487 58.4503 14.5407 58.4503 14.272V11.191C58.4503 10.7057 58.368 10.3503 58.2033 10.125C58.0473 9.89967 57.783 9.787 57.4103 9.787C56.9856 9.787 56.652 9.93867 56.4093 10.242C56.1666 10.5367 56.0453 10.9483 56.0453 11.477V14.272C56.0453 14.8267 55.7723 15.104 55.2263 15.104ZM68.9277 15.13C68.2084 15.13 67.5887 14.9957 67.0687 14.727C66.5487 14.4583 66.1457 14.077 65.8597 13.583C65.5824 13.089 65.4437 12.504 65.4437 11.828C65.4437 11.1693 65.578 10.593 65.8467 10.099C66.124 9.605 66.501 9.21933 66.9777 8.942C67.463 8.656 68.0134 8.513 68.6287 8.513C69.0794 8.513 69.4824 8.58667 69.8377 8.734C70.2017 8.88133 70.5094 9.09367 70.7607 9.371C71.0207 9.64833 71.2157 9.98633 71.3457 10.385C71.4844 10.775 71.5537 11.217 71.5537 11.711C71.5537 11.867 71.4974 11.9883 71.3847 12.075C71.2807 12.153 71.129 12.192 70.9297 12.192H66.7567V11.256H70.4097L70.2017 11.451C70.2017 11.0523 70.141 10.7187 70.0197 10.45C69.907 10.1813 69.738 9.97767 69.5127 9.839C69.296 9.69167 69.023 9.618 68.6937 9.618C68.3297 9.618 68.0177 9.70467 67.7577 9.878C67.5064 10.0427 67.3114 10.281 67.1727 10.593C67.0427 10.8963 66.9777 11.2603 66.9777 11.685V11.776C66.9777 12.4867 67.1424 13.0197 67.4717 13.375C67.8097 13.7217 68.3037 13.895 68.9537 13.895C69.179 13.895 69.4304 13.869 69.7077 13.817C69.9937 13.7563 70.2624 13.6567 70.5137 13.518C70.6957 13.414 70.856 13.3707 70.9947 13.388C71.1334 13.3967 71.2417 13.4443 71.3197 13.531C71.4064 13.6177 71.4584 13.726 71.4757 13.856C71.493 13.9773 71.467 14.103 71.3977 14.233C71.337 14.363 71.2287 14.4757 71.0727 14.571C70.7694 14.7617 70.4184 14.9047 70.0197 15C69.6297 15.0867 69.2657 15.13 68.9277 15.13ZM73.6466 15.104C73.3866 15.104 73.1873 15.0347 73.0486 14.896C72.9099 14.7487 72.8406 14.5407 72.8406 14.272V9.358C72.8406 9.08933 72.9099 8.88567 73.0486 8.747C73.1873 8.60833 73.3823 8.539 73.6336 8.539C73.8849 8.539 74.0799 8.60833 74.2186 8.747C74.3573 8.88567 74.4266 9.08933 74.4266 9.358V10.242L74.2836 9.917C74.4743 9.45767 74.7689 9.111 75.1676 8.877C75.5749 8.63433 76.0343 8.513 76.5456 8.513C77.0569 8.513 77.4773 8.60833 77.8066 8.799C78.1359 8.98967 78.3829 9.28 78.5476 9.67C78.7123 10.0513 78.7946 10.5367 78.7946 11.126V14.272C78.7946 14.5407 78.7253 14.7487 78.5866 14.896C78.4479 15.0347 78.2486 15.104 77.9886 15.104C77.7286 15.104 77.5249 15.0347 77.3776 14.896C77.2389 14.7487 77.1696 14.5407 77.1696 14.272V11.204C77.1696 10.71 77.0743 10.3503 76.8836 10.125C76.7016 9.89967 76.4156 9.787 76.0256 9.787C75.5489 9.787 75.1676 9.93867 74.8816 10.242C74.6043 10.5367 74.4656 10.931 74.4656 11.425V14.272C74.4656 14.8267 74.1926 15.104 73.6466 15.104ZM83.3571 15.13C82.7938 15.13 82.3214 15.0347 81.9401 14.844C81.5674 14.6533 81.2901 14.376 81.1081 14.012C80.9261 13.6393 80.8351 13.18 80.8351 12.634V9.865H80.1591C79.9511 9.865 79.7908 9.813 79.6781 9.709C79.5654 9.59633 79.5091 9.44467 79.5091 9.254C79.5091 9.05467 79.5654 8.903 79.6781 8.799C79.7908 8.695 79.9511 8.643 80.1591 8.643H80.8351V7.46C80.8351 7.19133 80.9044 6.98767 81.0431 6.849C81.1904 6.71033 81.3941 6.641 81.6541 6.641C81.9141 6.641 82.1134 6.71033 82.2521 6.849C82.3908 6.98767 82.4601 7.19133 82.4601 7.46V8.643H83.8381C84.0461 8.643 84.2064 8.695 84.3191 8.799C84.4318 8.903 84.4881 9.05467 84.4881 9.254C84.4881 9.44467 84.4318 9.59633 84.3191 9.709C84.2064 9.813 84.0461 9.865 83.8381 9.865H82.4601V12.543C82.4601 12.959 82.5511 13.271 82.7331 13.479C82.9151 13.687 83.2098 13.791 83.6171 13.791C83.7644 13.791 83.8944 13.778 84.0071 13.752C84.1198 13.726 84.2194 13.7087 84.3061 13.7C84.4101 13.6913 84.4968 13.726 84.5661 13.804C84.6354 13.8733 84.6701 14.0207 84.6701 14.246C84.6701 14.4193 84.6398 14.5753 84.5791 14.714C84.5271 14.844 84.4274 14.935 84.2801 14.987C84.1674 15.0217 84.0201 15.052 83.8381 15.078C83.6561 15.1127 83.4958 15.13 83.3571 15.13ZM93.5267 15.13C92.5127 15.13 91.6547 14.9393 90.9527 14.558C90.2593 14.1767 89.7307 13.635 89.3667 12.933C89.0027 12.231 88.8207 11.399 88.8207 10.437C88.8207 9.709 88.9247 9.05467 89.1327 8.474C89.3493 7.89333 89.657 7.39933 90.0557 6.992C90.463 6.576 90.957 6.25967 91.5377 6.043C92.1183 5.81767 92.777 5.705 93.5137 5.705C93.999 5.705 94.4843 5.76567 94.9697 5.887C95.4637 5.99967 95.9273 6.19467 96.3607 6.472C96.508 6.56733 96.6033 6.68433 96.6467 6.823C96.6987 6.96167 96.7073 7.10467 96.6727 7.252C96.638 7.39067 96.573 7.512 96.4777 7.616C96.3823 7.72 96.261 7.785 96.1137 7.811C95.975 7.837 95.819 7.80233 95.6457 7.707C95.3163 7.51633 94.9827 7.37767 94.6447 7.291C94.3067 7.20433 93.9297 7.161 93.5137 7.161C92.8723 7.161 92.3307 7.291 91.8887 7.551C91.4467 7.80233 91.113 8.17067 90.8877 8.656C90.671 9.14133 90.5627 9.735 90.5627 10.437C90.5627 11.503 90.8183 12.3133 91.3297 12.868C91.841 13.4227 92.5993 13.7 93.6047 13.7C93.9513 13.7 94.3023 13.6653 94.6577 13.596C95.013 13.5267 95.3597 13.4313 95.6977 13.31L95.3727 14.051V11.282H93.9427C93.726 11.282 93.557 11.2257 93.4357 11.113C93.323 11.0003 93.2667 10.8487 93.2667 10.658C93.2667 10.4587 93.323 10.307 93.4357 10.203C93.557 10.099 93.726 10.047 93.9427 10.047H96.0877C96.3043 10.047 96.469 10.1077 96.5817 10.229C96.703 10.3417 96.7637 10.5063 96.7637 10.723V13.882C96.7637 14.0727 96.7247 14.233 96.6467 14.363C96.5773 14.493 96.4603 14.5883 96.2957 14.649C95.9143 14.7877 95.4767 14.9047 94.9827 15C94.4887 15.0867 94.0033 15.13 93.5267 15.13ZM100.629 15.13C100.17 15.13 99.7579 15.0433 99.3939 14.87C99.0386 14.688 98.7569 14.4453 98.5489 14.142C98.3496 13.8387 98.2499 13.4963 98.2499 13.115C98.2499 12.647 98.3713 12.2787 98.6139 12.01C98.8566 11.7327 99.2509 11.5333 99.7969 11.412C100.343 11.2907 101.075 11.23 101.994 11.23H102.644V12.166H102.007C101.47 12.166 101.041 12.192 100.72 12.244C100.399 12.296 100.17 12.387 100.031 12.517C99.9009 12.6383 99.8359 12.8117 99.8359 13.037C99.8359 13.323 99.9356 13.557 100.135 13.739C100.334 13.921 100.612 14.012 100.967 14.012C101.253 14.012 101.504 13.947 101.721 13.817C101.946 13.6783 102.124 13.492 102.254 13.258C102.384 13.024 102.449 12.7553 102.449 12.452V10.957C102.449 10.5237 102.354 10.2117 102.163 10.021C101.972 9.83033 101.652 9.735 101.201 9.735C100.95 9.735 100.677 9.76533 100.382 9.826C100.096 9.88667 99.7926 9.99067 99.4719 10.138C99.3073 10.216 99.1599 10.2377 99.0299 10.203C98.9086 10.1683 98.8133 10.099 98.7439 9.995C98.6746 9.88233 98.6399 9.761 98.6399 9.631C98.6399 9.501 98.6746 9.37533 98.7439 9.254C98.8133 9.124 98.9303 9.02867 99.0949 8.968C99.4936 8.80333 99.8749 8.68633 100.239 8.617C100.612 8.54767 100.95 8.513 101.253 8.513C101.877 8.513 102.388 8.60833 102.787 8.799C103.194 8.98967 103.498 9.28 103.697 9.67C103.896 10.0513 103.996 10.5453 103.996 11.152V14.272C103.996 14.5407 103.931 14.7487 103.801 14.896C103.671 15.0347 103.485 15.104 103.242 15.104C102.999 15.104 102.809 15.0347 102.67 14.896C102.54 14.7487 102.475 14.5407 102.475 14.272V13.648H102.579C102.518 13.9513 102.397 14.2157 102.215 14.441C102.042 14.6577 101.821 14.8267 101.552 14.948C101.283 15.0693 100.976 15.13 100.629 15.13ZM108.557 15.13C107.994 15.13 107.522 15.0347 107.14 14.844C106.768 14.6533 106.49 14.376 106.308 14.012C106.126 13.6393 106.035 13.18 106.035 12.634V9.865H105.359C105.151 9.865 104.991 9.813 104.878 9.709C104.766 9.59633 104.709 9.44467 104.709 9.254C104.709 9.05467 104.766 8.903 104.878 8.799C104.991 8.695 105.151 8.643 105.359 8.643H106.035V7.46C106.035 7.19133 106.105 6.98767 106.243 6.849C106.391 6.71033 106.594 6.641 106.854 6.641C107.114 6.641 107.314 6.71033 107.452 6.849C107.591 6.98767 107.66 7.19133 107.66 7.46V8.643H109.038C109.246 8.643 109.407 8.695 109.519 8.799C109.632 8.903 109.688 9.05467 109.688 9.254C109.688 9.44467 109.632 9.59633 109.519 9.709C109.407 9.813 109.246 9.865 109.038 9.865H107.66V12.543C107.66 12.959 107.751 13.271 107.933 13.479C108.115 13.687 108.41 13.791 108.817 13.791C108.965 13.791 109.095 13.778 109.207 13.752C109.32 13.726 109.42 13.7087 109.506 13.7C109.61 13.6913 109.697 13.726 109.766 13.804C109.836 13.8733 109.87 14.0207 109.87 14.246C109.87 14.4193 109.84 14.5753 109.779 14.714C109.727 14.844 109.628 14.935 109.48 14.987C109.368 15.0217 109.22 15.052 109.038 15.078C108.856 15.1127 108.696 15.13 108.557 15.13ZM113.704 15.13C112.985 15.13 112.365 14.9957 111.845 14.727C111.325 14.4583 110.922 14.077 110.636 13.583C110.359 13.089 110.22 12.504 110.22 11.828C110.22 11.1693 110.354 10.593 110.623 10.099C110.9 9.605 111.277 9.21933 111.754 8.942C112.239 8.656 112.79 8.513 113.405 8.513C113.856 8.513 114.259 8.58667 114.614 8.734C114.978 8.88133 115.286 9.09367 115.537 9.371C115.797 9.64833 115.992 9.98633 116.122 10.385C116.261 10.775 116.33 11.217 116.33 11.711C116.33 11.867 116.274 11.9883 116.161 12.075C116.057 12.153 115.905 12.192 115.706 12.192H111.533V11.256H115.186L114.978 11.451C114.978 11.0523 114.917 10.7187 114.796 10.45C114.683 10.1813 114.514 9.97767 114.289 9.839C114.072 9.69167 113.799 9.618 113.47 9.618C113.106 9.618 112.794 9.70467 112.534 9.878C112.283 10.0427 112.088 10.281 111.949 10.593C111.819 10.8963 111.754 11.2603 111.754 11.685V11.776C111.754 12.4867 111.919 13.0197 112.248 13.375C112.586 13.7217 113.08 13.895 113.73 13.895C113.955 13.895 114.207 13.869 114.484 13.817C114.77 13.7563 115.039 13.6567 115.29 13.518C115.472 13.414 115.632 13.3707 115.771 13.388C115.91 13.3967 116.018 13.4443 116.096 13.531C116.183 13.6177 116.235 13.726 116.252 13.856C116.269 13.9773 116.243 14.103 116.174 14.233C116.113 14.363 116.005 14.4757 115.849 14.571C115.546 14.7617 115.195 14.9047 114.796 15C114.406 15.0867 114.042 15.13 113.704 15.13ZM119.972 15.104C119.756 15.104 119.569 15.052 119.413 14.948C119.257 14.8353 119.132 14.662 119.036 14.428L117.151 9.618C117.073 9.41 117.047 9.228 117.073 9.072C117.108 8.90733 117.19 8.77733 117.32 8.682C117.45 8.58667 117.624 8.539 117.84 8.539C118.031 8.539 118.187 8.58667 118.308 8.682C118.43 8.76867 118.534 8.93767 118.62 9.189L120.193 13.518H119.894L121.519 9.085C121.589 8.89433 121.68 8.75567 121.792 8.669C121.914 8.58233 122.07 8.539 122.26 8.539C122.451 8.539 122.607 8.58667 122.728 8.682C122.85 8.76867 122.941 8.903 123.001 9.085L124.6 13.518H124.327L125.913 9.15C126 8.916 126.108 8.75567 126.238 8.669C126.377 8.58233 126.529 8.539 126.693 8.539C126.901 8.539 127.062 8.591 127.174 8.695C127.287 8.799 127.352 8.93333 127.369 9.098C127.387 9.254 127.356 9.42733 127.278 9.618L125.406 14.428C125.32 14.6533 125.194 14.8223 125.029 14.935C124.873 15.0477 124.687 15.104 124.47 15.104C124.254 15.104 124.063 15.0477 123.898 14.935C123.742 14.8223 123.621 14.6533 123.534 14.428L121.831 9.917H122.572L120.908 14.415C120.822 14.649 120.7 14.8223 120.544 14.935C120.388 15.0477 120.198 15.104 119.972 15.104ZM130.564 15.13C130.105 15.13 129.693 15.0433 129.329 14.87C128.974 14.688 128.692 14.4453 128.484 14.142C128.285 13.8387 128.185 13.4963 128.185 13.115C128.185 12.647 128.307 12.2787 128.549 12.01C128.792 11.7327 129.186 11.5333 129.732 11.412C130.278 11.2907 131.011 11.23 131.929 11.23H132.579V12.166H131.942C131.405 12.166 130.976 12.192 130.655 12.244C130.335 12.296 130.105 12.387 129.966 12.517C129.836 12.6383 129.771 12.8117 129.771 13.037C129.771 13.323 129.871 13.557 130.07 13.739C130.27 13.921 130.547 14.012 130.902 14.012C131.188 14.012 131.44 13.947 131.656 13.817C131.882 13.6783 132.059 13.492 132.189 13.258C132.319 13.024 132.384 12.7553 132.384 12.452V10.957C132.384 10.5237 132.289 10.2117 132.098 10.021C131.908 9.83033 131.587 9.735 131.136 9.735C130.885 9.735 130.612 9.76533 130.317 9.826C130.031 9.88667 129.728 9.99067 129.407 10.138C129.243 10.216 129.095 10.2377 128.965 10.203C128.844 10.1683 128.749 10.099 128.679 9.995C128.61 9.88233 128.575 9.761 128.575 9.631C128.575 9.501 128.61 9.37533 128.679 9.254C128.749 9.124 128.866 9.02867 129.03 8.968C129.429 8.80333 129.81 8.68633 130.174 8.617C130.547 8.54767 130.885 8.513 131.188 8.513C131.812 8.513 132.324 8.60833 132.722 8.799C133.13 8.98967 133.433 9.28 133.632 9.67C133.832 10.0513 133.931 10.5453 133.931 11.152V14.272C133.931 14.5407 133.866 14.7487 133.736 14.896C133.606 15.0347 133.42 15.104 133.177 15.104C132.935 15.104 132.744 15.0347 132.605 14.896C132.475 14.7487 132.41 14.5407 132.41 14.272V13.648H132.514C132.454 13.9513 132.332 14.2157 132.15 14.441C131.977 14.6577 131.756 14.8267 131.487 14.948C131.219 15.0693 130.911 15.13 130.564 15.13ZM137.129 17.444C136.939 17.444 136.783 17.392 136.661 17.288C136.54 17.1927 136.466 17.0627 136.44 16.898C136.423 16.7333 136.453 16.56 136.531 16.378L137.415 14.415V15.091L135.049 9.618C134.971 9.42733 134.945 9.24967 134.971 9.085C134.997 8.92033 135.075 8.79033 135.205 8.695C135.344 8.591 135.53 8.539 135.764 8.539C135.964 8.539 136.124 8.58667 136.245 8.682C136.367 8.76867 136.475 8.93767 136.57 9.189L138.325 13.57H137.935L139.729 9.176C139.825 8.93333 139.937 8.76867 140.067 8.682C140.197 8.58667 140.371 8.539 140.587 8.539C140.778 8.539 140.93 8.591 141.042 8.695C141.155 8.79033 141.224 8.92033 141.25 9.085C141.276 9.241 141.246 9.41433 141.159 9.605L138 16.82C137.888 17.0627 137.766 17.2273 137.636 17.314C137.506 17.4007 137.337 17.444 137.129 17.444Z" fill="white"/>
<path d="M165 0L173 6H165V0Z" fill="url(#paint0_linear_210_11473)"/>
<path d="M8 0L0 6H8V0Z" fill="url(#paint1_linear_210_11473)"/>
<defs>
<linearGradient id="paint0_linear_210_11473" x1="169" y1="0" x2="169" y2="6" gradientUnits="userSpaceOnUse">
<stop stop-color="#1F5F1F"/>
<stop offset="1" stop-color="#4FCB4F"/>
</linearGradient>
<linearGradient id="paint1_linear_210_11473" x1="4" y1="0" x2="4" y2="6" gradientUnits="userSpaceOnUse">
<stop stop-color="#1F5F1F"/>
<stop offset="1" stop-color="#4FCB4F"/>
</linearGradient>
</defs>
</svg>
