<svg width="173" height="22" viewBox="0 0 173 22" fill="none" xmlns="http://www.w3.org/2000/svg">
<path d="M8 0H165V12C165 17.5228 160.523 22 155 22H18C12.4771 22 8 17.5228 8 12V0Z" fill="#FF915D"/>
<path d="M39.2451 15.104C38.9764 15.104 38.7684 15.0303 38.6211 14.883C38.4824 14.727 38.4131 14.5147 38.4131 14.246V6.68C38.4131 6.40267 38.4868 6.19467 38.6341 6.056C38.7814 5.90867 38.9894 5.835 39.2581 5.835H42.3911C43.3964 5.835 44.1721 6.08633 44.7181 6.589C45.2641 7.09167 45.5371 7.79367 45.5371 8.695C45.5371 9.59633 45.2641 10.3027 44.7181 10.814C44.1721 11.3167 43.3964 11.568 42.3911 11.568H40.0771V14.246C40.0771 14.5147 40.0078 14.727 39.8691 14.883C39.7304 15.0303 39.5224 15.104 39.2451 15.104ZM40.0771 10.255H42.1311C42.7204 10.255 43.1668 10.125 43.4701 9.865C43.7734 9.59633 43.9251 9.20633 43.9251 8.695C43.9251 8.18367 43.7734 7.798 43.4701 7.538C43.1668 7.278 42.7204 7.148 42.1311 7.148H40.0771V10.255ZM49.3192 15.13C48.6605 15.13 48.0885 14.9957 47.6032 14.727C47.1179 14.4583 46.7409 14.077 46.4722 13.583C46.2035 13.0803 46.0692 12.491 46.0692 11.815C46.0692 11.3037 46.1429 10.8487 46.2902 10.45C46.4462 10.0427 46.6672 9.696 46.9532 9.41C47.2392 9.11533 47.5815 8.89433 47.9802 8.747C48.3789 8.591 48.8252 8.513 49.3192 8.513C49.9779 8.513 50.5499 8.64733 51.0352 8.916C51.5205 9.18467 51.8975 9.566 52.1662 10.06C52.4349 10.554 52.5692 11.139 52.5692 11.815C52.5692 12.3263 52.4912 12.7857 52.3352 13.193C52.1879 13.6003 51.9712 13.9513 51.6852 14.246C51.3992 14.532 51.0569 14.753 50.6582 14.909C50.2595 15.0563 49.8132 15.13 49.3192 15.13ZM49.3192 13.895C49.6399 13.895 49.9215 13.817 50.1642 13.661C50.4069 13.505 50.5932 13.2753 50.7232 12.972C50.8619 12.66 50.9312 12.2743 50.9312 11.815C50.9312 11.1217 50.7839 10.606 50.4892 10.268C50.1945 9.92133 49.8045 9.748 49.3192 9.748C48.9985 9.748 48.7169 9.826 48.4742 9.982C48.2315 10.1293 48.0409 10.359 47.9022 10.671C47.7722 10.9743 47.7072 11.3557 47.7072 11.815C47.7072 12.4997 47.8545 13.0197 48.1492 13.375C48.4439 13.7217 48.8339 13.895 49.3192 13.895ZM56.0814 15.13C55.3621 15.13 54.8204 14.9263 54.4564 14.519C54.0924 14.103 53.9104 13.4963 53.9104 12.699V6.55C53.9104 6.28133 53.9798 6.07767 54.1184 5.939C54.2571 5.80033 54.4564 5.731 54.7164 5.731C54.9764 5.731 55.1758 5.80033 55.3144 5.939C55.4618 6.07767 55.5354 6.28133 55.5354 6.55V12.621C55.5354 13.0197 55.6178 13.3143 55.7824 13.505C55.9558 13.6957 56.1984 13.791 56.5104 13.791C56.5798 13.791 56.6448 13.791 56.7054 13.791C56.7661 13.7823 56.8268 13.7737 56.8874 13.765C57.0088 13.7477 57.0911 13.7823 57.1344 13.869C57.1778 13.947 57.1994 14.1117 57.1994 14.363C57.1994 14.5797 57.1561 14.7487 57.0694 14.87C56.9828 14.9913 56.8398 15.065 56.6404 15.091C56.5538 15.0997 56.4628 15.1083 56.3674 15.117C56.2721 15.1257 56.1768 15.13 56.0814 15.13ZM58.8678 15.091C58.6078 15.091 58.4085 15.013 58.2698 14.857C58.1311 14.701 58.0618 14.4843 58.0618 14.207V9.436C58.0618 9.15 58.1311 8.93333 58.2698 8.786C58.4085 8.63 58.6078 8.552 58.8678 8.552C59.1278 8.552 59.3271 8.63 59.4658 8.786C59.6131 8.93333 59.6868 9.15 59.6868 9.436V14.207C59.6868 14.4843 59.6175 14.701 59.4788 14.857C59.3401 15.013 59.1365 15.091 58.8678 15.091ZM58.8678 7.343C58.5645 7.343 58.3261 7.26933 58.1528 7.122C57.9881 6.966 57.9058 6.75367 57.9058 6.485C57.9058 6.20767 57.9881 5.99533 58.1528 5.848C58.3261 5.70067 58.5645 5.627 58.8678 5.627C59.1798 5.627 59.4181 5.70067 59.5828 5.848C59.7475 5.99533 59.8298 6.20767 59.8298 6.485C59.8298 6.75367 59.7475 6.966 59.5828 7.122C59.4181 7.26933 59.1798 7.343 58.8678 7.343ZM64.3133 15.13C63.6459 15.13 63.0653 14.9957 62.5713 14.727C62.0773 14.4497 61.6959 14.0597 61.4273 13.557C61.1586 13.0543 61.0243 12.465 61.0243 11.789C61.0243 11.2777 61.0979 10.8227 61.2453 10.424C61.4013 10.0167 61.6223 9.67433 61.9083 9.397C62.1943 9.111 62.5409 8.89433 62.9483 8.747C63.3556 8.591 63.8106 8.513 64.3133 8.513C64.5993 8.513 64.9069 8.552 65.2363 8.63C65.5743 8.708 65.8906 8.838 66.1853 9.02C66.3239 9.10667 66.4149 9.21067 66.4583 9.332C66.5016 9.45333 66.5103 9.579 66.4843 9.709C66.4583 9.83033 66.4019 9.93867 66.3153 10.034C66.2373 10.1207 66.1376 10.177 66.0163 10.203C65.8949 10.2203 65.7606 10.19 65.6133 10.112C65.4226 9.99933 65.2276 9.917 65.0283 9.865C64.8289 9.80433 64.6383 9.774 64.4563 9.774C64.1703 9.774 63.9189 9.82167 63.7023 9.917C63.4856 10.0037 63.2993 10.1337 63.1433 10.307C62.9959 10.4717 62.8833 10.6797 62.8053 10.931C62.7273 11.1823 62.6883 11.4727 62.6883 11.802C62.6883 12.4433 62.8399 12.9503 63.1433 13.323C63.4553 13.687 63.8929 13.869 64.4563 13.869C64.6383 13.869 64.8246 13.843 65.0153 13.791C65.2146 13.739 65.4139 13.6567 65.6133 13.544C65.7606 13.466 65.8906 13.44 66.0033 13.466C66.1246 13.492 66.2243 13.5527 66.3023 13.648C66.3803 13.7347 66.4279 13.843 66.4453 13.973C66.4626 14.0943 66.4453 14.2157 66.3933 14.337C66.3499 14.4583 66.2633 14.558 66.1333 14.636C65.8473 14.8093 65.5439 14.935 65.2233 15.013C64.9026 15.091 64.5993 15.13 64.3133 15.13ZM69.2207 17.444C69.03 17.444 68.874 17.392 68.7527 17.288C68.6313 17.1927 68.5577 17.0627 68.5317 16.898C68.5143 16.7333 68.5447 16.56 68.6227 16.378L69.5067 14.415V15.091L67.1407 9.618C67.0627 9.42733 67.0367 9.24967 67.0627 9.085C67.0887 8.92033 67.1667 8.79033 67.2967 8.695C67.4353 8.591 67.6217 8.539 67.8557 8.539C68.055 8.539 68.2153 8.58667 68.3367 8.682C68.458 8.76867 68.5663 8.93767 68.6617 9.189L70.4167 13.57H70.0267L71.8207 9.176C71.916 8.93333 72.0287 8.76867 72.1587 8.682C72.2887 8.58667 72.462 8.539 72.6787 8.539C72.8693 8.539 73.021 8.591 73.1337 8.695C73.2463 8.79033 73.3157 8.92033 73.3417 9.085C73.3677 9.241 73.3373 9.41433 73.2507 9.605L70.0917 16.82C69.979 17.0627 69.8577 17.2273 69.7277 17.314C69.5977 17.4007 69.4287 17.444 69.2207 17.444ZM82.4007 15.13C81.4474 15.13 80.6284 14.9393 79.9437 14.558C79.2677 14.168 78.7477 13.622 78.3837 12.92C78.0197 12.2093 77.8377 11.373 77.8377 10.411C77.8377 9.69167 77.9417 9.046 78.1497 8.474C78.3577 7.89333 78.6567 7.39933 79.0467 6.992C79.4367 6.576 79.9134 6.25967 80.4767 6.043C81.0487 5.81767 81.6901 5.705 82.4007 5.705C82.8774 5.705 83.3454 5.76567 83.8047 5.887C84.2641 6.00833 84.6671 6.18167 85.0137 6.407C85.1957 6.51967 85.3171 6.65833 85.3777 6.823C85.4384 6.979 85.4514 7.135 85.4167 7.291C85.3821 7.43833 85.3084 7.564 85.1957 7.668C85.0917 7.772 84.9574 7.83267 84.7927 7.85C84.6367 7.85867 84.4634 7.80233 84.2727 7.681C84.0041 7.50767 83.7137 7.382 83.4017 7.304C83.0897 7.226 82.7734 7.187 82.4527 7.187C81.8374 7.187 81.3174 7.31267 80.8927 7.564C80.4681 7.81533 80.1474 8.17933 79.9307 8.656C79.7141 9.13267 79.6057 9.71767 79.6057 10.411C79.6057 11.0957 79.7141 11.6807 79.9307 12.166C80.1474 12.6513 80.4681 13.0197 80.8927 13.271C81.3174 13.5223 81.8374 13.648 82.4527 13.648C82.7821 13.648 83.1071 13.609 83.4277 13.531C83.7484 13.4443 84.0517 13.3143 84.3377 13.141C84.5284 13.0283 84.6974 12.9807 84.8447 12.998C85.0007 13.0067 85.1307 13.0587 85.2347 13.154C85.3387 13.2493 85.4081 13.3707 85.4427 13.518C85.4774 13.6567 85.4687 13.804 85.4167 13.96C85.3647 14.1073 85.2607 14.2373 85.1047 14.35C84.7581 14.6013 84.3421 14.7963 83.8567 14.935C83.3801 15.065 82.8947 15.13 82.4007 15.13ZM88.6812 15.13C88.2218 15.13 87.8102 15.0433 87.4462 14.87C87.0908 14.688 86.8092 14.4453 86.6012 14.142C86.4018 13.8387 86.3022 13.4963 86.3022 13.115C86.3022 12.647 86.4235 12.2787 86.6662 12.01C86.9088 11.7327 87.3032 11.5333 87.8492 11.412C88.3952 11.2907 89.1275 11.23 90.0462 11.23H90.6962V12.166H90.0592C89.5218 12.166 89.0928 12.192 88.7722 12.244C88.4515 12.296 88.2218 12.387 88.0832 12.517C87.9532 12.6383 87.8882 12.8117 87.8882 13.037C87.8882 13.323 87.9878 13.557 88.1872 13.739C88.3865 13.921 88.6638 14.012 89.0192 14.012C89.3052 14.012 89.5565 13.947 89.7732 13.817C89.9985 13.6783 90.1762 13.492 90.3062 13.258C90.4362 13.024 90.5012 12.7553 90.5012 12.452V10.957C90.5012 10.5237 90.4058 10.2117 90.2152 10.021C90.0245 9.83033 89.7038 9.735 89.2532 9.735C89.0018 9.735 88.7288 9.76533 88.4342 9.826C88.1482 9.88667 87.8448 9.99067 87.5242 10.138C87.3595 10.216 87.2122 10.2377 87.0822 10.203C86.9608 10.1683 86.8655 10.099 86.7962 9.995C86.7268 9.88233 86.6922 9.761 86.6922 9.631C86.6922 9.501 86.7268 9.37533 86.7962 9.254C86.8655 9.124 86.9825 9.02867 87.1472 8.968C87.5458 8.80333 87.9272 8.68633 88.2912 8.617C88.6638 8.54767 89.0018 8.513 89.3052 8.513C89.9292 8.513 90.4405 8.60833 90.8392 8.799C91.2465 8.98967 91.5498 9.28 91.7492 9.67C91.9485 10.0513 92.0482 10.5453 92.0482 11.152V14.272C92.0482 14.5407 91.9832 14.7487 91.8532 14.896C91.7232 15.0347 91.5368 15.104 91.2942 15.104C91.0515 15.104 90.8608 15.0347 90.7222 14.896C90.5922 14.7487 90.5272 14.5407 90.5272 14.272V13.648H90.6312C90.5705 13.9513 90.4492 14.2157 90.2672 14.441C90.0938 14.6577 89.8728 14.8267 89.6042 14.948C89.3355 15.0693 89.0278 15.13 88.6812 15.13ZM94.5035 15.104C94.2435 15.104 94.0442 15.0347 93.9055 14.896C93.7669 14.7487 93.6975 14.5407 93.6975 14.272V9.358C93.6975 9.08933 93.7669 8.88567 93.9055 8.747C94.0442 8.60833 94.2392 8.539 94.4905 8.539C94.7419 8.539 94.9369 8.60833 95.0755 8.747C95.2142 8.88567 95.2835 9.08933 95.2835 9.358V10.242L95.1405 9.917C95.3312 9.45767 95.6259 9.111 96.0245 8.877C96.4319 8.63433 96.8912 8.513 97.4025 8.513C97.9139 8.513 98.3342 8.60833 98.6635 8.799C98.9929 8.98967 99.2399 9.28 99.4045 9.67C99.5692 10.0513 99.6515 10.5367 99.6515 11.126V14.272C99.6515 14.5407 99.5822 14.7487 99.4435 14.896C99.3049 15.0347 99.1055 15.104 98.8455 15.104C98.5855 15.104 98.3819 15.0347 98.2345 14.896C98.0959 14.7487 98.0265 14.5407 98.0265 14.272V11.204C98.0265 10.71 97.9312 10.3503 97.7405 10.125C97.5585 9.89967 97.2725 9.787 96.8825 9.787C96.4059 9.787 96.0245 9.93867 95.7385 10.242C95.4612 10.5367 95.3225 10.931 95.3225 11.425V14.272C95.3225 14.8267 95.0495 15.104 94.5035 15.104ZM104.24 15.13C103.573 15.13 102.992 14.9957 102.498 14.727C102.004 14.4497 101.623 14.0597 101.354 13.557C101.085 13.0543 100.951 12.465 100.951 11.789C100.951 11.2777 101.025 10.8227 101.172 10.424C101.328 10.0167 101.549 9.67433 101.835 9.397C102.121 9.111 102.468 8.89433 102.875 8.747C103.282 8.591 103.737 8.513 104.24 8.513C104.526 8.513 104.834 8.552 105.163 8.63C105.501 8.708 105.817 8.838 106.112 9.02C106.251 9.10667 106.342 9.21067 106.385 9.332C106.428 9.45333 106.437 9.579 106.411 9.709C106.385 9.83033 106.329 9.93867 106.242 10.034C106.164 10.1207 106.064 10.177 105.943 10.203C105.822 10.2203 105.687 10.19 105.54 10.112C105.349 9.99933 105.154 9.917 104.955 9.865C104.756 9.80433 104.565 9.774 104.383 9.774C104.097 9.774 103.846 9.82167 103.629 9.917C103.412 10.0037 103.226 10.1337 103.07 10.307C102.923 10.4717 102.81 10.6797 102.732 10.931C102.654 11.1823 102.615 11.4727 102.615 11.802C102.615 12.4433 102.767 12.9503 103.07 13.323C103.382 13.687 103.82 13.869 104.383 13.869C104.565 13.869 104.751 13.843 104.942 13.791C105.141 13.739 105.341 13.6567 105.54 13.544C105.687 13.466 105.817 13.44 105.93 13.466C106.051 13.492 106.151 13.5527 106.229 13.648C106.307 13.7347 106.355 13.843 106.372 13.973C106.389 14.0943 106.372 14.2157 106.32 14.337C106.277 14.4583 106.19 14.558 106.06 14.636C105.774 14.8093 105.471 14.935 105.15 15.013C104.829 15.091 104.526 15.13 104.24 15.13ZM110.44 15.13C109.721 15.13 109.101 14.9957 108.581 14.727C108.061 14.4583 107.658 14.077 107.372 13.583C107.095 13.089 106.956 12.504 106.956 11.828C106.956 11.1693 107.09 10.593 107.359 10.099C107.636 9.605 108.013 9.21933 108.49 8.942C108.975 8.656 109.526 8.513 110.141 8.513C110.592 8.513 110.995 8.58667 111.35 8.734C111.714 8.88133 112.022 9.09367 112.273 9.371C112.533 9.64833 112.728 9.98633 112.858 10.385C112.997 10.775 113.066 11.217 113.066 11.711C113.066 11.867 113.01 11.9883 112.897 12.075C112.793 12.153 112.641 12.192 112.442 12.192H108.269V11.256H111.922L111.714 11.451C111.714 11.0523 111.653 10.7187 111.532 10.45C111.419 10.1813 111.25 9.97767 111.025 9.839C110.808 9.69167 110.535 9.618 110.206 9.618C109.842 9.618 109.53 9.70467 109.27 9.878C109.019 10.0427 108.824 10.281 108.685 10.593C108.555 10.8963 108.49 11.2603 108.49 11.685V11.776C108.49 12.4867 108.655 13.0197 108.984 13.375C109.322 13.7217 109.816 13.895 110.466 13.895C110.691 13.895 110.943 13.869 111.22 13.817C111.506 13.7563 111.775 13.6567 112.026 13.518C112.208 13.414 112.368 13.3707 112.507 13.388C112.646 13.3967 112.754 13.4443 112.832 13.531C112.919 13.6177 112.971 13.726 112.988 13.856C113.005 13.9773 112.979 14.103 112.91 14.233C112.849 14.363 112.741 14.4757 112.585 14.571C112.282 14.7617 111.931 14.9047 111.532 15C111.142 15.0867 110.778 15.13 110.44 15.13ZM116.524 15.13C115.804 15.13 115.263 14.9263 114.899 14.519C114.535 14.103 114.353 13.4963 114.353 12.699V6.55C114.353 6.28133 114.422 6.07767 114.561 5.939C114.699 5.80033 114.899 5.731 115.159 5.731C115.419 5.731 115.618 5.80033 115.757 5.939C115.904 6.07767 115.978 6.28133 115.978 6.55V12.621C115.978 13.0197 116.06 13.3143 116.225 13.505C116.398 13.6957 116.641 13.791 116.953 13.791C117.022 13.791 117.087 13.791 117.148 13.791C117.208 13.7823 117.269 13.7737 117.33 13.765C117.451 13.7477 117.533 13.7823 117.577 13.869C117.62 13.947 117.642 14.1117 117.642 14.363C117.642 14.5797 117.598 14.7487 117.512 14.87C117.425 14.9913 117.282 15.065 117.083 15.091C116.996 15.0997 116.905 15.1083 116.81 15.117C116.714 15.1257 116.619 15.13 116.524 15.13ZM120.675 15.13C119.956 15.13 119.414 14.9263 119.05 14.519C118.686 14.103 118.504 13.4963 118.504 12.699V6.55C118.504 6.28133 118.574 6.07767 118.712 5.939C118.851 5.80033 119.05 5.731 119.31 5.731C119.57 5.731 119.77 5.80033 119.908 5.939C120.056 6.07767 120.129 6.28133 120.129 6.55V12.621C120.129 13.0197 120.212 13.3143 120.376 13.505C120.55 13.6957 120.792 13.791 121.104 13.791C121.174 13.791 121.239 13.791 121.299 13.791C121.36 13.7823 121.421 13.7737 121.481 13.765C121.603 13.7477 121.685 13.7823 121.728 13.869C121.772 13.947 121.793 14.1117 121.793 14.363C121.793 14.5797 121.75 14.7487 121.663 14.87C121.577 14.9913 121.434 15.065 121.234 15.091C121.148 15.0997 121.057 15.1083 120.961 15.117C120.866 15.1257 120.771 15.13 120.675 15.13ZM125.725 15.13C125.006 15.13 124.386 14.9957 123.866 14.727C123.346 14.4583 122.943 14.077 122.657 13.583C122.38 13.089 122.241 12.504 122.241 11.828C122.241 11.1693 122.375 10.593 122.644 10.099C122.921 9.605 123.298 9.21933 123.775 8.942C124.26 8.656 124.811 8.513 125.426 8.513C125.877 8.513 126.28 8.58667 126.635 8.734C126.999 8.88133 127.307 9.09367 127.558 9.371C127.818 9.64833 128.013 9.98633 128.143 10.385C128.282 10.775 128.351 11.217 128.351 11.711C128.351 11.867 128.295 11.9883 128.182 12.075C128.078 12.153 127.926 12.192 127.727 12.192H123.554V11.256H127.207L126.999 11.451C126.999 11.0523 126.938 10.7187 126.817 10.45C126.704 10.1813 126.535 9.97767 126.31 9.839C126.093 9.69167 125.82 9.618 125.491 9.618C125.127 9.618 124.815 9.70467 124.555 9.878C124.304 10.0427 124.109 10.281 123.97 10.593C123.84 10.8963 123.775 11.2603 123.775 11.685V11.776C123.775 12.4867 123.94 13.0197 124.269 13.375C124.607 13.7217 125.101 13.895 125.751 13.895C125.976 13.895 126.228 13.869 126.505 13.817C126.791 13.7563 127.06 13.6567 127.311 13.518C127.493 13.414 127.653 13.3707 127.792 13.388C127.931 13.3967 128.039 13.4443 128.117 13.531C128.204 13.6177 128.256 13.726 128.273 13.856C128.29 13.9773 128.264 14.103 128.195 14.233C128.134 14.363 128.026 14.4757 127.87 14.571C127.567 14.7617 127.216 14.9047 126.817 15C126.427 15.0867 126.063 15.13 125.725 15.13ZM132.082 15.13C131.527 15.13 131.038 14.9957 130.613 14.727C130.197 14.4583 129.872 14.077 129.638 13.583C129.404 13.0803 129.287 12.491 129.287 11.815C129.287 11.1303 129.404 10.5453 129.638 10.06C129.872 9.566 130.197 9.18467 130.613 8.916C131.038 8.64733 131.527 8.513 132.082 8.513C132.611 8.513 133.07 8.643 133.46 8.903C133.859 9.163 134.127 9.50533 134.266 9.93H134.123V6.55C134.123 6.28133 134.192 6.07767 134.331 5.939C134.47 5.80033 134.669 5.731 134.929 5.731C135.189 5.731 135.388 5.80033 135.527 5.939C135.674 6.07767 135.748 6.28133 135.748 6.55V14.272C135.748 14.5407 135.679 14.7487 135.54 14.896C135.401 15.0347 135.202 15.104 134.942 15.104C134.682 15.104 134.483 15.0347 134.344 14.896C134.205 14.7487 134.136 14.5407 134.136 14.272V13.258L134.279 13.648C134.149 14.0987 133.885 14.4583 133.486 14.727C133.087 14.9957 132.619 15.13 132.082 15.13ZM132.537 13.895C132.858 13.895 133.139 13.817 133.382 13.661C133.625 13.505 133.811 13.2753 133.941 12.972C134.08 12.66 134.149 12.2743 134.149 11.815C134.149 11.1217 134.002 10.606 133.707 10.268C133.412 9.92133 133.022 9.748 132.537 9.748C132.216 9.748 131.935 9.826 131.692 9.982C131.449 10.1293 131.259 10.359 131.12 10.671C130.99 10.9743 130.925 11.3557 130.925 11.815C130.925 12.4997 131.072 13.0197 131.367 13.375C131.662 13.7217 132.052 13.895 132.537 13.895Z" fill="white"/>
<path d="M165 0L173 6H165V0Z" fill="url(#paint0_linear_210_11477)"/>
<path d="M8 0L0 6H8V0Z" fill="url(#paint1_linear_210_11477)"/>
<defs>
<linearGradient id="paint0_linear_210_11477" x1="169" y1="0" x2="169" y2="6" gradientUnits="userSpaceOnUse">
<stop stop-color="#6A3319"/>
<stop offset="1" stop-color="#FF915D"/>
</linearGradient>
<linearGradient id="paint1_linear_210_11477" x1="4" y1="0" x2="4" y2="6" gradientUnits="userSpaceOnUse">
<stop stop-color="#6A3319"/>
<stop offset="1" stop-color="#FF915D"/>
</linearGradient>
</defs>
</svg>
