<svg width="173" height="22" viewBox="0 0 173 22" fill="none" xmlns="http://www.w3.org/2000/svg">
<path d="M8 0H165V12C165 17.5228 160.523 22 155 22H18C12.4771 22 8 17.5228 8 12V0Z" fill="#9F9CFF"/>
<path d="M42.9077 15.104C42.639 15.104 42.431 15.0303 42.2837 14.883C42.145 14.727 42.0757 14.5147 42.0757 14.246V6.68C42.0757 6.40267 42.1494 6.19467 42.2967 6.056C42.444 5.90867 42.652 5.835 42.9207 5.835H46.0537C47.059 5.835 47.8347 6.08633 48.3807 6.589C48.9267 7.09167 49.1997 7.79367 49.1997 8.695C49.1997 9.59633 48.9267 10.3027 48.3807 10.814C47.8347 11.3167 47.059 11.568 46.0537 11.568H43.7397V14.246C43.7397 14.5147 43.6704 14.727 43.5317 14.883C43.393 15.0303 43.185 15.104 42.9077 15.104ZM43.7397 10.255H45.7937C46.383 10.255 46.8294 10.125 47.1327 9.865C47.436 9.59633 47.5877 9.20633 47.5877 8.695C47.5877 8.18367 47.436 7.798 47.1327 7.538C46.8294 7.278 46.383 7.148 45.7937 7.148H43.7397V10.255ZM52.9818 15.13C52.3231 15.13 51.7511 14.9957 51.2658 14.727C50.7805 14.4583 50.4035 14.077 50.1348 13.583C49.8661 13.0803 49.7318 12.491 49.7318 11.815C49.7318 11.3037 49.8055 10.8487 49.9528 10.45C50.1088 10.0427 50.3298 9.696 50.6158 9.41C50.9018 9.11533 51.2441 8.89433 51.6428 8.747C52.0415 8.591 52.4878 8.513 52.9818 8.513C53.6405 8.513 54.2125 8.64733 54.6978 8.916C55.1831 9.18467 55.5601 9.566 55.8288 10.06C56.0975 10.554 56.2318 11.139 56.2318 11.815C56.2318 12.3263 56.1538 12.7857 55.9978 13.193C55.8505 13.6003 55.6338 13.9513 55.3478 14.246C55.0618 14.532 54.7195 14.753 54.3208 14.909C53.9221 15.0563 53.4758 15.13 52.9818 15.13ZM52.9818 13.895C53.3025 13.895 53.5841 13.817 53.8268 13.661C54.0695 13.505 54.2558 13.2753 54.3858 12.972C54.5245 12.66 54.5938 12.2743 54.5938 11.815C54.5938 11.1217 54.4465 10.606 54.1518 10.268C53.8571 9.92133 53.4671 9.748 52.9818 9.748C52.6611 9.748 52.3795 9.826 52.1368 9.982C51.8941 10.1293 51.7035 10.359 51.5648 10.671C51.4348 10.9743 51.3698 11.3557 51.3698 11.815C51.3698 12.4997 51.5171 13.0197 51.8118 13.375C52.1065 13.7217 52.4965 13.895 52.9818 13.895ZM59.744 15.13C59.0247 15.13 58.483 14.9263 58.119 14.519C57.755 14.103 57.573 13.4963 57.573 12.699V6.55C57.573 6.28133 57.6424 6.07767 57.781 5.939C57.9197 5.80033 58.119 5.731 58.379 5.731C58.639 5.731 58.8384 5.80033 58.977 5.939C59.1244 6.07767 59.198 6.28133 59.198 6.55V12.621C59.198 13.0197 59.2804 13.3143 59.445 13.505C59.6184 13.6957 59.861 13.791 60.173 13.791C60.2424 13.791 60.3074 13.791 60.368 13.791C60.4287 13.7823 60.4894 13.7737 60.55 13.765C60.6714 13.7477 60.7537 13.7823 60.797 13.869C60.8404 13.947 60.862 14.1117 60.862 14.363C60.862 14.5797 60.8187 14.7487 60.732 14.87C60.6454 14.9913 60.5024 15.065 60.303 15.091C60.2164 15.0997 60.1254 15.1083 60.03 15.117C59.9347 15.1257 59.8394 15.13 59.744 15.13ZM62.5304 15.091C62.2704 15.091 62.0711 15.013 61.9324 14.857C61.7937 14.701 61.7244 14.4843 61.7244 14.207V9.436C61.7244 9.15 61.7937 8.93333 61.9324 8.786C62.0711 8.63 62.2704 8.552 62.5304 8.552C62.7904 8.552 62.9897 8.63 63.1284 8.786C63.2757 8.93333 63.3494 9.15 63.3494 9.436V14.207C63.3494 14.4843 63.2801 14.701 63.1414 14.857C63.0027 15.013 62.7991 15.091 62.5304 15.091ZM62.5304 7.343C62.2271 7.343 61.9887 7.26933 61.8154 7.122C61.6507 6.966 61.5684 6.75367 61.5684 6.485C61.5684 6.20767 61.6507 5.99533 61.8154 5.848C61.9887 5.70067 62.2271 5.627 62.5304 5.627C62.8424 5.627 63.0807 5.70067 63.2454 5.848C63.4101 5.99533 63.4924 6.20767 63.4924 6.485C63.4924 6.75367 63.4101 6.966 63.2454 7.122C63.0807 7.26933 62.8424 7.343 62.5304 7.343ZM67.9759 15.13C67.3085 15.13 66.7279 14.9957 66.2339 14.727C65.7399 14.4497 65.3585 14.0597 65.0899 13.557C64.8212 13.0543 64.6869 12.465 64.6869 11.789C64.6869 11.2777 64.7605 10.8227 64.9079 10.424C65.0639 10.0167 65.2849 9.67433 65.5709 9.397C65.8569 9.111 66.2035 8.89433 66.6109 8.747C67.0182 8.591 67.4732 8.513 67.9759 8.513C68.2619 8.513 68.5695 8.552 68.8989 8.63C69.2369 8.708 69.5532 8.838 69.8479 9.02C69.9865 9.10667 70.0775 9.21067 70.1209 9.332C70.1642 9.45333 70.1729 9.579 70.1469 9.709C70.1209 9.83033 70.0645 9.93867 69.9779 10.034C69.8999 10.1207 69.8002 10.177 69.6789 10.203C69.5575 10.2203 69.4232 10.19 69.2759 10.112C69.0852 9.99933 68.8902 9.917 68.6909 9.865C68.4915 9.80433 68.3009 9.774 68.1189 9.774C67.8329 9.774 67.5815 9.82167 67.3649 9.917C67.1482 10.0037 66.9619 10.1337 66.8059 10.307C66.6585 10.4717 66.5459 10.6797 66.4679 10.931C66.3899 11.1823 66.3509 11.4727 66.3509 11.802C66.3509 12.4433 66.5025 12.9503 66.8059 13.323C67.1179 13.687 67.5555 13.869 68.1189 13.869C68.3009 13.869 68.4872 13.843 68.6779 13.791C68.8772 13.739 69.0765 13.6567 69.2759 13.544C69.4232 13.466 69.5532 13.44 69.6659 13.466C69.7872 13.492 69.8869 13.5527 69.9649 13.648C70.0429 13.7347 70.0905 13.843 70.1079 13.973C70.1252 14.0943 70.1079 14.2157 70.0559 14.337C70.0125 14.4583 69.9259 14.558 69.7959 14.636C69.5099 14.8093 69.2065 14.935 68.8859 15.013C68.5652 15.091 68.2619 15.13 67.9759 15.13ZM72.8833 17.444C72.6926 17.444 72.5366 17.392 72.4153 17.288C72.2939 17.1927 72.2203 17.0627 72.1943 16.898C72.1769 16.7333 72.2073 16.56 72.2853 16.378L73.1693 14.415V15.091L70.8033 9.618C70.7253 9.42733 70.6993 9.24967 70.7253 9.085C70.7513 8.92033 70.8293 8.79033 70.9593 8.695C71.0979 8.591 71.2843 8.539 71.5183 8.539C71.7176 8.539 71.8779 8.58667 71.9993 8.682C72.1206 8.76867 72.2289 8.93767 72.3243 9.189L74.0793 13.57H73.6893L75.4833 9.176C75.5786 8.93333 75.6913 8.76867 75.8213 8.682C75.9513 8.58667 76.1246 8.539 76.3413 8.539C76.5319 8.539 76.6836 8.591 76.7963 8.695C76.9089 8.79033 76.9783 8.92033 77.0043 9.085C77.0303 9.241 76.9999 9.41433 76.9133 9.605L73.7543 16.82C73.6416 17.0627 73.5203 17.2273 73.3903 17.314C73.2603 17.4007 73.0913 17.444 72.8833 17.444ZM82.6573 15.104C82.3887 15.104 82.1763 15.0303 82.0203 14.883C81.873 14.727 81.7993 14.506 81.7993 14.22V6.719C81.7993 6.433 81.873 6.21633 82.0203 6.069C82.1763 5.913 82.3973 5.835 82.6833 5.835H87.2203C87.4457 5.835 87.6147 5.89133 87.7273 6.004C87.84 6.11667 87.8963 6.277 87.8963 6.485C87.8963 6.70167 87.84 6.87067 87.7273 6.992C87.6147 7.10467 87.4457 7.161 87.2203 7.161H83.4633V9.748H86.9473C87.164 9.748 87.3287 9.80433 87.4413 9.917C87.5627 10.0297 87.6233 10.19 87.6233 10.398C87.6233 10.6147 87.5627 10.7837 87.4413 10.905C87.3287 11.0177 87.164 11.074 86.9473 11.074H83.4633V14.22C83.4633 14.8093 83.1947 15.104 82.6573 15.104ZM91.8476 15.13C91.1283 15.13 90.5086 14.9957 89.9886 14.727C89.4686 14.4583 89.0656 14.077 88.7796 13.583C88.5023 13.089 88.3636 12.504 88.3636 11.828C88.3636 11.1693 88.498 10.593 88.7666 10.099C89.044 9.605 89.421 9.21933 89.8976 8.942C90.383 8.656 90.9333 8.513 91.5486 8.513C91.9993 8.513 92.4023 8.58667 92.7576 8.734C93.1216 8.88133 93.4293 9.09367 93.6806 9.371C93.9406 9.64833 94.1356 9.98633 94.2656 10.385C94.4043 10.775 94.4736 11.217 94.4736 11.711C94.4736 11.867 94.4173 11.9883 94.3046 12.075C94.2006 12.153 94.049 12.192 93.8496 12.192H89.6766V11.256H93.3296L93.1216 11.451C93.1216 11.0523 93.061 10.7187 92.9396 10.45C92.827 10.1813 92.658 9.97767 92.4326 9.839C92.216 9.69167 91.943 9.618 91.6136 9.618C91.2496 9.618 90.9376 9.70467 90.6776 9.878C90.4263 10.0427 90.2313 10.281 90.0926 10.593C89.9626 10.8963 89.8976 11.2603 89.8976 11.685V11.776C89.8976 12.4867 90.0623 13.0197 90.3916 13.375C90.7296 13.7217 91.2236 13.895 91.8736 13.895C92.099 13.895 92.3503 13.869 92.6276 13.817C92.9136 13.7563 93.1823 13.6567 93.4336 13.518C93.6156 13.414 93.776 13.3707 93.9146 13.388C94.0533 13.3967 94.1616 13.4443 94.2396 13.531C94.3263 13.6177 94.3783 13.726 94.3956 13.856C94.413 13.9773 94.387 14.103 94.3176 14.233C94.257 14.363 94.1486 14.4757 93.9926 14.571C93.6893 14.7617 93.3383 14.9047 92.9396 15C92.5496 15.0867 92.1856 15.13 91.8476 15.13ZM97.8535 15.13C97.3942 15.13 96.9825 15.0433 96.6185 14.87C96.2632 14.688 95.9815 14.4453 95.7735 14.142C95.5742 13.8387 95.4745 13.4963 95.4745 13.115C95.4745 12.647 95.5959 12.2787 95.8385 12.01C96.0812 11.7327 96.4755 11.5333 97.0215 11.412C97.5675 11.2907 98.2999 11.23 99.2185 11.23H99.8685V12.166H99.2315C98.6942 12.166 98.2652 12.192 97.9445 12.244C97.6239 12.296 97.3942 12.387 97.2555 12.517C97.1255 12.6383 97.0605 12.8117 97.0605 13.037C97.0605 13.323 97.1602 13.557 97.3595 13.739C97.5589 13.921 97.8362 14.012 98.1915 14.012C98.4775 14.012 98.7289 13.947 98.9455 13.817C99.1709 13.6783 99.3485 13.492 99.4785 13.258C99.6085 13.024 99.6735 12.7553 99.6735 12.452V10.957C99.6735 10.5237 99.5782 10.2117 99.3875 10.021C99.1969 9.83033 98.8762 9.735 98.4255 9.735C98.1742 9.735 97.9012 9.76533 97.6065 9.826C97.3205 9.88667 97.0172 9.99067 96.6965 10.138C96.5319 10.216 96.3845 10.2377 96.2545 10.203C96.1332 10.1683 96.0379 10.099 95.9685 9.995C95.8992 9.88233 95.8645 9.761 95.8645 9.631C95.8645 9.501 95.8992 9.37533 95.9685 9.254C96.0379 9.124 96.1549 9.02867 96.3195 8.968C96.7182 8.80333 97.0995 8.68633 97.4635 8.617C97.8362 8.54767 98.1742 8.513 98.4775 8.513C99.1015 8.513 99.6129 8.60833 100.012 8.799C100.419 8.98967 100.722 9.28 100.922 9.67C101.121 10.0513 101.221 10.5453 101.221 11.152V14.272C101.221 14.5407 101.156 14.7487 101.026 14.896C100.896 15.0347 100.709 15.104 100.467 15.104C100.224 15.104 100.033 15.0347 99.8945 14.896C99.7645 14.7487 99.6995 14.5407 99.6995 14.272V13.648H99.8035C99.7429 13.9513 99.6215 14.2157 99.4395 14.441C99.2662 14.6577 99.0452 14.8267 98.7765 14.948C98.5079 15.0693 98.2002 15.13 97.8535 15.13ZM105.782 15.13C105.219 15.13 104.746 15.0347 104.365 14.844C103.992 14.6533 103.715 14.376 103.533 14.012C103.351 13.6393 103.26 13.18 103.26 12.634V9.865H102.584C102.376 9.865 102.216 9.813 102.103 9.709C101.99 9.59633 101.934 9.44467 101.934 9.254C101.934 9.05467 101.99 8.903 102.103 8.799C102.216 8.695 102.376 8.643 102.584 8.643H103.26V7.46C103.26 7.19133 103.329 6.98767 103.468 6.849C103.615 6.71033 103.819 6.641 104.079 6.641C104.339 6.641 104.538 6.71033 104.677 6.849C104.816 6.98767 104.885 7.19133 104.885 7.46V8.643H106.263C106.471 8.643 106.631 8.695 106.744 8.799C106.857 8.903 106.913 9.05467 106.913 9.254C106.913 9.44467 106.857 9.59633 106.744 9.709C106.631 9.813 106.471 9.865 106.263 9.865H104.885V12.543C104.885 12.959 104.976 13.271 105.158 13.479C105.34 13.687 105.635 13.791 106.042 13.791C106.189 13.791 106.319 13.778 106.432 13.752C106.545 13.726 106.644 13.7087 106.731 13.7C106.835 13.6913 106.922 13.726 106.991 13.804C107.06 13.8733 107.095 14.0207 107.095 14.246C107.095 14.4193 107.065 14.5753 107.004 14.714C106.952 14.844 106.852 14.935 106.705 14.987C106.592 15.0217 106.445 15.052 106.263 15.078C106.081 15.1127 105.921 15.13 105.782 15.13ZM110.16 15.13C109.631 15.13 109.194 15.0347 108.847 14.844C108.5 14.6447 108.24 14.35 108.067 13.96C107.902 13.57 107.82 13.0847 107.82 12.504V9.358C107.82 9.08067 107.889 8.877 108.028 8.747C108.167 8.60833 108.366 8.539 108.626 8.539C108.886 8.539 109.085 8.60833 109.224 8.747C109.371 8.877 109.445 9.08067 109.445 9.358V12.53C109.445 12.9807 109.536 13.3143 109.718 13.531C109.9 13.7477 110.19 13.856 110.589 13.856C111.022 13.856 111.378 13.7087 111.655 13.414C111.932 13.1107 112.071 12.712 112.071 12.218V9.358C112.071 9.08067 112.14 8.877 112.279 8.747C112.418 8.60833 112.617 8.539 112.877 8.539C113.137 8.539 113.336 8.60833 113.475 8.747C113.622 8.877 113.696 9.08067 113.696 9.358V14.272C113.696 14.8267 113.432 15.104 112.903 15.104C112.652 15.104 112.457 15.0347 112.318 14.896C112.179 14.7487 112.11 14.5407 112.11 14.272V13.284L112.292 13.674C112.11 14.142 111.833 14.5017 111.46 14.753C111.096 15.0043 110.663 15.13 110.16 15.13ZM116.219 15.104C115.951 15.104 115.743 15.0347 115.595 14.896C115.457 14.7487 115.387 14.5407 115.387 14.272V9.358C115.387 9.08933 115.457 8.88567 115.595 8.747C115.734 8.60833 115.929 8.539 116.18 8.539C116.432 8.539 116.627 8.60833 116.765 8.747C116.904 8.88567 116.973 9.08933 116.973 9.358V10.177H116.843C116.965 9.657 117.203 9.26267 117.558 8.994C117.914 8.72533 118.386 8.565 118.975 8.513C119.157 8.49567 119.3 8.54333 119.404 8.656C119.517 8.76 119.582 8.92467 119.599 9.15C119.617 9.36667 119.565 9.54433 119.443 9.683C119.331 9.813 119.157 9.891 118.923 9.917L118.637 9.943C118.109 9.995 117.71 10.1597 117.441 10.437C117.173 10.7057 117.038 11.087 117.038 11.581V14.272C117.038 14.5407 116.969 14.7487 116.83 14.896C116.692 15.0347 116.488 15.104 116.219 15.104ZM123.51 15.13C122.79 15.13 122.171 14.9957 121.651 14.727C121.131 14.4583 120.728 14.077 120.442 13.583C120.164 13.089 120.026 12.504 120.026 11.828C120.026 11.1693 120.16 10.593 120.429 10.099C120.706 9.605 121.083 9.21933 121.56 8.942C122.045 8.656 122.595 8.513 123.211 8.513C123.661 8.513 124.064 8.58667 124.42 8.734C124.784 8.88133 125.091 9.09367 125.343 9.371C125.603 9.64833 125.798 9.98633 125.928 10.385C126.066 10.775 126.136 11.217 126.136 11.711C126.136 11.867 126.079 11.9883 125.967 12.075C125.863 12.153 125.711 12.192 125.512 12.192H121.339V11.256H124.992L124.784 11.451C124.784 11.0523 124.723 10.7187 124.602 10.45C124.489 10.1813 124.32 9.97767 124.095 9.839C123.878 9.69167 123.605 9.618 123.276 9.618C122.912 9.618 122.6 9.70467 122.34 9.878C122.088 10.0427 121.893 10.281 121.755 10.593C121.625 10.8963 121.56 11.2603 121.56 11.685V11.776C121.56 12.4867 121.724 13.0197 122.054 13.375C122.392 13.7217 122.886 13.895 123.536 13.895C123.761 13.895 124.012 13.869 124.29 13.817C124.576 13.7563 124.844 13.6567 125.096 13.518C125.278 13.414 125.438 13.3707 125.577 13.388C125.715 13.3967 125.824 13.4443 125.902 13.531C125.988 13.6177 126.04 13.726 126.058 13.856C126.075 13.9773 126.049 14.103 125.98 14.233C125.919 14.363 125.811 14.4757 125.655 14.571C125.351 14.7617 125 14.9047 124.602 15C124.212 15.0867 123.848 15.13 123.51 15.13ZM129.75 15.13C129.377 15.13 128.983 15.091 128.567 15.013C128.151 14.935 127.778 14.8007 127.449 14.61C127.31 14.5233 127.21 14.4237 127.15 14.311C127.098 14.1897 127.076 14.0727 127.085 13.96C127.102 13.8387 127.145 13.7347 127.215 13.648C127.293 13.5613 127.388 13.505 127.501 13.479C127.622 13.453 127.752 13.4747 127.891 13.544C128.237 13.7087 128.562 13.8257 128.866 13.895C129.169 13.9557 129.468 13.986 129.763 13.986C130.179 13.986 130.486 13.9167 130.686 13.778C130.894 13.6307 130.998 13.44 130.998 13.206C130.998 13.0067 130.928 12.855 130.79 12.751C130.66 12.6383 130.46 12.556 130.192 12.504L128.892 12.257C128.354 12.153 127.943 11.958 127.657 11.672C127.379 11.3773 127.241 11.0003 127.241 10.541C127.241 10.125 127.353 9.76533 127.579 9.462C127.813 9.15867 128.133 8.92467 128.541 8.76C128.948 8.59533 129.416 8.513 129.945 8.513C130.326 8.513 130.681 8.55633 131.011 8.643C131.349 8.721 131.674 8.84667 131.986 9.02C132.116 9.08933 132.202 9.18033 132.246 9.293C132.298 9.40567 132.311 9.52267 132.285 9.644C132.259 9.75667 132.207 9.86067 132.129 9.956C132.051 10.0427 131.951 10.099 131.83 10.125C131.717 10.1423 131.587 10.1163 131.44 10.047C131.171 9.90833 130.911 9.80867 130.66 9.748C130.417 9.68733 130.183 9.657 129.958 9.657C129.533 9.657 129.217 9.73067 129.009 9.878C128.809 10.0253 128.71 10.2203 128.71 10.463C128.71 10.645 128.77 10.7967 128.892 10.918C129.013 11.0393 129.199 11.1217 129.451 11.165L130.751 11.412C131.314 11.516 131.739 11.7067 132.025 11.984C132.319 12.2613 132.467 12.634 132.467 13.102C132.467 13.7347 132.22 14.233 131.726 14.597C131.232 14.9523 130.573 15.13 129.75 15.13Z" fill="white"/>
<path d="M165 0L173 6H165V0Z" fill="url(#paint0_linear_210_11466)"/>
<path d="M8 0L0 6H8V0Z" fill="url(#paint1_linear_210_11466)"/>
<defs>
<linearGradient id="paint0_linear_210_11466" x1="169" y1="0" x2="169" y2="6" gradientUnits="userSpaceOnUse">
<stop stop-color="#393763"/>
<stop offset="1" stop-color="#9F9CFF"/>
</linearGradient>
<linearGradient id="paint1_linear_210_11466" x1="4" y1="0" x2="4" y2="6" gradientUnits="userSpaceOnUse">
<stop stop-color="#393763"/>
<stop offset="1" stop-color="#9F9CFF"/>
</linearGradient>
</defs>
</svg>
