<svg width="173" height="22" viewBox="0 0 173 22" fill="none" xmlns="http://www.w3.org/2000/svg">
<path d="M8 0H165V12C165 17.5228 160.523 22 155 22H18C12.4771 22 8 17.5228 8 12V0Z" fill="#FF915D"/>
<path d="M56.9741 15.104C56.7054 15.104 56.4974 15.0303 56.3501 14.883C56.2114 14.727 56.1421 14.5147 56.1421 14.246V6.68C56.1421 6.40267 56.2158 6.19467 56.3631 6.056C56.5104 5.90867 56.7184 5.835 56.9871 5.835H60.1201C61.1254 5.835 61.9011 6.08633 62.4471 6.589C62.9931 7.09167 63.2661 7.79367 63.2661 8.695C63.2661 9.59633 62.9931 10.3027 62.4471 10.814C61.9011 11.3167 61.1254 11.568 60.1201 11.568H57.8061V14.246C57.8061 14.5147 57.7368 14.727 57.5981 14.883C57.4594 15.0303 57.2514 15.104 56.9741 15.104ZM57.8061 10.255H59.8601C60.4494 10.255 60.8958 10.125 61.1991 9.865C61.5024 9.59633 61.6541 9.20633 61.6541 8.695C61.6541 8.18367 61.5024 7.798 61.1991 7.538C60.8958 7.278 60.4494 7.148 59.8601 7.148H57.8061V10.255ZM67.0482 15.13C66.3895 15.13 65.8175 14.9957 65.3322 14.727C64.8469 14.4583 64.4699 14.077 64.2012 13.583C63.9325 13.0803 63.7982 12.491 63.7982 11.815C63.7982 11.3037 63.8719 10.8487 64.0192 10.45C64.1752 10.0427 64.3962 9.696 64.6822 9.41C64.9682 9.11533 65.3105 8.89433 65.7092 8.747C66.1079 8.591 66.5542 8.513 67.0482 8.513C67.7069 8.513 68.2789 8.64733 68.7642 8.916C69.2495 9.18467 69.6265 9.566 69.8952 10.06C70.1639 10.554 70.2982 11.139 70.2982 11.815C70.2982 12.3263 70.2202 12.7857 70.0642 13.193C69.9169 13.6003 69.7002 13.9513 69.4142 14.246C69.1282 14.532 68.7859 14.753 68.3872 14.909C67.9885 15.0563 67.5422 15.13 67.0482 15.13ZM67.0482 13.895C67.3689 13.895 67.6505 13.817 67.8932 13.661C68.1359 13.505 68.3222 13.2753 68.4522 12.972C68.5909 12.66 68.6602 12.2743 68.6602 11.815C68.6602 11.1217 68.5129 10.606 68.2182 10.268C67.9235 9.92133 67.5335 9.748 67.0482 9.748C66.7275 9.748 66.4459 9.826 66.2032 9.982C65.9605 10.1293 65.7699 10.359 65.6312 10.671C65.5012 10.9743 65.4362 11.3557 65.4362 11.815C65.4362 12.4997 65.5835 13.0197 65.8782 13.375C66.1729 13.7217 66.5629 13.895 67.0482 13.895ZM72.4714 15.104C72.2028 15.104 71.9948 15.0347 71.8474 14.896C71.7088 14.7487 71.6394 14.5407 71.6394 14.272V9.358C71.6394 9.08933 71.7088 8.88567 71.8474 8.747C71.9861 8.60833 72.1811 8.539 72.4324 8.539C72.6838 8.539 72.8788 8.60833 73.0174 8.747C73.1561 8.88567 73.2254 9.08933 73.2254 9.358V10.177H73.0954C73.2168 9.657 73.4551 9.26267 73.8104 8.994C74.1658 8.72533 74.6381 8.565 75.2274 8.513C75.4094 8.49567 75.5524 8.54333 75.6564 8.656C75.7691 8.76 75.8341 8.92467 75.8514 9.15C75.8688 9.36667 75.8168 9.54433 75.6954 9.683C75.5828 9.813 75.4094 9.891 75.1754 9.917L74.8894 9.943C74.3608 9.995 73.9621 10.1597 73.6934 10.437C73.4248 10.7057 73.2904 11.087 73.2904 11.581V14.272C73.2904 14.5407 73.2211 14.7487 73.0824 14.896C72.9438 15.0347 72.7401 15.104 72.4714 15.104ZM80.0104 15.13C79.4471 15.13 78.9748 15.0347 78.5934 14.844C78.2208 14.6533 77.9434 14.376 77.7614 14.012C77.5794 13.6393 77.4884 13.18 77.4884 12.634V9.865H76.8124C76.6044 9.865 76.4441 9.813 76.3314 9.709C76.2188 9.59633 76.1624 9.44467 76.1624 9.254C76.1624 9.05467 76.2188 8.903 76.3314 8.799C76.4441 8.695 76.6044 8.643 76.8124 8.643H77.4884V7.46C77.4884 7.19133 77.5578 6.98767 77.6964 6.849C77.8438 6.71033 78.0474 6.641 78.3074 6.641C78.5674 6.641 78.7668 6.71033 78.9054 6.849C79.0441 6.98767 79.1134 7.19133 79.1134 7.46V8.643H80.4914C80.6994 8.643 80.8598 8.695 80.9724 8.799C81.0851 8.903 81.1414 9.05467 81.1414 9.254C81.1414 9.44467 81.0851 9.59633 80.9724 9.709C80.8598 9.813 80.6994 9.865 80.4914 9.865H79.1134V12.543C79.1134 12.959 79.2044 13.271 79.3864 13.479C79.5684 13.687 79.8631 13.791 80.2704 13.791C80.4178 13.791 80.5478 13.778 80.6604 13.752C80.7731 13.726 80.8728 13.7087 80.9594 13.7C81.0634 13.6913 81.1501 13.726 81.2194 13.804C81.2888 13.8733 81.3234 14.0207 81.3234 14.246C81.3234 14.4193 81.2931 14.5753 81.2324 14.714C81.1804 14.844 81.0808 14.935 80.9334 14.987C80.8208 15.0217 80.6734 15.052 80.4914 15.078C80.3094 15.1127 80.1491 15.13 80.0104 15.13ZM84.1807 15.13C83.7213 15.13 83.3097 15.0433 82.9457 14.87C82.5903 14.688 82.3087 14.4453 82.1007 14.142C81.9013 13.8387 81.8017 13.4963 81.8017 13.115C81.8017 12.647 81.923 12.2787 82.1657 12.01C82.4083 11.7327 82.8027 11.5333 83.3487 11.412C83.8947 11.2907 84.627 11.23 85.5457 11.23H86.1957V12.166H85.5587C85.0213 12.166 84.5923 12.192 84.2717 12.244C83.951 12.296 83.7213 12.387 83.5827 12.517C83.4527 12.6383 83.3877 12.8117 83.3877 13.037C83.3877 13.323 83.4873 13.557 83.6867 13.739C83.886 13.921 84.1633 14.012 84.5187 14.012C84.8047 14.012 85.056 13.947 85.2727 13.817C85.498 13.6783 85.6757 13.492 85.8057 13.258C85.9357 13.024 86.0007 12.7553 86.0007 12.452V10.957C86.0007 10.5237 85.9053 10.2117 85.7147 10.021C85.524 9.83033 85.2033 9.735 84.7527 9.735C84.5013 9.735 84.2283 9.76533 83.9337 9.826C83.6477 9.88667 83.3443 9.99067 83.0237 10.138C82.859 10.216 82.7117 10.2377 82.5817 10.203C82.4603 10.1683 82.365 10.099 82.2957 9.995C82.2263 9.88233 82.1917 9.761 82.1917 9.631C82.1917 9.501 82.2263 9.37533 82.2957 9.254C82.365 9.124 82.482 9.02867 82.6467 8.968C83.0453 8.80333 83.4267 8.68633 83.7907 8.617C84.1633 8.54767 84.5013 8.513 84.8047 8.513C85.4287 8.513 85.94 8.60833 86.3387 8.799C86.746 8.98967 87.0493 9.28 87.2487 9.67C87.448 10.0513 87.5477 10.5453 87.5477 11.152V14.272C87.5477 14.5407 87.4827 14.7487 87.3527 14.896C87.2227 15.0347 87.0363 15.104 86.7937 15.104C86.551 15.104 86.3603 15.0347 86.2217 14.896C86.0917 14.7487 86.0267 14.5407 86.0267 14.272V13.648H86.1307C86.07 13.9513 85.9487 14.2157 85.7667 14.441C85.5933 14.6577 85.3723 14.8267 85.1037 14.948C84.835 15.0693 84.5273 15.13 84.1807 15.13ZM92.8631 15.13C92.3257 15.13 91.8534 14.9957 91.4461 14.727C91.0474 14.4583 90.7831 14.0987 90.6531 13.648L90.7961 13.323V14.272C90.7961 14.5407 90.7267 14.7487 90.5881 14.896C90.4494 15.0347 90.2544 15.104 90.0031 15.104C89.7431 15.104 89.5437 15.0347 89.4051 14.896C89.2664 14.7487 89.1971 14.5407 89.1971 14.272V6.55C89.1971 6.28133 89.2664 6.07767 89.4051 5.939C89.5437 5.80033 89.7431 5.731 90.0031 5.731C90.2631 5.731 90.4624 5.80033 90.6011 5.939C90.7484 6.07767 90.8221 6.28133 90.8221 6.55V9.93H90.6661C90.8047 9.50533 91.0734 9.163 91.4721 8.903C91.8707 8.643 92.3344 8.513 92.8631 8.513C93.4264 8.513 93.9161 8.64733 94.3321 8.916C94.7481 9.18467 95.0731 9.566 95.3071 10.06C95.5411 10.5453 95.6581 11.1303 95.6581 11.815C95.6581 12.491 95.5411 13.0803 95.3071 13.583C95.0731 14.077 94.7437 14.4583 94.3191 14.727C93.9031 14.9957 93.4177 15.13 92.8631 15.13ZM92.4081 13.895C92.7287 13.895 93.0104 13.817 93.2531 13.661C93.4957 13.505 93.6821 13.2753 93.8121 12.972C93.9507 12.66 94.0201 12.2743 94.0201 11.815C94.0201 11.1217 93.8727 10.606 93.5781 10.268C93.2834 9.92133 92.8934 9.748 92.4081 9.748C92.0874 9.748 91.8057 9.826 91.5631 9.982C91.3204 10.1293 91.1297 10.359 90.9911 10.671C90.8611 10.9743 90.7961 11.3557 90.7961 11.815C90.7961 12.4997 90.9434 13.0197 91.2381 13.375C91.5327 13.7217 91.9227 13.895 92.4081 13.895ZM97.798 15.091C97.538 15.091 97.3386 15.013 97.2 14.857C97.0613 14.701 96.992 14.4843 96.992 14.207V9.436C96.992 9.15 97.0613 8.93333 97.2 8.786C97.3386 8.63 97.538 8.552 97.798 8.552C98.058 8.552 98.2573 8.63 98.396 8.786C98.5433 8.93333 98.617 9.15 98.617 9.436V14.207C98.617 14.4843 98.5476 14.701 98.409 14.857C98.2703 15.013 98.0666 15.091 97.798 15.091ZM97.798 7.343C97.4946 7.343 97.2563 7.26933 97.083 7.122C96.9183 6.966 96.836 6.75367 96.836 6.485C96.836 6.20767 96.9183 5.99533 97.083 5.848C97.2563 5.70067 97.4946 5.627 97.798 5.627C98.11 5.627 98.3483 5.70067 98.513 5.848C98.6776 5.99533 98.76 6.20767 98.76 6.485C98.76 6.75367 98.6776 6.966 98.513 7.122C98.3483 7.26933 98.11 7.343 97.798 7.343ZM102.476 15.13C101.757 15.13 101.215 14.9263 100.851 14.519C100.487 14.103 100.305 13.4963 100.305 12.699V6.55C100.305 6.28133 100.375 6.07767 100.513 5.939C100.652 5.80033 100.851 5.731 101.111 5.731C101.371 5.731 101.571 5.80033 101.709 5.939C101.857 6.07767 101.93 6.28133 101.93 6.55V12.621C101.93 13.0197 102.013 13.3143 102.177 13.505C102.351 13.6957 102.593 13.791 102.905 13.791C102.975 13.791 103.04 13.791 103.1 13.791C103.161 13.7823 103.222 13.7737 103.282 13.765C103.404 13.7477 103.486 13.7823 103.529 13.869C103.573 13.947 103.594 14.1117 103.594 14.363C103.594 14.5797 103.551 14.7487 103.464 14.87C103.378 14.9913 103.235 15.065 103.035 15.091C102.949 15.0997 102.858 15.1083 102.762 15.117C102.667 15.1257 102.572 15.13 102.476 15.13ZM105.263 15.091C105.003 15.091 104.803 15.013 104.665 14.857C104.526 14.701 104.457 14.4843 104.457 14.207V9.436C104.457 9.15 104.526 8.93333 104.665 8.786C104.803 8.63 105.003 8.552 105.263 8.552C105.523 8.552 105.722 8.63 105.861 8.786C106.008 8.93333 106.082 9.15 106.082 9.436V14.207C106.082 14.4843 106.012 14.701 105.874 14.857C105.735 15.013 105.531 15.091 105.263 15.091ZM105.263 7.343C104.959 7.343 104.721 7.26933 104.548 7.122C104.383 6.966 104.301 6.75367 104.301 6.485C104.301 6.20767 104.383 5.99533 104.548 5.848C104.721 5.70067 104.959 5.627 105.263 5.627C105.575 5.627 105.813 5.70067 105.978 5.848C106.142 5.99533 106.225 6.20767 106.225 6.485C106.225 6.75367 106.142 6.966 105.978 7.122C105.813 7.26933 105.575 7.343 105.263 7.343ZM110.682 15.13C110.119 15.13 109.647 15.0347 109.265 14.844C108.893 14.6533 108.615 14.376 108.433 14.012C108.251 13.6393 108.16 13.18 108.16 12.634V9.865H107.484C107.276 9.865 107.116 9.813 107.003 9.709C106.891 9.59633 106.834 9.44467 106.834 9.254C106.834 9.05467 106.891 8.903 107.003 8.799C107.116 8.695 107.276 8.643 107.484 8.643H108.16V7.46C108.16 7.19133 108.23 6.98767 108.368 6.849C108.516 6.71033 108.719 6.641 108.979 6.641C109.239 6.641 109.439 6.71033 109.577 6.849C109.716 6.98767 109.785 7.19133 109.785 7.46V8.643H111.163C111.371 8.643 111.532 8.695 111.644 8.799C111.757 8.903 111.813 9.05467 111.813 9.254C111.813 9.44467 111.757 9.59633 111.644 9.709C111.532 9.813 111.371 9.865 111.163 9.865H109.785V12.543C109.785 12.959 109.876 13.271 110.058 13.479C110.24 13.687 110.535 13.791 110.942 13.791C111.09 13.791 111.22 13.778 111.332 13.752C111.445 13.726 111.545 13.7087 111.631 13.7C111.735 13.6913 111.822 13.726 111.891 13.804C111.961 13.8733 111.995 14.0207 111.995 14.246C111.995 14.4193 111.965 14.5753 111.904 14.714C111.852 14.844 111.753 14.935 111.605 14.987C111.493 15.0217 111.345 15.052 111.163 15.078C110.981 15.1127 110.821 15.13 110.682 15.13ZM114.473 17.444C114.282 17.444 114.126 17.392 114.005 17.288C113.884 17.1927 113.81 17.0627 113.784 16.898C113.767 16.7333 113.797 16.56 113.875 16.378L114.759 14.415V15.091L112.393 9.618C112.315 9.42733 112.289 9.24967 112.315 9.085C112.341 8.92033 112.419 8.79033 112.549 8.695C112.688 8.591 112.874 8.539 113.108 8.539C113.307 8.539 113.468 8.58667 113.589 8.682C113.71 8.76867 113.819 8.93767 113.914 9.189L115.669 13.57H115.279L117.073 9.176C117.168 8.93333 117.281 8.76867 117.411 8.682C117.541 8.58667 117.714 8.539 117.931 8.539C118.122 8.539 118.273 8.591 118.386 8.695C118.499 8.79033 118.568 8.92033 118.594 9.085C118.62 9.241 118.59 9.41433 118.503 9.605L115.344 16.82C115.231 17.0627 115.11 17.2273 114.98 17.314C114.85 17.4007 114.681 17.444 114.473 17.444Z" fill="white"/>
<path d="M165 0L173 6H165V0Z" fill="url(#paint0_linear_210_11469)"/>
<path d="M8 0L0 6H8V0Z" fill="url(#paint1_linear_210_11469)"/>
<defs>
<linearGradient id="paint0_linear_210_11469" x1="169" y1="0" x2="169" y2="6" gradientUnits="userSpaceOnUse">
<stop stop-color="#6A3319"/>
<stop offset="1" stop-color="#FF915D"/>
</linearGradient>
<linearGradient id="paint1_linear_210_11469" x1="4" y1="0" x2="4" y2="6" gradientUnits="userSpaceOnUse">
<stop stop-color="#6A3319"/>
<stop offset="1" stop-color="#FF915D"/>
</linearGradient>
</defs>
</svg>
