<svg width="173" height="22" viewBox="0 0 173 22" fill="none" xmlns="http://www.w3.org/2000/svg">
<path d="M8 0H165V12C165 17.5228 160.523 22 155 22H18C12.4771 22 8 17.5228 8 12V0Z" fill="#9F9CFF"/>
<path d="M30.2519 15.104C29.9833 15.104 29.7753 15.0303 29.6279 14.883C29.4893 14.727 29.4199 14.5147 29.4199 14.246V6.68C29.4199 6.40267 29.4936 6.19467 29.6409 6.056C29.7883 5.90867 29.9963 5.835 30.2649 5.835H33.3979C34.4033 5.835 35.1789 6.08633 35.7249 6.589C36.2709 7.09167 36.5439 7.79367 36.5439 8.695C36.5439 9.59633 36.2709 10.3027 35.7249 10.814C35.1789 11.3167 34.4033 11.568 33.3979 11.568H31.0839V14.246C31.0839 14.5147 31.0146 14.727 30.8759 14.883C30.7373 15.0303 30.5293 15.104 30.2519 15.104ZM31.0839 10.255H33.1379C33.7273 10.255 34.1736 10.125 34.4769 9.865C34.7803 9.59633 34.9319 9.20633 34.9319 8.695C34.9319 8.18367 34.7803 7.798 34.4769 7.538C34.1736 7.278 33.7273 7.148 33.1379 7.148H31.0839V10.255ZM38.4495 15.104C38.1808 15.104 37.9728 15.0347 37.8255 14.896C37.6868 14.7487 37.6175 14.5407 37.6175 14.272V9.358C37.6175 9.08933 37.6868 8.88567 37.8255 8.747C37.9641 8.60833 38.1591 8.539 38.4105 8.539C38.6618 8.539 38.8568 8.60833 38.9955 8.747C39.1341 8.88567 39.2035 9.08933 39.2035 9.358V10.177H39.0735C39.1948 9.657 39.4331 9.26267 39.7885 8.994C40.1438 8.72533 40.6161 8.565 41.2055 8.513C41.3875 8.49567 41.5305 8.54333 41.6345 8.656C41.7471 8.76 41.8121 8.92467 41.8295 9.15C41.8468 9.36667 41.7948 9.54433 41.6735 9.683C41.5608 9.813 41.3875 9.891 41.1535 9.917L40.8675 9.943C40.3388 9.995 39.9401 10.1597 39.6715 10.437C39.4028 10.7057 39.2685 11.087 39.2685 11.581V14.272C39.2685 14.5407 39.1991 14.7487 39.0605 14.896C38.9218 15.0347 38.7181 15.104 38.4495 15.104ZM45.5057 15.13C44.8471 15.13 44.2751 14.9957 43.7897 14.727C43.3044 14.4583 42.9274 14.077 42.6587 13.583C42.3901 13.0803 42.2557 12.491 42.2557 11.815C42.2557 11.3037 42.3294 10.8487 42.4767 10.45C42.6327 10.0427 42.8537 9.696 43.1397 9.41C43.4257 9.11533 43.7681 8.89433 44.1667 8.747C44.5654 8.591 45.0117 8.513 45.5057 8.513C46.1644 8.513 46.7364 8.64733 47.2217 8.916C47.7071 9.18467 48.0841 9.566 48.3527 10.06C48.6214 10.554 48.7557 11.139 48.7557 11.815C48.7557 12.3263 48.6777 12.7857 48.5217 13.193C48.3744 13.6003 48.1577 13.9513 47.8717 14.246C47.5857 14.532 47.2434 14.753 46.8447 14.909C46.4461 15.0563 45.9997 15.13 45.5057 15.13ZM45.5057 13.895C45.8264 13.895 46.1081 13.817 46.3507 13.661C46.5934 13.505 46.7797 13.2753 46.9097 12.972C47.0484 12.66 47.1177 12.2743 47.1177 11.815C47.1177 11.1217 46.9704 10.606 46.6757 10.268C46.3811 9.92133 45.9911 9.748 45.5057 9.748C45.1851 9.748 44.9034 9.826 44.6607 9.982C44.4181 10.1293 44.2274 10.359 44.0887 10.671C43.9587 10.9743 43.8937 11.3557 43.8937 11.815C43.8937 12.4997 44.0411 13.0197 44.3357 13.375C44.6304 13.7217 45.0204 13.895 45.5057 13.895ZM50.903 17.444C50.643 17.444 50.4436 17.3747 50.305 17.236C50.1663 17.0973 50.097 16.8937 50.097 16.625V9.358C50.097 9.08933 50.1663 8.88567 50.305 8.747C50.4436 8.60833 50.6386 8.539 50.89 8.539C51.15 8.539 51.3493 8.60833 51.488 8.747C51.6266 8.88567 51.696 9.08933 51.696 9.358V10.372L51.553 9.982C51.683 9.54 51.9473 9.18467 52.346 8.916C52.7533 8.64733 53.2256 8.513 53.763 8.513C54.3176 8.513 54.803 8.64733 55.219 8.916C55.6436 9.18467 55.973 9.566 56.207 10.06C56.441 10.5453 56.558 11.1303 56.558 11.815C56.558 12.491 56.441 13.0803 56.207 13.583C55.973 14.077 55.648 14.4583 55.232 14.727C54.816 14.9957 54.3263 15.13 53.763 15.13C53.2343 15.13 52.7706 15 52.372 14.74C51.9733 14.4713 51.7046 14.1247 51.566 13.7H51.722V16.625C51.722 16.8937 51.6483 17.0973 51.501 17.236C51.3623 17.3747 51.163 17.444 50.903 17.444ZM53.308 13.895C53.6286 13.895 53.9103 13.817 54.153 13.661C54.3956 13.505 54.582 13.2753 54.712 12.972C54.8506 12.66 54.92 12.2743 54.92 11.815C54.92 11.1217 54.7726 10.606 54.478 10.268C54.1833 9.92133 53.7933 9.748 53.308 9.748C52.9873 9.748 52.7056 9.826 52.463 9.982C52.2203 10.1293 52.0296 10.359 51.891 10.671C51.761 10.9743 51.696 11.3557 51.696 11.815C51.696 12.4997 51.8433 13.0197 52.138 13.375C52.4326 13.7217 52.8226 13.895 53.308 13.895ZM60.7909 15.13C60.1322 15.13 59.5602 14.9957 59.0749 14.727C58.5895 14.4583 58.2125 14.077 57.9439 13.583C57.6752 13.0803 57.5409 12.491 57.5409 11.815C57.5409 11.3037 57.6145 10.8487 57.7619 10.45C57.9179 10.0427 58.1389 9.696 58.4249 9.41C58.7109 9.11533 59.0532 8.89433 59.4519 8.747C59.8505 8.591 60.2969 8.513 60.7909 8.513C61.4495 8.513 62.0215 8.64733 62.5069 8.916C62.9922 9.18467 63.3692 9.566 63.6379 10.06C63.9065 10.554 64.0409 11.139 64.0409 11.815C64.0409 12.3263 63.9629 12.7857 63.8069 13.193C63.6595 13.6003 63.4429 13.9513 63.1569 14.246C62.8709 14.532 62.5285 14.753 62.1299 14.909C61.7312 15.0563 61.2849 15.13 60.7909 15.13ZM60.7909 13.895C61.1115 13.895 61.3932 13.817 61.6359 13.661C61.8785 13.505 62.0649 13.2753 62.1949 12.972C62.3335 12.66 62.4029 12.2743 62.4029 11.815C62.4029 11.1217 62.2555 10.606 61.9609 10.268C61.6662 9.92133 61.2762 9.748 60.7909 9.748C60.4702 9.748 60.1885 9.826 59.9459 9.982C59.7032 10.1293 59.5125 10.359 59.3739 10.671C59.2439 10.9743 59.1789 11.3557 59.1789 11.815C59.1789 12.4997 59.3262 13.0197 59.6209 13.375C59.9155 13.7217 60.3055 13.895 60.7909 13.895ZM67.7091 15.13C67.3364 15.13 66.9421 15.091 66.5261 15.013C66.1101 14.935 65.7374 14.8007 65.4081 14.61C65.2694 14.5233 65.1698 14.4237 65.1091 14.311C65.0571 14.1897 65.0354 14.0727 65.0441 13.96C65.0614 13.8387 65.1048 13.7347 65.1741 13.648C65.2521 13.5613 65.3474 13.505 65.4601 13.479C65.5814 13.453 65.7114 13.4747 65.8501 13.544C66.1968 13.7087 66.5218 13.8257 66.8251 13.895C67.1284 13.9557 67.4274 13.986 67.7221 13.986C68.1381 13.986 68.4458 13.9167 68.6451 13.778C68.8531 13.6307 68.9571 13.44 68.9571 13.206C68.9571 13.0067 68.8878 12.855 68.7491 12.751C68.6191 12.6383 68.4198 12.556 68.1511 12.504L66.8511 12.257C66.3138 12.153 65.9021 11.958 65.6161 11.672C65.3388 11.3773 65.2001 11.0003 65.2001 10.541C65.2001 10.125 65.3128 9.76533 65.5381 9.462C65.7721 9.15867 66.0928 8.92467 66.5001 8.76C66.9074 8.59533 67.3754 8.513 67.9041 8.513C68.2854 8.513 68.6408 8.55633 68.9701 8.643C69.3081 8.721 69.6331 8.84667 69.9451 9.02C70.0751 9.08933 70.1618 9.18033 70.2051 9.293C70.2571 9.40567 70.2701 9.52267 70.2441 9.644C70.2181 9.75667 70.1661 9.86067 70.0881 9.956C70.0101 10.0427 69.9104 10.099 69.7891 10.125C69.6764 10.1423 69.5464 10.1163 69.3991 10.047C69.1304 9.90833 68.8704 9.80867 68.6191 9.748C68.3764 9.68733 68.1424 9.657 67.9171 9.657C67.4924 9.657 67.1761 9.73067 66.9681 9.878C66.7688 10.0253 66.6691 10.2203 66.6691 10.463C66.6691 10.645 66.7298 10.7967 66.8511 10.918C66.9724 11.0393 67.1588 11.1217 67.4101 11.165L68.7101 11.412C69.2734 11.516 69.6981 11.7067 69.9841 11.984C70.2788 12.2613 70.4261 12.634 70.4261 13.102C70.4261 13.7347 70.1791 14.233 69.6851 14.597C69.1911 14.9523 68.5324 15.13 67.7091 15.13ZM73.8228 15.13C73.3634 15.13 72.9518 15.0433 72.5878 14.87C72.2324 14.688 71.9508 14.4453 71.7428 14.142C71.5434 13.8387 71.4438 13.4963 71.4438 13.115C71.4438 12.647 71.5651 12.2787 71.8078 12.01C72.0504 11.7327 72.4448 11.5333 72.9908 11.412C73.5368 11.2907 74.2691 11.23 75.1878 11.23H75.8378V12.166H75.2008C74.6634 12.166 74.2344 12.192 73.9138 12.244C73.5931 12.296 73.3634 12.387 73.2248 12.517C73.0948 12.6383 73.0298 12.8117 73.0298 13.037C73.0298 13.323 73.1294 13.557 73.3288 13.739C73.5281 13.921 73.8054 14.012 74.1608 14.012C74.4468 14.012 74.6981 13.947 74.9148 13.817C75.1401 13.6783 75.3178 13.492 75.4478 13.258C75.5778 13.024 75.6428 12.7553 75.6428 12.452V10.957C75.6428 10.5237 75.5474 10.2117 75.3568 10.021C75.1661 9.83033 74.8454 9.735 74.3948 9.735C74.1434 9.735 73.8704 9.76533 73.5758 9.826C73.2898 9.88667 72.9864 9.99067 72.6658 10.138C72.5011 10.216 72.3538 10.2377 72.2238 10.203C72.1024 10.1683 72.0071 10.099 71.9378 9.995C71.8684 9.88233 71.8338 9.761 71.8338 9.631C71.8338 9.501 71.8684 9.37533 71.9378 9.254C72.0071 9.124 72.1241 9.02867 72.2888 8.968C72.6874 8.80333 73.0688 8.68633 73.4328 8.617C73.8054 8.54767 74.1434 8.513 74.4468 8.513C75.0708 8.513 75.5821 8.60833 75.9808 8.799C76.3881 8.98967 76.6914 9.28 76.8908 9.67C77.0901 10.0513 77.1898 10.5453 77.1898 11.152V14.272C77.1898 14.5407 77.1248 14.7487 76.9948 14.896C76.8648 15.0347 76.6784 15.104 76.4358 15.104C76.1931 15.104 76.0024 15.0347 75.8638 14.896C75.7338 14.7487 75.6688 14.5407 75.6688 14.272V13.648H75.7728C75.7121 13.9513 75.5908 14.2157 75.4088 14.441C75.2354 14.6577 75.0144 14.8267 74.7458 14.948C74.4771 15.0693 74.1694 15.13 73.8228 15.13ZM79.6711 15.104C79.4025 15.104 79.1945 15.0347 79.0471 14.896C78.9085 14.7487 78.8391 14.5407 78.8391 14.272V9.358C78.8391 9.08933 78.9085 8.88567 79.0471 8.747C79.1858 8.60833 79.3808 8.539 79.6321 8.539C79.8835 8.539 80.0785 8.60833 80.2171 8.747C80.3558 8.88567 80.4251 9.08933 80.4251 9.358V10.177H80.2951C80.4165 9.657 80.6548 9.26267 81.0101 8.994C81.3655 8.72533 81.8378 8.565 82.4271 8.513C82.6091 8.49567 82.7521 8.54333 82.8561 8.656C82.9688 8.76 83.0338 8.92467 83.0511 9.15C83.0685 9.36667 83.0165 9.54433 82.8951 9.683C82.7825 9.813 82.6091 9.891 82.3751 9.917L82.0891 9.943C81.5605 9.995 81.1618 10.1597 80.8931 10.437C80.6245 10.7057 80.4901 11.087 80.4901 11.581V14.272C80.4901 14.5407 80.4208 14.7487 80.2821 14.896C80.1435 15.0347 79.9398 15.104 79.6711 15.104ZM90.7743 15.13C90.3929 15.13 90.0116 15.0997 89.6303 15.039C89.2489 14.987 88.8893 14.9047 88.5513 14.792C88.2133 14.6707 87.9099 14.5233 87.6413 14.35C87.4853 14.246 87.3769 14.1203 87.3163 13.973C87.2556 13.8257 87.2339 13.6827 87.2513 13.544C87.2773 13.3967 87.3336 13.271 87.4203 13.167C87.5156 13.0543 87.6326 12.985 87.7713 12.959C87.9099 12.933 88.0616 12.972 88.2263 13.076C88.6076 13.3013 89.0106 13.466 89.4353 13.57C89.8599 13.674 90.3063 13.726 90.7743 13.726C91.4589 13.726 91.9573 13.6133 92.2693 13.388C92.5813 13.154 92.7373 12.855 92.7373 12.491C92.7373 12.1877 92.6246 11.9493 92.3993 11.776C92.1826 11.6027 91.8056 11.4597 91.2683 11.347L89.8383 11.048C89.0149 10.8747 88.3996 10.5843 87.9923 10.177C87.5936 9.761 87.3943 9.215 87.3943 8.539C87.3943 8.11433 87.4809 7.72867 87.6543 7.382C87.8276 7.03533 88.0703 6.73633 88.3823 6.485C88.7029 6.23367 89.0799 6.043 89.5133 5.913C89.9553 5.77433 90.4406 5.705 90.9693 5.705C91.4893 5.705 91.9833 5.77 92.4513 5.9C92.9193 6.03 93.3396 6.22067 93.7123 6.472C93.8509 6.56733 93.9419 6.68433 93.9853 6.823C94.0373 6.96167 94.0503 7.10033 94.0243 7.239C93.9983 7.369 93.9376 7.48167 93.8423 7.577C93.7469 7.67233 93.6256 7.72867 93.4783 7.746C93.3396 7.76333 93.1793 7.72 92.9973 7.616C92.6766 7.434 92.3516 7.304 92.0223 7.226C91.6929 7.148 91.3376 7.109 90.9563 7.109C90.5576 7.109 90.2153 7.16533 89.9293 7.278C89.6433 7.39067 89.4223 7.551 89.2663 7.759C89.1189 7.95833 89.0453 8.19667 89.0453 8.474C89.0453 8.786 89.1493 9.03733 89.3573 9.228C89.5653 9.41 89.9206 9.553 90.4233 9.657L91.8403 9.956C92.6983 10.138 93.3353 10.424 93.7513 10.814C94.1759 11.204 94.3883 11.724 94.3883 12.374C94.3883 12.79 94.3016 13.167 94.1283 13.505C93.9636 13.843 93.7209 14.1333 93.4003 14.376C93.0883 14.6187 92.7113 14.805 92.2693 14.935C91.8273 15.065 91.3289 15.13 90.7743 15.13ZM97.9614 15.13C97.4328 15.13 96.9951 15.0347 96.6484 14.844C96.3018 14.6447 96.0418 14.35 95.8684 13.96C95.7038 13.57 95.6214 13.0847 95.6214 12.504V9.358C95.6214 9.08067 95.6908 8.877 95.8294 8.747C95.9681 8.60833 96.1674 8.539 96.4274 8.539C96.6874 8.539 96.8868 8.60833 97.0254 8.747C97.1728 8.877 97.2464 9.08067 97.2464 9.358V12.53C97.2464 12.9807 97.3374 13.3143 97.5194 13.531C97.7014 13.7477 97.9918 13.856 98.3904 13.856C98.8238 13.856 99.1791 13.7087 99.4564 13.414C99.7338 13.1107 99.8724 12.712 99.8724 12.218V9.358C99.8724 9.08067 99.9418 8.877 100.08 8.747C100.219 8.60833 100.418 8.539 100.678 8.539C100.938 8.539 101.138 8.60833 101.276 8.747C101.424 8.877 101.497 9.08067 101.497 9.358V14.272C101.497 14.8267 101.233 15.104 100.704 15.104C100.453 15.104 100.258 15.0347 100.119 14.896C99.9808 14.7487 99.9114 14.5407 99.9114 14.272V13.284L100.093 13.674C99.9114 14.142 99.6341 14.5017 99.2614 14.753C98.8974 15.0043 98.4641 15.13 97.9614 15.13ZM104.021 15.104C103.761 15.104 103.561 15.0347 103.423 14.896C103.284 14.7487 103.215 14.5407 103.215 14.272V9.358C103.215 9.08933 103.284 8.88567 103.423 8.747C103.561 8.60833 103.756 8.539 104.008 8.539C104.259 8.539 104.454 8.60833 104.593 8.747C104.731 8.88567 104.801 9.08933 104.801 9.358V10.307L104.658 9.917C104.831 9.48367 105.1 9.14133 105.464 8.89C105.828 8.63867 106.261 8.513 106.764 8.513C107.275 8.513 107.695 8.63433 108.025 8.877C108.354 9.11967 108.584 9.49233 108.714 9.995H108.532C108.705 9.53567 108.991 9.176 109.39 8.916C109.788 8.64733 110.248 8.513 110.768 8.513C111.253 8.513 111.652 8.60833 111.964 8.799C112.284 8.98967 112.523 9.28 112.679 9.67C112.835 10.0513 112.913 10.5367 112.913 11.126V14.272C112.913 14.5407 112.839 14.7487 112.692 14.896C112.553 15.0347 112.354 15.104 112.094 15.104C111.834 15.104 111.634 15.0347 111.496 14.896C111.357 14.7487 111.288 14.5407 111.288 14.272V11.191C111.288 10.7057 111.205 10.3503 111.041 10.125C110.885 9.89967 110.616 9.787 110.235 9.787C109.81 9.787 109.476 9.93867 109.234 10.242C108.991 10.5367 108.87 10.9483 108.87 11.477V14.272C108.87 14.5407 108.8 14.7487 108.662 14.896C108.523 15.0347 108.324 15.104 108.064 15.104C107.804 15.104 107.6 15.0347 107.453 14.896C107.314 14.7487 107.245 14.5407 107.245 14.272V11.191C107.245 10.7057 107.162 10.3503 106.998 10.125C106.842 9.89967 106.577 9.787 106.205 9.787C105.78 9.787 105.446 9.93867 105.204 10.242C104.961 10.5367 104.84 10.9483 104.84 11.477V14.272C104.84 14.8267 104.567 15.104 104.021 15.104ZM115.421 15.104C115.161 15.104 114.962 15.0347 114.823 14.896C114.684 14.7487 114.615 14.5407 114.615 14.272V9.358C114.615 9.08933 114.684 8.88567 114.823 8.747C114.962 8.60833 115.157 8.539 115.408 8.539C115.659 8.539 115.854 8.60833 115.993 8.747C116.132 8.88567 116.201 9.08933 116.201 9.358V10.307L116.058 9.917C116.231 9.48367 116.5 9.14133 116.864 8.89C117.228 8.63867 117.661 8.513 118.164 8.513C118.675 8.513 119.096 8.63433 119.425 8.877C119.754 9.11967 119.984 9.49233 120.114 9.995H119.932C120.105 9.53567 120.391 9.176 120.79 8.916C121.189 8.64733 121.648 8.513 122.168 8.513C122.653 8.513 123.052 8.60833 123.364 8.799C123.685 8.98967 123.923 9.28 124.079 9.67C124.235 10.0513 124.313 10.5367 124.313 11.126V14.272C124.313 14.5407 124.239 14.7487 124.092 14.896C123.953 15.0347 123.754 15.104 123.494 15.104C123.234 15.104 123.035 15.0347 122.896 14.896C122.757 14.7487 122.688 14.5407 122.688 14.272V11.191C122.688 10.7057 122.606 10.3503 122.441 10.125C122.285 9.89967 122.016 9.787 121.635 9.787C121.21 9.787 120.877 9.93867 120.634 10.242C120.391 10.5367 120.27 10.9483 120.27 11.477V14.272C120.27 14.5407 120.201 14.7487 120.062 14.896C119.923 15.0347 119.724 15.104 119.464 15.104C119.204 15.104 119 15.0347 118.853 14.896C118.714 14.7487 118.645 14.5407 118.645 14.272V11.191C118.645 10.7057 118.563 10.3503 118.398 10.125C118.242 9.89967 117.978 9.787 117.605 9.787C117.18 9.787 116.847 9.93867 116.604 10.242C116.361 10.5367 116.24 10.9483 116.24 11.477V14.272C116.24 14.8267 115.967 15.104 115.421 15.104ZM128.083 15.13C127.623 15.13 127.212 15.0433 126.848 14.87C126.492 14.688 126.211 14.4453 126.003 14.142C125.803 13.8387 125.704 13.4963 125.704 13.115C125.704 12.647 125.825 12.2787 126.068 12.01C126.31 11.7327 126.705 11.5333 127.251 11.412C127.797 11.2907 128.529 11.23 129.448 11.23H130.098V12.166H129.461C128.923 12.166 128.494 12.192 128.174 12.244C127.853 12.296 127.623 12.387 127.485 12.517C127.355 12.6383 127.29 12.8117 127.29 13.037C127.29 13.323 127.389 13.557 127.589 13.739C127.788 13.921 128.065 14.012 128.421 14.012C128.707 14.012 128.958 13.947 129.175 13.817C129.4 13.6783 129.578 13.492 129.708 13.258C129.838 13.024 129.903 12.7553 129.903 12.452V10.957C129.903 10.5237 129.807 10.2117 129.617 10.021C129.426 9.83033 129.105 9.735 128.655 9.735C128.403 9.735 128.13 9.76533 127.836 9.826C127.55 9.88667 127.246 9.99067 126.926 10.138C126.761 10.216 126.614 10.2377 126.484 10.203C126.362 10.1683 126.267 10.099 126.198 9.995C126.128 9.88233 126.094 9.761 126.094 9.631C126.094 9.501 126.128 9.37533 126.198 9.254C126.267 9.124 126.384 9.02867 126.549 8.968C126.947 8.80333 127.329 8.68633 127.693 8.617C128.065 8.54767 128.403 8.513 128.707 8.513C129.331 8.513 129.842 8.60833 130.241 8.799C130.648 8.98967 130.951 9.28 131.151 9.67C131.35 10.0513 131.45 10.5453 131.45 11.152V14.272C131.45 14.5407 131.385 14.7487 131.255 14.896C131.125 15.0347 130.938 15.104 130.696 15.104C130.453 15.104 130.262 15.0347 130.124 14.896C129.994 14.7487 129.929 14.5407 129.929 14.272V13.648H130.033C129.972 13.9513 129.851 14.2157 129.669 14.441C129.495 14.6577 129.274 14.8267 129.006 14.948C128.737 15.0693 128.429 15.13 128.083 15.13ZM133.931 15.104C133.662 15.104 133.454 15.0347 133.307 14.896C133.168 14.7487 133.099 14.5407 133.099 14.272V9.358C133.099 9.08933 133.168 8.88567 133.307 8.747C133.446 8.60833 133.641 8.539 133.892 8.539C134.143 8.539 134.338 8.60833 134.477 8.747C134.616 8.88567 134.685 9.08933 134.685 9.358V10.177H134.555C134.676 9.657 134.915 9.26267 135.27 8.994C135.625 8.72533 136.098 8.565 136.687 8.513C136.869 8.49567 137.012 8.54333 137.116 8.656C137.229 8.76 137.294 8.92467 137.311 9.15C137.328 9.36667 137.276 9.54433 137.155 9.683C137.042 9.813 136.869 9.891 136.635 9.917L136.349 9.943C135.82 9.995 135.422 10.1597 135.153 10.437C134.884 10.7057 134.75 11.087 134.75 11.581V14.272C134.75 14.5407 134.681 14.7487 134.542 14.896C134.403 15.0347 134.2 15.104 133.931 15.104ZM140.195 17.444C140.005 17.444 139.849 17.392 139.727 17.288C139.606 17.1927 139.532 17.0627 139.506 16.898C139.489 16.7333 139.519 16.56 139.597 16.378L140.481 14.415V15.091L138.115 9.618C138.037 9.42733 138.011 9.24967 138.037 9.085C138.063 8.92033 138.141 8.79033 138.271 8.695C138.41 8.591 138.596 8.539 138.83 8.539C139.03 8.539 139.19 8.58667 139.311 8.682C139.433 8.76867 139.541 8.93767 139.636 9.189L141.391 13.57H141.001L142.795 9.176C142.891 8.93333 143.003 8.76867 143.133 8.682C143.263 8.58667 143.437 8.539 143.653 8.539C143.844 8.539 143.996 8.591 144.108 8.695C144.221 8.79033 144.29 8.92033 144.316 9.085C144.342 9.241 144.312 9.41433 144.225 9.605L141.066 16.82C140.954 17.0627 140.832 17.2273 140.702 17.314C140.572 17.4007 140.403 17.444 140.195 17.444Z" fill="white"/>
<path d="M165 0L173 6H165V0Z" fill="url(#paint0_linear_209_11460)"/>
<path d="M8 0L0 6H8V0Z" fill="url(#paint1_linear_209_11460)"/>
<defs>
<linearGradient id="paint0_linear_209_11460" x1="169" y1="0" x2="169" y2="6" gradientUnits="userSpaceOnUse">
<stop stop-color="#393763"/>
<stop offset="1" stop-color="#9F9CFF"/>
</linearGradient>
<linearGradient id="paint1_linear_209_11460" x1="4" y1="0" x2="4" y2="6" gradientUnits="userSpaceOnUse">
<stop stop-color="#393763"/>
<stop offset="1" stop-color="#9F9CFF"/>
</linearGradient>
</defs>
</svg>
