<svg width="173" height="22" viewBox="0 0 173 22" fill="none" xmlns="http://www.w3.org/2000/svg">
<path d="M8 0H165V12C165 17.5228 160.523 22 155 22H18C12.4771 22 8 17.5228 8 12V0Z" fill="#FF6161"/>
<path d="M34.1416 15.104C33.8729 15.104 33.6649 15.0303 33.5176 14.883C33.3789 14.727 33.3096 14.5147 33.3096 14.246V6.68C33.3096 6.40267 33.3833 6.19467 33.5306 6.056C33.6779 5.90867 33.8859 5.835 34.1546 5.835H37.2876C38.2929 5.835 39.0686 6.08633 39.6146 6.589C40.1606 7.09167 40.4336 7.79367 40.4336 8.695C40.4336 9.59633 40.1606 10.3027 39.6146 10.814C39.0686 11.3167 38.2929 11.568 37.2876 11.568H34.9736V14.246C34.9736 14.5147 34.9043 14.727 34.7656 14.883C34.6269 15.0303 34.4189 15.104 34.1416 15.104ZM34.9736 10.255H37.0276C37.6169 10.255 38.0633 10.125 38.3666 9.865C38.6699 9.59633 38.8216 9.20633 38.8216 8.695C38.8216 8.18367 38.6699 7.798 38.3666 7.538C38.0633 7.278 37.6169 7.148 37.0276 7.148H34.9736V10.255ZM42.3391 15.104C42.0704 15.104 41.8624 15.0347 41.7151 14.896C41.5764 14.7487 41.5071 14.5407 41.5071 14.272V9.358C41.5071 9.08933 41.5764 8.88567 41.7151 8.747C41.8538 8.60833 42.0488 8.539 42.3001 8.539C42.5514 8.539 42.7464 8.60833 42.8851 8.747C43.0238 8.88567 43.0931 9.08933 43.0931 9.358V10.177H42.9631C43.0844 9.657 43.3228 9.26267 43.6781 8.994C44.0334 8.72533 44.5058 8.565 45.0951 8.513C45.2771 8.49567 45.4201 8.54333 45.5241 8.656C45.6368 8.76 45.7018 8.92467 45.7191 9.15C45.7364 9.36667 45.6844 9.54433 45.5631 9.683C45.4504 9.813 45.2771 9.891 45.0431 9.917L44.7571 9.943C44.2284 9.995 43.8298 10.1597 43.5611 10.437C43.2924 10.7057 43.1581 11.087 43.1581 11.581V14.272C43.1581 14.5407 43.0888 14.7487 42.9501 14.896C42.8114 15.0347 42.6078 15.104 42.3391 15.104ZM49.3954 15.13C48.7367 15.13 48.1647 14.9957 47.6794 14.727C47.194 14.4583 46.817 14.077 46.5484 13.583C46.2797 13.0803 46.1454 12.491 46.1454 11.815C46.1454 11.3037 46.219 10.8487 46.3664 10.45C46.5224 10.0427 46.7434 9.696 47.0294 9.41C47.3154 9.11533 47.6577 8.89433 48.0564 8.747C48.455 8.591 48.9014 8.513 49.3954 8.513C50.054 8.513 50.626 8.64733 51.1114 8.916C51.5967 9.18467 51.9737 9.566 52.2424 10.06C52.511 10.554 52.6454 11.139 52.6454 11.815C52.6454 12.3263 52.5674 12.7857 52.4114 13.193C52.264 13.6003 52.0474 13.9513 51.7614 14.246C51.4754 14.532 51.133 14.753 50.7344 14.909C50.3357 15.0563 49.8894 15.13 49.3954 15.13ZM49.3954 13.895C49.716 13.895 49.9977 13.817 50.2404 13.661C50.483 13.505 50.6694 13.2753 50.7994 12.972C50.938 12.66 51.0074 12.2743 51.0074 11.815C51.0074 11.1217 50.86 10.606 50.5654 10.268C50.2707 9.92133 49.8807 9.748 49.3954 9.748C49.0747 9.748 48.793 9.826 48.5504 9.982C48.3077 10.1293 48.117 10.359 47.9784 10.671C47.8484 10.9743 47.7834 11.3557 47.7834 11.815C47.7834 12.4997 47.9307 13.0197 48.2254 13.375C48.52 13.7217 48.91 13.895 49.3954 13.895ZM54.7926 17.444C54.5326 17.444 54.3333 17.3747 54.1946 17.236C54.0559 17.0973 53.9866 16.8937 53.9866 16.625V9.358C53.9866 9.08933 54.0559 8.88567 54.1946 8.747C54.3333 8.60833 54.5283 8.539 54.7796 8.539C55.0396 8.539 55.2389 8.60833 55.3776 8.747C55.5163 8.88567 55.5856 9.08933 55.5856 9.358V10.372L55.4426 9.982C55.5726 9.54 55.8369 9.18467 56.2356 8.916C56.6429 8.64733 57.1153 8.513 57.6526 8.513C58.2073 8.513 58.6926 8.64733 59.1086 8.916C59.5333 9.18467 59.8626 9.566 60.0966 10.06C60.3306 10.5453 60.4476 11.1303 60.4476 11.815C60.4476 12.491 60.3306 13.0803 60.0966 13.583C59.8626 14.077 59.5376 14.4583 59.1216 14.727C58.7056 14.9957 58.2159 15.13 57.6526 15.13C57.1239 15.13 56.6603 15 56.2616 14.74C55.8629 14.4713 55.5943 14.1247 55.4556 13.7H55.6116V16.625C55.6116 16.8937 55.5379 17.0973 55.3906 17.236C55.2519 17.3747 55.0526 17.444 54.7926 17.444ZM57.1976 13.895C57.5183 13.895 57.7999 13.817 58.0426 13.661C58.2853 13.505 58.4716 13.2753 58.6016 12.972C58.7403 12.66 58.8096 12.2743 58.8096 11.815C58.8096 11.1217 58.6623 10.606 58.3676 10.268C58.0729 9.92133 57.6829 9.748 57.1976 9.748C56.8769 9.748 56.5953 9.826 56.3526 9.982C56.1099 10.1293 55.9193 10.359 55.7806 10.671C55.6506 10.9743 55.5856 11.3557 55.5856 11.815C55.5856 12.4997 55.7329 13.0197 56.0276 13.375C56.3223 13.7217 56.7123 13.895 57.1976 13.895ZM64.6805 15.13C64.0219 15.13 63.4499 14.9957 62.9645 14.727C62.4792 14.4583 62.1022 14.077 61.8335 13.583C61.5649 13.0803 61.4305 12.491 61.4305 11.815C61.4305 11.3037 61.5042 10.8487 61.6515 10.45C61.8075 10.0427 62.0285 9.696 62.3145 9.41C62.6005 9.11533 62.9429 8.89433 63.3415 8.747C63.7402 8.591 64.1865 8.513 64.6805 8.513C65.3392 8.513 65.9112 8.64733 66.3965 8.916C66.8819 9.18467 67.2589 9.566 67.5275 10.06C67.7962 10.554 67.9305 11.139 67.9305 11.815C67.9305 12.3263 67.8525 12.7857 67.6965 13.193C67.5492 13.6003 67.3325 13.9513 67.0465 14.246C66.7605 14.532 66.4182 14.753 66.0195 14.909C65.6209 15.0563 65.1745 15.13 64.6805 15.13ZM64.6805 13.895C65.0012 13.895 65.2829 13.817 65.5255 13.661C65.7682 13.505 65.9545 13.2753 66.0845 12.972C66.2232 12.66 66.2925 12.2743 66.2925 11.815C66.2925 11.1217 66.1452 10.606 65.8505 10.268C65.5559 9.92133 65.1659 9.748 64.6805 9.748C64.3599 9.748 64.0782 9.826 63.8355 9.982C63.5929 10.1293 63.4022 10.359 63.2635 10.671C63.1335 10.9743 63.0685 11.3557 63.0685 11.815C63.0685 12.4997 63.2159 13.0197 63.5105 13.375C63.8052 13.7217 64.1952 13.895 64.6805 13.895ZM71.5988 15.13C71.2261 15.13 70.8318 15.091 70.4158 15.013C69.9998 14.935 69.6271 14.8007 69.2978 14.61C69.1591 14.5233 69.0594 14.4237 68.9988 14.311C68.9468 14.1897 68.9251 14.0727 68.9338 13.96C68.9511 13.8387 68.9944 13.7347 69.0638 13.648C69.1418 13.5613 69.2371 13.505 69.3498 13.479C69.4711 13.453 69.6011 13.4747 69.7398 13.544C70.0864 13.7087 70.4114 13.8257 70.7148 13.895C71.0181 13.9557 71.3171 13.986 71.6118 13.986C72.0278 13.986 72.3354 13.9167 72.5348 13.778C72.7428 13.6307 72.8468 13.44 72.8468 13.206C72.8468 13.0067 72.7774 12.855 72.6388 12.751C72.5088 12.6383 72.3094 12.556 72.0408 12.504L70.7408 12.257C70.2034 12.153 69.7918 11.958 69.5058 11.672C69.2284 11.3773 69.0898 11.0003 69.0898 10.541C69.0898 10.125 69.2024 9.76533 69.4278 9.462C69.6618 9.15867 69.9824 8.92467 70.3898 8.76C70.7971 8.59533 71.2651 8.513 71.7938 8.513C72.1751 8.513 72.5304 8.55633 72.8598 8.643C73.1978 8.721 73.5228 8.84667 73.8348 9.02C73.9648 9.08933 74.0514 9.18033 74.0948 9.293C74.1468 9.40567 74.1598 9.52267 74.1338 9.644C74.1078 9.75667 74.0558 9.86067 73.9778 9.956C73.8998 10.0427 73.8001 10.099 73.6788 10.125C73.5661 10.1423 73.4361 10.1163 73.2888 10.047C73.0201 9.90833 72.7601 9.80867 72.5088 9.748C72.2661 9.68733 72.0321 9.657 71.8068 9.657C71.3821 9.657 71.0658 9.73067 70.8578 9.878C70.6584 10.0253 70.5588 10.2203 70.5588 10.463C70.5588 10.645 70.6194 10.7967 70.7408 10.918C70.8621 11.0393 71.0484 11.1217 71.2998 11.165L72.5998 11.412C73.1631 11.516 73.5878 11.7067 73.8738 11.984C74.1684 12.2613 74.3158 12.634 74.3158 13.102C74.3158 13.7347 74.0688 14.233 73.5748 14.597C73.0808 14.9523 72.4221 15.13 71.5988 15.13ZM77.7124 15.13C77.2531 15.13 76.8414 15.0433 76.4774 14.87C76.1221 14.688 75.8404 14.4453 75.6324 14.142C75.4331 13.8387 75.3334 13.4963 75.3334 13.115C75.3334 12.647 75.4547 12.2787 75.6974 12.01C75.9401 11.7327 76.3344 11.5333 76.8804 11.412C77.4264 11.2907 78.1587 11.23 79.0774 11.23H79.7274V12.166H79.0904C78.5531 12.166 78.1241 12.192 77.8034 12.244C77.4827 12.296 77.2531 12.387 77.1144 12.517C76.9844 12.6383 76.9194 12.8117 76.9194 13.037C76.9194 13.323 77.0191 13.557 77.2184 13.739C77.4177 13.921 77.6951 14.012 78.0504 14.012C78.3364 14.012 78.5877 13.947 78.8044 13.817C79.0297 13.6783 79.2074 13.492 79.3374 13.258C79.4674 13.024 79.5324 12.7553 79.5324 12.452V10.957C79.5324 10.5237 79.4371 10.2117 79.2464 10.021C79.0557 9.83033 78.7351 9.735 78.2844 9.735C78.0331 9.735 77.7601 9.76533 77.4654 9.826C77.1794 9.88667 76.8761 9.99067 76.5554 10.138C76.3907 10.216 76.2434 10.2377 76.1134 10.203C75.9921 10.1683 75.8967 10.099 75.8274 9.995C75.7581 9.88233 75.7234 9.761 75.7234 9.631C75.7234 9.501 75.7581 9.37533 75.8274 9.254C75.8967 9.124 76.0137 9.02867 76.1784 8.968C76.5771 8.80333 76.9584 8.68633 77.3224 8.617C77.6951 8.54767 78.0331 8.513 78.3364 8.513C78.9604 8.513 79.4717 8.60833 79.8704 8.799C80.2777 8.98967 80.5811 9.28 80.7804 9.67C80.9797 10.0513 81.0794 10.5453 81.0794 11.152V14.272C81.0794 14.5407 81.0144 14.7487 80.8844 14.896C80.7544 15.0347 80.5681 15.104 80.3254 15.104C80.0827 15.104 79.8921 15.0347 79.7534 14.896C79.6234 14.7487 79.5584 14.5407 79.5584 14.272V13.648H79.6624C79.6017 13.9513 79.4804 14.2157 79.2984 14.441C79.1251 14.6577 78.9041 14.8267 78.6354 14.948C78.3667 15.0693 78.0591 15.13 77.7124 15.13ZM84.8998 15.13C84.1805 15.13 83.6388 14.9263 83.2748 14.519C82.9108 14.103 82.7288 13.4963 82.7288 12.699V6.55C82.7288 6.28133 82.7981 6.07767 82.9368 5.939C83.0755 5.80033 83.2748 5.731 83.5348 5.731C83.7948 5.731 83.9941 5.80033 84.1328 5.939C84.2801 6.07767 84.3538 6.28133 84.3538 6.55V12.621C84.3538 13.0197 84.4361 13.3143 84.6008 13.505C84.7741 13.6957 85.0168 13.791 85.3288 13.791C85.3981 13.791 85.4631 13.791 85.5238 13.791C85.5845 13.7823 85.6451 13.7737 85.7058 13.765C85.8271 13.7477 85.9095 13.7823 85.9528 13.869C85.9961 13.947 86.0178 14.1117 86.0178 14.363C86.0178 14.5797 85.9745 14.7487 85.8878 14.87C85.8011 14.9913 85.6581 15.065 85.4588 15.091C85.3721 15.0997 85.2811 15.1083 85.1858 15.117C85.0905 15.1257 84.9951 15.13 84.8998 15.13ZM91.3975 15.104C91.1288 15.104 90.9208 15.0303 90.7735 14.883C90.6348 14.727 90.5655 14.5147 90.5655 14.246V6.68C90.5655 6.40267 90.6391 6.19467 90.7865 6.056C90.9338 5.90867 91.1418 5.835 91.4105 5.835H94.5435C95.5488 5.835 96.3245 6.07767 96.8705 6.563C97.4165 7.03967 97.6895 7.71133 97.6895 8.578C97.6895 9.14133 97.5638 9.62667 97.3125 10.034C97.0698 10.4413 96.7145 10.7533 96.2465 10.97C95.7785 11.1867 95.2108 11.295 94.5435 11.295L94.6605 11.1H95.0895C95.4448 11.1 95.7525 11.1867 96.0125 11.36C96.2811 11.5333 96.5151 11.8063 96.7145 12.179L97.6895 13.986C97.7935 14.168 97.8411 14.3457 97.8325 14.519C97.8238 14.6923 97.7588 14.8353 97.6375 14.948C97.5161 15.052 97.3385 15.104 97.1045 15.104C96.8705 15.104 96.6798 15.0563 96.5325 14.961C96.3851 14.857 96.2551 14.701 96.1425 14.493L94.8295 12.075C94.6735 11.7803 94.4871 11.5853 94.2705 11.49C94.0625 11.386 93.7938 11.334 93.4645 11.334H92.2295V14.246C92.2295 14.5147 92.1601 14.727 92.0215 14.883C91.8828 15.0303 91.6748 15.104 91.3975 15.104ZM92.2295 10.099H94.2575C94.8555 10.099 95.3061 9.97767 95.6095 9.735C95.9215 9.48367 96.0775 9.111 96.0775 8.617C96.0775 8.13167 95.9215 7.76767 95.6095 7.525C95.3061 7.27367 94.8555 7.148 94.2575 7.148H92.2295V10.099ZM102.29 15.13C101.57 15.13 100.951 14.9957 100.431 14.727C99.9105 14.4583 99.5075 14.077 99.2215 13.583C98.9442 13.089 98.8055 12.504 98.8055 11.828C98.8055 11.1693 98.9399 10.593 99.2085 10.099C99.4859 9.605 99.8629 9.21933 100.34 8.942C100.825 8.656 101.375 8.513 101.991 8.513C102.441 8.513 102.844 8.58667 103.2 8.734C103.564 8.88133 103.871 9.09367 104.123 9.371C104.383 9.64833 104.578 9.98633 104.708 10.385C104.846 10.775 104.916 11.217 104.916 11.711C104.916 11.867 104.859 11.9883 104.747 12.075C104.643 12.153 104.491 12.192 104.292 12.192H100.119V11.256H103.772L103.564 11.451C103.564 11.0523 103.503 10.7187 103.382 10.45C103.269 10.1813 103.1 9.97767 102.875 9.839C102.658 9.69167 102.385 9.618 102.056 9.618C101.692 9.618 101.38 9.70467 101.12 9.878C100.868 10.0427 100.673 10.281 100.535 10.593C100.405 10.8963 100.34 11.2603 100.34 11.685V11.776C100.34 12.4867 100.504 13.0197 100.834 13.375C101.172 13.7217 101.666 13.895 102.316 13.895C102.541 13.895 102.792 13.869 103.07 13.817C103.356 13.7563 103.624 13.6567 103.876 13.518C104.058 13.414 104.218 13.3707 104.357 13.388C104.495 13.3967 104.604 13.4443 104.682 13.531C104.768 13.6177 104.82 13.726 104.838 13.856C104.855 13.9773 104.829 14.103 104.76 14.233C104.699 14.363 104.591 14.4757 104.435 14.571C104.131 14.7617 103.78 14.9047 103.382 15C102.992 15.0867 102.628 15.13 102.29 15.13ZM105.422 17.457C105.232 17.4743 105.076 17.444 104.954 17.366C104.833 17.2967 104.751 17.2057 104.707 17.093C104.655 16.9803 104.638 16.8633 104.655 16.742C104.673 16.6207 104.725 16.5123 104.811 16.417C104.889 16.3303 104.998 16.2827 105.136 16.274C105.526 16.2393 105.808 16.1267 105.981 15.936C106.163 15.754 106.254 15.4723 106.254 15.091V9.358C106.254 9.08933 106.324 8.88567 106.462 8.747C106.61 8.60833 106.813 8.539 107.073 8.539C107.333 8.539 107.533 8.60833 107.671 8.747C107.81 8.88567 107.879 9.08933 107.879 9.358V14.948C107.879 15.5027 107.788 15.9577 107.606 16.313C107.433 16.6683 107.164 16.937 106.8 17.119C106.445 17.301 105.986 17.4137 105.422 17.457ZM107.06 7.343C106.757 7.343 106.519 7.26933 106.345 7.122C106.181 6.966 106.098 6.75367 106.098 6.485C106.098 6.20767 106.181 5.99533 106.345 5.848C106.519 5.70067 106.757 5.627 107.06 5.627C107.372 5.627 107.611 5.70067 107.775 5.848C107.94 5.99533 108.022 6.20767 108.022 6.485C108.022 6.75367 107.94 6.966 107.775 7.122C107.611 7.26933 107.372 7.343 107.06 7.343ZM112.7 15.13C111.98 15.13 111.361 14.9957 110.841 14.727C110.321 14.4583 109.918 14.077 109.632 13.583C109.354 13.089 109.216 12.504 109.216 11.828C109.216 11.1693 109.35 10.593 109.619 10.099C109.896 9.605 110.273 9.21933 110.75 8.942C111.235 8.656 111.785 8.513 112.401 8.513C112.851 8.513 113.254 8.58667 113.61 8.734C113.974 8.88133 114.281 9.09367 114.533 9.371C114.793 9.64833 114.988 9.98633 115.118 10.385C115.256 10.775 115.326 11.217 115.326 11.711C115.326 11.867 115.269 11.9883 115.157 12.075C115.053 12.153 114.901 12.192 114.702 12.192H110.529V11.256H114.182L113.974 11.451C113.974 11.0523 113.913 10.7187 113.792 10.45C113.679 10.1813 113.51 9.97767 113.285 9.839C113.068 9.69167 112.795 9.618 112.466 9.618C112.102 9.618 111.79 9.70467 111.53 9.878C111.278 10.0427 111.083 10.281 110.945 10.593C110.815 10.8963 110.75 11.2603 110.75 11.685V11.776C110.75 12.4867 110.914 13.0197 111.244 13.375C111.582 13.7217 112.076 13.895 112.726 13.895C112.951 13.895 113.202 13.869 113.48 13.817C113.766 13.7563 114.034 13.6567 114.286 13.518C114.468 13.414 114.628 13.3707 114.767 13.388C114.905 13.3967 115.014 13.4443 115.092 13.531C115.178 13.6177 115.23 13.726 115.248 13.856C115.265 13.9773 115.239 14.103 115.17 14.233C115.109 14.363 115.001 14.4757 114.845 14.571C114.541 14.7617 114.19 14.9047 113.792 15C113.402 15.0867 113.038 15.13 112.7 15.13ZM119.551 15.13C118.883 15.13 118.303 14.9957 117.809 14.727C117.315 14.4497 116.933 14.0597 116.665 13.557C116.396 13.0543 116.262 12.465 116.262 11.789C116.262 11.2777 116.335 10.8227 116.483 10.424C116.639 10.0167 116.86 9.67433 117.146 9.397C117.432 9.111 117.778 8.89433 118.186 8.747C118.593 8.591 119.048 8.513 119.551 8.513C119.837 8.513 120.144 8.552 120.474 8.63C120.812 8.708 121.128 8.838 121.423 9.02C121.561 9.10667 121.652 9.21067 121.696 9.332C121.739 9.45333 121.748 9.579 121.722 9.709C121.696 9.83033 121.639 9.93867 121.553 10.034C121.475 10.1207 121.375 10.177 121.254 10.203C121.132 10.2203 120.998 10.19 120.851 10.112C120.66 9.99933 120.465 9.917 120.266 9.865C120.066 9.80433 119.876 9.774 119.694 9.774C119.408 9.774 119.156 9.82167 118.94 9.917C118.723 10.0037 118.537 10.1337 118.381 10.307C118.233 10.4717 118.121 10.6797 118.043 10.931C117.965 11.1823 117.926 11.4727 117.926 11.802C117.926 12.4433 118.077 12.9503 118.381 13.323C118.693 13.687 119.13 13.869 119.694 13.869C119.876 13.869 120.062 13.843 120.253 13.791C120.452 13.739 120.651 13.6567 120.851 13.544C120.998 13.466 121.128 13.44 121.241 13.466C121.362 13.492 121.462 13.5527 121.54 13.648C121.618 13.7347 121.665 13.843 121.683 13.973C121.7 14.0943 121.683 14.2157 121.631 14.337C121.587 14.4583 121.501 14.558 121.371 14.636C121.085 14.8093 120.781 14.935 120.461 15.013C120.14 15.091 119.837 15.13 119.551 15.13ZM125.682 15.13C125.118 15.13 124.646 15.0347 124.265 14.844C123.892 14.6533 123.615 14.376 123.433 14.012C123.251 13.6393 123.16 13.18 123.16 12.634V9.865H122.484C122.276 9.865 122.115 9.813 122.003 9.709C121.89 9.59633 121.834 9.44467 121.834 9.254C121.834 9.05467 121.89 8.903 122.003 8.799C122.115 8.695 122.276 8.643 122.484 8.643H123.16V7.46C123.16 7.19133 123.229 6.98767 123.368 6.849C123.515 6.71033 123.719 6.641 123.979 6.641C124.239 6.641 124.438 6.71033 124.577 6.849C124.715 6.98767 124.785 7.19133 124.785 7.46V8.643H126.163C126.371 8.643 126.531 8.695 126.644 8.799C126.756 8.903 126.813 9.05467 126.813 9.254C126.813 9.44467 126.756 9.59633 126.644 9.709C126.531 9.813 126.371 9.865 126.163 9.865H124.785V12.543C124.785 12.959 124.876 13.271 125.058 13.479C125.24 13.687 125.534 13.791 125.942 13.791C126.089 13.791 126.219 13.778 126.332 13.752C126.444 13.726 126.544 13.7087 126.631 13.7C126.735 13.6913 126.821 13.726 126.891 13.804C126.96 13.8733 126.995 14.0207 126.995 14.246C126.995 14.4193 126.964 14.5753 126.904 14.714C126.852 14.844 126.752 14.935 126.605 14.987C126.492 15.0217 126.345 15.052 126.163 15.078C125.981 15.1127 125.82 15.13 125.682 15.13ZM130.829 15.13C130.109 15.13 129.49 14.9957 128.97 14.727C128.45 14.4583 128.047 14.077 127.761 13.583C127.483 13.089 127.345 12.504 127.345 11.828C127.345 11.1693 127.479 10.593 127.748 10.099C128.025 9.605 128.402 9.21933 128.879 8.942C129.364 8.656 129.914 8.513 130.53 8.513C130.98 8.513 131.383 8.58667 131.739 8.734C132.103 8.88133 132.41 9.09367 132.662 9.371C132.922 9.64833 133.117 9.98633 133.247 10.385C133.385 10.775 133.455 11.217 133.455 11.711C133.455 11.867 133.398 11.9883 133.286 12.075C133.182 12.153 133.03 12.192 132.831 12.192H128.658V11.256H132.311L132.103 11.451C132.103 11.0523 132.042 10.7187 131.921 10.45C131.808 10.1813 131.639 9.97767 131.414 9.839C131.197 9.69167 130.924 9.618 130.595 9.618C130.231 9.618 129.919 9.70467 129.659 9.878C129.407 10.0427 129.212 10.281 129.074 10.593C128.944 10.8963 128.879 11.2603 128.879 11.685V11.776C128.879 12.4867 129.043 13.0197 129.373 13.375C129.711 13.7217 130.205 13.895 130.855 13.895C131.08 13.895 131.331 13.869 131.609 13.817C131.895 13.7563 132.163 13.6567 132.415 13.518C132.597 13.414 132.757 13.3707 132.896 13.388C133.034 13.3967 133.143 13.4443 133.221 13.531C133.307 13.6177 133.359 13.726 133.377 13.856C133.394 13.9773 133.368 14.103 133.299 14.233C133.238 14.363 133.13 14.4757 132.974 14.571C132.67 14.7617 132.319 14.9047 131.921 15C131.531 15.0867 131.167 15.13 130.829 15.13ZM137.185 15.13C136.631 15.13 136.141 14.9957 135.716 14.727C135.3 14.4583 134.975 14.077 134.741 13.583C134.507 13.0803 134.39 12.491 134.39 11.815C134.39 11.1303 134.507 10.5453 134.741 10.06C134.975 9.566 135.3 9.18467 135.716 8.916C136.141 8.64733 136.631 8.513 137.185 8.513C137.714 8.513 138.173 8.643 138.563 8.903C138.962 9.163 139.231 9.50533 139.369 9.93H139.226V6.55C139.226 6.28133 139.296 6.07767 139.434 5.939C139.573 5.80033 139.772 5.731 140.032 5.731C140.292 5.731 140.492 5.80033 140.63 5.939C140.778 6.07767 140.851 6.28133 140.851 6.55V14.272C140.851 14.5407 140.782 14.7487 140.643 14.896C140.505 15.0347 140.305 15.104 140.045 15.104C139.785 15.104 139.586 15.0347 139.447 14.896C139.309 14.7487 139.239 14.5407 139.239 14.272V13.258L139.382 13.648C139.252 14.0987 138.988 14.4583 138.589 14.727C138.191 14.9957 137.723 15.13 137.185 15.13ZM137.64 13.895C137.961 13.895 138.243 13.817 138.485 13.661C138.728 13.505 138.914 13.2753 139.044 12.972C139.183 12.66 139.252 12.2743 139.252 11.815C139.252 11.1217 139.105 10.606 138.81 10.268C138.516 9.92133 138.126 9.748 137.64 9.748C137.32 9.748 137.038 9.826 136.795 9.982C136.553 10.1293 136.362 10.359 136.223 10.671C136.093 10.9743 136.028 11.3557 136.028 11.815C136.028 12.4997 136.176 13.0197 136.47 13.375C136.765 13.7217 137.155 13.895 137.64 13.895Z" fill="white"/>
<path d="M165 0L173 6H165V0Z" fill="url(#paint0_linear_210_11479)"/>
<path d="M8 0L0 6H8V0Z" fill="url(#paint1_linear_210_11479)"/>
<defs>
<linearGradient id="paint0_linear_210_11479" x1="169" y1="0" x2="169" y2="6" gradientUnits="userSpaceOnUse">
<stop stop-color="#863030"/>
<stop offset="1" stop-color="#FF6161"/>
</linearGradient>
<linearGradient id="paint1_linear_210_11479" x1="4" y1="0" x2="4" y2="6" gradientUnits="userSpaceOnUse">
<stop stop-color="#863030"/>
<stop offset="1" stop-color="#FF6161"/>
</linearGradient>
</defs>
</svg>
