<svg width="173" height="22" viewBox="0 0 173 22" fill="none" xmlns="http://www.w3.org/2000/svg">
<path d="M8 0H165V12C165 17.5228 160.523 22 155 22H18C12.4771 22 8 17.5228 8 12V0Z" fill="#65BDFF"/>
<path d="M38.8198 15.104C38.5511 15.104 38.3431 15.0303 38.1958 14.883C38.0571 14.727 37.9878 14.5147 37.9878 14.246V6.68C37.9878 6.40267 38.0615 6.19467 38.2088 6.056C38.3561 5.90867 38.5641 5.835 38.8328 5.835H41.9658C42.9711 5.835 43.7468 6.08633 44.2928 6.589C44.8388 7.09167 45.1118 7.79367 45.1118 8.695C45.1118 9.59633 44.8388 10.3027 44.2928 10.814C43.7468 11.3167 42.9711 11.568 41.9658 11.568H39.6518V14.246C39.6518 14.5147 39.5825 14.727 39.4438 14.883C39.3051 15.0303 39.0971 15.104 38.8198 15.104ZM39.6518 10.255H41.7058C42.2951 10.255 42.7415 10.125 43.0448 9.865C43.3482 9.59633 43.4998 9.20633 43.4998 8.695C43.4998 8.18367 43.3482 7.798 43.0448 7.538C42.7415 7.278 42.2951 7.148 41.7058 7.148H39.6518V10.255ZM47.0173 15.104C46.7487 15.104 46.5407 15.0347 46.3933 14.896C46.2547 14.7487 46.1853 14.5407 46.1853 14.272V9.358C46.1853 9.08933 46.2547 8.88567 46.3933 8.747C46.532 8.60833 46.727 8.539 46.9783 8.539C47.2297 8.539 47.4247 8.60833 47.5633 8.747C47.702 8.88567 47.7713 9.08933 47.7713 9.358V10.177H47.6413C47.7627 9.657 48.001 9.26267 48.3563 8.994C48.7117 8.72533 49.184 8.565 49.7733 8.513C49.9553 8.49567 50.0983 8.54333 50.2023 8.656C50.315 8.76 50.38 8.92467 50.3973 9.15C50.4147 9.36667 50.3627 9.54433 50.2413 9.683C50.1287 9.813 49.9553 9.891 49.7213 9.917L49.4353 9.943C48.9067 9.995 48.508 10.1597 48.2393 10.437C47.9707 10.7057 47.8363 11.087 47.8363 11.581V14.272C47.8363 14.5407 47.767 14.7487 47.6283 14.896C47.4897 15.0347 47.286 15.104 47.0173 15.104ZM54.0736 15.13C53.4149 15.13 52.8429 14.9957 52.3576 14.727C51.8723 14.4583 51.4953 14.077 51.2266 13.583C50.9579 13.0803 50.8236 12.491 50.8236 11.815C50.8236 11.3037 50.8973 10.8487 51.0446 10.45C51.2006 10.0427 51.4216 9.696 51.7076 9.41C51.9936 9.11533 52.3359 8.89433 52.7346 8.747C53.1333 8.591 53.5796 8.513 54.0736 8.513C54.7323 8.513 55.3043 8.64733 55.7896 8.916C56.2749 9.18467 56.6519 9.566 56.9206 10.06C57.1893 10.554 57.3236 11.139 57.3236 11.815C57.3236 12.3263 57.2456 12.7857 57.0896 13.193C56.9423 13.6003 56.7256 13.9513 56.4396 14.246C56.1536 14.532 55.8113 14.753 55.4126 14.909C55.0139 15.0563 54.5676 15.13 54.0736 15.13ZM54.0736 13.895C54.3943 13.895 54.6759 13.817 54.9186 13.661C55.1613 13.505 55.3476 13.2753 55.4776 12.972C55.6163 12.66 55.6856 12.2743 55.6856 11.815C55.6856 11.1217 55.5383 10.606 55.2436 10.268C54.9489 9.92133 54.5589 9.748 54.0736 9.748C53.7529 9.748 53.4713 9.826 53.2286 9.982C52.9859 10.1293 52.7953 10.359 52.6566 10.671C52.5266 10.9743 52.4616 11.3557 52.4616 11.815C52.4616 12.4997 52.6089 13.0197 52.9036 13.375C53.1983 13.7217 53.5883 13.895 54.0736 13.895ZM59.4708 17.444C59.2108 17.444 59.0115 17.3747 58.8728 17.236C58.7342 17.0973 58.6648 16.8937 58.6648 16.625V9.358C58.6648 9.08933 58.7342 8.88567 58.8728 8.747C59.0115 8.60833 59.2065 8.539 59.4578 8.539C59.7178 8.539 59.9172 8.60833 60.0558 8.747C60.1945 8.88567 60.2638 9.08933 60.2638 9.358V10.372L60.1208 9.982C60.2508 9.54 60.5152 9.18467 60.9138 8.916C61.3212 8.64733 61.7935 8.513 62.3308 8.513C62.8855 8.513 63.3708 8.64733 63.7868 8.916C64.2115 9.18467 64.5408 9.566 64.7748 10.06C65.0088 10.5453 65.1258 11.1303 65.1258 11.815C65.1258 12.491 65.0088 13.0803 64.7748 13.583C64.5408 14.077 64.2158 14.4583 63.7998 14.727C63.3838 14.9957 62.8942 15.13 62.3308 15.13C61.8022 15.13 61.3385 15 60.9398 14.74C60.5412 14.4713 60.2725 14.1247 60.1338 13.7H60.2898V16.625C60.2898 16.8937 60.2162 17.0973 60.0688 17.236C59.9302 17.3747 59.7308 17.444 59.4708 17.444ZM61.8758 13.895C62.1965 13.895 62.4782 13.817 62.7208 13.661C62.9635 13.505 63.1498 13.2753 63.2798 12.972C63.4185 12.66 63.4878 12.2743 63.4878 11.815C63.4878 11.1217 63.3405 10.606 63.0458 10.268C62.7512 9.92133 62.3612 9.748 61.8758 9.748C61.5552 9.748 61.2735 9.826 61.0308 9.982C60.7882 10.1293 60.5975 10.359 60.4588 10.671C60.3288 10.9743 60.2638 11.3557 60.2638 11.815C60.2638 12.4997 60.4112 13.0197 60.7058 13.375C61.0005 13.7217 61.3905 13.895 61.8758 13.895ZM69.3587 15.13C68.7001 15.13 68.1281 14.9957 67.6427 14.727C67.1574 14.4583 66.7804 14.077 66.5117 13.583C66.2431 13.0803 66.1087 12.491 66.1087 11.815C66.1087 11.3037 66.1824 10.8487 66.3297 10.45C66.4857 10.0427 66.7067 9.696 66.9927 9.41C67.2787 9.11533 67.6211 8.89433 68.0197 8.747C68.4184 8.591 68.8647 8.513 69.3587 8.513C70.0174 8.513 70.5894 8.64733 71.0747 8.916C71.5601 9.18467 71.9371 9.566 72.2057 10.06C72.4744 10.554 72.6087 11.139 72.6087 11.815C72.6087 12.3263 72.5307 12.7857 72.3747 13.193C72.2274 13.6003 72.0107 13.9513 71.7247 14.246C71.4387 14.532 71.0964 14.753 70.6977 14.909C70.2991 15.0563 69.8527 15.13 69.3587 15.13ZM69.3587 13.895C69.6794 13.895 69.9611 13.817 70.2037 13.661C70.4464 13.505 70.6327 13.2753 70.7627 12.972C70.9014 12.66 70.9707 12.2743 70.9707 11.815C70.9707 11.1217 70.8234 10.606 70.5287 10.268C70.2341 9.92133 69.8441 9.748 69.3587 9.748C69.0381 9.748 68.7564 9.826 68.5137 9.982C68.2711 10.1293 68.0804 10.359 67.9417 10.671C67.8117 10.9743 67.7467 11.3557 67.7467 11.815C67.7467 12.4997 67.8941 13.0197 68.1887 13.375C68.4834 13.7217 68.8734 13.895 69.3587 13.895ZM76.277 15.13C75.9043 15.13 75.51 15.091 75.094 15.013C74.678 14.935 74.3053 14.8007 73.976 14.61C73.8373 14.5233 73.7376 14.4237 73.677 14.311C73.625 14.1897 73.6033 14.0727 73.612 13.96C73.6293 13.8387 73.6726 13.7347 73.742 13.648C73.82 13.5613 73.9153 13.505 74.028 13.479C74.1493 13.453 74.2793 13.4747 74.418 13.544C74.7646 13.7087 75.0896 13.8257 75.393 13.895C75.6963 13.9557 75.9953 13.986 76.29 13.986C76.706 13.986 77.0136 13.9167 77.213 13.778C77.421 13.6307 77.525 13.44 77.525 13.206C77.525 13.0067 77.4556 12.855 77.317 12.751C77.187 12.6383 76.9876 12.556 76.719 12.504L75.419 12.257C74.8816 12.153 74.47 11.958 74.184 11.672C73.9066 11.3773 73.768 11.0003 73.768 10.541C73.768 10.125 73.8806 9.76533 74.106 9.462C74.34 9.15867 74.6606 8.92467 75.068 8.76C75.4753 8.59533 75.9433 8.513 76.472 8.513C76.8533 8.513 77.2086 8.55633 77.538 8.643C77.876 8.721 78.201 8.84667 78.513 9.02C78.643 9.08933 78.7296 9.18033 78.773 9.293C78.825 9.40567 78.838 9.52267 78.812 9.644C78.786 9.75667 78.734 9.86067 78.656 9.956C78.578 10.0427 78.4783 10.099 78.357 10.125C78.2443 10.1423 78.1143 10.1163 77.967 10.047C77.6983 9.90833 77.4383 9.80867 77.187 9.748C76.9443 9.68733 76.7103 9.657 76.485 9.657C76.0603 9.657 75.744 9.73067 75.536 9.878C75.3366 10.0253 75.237 10.2203 75.237 10.463C75.237 10.645 75.2976 10.7967 75.419 10.918C75.5403 11.0393 75.7266 11.1217 75.978 11.165L77.278 11.412C77.8413 11.516 78.266 11.7067 78.552 11.984C78.8466 12.2613 78.994 12.634 78.994 13.102C78.994 13.7347 78.747 14.233 78.253 14.597C77.759 14.9523 77.1003 15.13 76.277 15.13ZM82.3906 15.13C81.9313 15.13 81.5196 15.0433 81.1556 14.87C80.8003 14.688 80.5186 14.4453 80.3106 14.142C80.1113 13.8387 80.0116 13.4963 80.0116 13.115C80.0116 12.647 80.133 12.2787 80.3756 12.01C80.6183 11.7327 81.0126 11.5333 81.5586 11.412C82.1046 11.2907 82.837 11.23 83.7556 11.23H84.4056V12.166H83.7686C83.2313 12.166 82.8023 12.192 82.4816 12.244C82.161 12.296 81.9313 12.387 81.7926 12.517C81.6626 12.6383 81.5976 12.8117 81.5976 13.037C81.5976 13.323 81.6973 13.557 81.8966 13.739C82.096 13.921 82.3733 14.012 82.7286 14.012C83.0146 14.012 83.266 13.947 83.4826 13.817C83.708 13.6783 83.8856 13.492 84.0156 13.258C84.1456 13.024 84.2106 12.7553 84.2106 12.452V10.957C84.2106 10.5237 84.1153 10.2117 83.9246 10.021C83.734 9.83033 83.4133 9.735 82.9626 9.735C82.7113 9.735 82.4383 9.76533 82.1436 9.826C81.8576 9.88667 81.5543 9.99067 81.2336 10.138C81.069 10.216 80.9216 10.2377 80.7916 10.203C80.6703 10.1683 80.575 10.099 80.5056 9.995C80.4363 9.88233 80.4016 9.761 80.4016 9.631C80.4016 9.501 80.4363 9.37533 80.5056 9.254C80.575 9.124 80.692 9.02867 80.8566 8.968C81.2553 8.80333 81.6366 8.68633 82.0006 8.617C82.3733 8.54767 82.7113 8.513 83.0146 8.513C83.6386 8.513 84.15 8.60833 84.5486 8.799C84.956 8.98967 85.2593 9.28 85.4586 9.67C85.658 10.0513 85.7576 10.5453 85.7576 11.152V14.272C85.7576 14.5407 85.6926 14.7487 85.5626 14.896C85.4326 15.0347 85.2463 15.104 85.0036 15.104C84.761 15.104 84.5703 15.0347 84.4316 14.896C84.3016 14.7487 84.2366 14.5407 84.2366 14.272V13.648H84.3406C84.28 13.9513 84.1586 14.2157 83.9766 14.441C83.8033 14.6577 83.5823 14.8267 83.3136 14.948C83.045 15.0693 82.7373 15.13 82.3906 15.13ZM89.578 15.13C88.8587 15.13 88.317 14.9263 87.953 14.519C87.589 14.103 87.407 13.4963 87.407 12.699V6.55C87.407 6.28133 87.4763 6.07767 87.615 5.939C87.7537 5.80033 87.953 5.731 88.213 5.731C88.473 5.731 88.6723 5.80033 88.811 5.939C88.9583 6.07767 89.032 6.28133 89.032 6.55V12.621C89.032 13.0197 89.1143 13.3143 89.279 13.505C89.4523 13.6957 89.695 13.791 90.007 13.791C90.0763 13.791 90.1413 13.791 90.202 13.791C90.2627 13.7823 90.3233 13.7737 90.384 13.765C90.5053 13.7477 90.5877 13.7823 90.631 13.869C90.6743 13.947 90.696 14.1117 90.696 14.363C90.696 14.5797 90.6527 14.7487 90.566 14.87C90.4793 14.9913 90.3363 15.065 90.137 15.091C90.0503 15.0997 89.9593 15.1083 89.864 15.117C89.7687 15.1257 89.6733 15.13 89.578 15.13ZM96.1277 15C95.8417 15 95.6207 14.9263 95.4647 14.779C95.3173 14.623 95.2437 14.402 95.2437 14.116V6.719C95.2437 6.433 95.3173 6.21633 95.4647 6.069C95.6207 5.913 95.8417 5.835 96.1277 5.835H98.6497C100.184 5.835 101.367 6.22933 102.199 7.018C103.039 7.80667 103.46 8.93767 103.46 10.411C103.46 11.1477 103.351 11.802 103.135 12.374C102.927 12.9373 102.615 13.414 102.199 13.804C101.791 14.194 101.289 14.493 100.691 14.701C100.101 14.9003 99.421 15 98.6497 15H96.1277ZM96.9077 13.622H98.5457C99.083 13.622 99.5467 13.557 99.9367 13.427C100.335 13.2883 100.665 13.089 100.925 12.829C101.193 12.5603 101.393 12.2267 101.523 11.828C101.653 11.4207 101.718 10.9483 101.718 10.411C101.718 9.33633 101.453 8.53467 100.925 8.006C100.396 7.47733 99.603 7.213 98.5457 7.213H96.9077V13.622ZM108.123 15.13C107.404 15.13 106.784 14.9957 106.264 14.727C105.744 14.4583 105.341 14.077 105.055 13.583C104.778 13.089 104.639 12.504 104.639 11.828C104.639 11.1693 104.773 10.593 105.042 10.099C105.319 9.605 105.696 9.21933 106.173 8.942C106.658 8.656 107.209 8.513 107.824 8.513C108.275 8.513 108.678 8.58667 109.033 8.734C109.397 8.88133 109.705 9.09367 109.956 9.371C110.216 9.64833 110.411 9.98633 110.541 10.385C110.68 10.775 110.749 11.217 110.749 11.711C110.749 11.867 110.693 11.9883 110.58 12.075C110.476 12.153 110.324 12.192 110.125 12.192H105.952V11.256H109.605L109.397 11.451C109.397 11.0523 109.336 10.7187 109.215 10.45C109.102 10.1813 108.933 9.97767 108.708 9.839C108.491 9.69167 108.218 9.618 107.889 9.618C107.525 9.618 107.213 9.70467 106.953 9.878C106.702 10.0427 106.507 10.281 106.368 10.593C106.238 10.8963 106.173 11.2603 106.173 11.685V11.776C106.173 12.4867 106.338 13.0197 106.667 13.375C107.005 13.7217 107.499 13.895 108.149 13.895C108.374 13.895 108.626 13.869 108.903 13.817C109.189 13.7563 109.458 13.6567 109.709 13.518C109.891 13.414 110.051 13.3707 110.19 13.388C110.329 13.3967 110.437 13.4443 110.515 13.531C110.602 13.6177 110.654 13.726 110.671 13.856C110.688 13.9773 110.662 14.103 110.593 14.233C110.532 14.363 110.424 14.4757 110.268 14.571C109.965 14.7617 109.614 14.9047 109.215 15C108.825 15.0867 108.461 15.13 108.123 15.13ZM114.923 15.13C114.359 15.13 113.887 15.0347 113.506 14.844C113.133 14.6533 112.856 14.376 112.674 14.012C112.492 13.6393 112.401 13.18 112.401 12.634V9.865H111.725C111.517 9.865 111.356 9.813 111.244 9.709C111.131 9.59633 111.075 9.44467 111.075 9.254C111.075 9.05467 111.131 8.903 111.244 8.799C111.356 8.695 111.517 8.643 111.725 8.643H112.401V7.46C112.401 7.19133 112.47 6.98767 112.609 6.849C112.756 6.71033 112.96 6.641 113.22 6.641C113.48 6.641 113.679 6.71033 113.818 6.849C113.956 6.98767 114.026 7.19133 114.026 7.46V8.643H115.404C115.612 8.643 115.772 8.695 115.885 8.799C115.997 8.903 116.054 9.05467 116.054 9.254C116.054 9.44467 115.997 9.59633 115.885 9.709C115.772 9.813 115.612 9.865 115.404 9.865H114.026V12.543C114.026 12.959 114.117 13.271 114.299 13.479C114.481 13.687 114.775 13.791 115.183 13.791C115.33 13.791 115.46 13.778 115.573 13.752C115.685 13.726 115.785 13.7087 115.872 13.7C115.976 13.6913 116.062 13.726 116.132 13.804C116.201 13.8733 116.236 14.0207 116.236 14.246C116.236 14.4193 116.205 14.5753 116.145 14.714C116.093 14.844 115.993 14.935 115.846 14.987C115.733 15.0217 115.586 15.052 115.404 15.078C115.222 15.1127 115.061 15.13 114.923 15.13ZM119.093 15.13C118.633 15.13 118.222 15.0433 117.858 14.87C117.502 14.688 117.221 14.4453 117.013 14.142C116.813 13.8387 116.714 13.4963 116.714 13.115C116.714 12.647 116.835 12.2787 117.078 12.01C117.32 11.7327 117.715 11.5333 118.261 11.412C118.807 11.2907 119.539 11.23 120.458 11.23H121.108V12.166H120.471C119.933 12.166 119.504 12.192 119.184 12.244C118.863 12.296 118.633 12.387 118.495 12.517C118.365 12.6383 118.3 12.8117 118.3 13.037C118.3 13.323 118.399 13.557 118.599 13.739C118.798 13.921 119.075 14.012 119.431 14.012C119.717 14.012 119.968 13.947 120.185 13.817C120.41 13.6783 120.588 13.492 120.718 13.258C120.848 13.024 120.913 12.7553 120.913 12.452V10.957C120.913 10.5237 120.817 10.2117 120.627 10.021C120.436 9.83033 120.115 9.735 119.665 9.735C119.413 9.735 119.14 9.76533 118.846 9.826C118.56 9.88667 118.256 9.99067 117.936 10.138C117.771 10.216 117.624 10.2377 117.494 10.203C117.372 10.1683 117.277 10.099 117.208 9.995C117.138 9.88233 117.104 9.761 117.104 9.631C117.104 9.501 117.138 9.37533 117.208 9.254C117.277 9.124 117.394 9.02867 117.559 8.968C117.957 8.80333 118.339 8.68633 118.703 8.617C119.075 8.54767 119.413 8.513 119.717 8.513C120.341 8.513 120.852 8.60833 121.251 8.799C121.658 8.98967 121.961 9.28 122.161 9.67C122.36 10.0513 122.46 10.5453 122.46 11.152V14.272C122.46 14.5407 122.395 14.7487 122.265 14.896C122.135 15.0347 121.948 15.104 121.706 15.104C121.463 15.104 121.272 15.0347 121.134 14.896C121.004 14.7487 120.939 14.5407 120.939 14.272V13.648H121.043C120.982 13.9513 120.861 14.2157 120.679 14.441C120.505 14.6577 120.284 14.8267 120.016 14.948C119.747 15.0693 119.439 15.13 119.093 15.13ZM124.915 15.091C124.655 15.091 124.456 15.013 124.317 14.857C124.178 14.701 124.109 14.4843 124.109 14.207V9.436C124.109 9.15 124.178 8.93333 124.317 8.786C124.456 8.63 124.655 8.552 124.915 8.552C125.175 8.552 125.374 8.63 125.513 8.786C125.66 8.93333 125.734 9.15 125.734 9.436V14.207C125.734 14.4843 125.665 14.701 125.526 14.857C125.387 15.013 125.184 15.091 124.915 15.091ZM124.915 7.343C124.612 7.343 124.373 7.26933 124.2 7.122C124.035 6.966 123.953 6.75367 123.953 6.485C123.953 6.20767 124.035 5.99533 124.2 5.848C124.373 5.70067 124.612 5.627 124.915 5.627C125.227 5.627 125.465 5.70067 125.63 5.848C125.795 5.99533 125.877 6.20767 125.877 6.485C125.877 6.75367 125.795 6.966 125.63 7.122C125.465 7.26933 125.227 7.343 124.915 7.343ZM129.594 15.13C128.874 15.13 128.333 14.9263 127.969 14.519C127.605 14.103 127.423 13.4963 127.423 12.699V6.55C127.423 6.28133 127.492 6.07767 127.631 5.939C127.769 5.80033 127.969 5.731 128.229 5.731C128.489 5.731 128.688 5.80033 128.827 5.939C128.974 6.07767 129.048 6.28133 129.048 6.55V12.621C129.048 13.0197 129.13 13.3143 129.295 13.505C129.468 13.6957 129.711 13.791 130.023 13.791C130.092 13.791 130.157 13.791 130.218 13.791C130.278 13.7823 130.339 13.7737 130.4 13.765C130.521 13.7477 130.603 13.7823 130.647 13.869C130.69 13.947 130.712 14.1117 130.712 14.363C130.712 14.5797 130.668 14.7487 130.582 14.87C130.495 14.9913 130.352 15.065 130.153 15.091C130.066 15.0997 129.975 15.1083 129.88 15.117C129.784 15.1257 129.689 15.13 129.594 15.13ZM133.838 15.13C133.465 15.13 133.071 15.091 132.655 15.013C132.239 14.935 131.866 14.8007 131.537 14.61C131.398 14.5233 131.298 14.4237 131.238 14.311C131.186 14.1897 131.164 14.0727 131.173 13.96C131.19 13.8387 131.233 13.7347 131.303 13.648C131.381 13.5613 131.476 13.505 131.589 13.479C131.71 13.453 131.84 13.4747 131.979 13.544C132.325 13.7087 132.65 13.8257 132.954 13.895C133.257 13.9557 133.556 13.986 133.851 13.986C134.267 13.986 134.574 13.9167 134.774 13.778C134.982 13.6307 135.086 13.44 135.086 13.206C135.086 13.0067 135.016 12.855 134.878 12.751C134.748 12.6383 134.548 12.556 134.28 12.504L132.98 12.257C132.442 12.153 132.031 11.958 131.745 11.672C131.467 11.3773 131.329 11.0003 131.329 10.541C131.329 10.125 131.441 9.76533 131.667 9.462C131.901 9.15867 132.221 8.92467 132.629 8.76C133.036 8.59533 133.504 8.513 134.033 8.513C134.414 8.513 134.769 8.55633 135.099 8.643C135.437 8.721 135.762 8.84667 136.074 9.02C136.204 9.08933 136.29 9.18033 136.334 9.293C136.386 9.40567 136.399 9.52267 136.373 9.644C136.347 9.75667 136.295 9.86067 136.217 9.956C136.139 10.0427 136.039 10.099 135.918 10.125C135.805 10.1423 135.675 10.1163 135.528 10.047C135.259 9.90833 134.999 9.80867 134.748 9.748C134.505 9.68733 134.271 9.657 134.046 9.657C133.621 9.657 133.305 9.73067 133.097 9.878C132.897 10.0253 132.798 10.2203 132.798 10.463C132.798 10.645 132.858 10.7967 132.98 10.918C133.101 11.0393 133.287 11.1217 133.539 11.165L134.839 11.412C135.402 11.516 135.827 11.7067 136.113 11.984C136.407 12.2613 136.555 12.634 136.555 13.102C136.555 13.7347 136.308 14.233 135.814 14.597C135.32 14.9523 134.661 15.13 133.838 15.13Z" fill="white"/>
<path d="M165 0L173 6H165V0Z" fill="url(#paint0_linear_210_11462)"/>
<path d="M8 0L0 6H8V0Z" fill="url(#paint1_linear_210_11462)"/>
<defs>
<linearGradient id="paint0_linear_210_11462" x1="169" y1="0" x2="169" y2="6" gradientUnits="userSpaceOnUse">
<stop stop-color="#314D62"/>
<stop offset="1" stop-color="#65BDFF"/>
</linearGradient>
<linearGradient id="paint1_linear_210_11462" x1="4" y1="0" x2="4" y2="6" gradientUnits="userSpaceOnUse">
<stop stop-color="#314D62"/>
<stop offset="1" stop-color="#65BDFF"/>
</linearGradient>
</defs>
</svg>
