<svg width="173" height="22" viewBox="0 0 173 22" fill="none" xmlns="http://www.w3.org/2000/svg">
<path d="M8 0H165V12C165 17.5228 160.523 22 155 22H18C12.4771 22 8 17.5228 8 12V0Z" fill="#FF915D"/>
<path d="M49.5223 16.469C49.6437 16.6597 49.6913 16.833 49.6653 16.989C49.6393 17.145 49.57 17.275 49.4573 17.379C49.3447 17.4917 49.206 17.561 49.0413 17.587C48.8767 17.6217 48.712 17.6043 48.5473 17.535C48.3827 17.4743 48.244 17.353 48.1313 17.171L47.2343 15.728C47.113 15.5287 46.9483 15.377 46.7403 15.273C46.541 15.1777 46.294 15.13 45.9993 15.13L47.2863 14.623C47.6937 14.623 48.0187 14.6967 48.2613 14.844C48.504 14.9827 48.738 15.2297 48.9633 15.585L49.5223 16.469ZM46.0123 15.13C45.1283 15.13 44.3527 14.935 43.6853 14.545C43.0267 14.155 42.5153 13.609 42.1513 12.907C41.7873 12.1963 41.6053 11.3643 41.6053 10.411C41.6053 9.69167 41.7093 9.046 41.9173 8.474C42.1253 7.89333 42.42 7.39933 42.8013 6.992C43.1913 6.576 43.655 6.25967 44.1923 6.043C44.7383 5.81767 45.345 5.705 46.0123 5.705C46.905 5.705 47.6807 5.9 48.3393 6.29C48.998 6.67133 49.5093 7.213 49.8733 7.915C50.2373 8.617 50.4193 9.44467 50.4193 10.398C50.4193 11.1173 50.3153 11.7673 50.1073 12.348C49.8993 12.9287 49.6003 13.427 49.2103 13.843C48.829 14.259 48.3653 14.5797 47.8193 14.805C47.282 15.0217 46.6797 15.13 46.0123 15.13ZM46.0123 13.7C46.5757 13.7 47.0523 13.57 47.4423 13.31C47.841 13.05 48.1443 12.673 48.3523 12.179C48.569 11.685 48.6773 11.0957 48.6773 10.411C48.6773 9.371 48.4433 8.565 47.9753 7.993C47.516 7.421 46.8617 7.135 46.0123 7.135C45.4577 7.135 44.981 7.265 44.5823 7.525C44.1837 7.77633 43.876 8.149 43.6593 8.643C43.4513 9.12833 43.3473 9.71767 43.3473 10.411C43.3473 11.4423 43.5813 12.2483 44.0493 12.829C44.5173 13.4097 45.1717 13.7 46.0123 13.7ZM54.2564 15.13C53.7277 15.13 53.29 15.0347 52.9434 14.844C52.5967 14.6447 52.3367 14.35 52.1634 13.96C51.9987 13.57 51.9164 13.0847 51.9164 12.504V9.358C51.9164 9.08067 51.9857 8.877 52.1244 8.747C52.263 8.60833 52.4624 8.539 52.7224 8.539C52.9824 8.539 53.1817 8.60833 53.3204 8.747C53.4677 8.877 53.5414 9.08067 53.5414 9.358V12.53C53.5414 12.9807 53.6324 13.3143 53.8144 13.531C53.9964 13.7477 54.2867 13.856 54.6854 13.856C55.1187 13.856 55.474 13.7087 55.7514 13.414C56.0287 13.1107 56.1674 12.712 56.1674 12.218V9.358C56.1674 9.08067 56.2367 8.877 56.3754 8.747C56.514 8.60833 56.7134 8.539 56.9734 8.539C57.2334 8.539 57.4327 8.60833 57.5714 8.747C57.7187 8.877 57.7924 9.08067 57.7924 9.358V14.272C57.7924 14.8267 57.528 15.104 56.9994 15.104C56.748 15.104 56.553 15.0347 56.4144 14.896C56.2757 14.7487 56.2064 14.5407 56.2064 14.272V13.284L56.3884 13.674C56.2064 14.142 55.929 14.5017 55.5564 14.753C55.1924 15.0043 54.759 15.13 54.2564 15.13ZM62.3827 15.13C61.724 15.13 61.152 14.9957 60.6667 14.727C60.1813 14.4583 59.8043 14.077 59.5357 13.583C59.267 13.0803 59.1327 12.491 59.1327 11.815C59.1327 11.3037 59.2063 10.8487 59.3537 10.45C59.5097 10.0427 59.7307 9.696 60.0167 9.41C60.3027 9.11533 60.645 8.89433 61.0437 8.747C61.4423 8.591 61.8887 8.513 62.3827 8.513C63.0413 8.513 63.6133 8.64733 64.0987 8.916C64.584 9.18467 64.961 9.566 65.2297 10.06C65.4983 10.554 65.6327 11.139 65.6327 11.815C65.6327 12.3263 65.5547 12.7857 65.3987 13.193C65.2513 13.6003 65.0347 13.9513 64.7487 14.246C64.4627 14.532 64.1203 14.753 63.7217 14.909C63.323 15.0563 62.8767 15.13 62.3827 15.13ZM62.3827 13.895C62.7033 13.895 62.985 13.817 63.2277 13.661C63.4703 13.505 63.6567 13.2753 63.7867 12.972C63.9253 12.66 63.9947 12.2743 63.9947 11.815C63.9947 11.1217 63.8473 10.606 63.5527 10.268C63.258 9.92133 62.868 9.748 62.3827 9.748C62.062 9.748 61.7803 9.826 61.5377 9.982C61.295 10.1293 61.1043 10.359 60.9657 10.671C60.8357 10.9743 60.7707 11.3557 60.7707 11.815C60.7707 12.4997 60.918 13.0197 61.2127 13.375C61.5073 13.7217 61.8973 13.895 62.3827 13.895ZM69.8224 15.13C69.2591 15.13 68.7868 15.0347 68.4054 14.844C68.0328 14.6533 67.7554 14.376 67.5734 14.012C67.3914 13.6393 67.3004 13.18 67.3004 12.634V9.865H66.6244C66.4164 9.865 66.2561 9.813 66.1434 9.709C66.0308 9.59633 65.9744 9.44467 65.9744 9.254C65.9744 9.05467 66.0308 8.903 66.1434 8.799C66.2561 8.695 66.4164 8.643 66.6244 8.643H67.3004V7.46C67.3004 7.19133 67.3698 6.98767 67.5084 6.849C67.6558 6.71033 67.8594 6.641 68.1194 6.641C68.3794 6.641 68.5788 6.71033 68.7174 6.849C68.8561 6.98767 68.9254 7.19133 68.9254 7.46V8.643H70.3034C70.5114 8.643 70.6718 8.695 70.7844 8.799C70.8971 8.903 70.9534 9.05467 70.9534 9.254C70.9534 9.44467 70.8971 9.59633 70.7844 9.709C70.6718 9.813 70.5114 9.865 70.3034 9.865H68.9254V12.543C68.9254 12.959 69.0164 13.271 69.1984 13.479C69.3804 13.687 69.6751 13.791 70.0824 13.791C70.2298 13.791 70.3598 13.778 70.4724 13.752C70.5851 13.726 70.6848 13.7087 70.7714 13.7C70.8754 13.6913 70.9621 13.726 71.0314 13.804C71.1008 13.8733 71.1354 14.0207 71.1354 14.246C71.1354 14.4193 71.1051 14.5753 71.0444 14.714C70.9924 14.844 70.8928 14.935 70.7454 14.987C70.6328 15.0217 70.4854 15.052 70.3034 15.078C70.1214 15.1127 69.9611 15.13 69.8224 15.13ZM73.9927 15.13C73.5334 15.13 73.1217 15.0433 72.7577 14.87C72.4024 14.688 72.1207 14.4453 71.9127 14.142C71.7134 13.8387 71.6137 13.4963 71.6137 13.115C71.6137 12.647 71.735 12.2787 71.9777 12.01C72.2204 11.7327 72.6147 11.5333 73.1607 11.412C73.7067 11.2907 74.439 11.23 75.3577 11.23H76.0077V12.166H75.3707C74.8334 12.166 74.4044 12.192 74.0837 12.244C73.763 12.296 73.5334 12.387 73.3947 12.517C73.2647 12.6383 73.1997 12.8117 73.1997 13.037C73.1997 13.323 73.2994 13.557 73.4987 13.739C73.698 13.921 73.9754 14.012 74.3307 14.012C74.6167 14.012 74.868 13.947 75.0847 13.817C75.31 13.6783 75.4877 13.492 75.6177 13.258C75.7477 13.024 75.8127 12.7553 75.8127 12.452V10.957C75.8127 10.5237 75.7174 10.2117 75.5267 10.021C75.336 9.83033 75.0154 9.735 74.5647 9.735C74.3134 9.735 74.0404 9.76533 73.7457 9.826C73.4597 9.88667 73.1564 9.99067 72.8357 10.138C72.671 10.216 72.5237 10.2377 72.3937 10.203C72.2724 10.1683 72.177 10.099 72.1077 9.995C72.0384 9.88233 72.0037 9.761 72.0037 9.631C72.0037 9.501 72.0384 9.37533 72.1077 9.254C72.177 9.124 72.294 9.02867 72.4587 8.968C72.8574 8.80333 73.2387 8.68633 73.6027 8.617C73.9754 8.54767 74.3134 8.513 74.6167 8.513C75.2407 8.513 75.752 8.60833 76.1507 8.799C76.558 8.98967 76.8614 9.28 77.0607 9.67C77.26 10.0513 77.3597 10.5453 77.3597 11.152V14.272C77.3597 14.5407 77.2947 14.7487 77.1647 14.896C77.0347 15.0347 76.8484 15.104 76.6057 15.104C76.363 15.104 76.1724 15.0347 76.0337 14.896C75.9037 14.7487 75.8387 14.5407 75.8387 14.272V13.648H75.9427C75.882 13.9513 75.7607 14.2157 75.5787 14.441C75.4054 14.6577 75.1844 14.8267 74.9157 14.948C74.647 15.0693 74.3394 15.13 73.9927 15.13ZM81.9211 15.13C81.3577 15.13 80.8854 15.0347 80.5041 14.844C80.1314 14.6533 79.8541 14.376 79.6721 14.012C79.4901 13.6393 79.3991 13.18 79.3991 12.634V9.865H78.7231C78.5151 9.865 78.3547 9.813 78.2421 9.709C78.1294 9.59633 78.0731 9.44467 78.0731 9.254C78.0731 9.05467 78.1294 8.903 78.2421 8.799C78.3547 8.695 78.5151 8.643 78.7231 8.643H79.3991V7.46C79.3991 7.19133 79.4684 6.98767 79.6071 6.849C79.7544 6.71033 79.9581 6.641 80.2181 6.641C80.4781 6.641 80.6774 6.71033 80.8161 6.849C80.9547 6.98767 81.0241 7.19133 81.0241 7.46V8.643H82.4021C82.6101 8.643 82.7704 8.695 82.8831 8.799C82.9957 8.903 83.0521 9.05467 83.0521 9.254C83.0521 9.44467 82.9957 9.59633 82.8831 9.709C82.7704 9.813 82.6101 9.865 82.4021 9.865H81.0241V12.543C81.0241 12.959 81.1151 13.271 81.2971 13.479C81.4791 13.687 81.7737 13.791 82.1811 13.791C82.3284 13.791 82.4584 13.778 82.5711 13.752C82.6837 13.726 82.7834 13.7087 82.8701 13.7C82.9741 13.6913 83.0607 13.726 83.1301 13.804C83.1994 13.8733 83.2341 14.0207 83.2341 14.246C83.2341 14.4193 83.2037 14.5753 83.1431 14.714C83.0911 14.844 82.9914 14.935 82.8441 14.987C82.7314 15.0217 82.5841 15.052 82.4021 15.078C82.2201 15.1127 82.0597 15.13 81.9211 15.13ZM84.9694 15.091C84.7094 15.091 84.51 15.013 84.3714 14.857C84.2327 14.701 84.1634 14.4843 84.1634 14.207V9.436C84.1634 9.15 84.2327 8.93333 84.3714 8.786C84.51 8.63 84.7094 8.552 84.9694 8.552C85.2294 8.552 85.4287 8.63 85.5674 8.786C85.7147 8.93333 85.7884 9.15 85.7884 9.436V14.207C85.7884 14.4843 85.719 14.701 85.5804 14.857C85.4417 15.013 85.238 15.091 84.9694 15.091ZM84.9694 7.343C84.666 7.343 84.4277 7.26933 84.2544 7.122C84.0897 6.966 84.0074 6.75367 84.0074 6.485C84.0074 6.20767 84.0897 5.99533 84.2544 5.848C84.4277 5.70067 84.666 5.627 84.9694 5.627C85.2814 5.627 85.5197 5.70067 85.6844 5.848C85.849 5.99533 85.9314 6.20767 85.9314 6.485C85.9314 6.75367 85.849 6.966 85.6844 7.122C85.5197 7.26933 85.2814 7.343 84.9694 7.343ZM90.3758 15.13C89.7172 15.13 89.1452 14.9957 88.6598 14.727C88.1745 14.4583 87.7975 14.077 87.5288 13.583C87.2602 13.0803 87.1258 12.491 87.1258 11.815C87.1258 11.3037 87.1995 10.8487 87.3468 10.45C87.5028 10.0427 87.7238 9.696 88.0098 9.41C88.2958 9.11533 88.6382 8.89433 89.0368 8.747C89.4355 8.591 89.8818 8.513 90.3758 8.513C91.0345 8.513 91.6065 8.64733 92.0918 8.916C92.5772 9.18467 92.9542 9.566 93.2228 10.06C93.4915 10.554 93.6258 11.139 93.6258 11.815C93.6258 12.3263 93.5478 12.7857 93.3918 13.193C93.2445 13.6003 93.0278 13.9513 92.7418 14.246C92.4558 14.532 92.1135 14.753 91.7148 14.909C91.3162 15.0563 90.8698 15.13 90.3758 15.13ZM90.3758 13.895C90.6965 13.895 90.9782 13.817 91.2208 13.661C91.4635 13.505 91.6498 13.2753 91.7798 12.972C91.9185 12.66 91.9878 12.2743 91.9878 11.815C91.9878 11.1217 91.8405 10.606 91.5458 10.268C91.2512 9.92133 90.8612 9.748 90.3758 9.748C90.0552 9.748 89.7735 9.826 89.5308 9.982C89.2882 10.1293 89.0975 10.359 88.9588 10.671C88.8288 10.9743 88.7638 11.3557 88.7638 11.815C88.7638 12.4997 88.9112 13.0197 89.2058 13.375C89.5005 13.7217 89.8905 13.895 90.3758 13.895ZM95.7731 15.104C95.5131 15.104 95.3137 15.0347 95.1751 14.896C95.0364 14.7487 94.9671 14.5407 94.9671 14.272V9.358C94.9671 9.08933 95.0364 8.88567 95.1751 8.747C95.3137 8.60833 95.5087 8.539 95.7601 8.539C96.0114 8.539 96.2064 8.60833 96.3451 8.747C96.4837 8.88567 96.5531 9.08933 96.5531 9.358V10.242L96.4101 9.917C96.6007 9.45767 96.8954 9.111 97.2941 8.877C97.7014 8.63433 98.1607 8.513 98.6721 8.513C99.1834 8.513 99.6037 8.60833 99.9331 8.799C100.262 8.98967 100.509 9.28 100.674 9.67C100.839 10.0513 100.921 10.5367 100.921 11.126V14.272C100.921 14.5407 100.852 14.7487 100.713 14.896C100.574 15.0347 100.375 15.104 100.115 15.104C99.8551 15.104 99.6514 15.0347 99.5041 14.896C99.3654 14.7487 99.2961 14.5407 99.2961 14.272V11.204C99.2961 10.71 99.2007 10.3503 99.0101 10.125C98.8281 9.89967 98.5421 9.787 98.1521 9.787C97.6754 9.787 97.2941 9.93867 97.0081 10.242C96.7307 10.5367 96.5921 10.931 96.5921 11.425V14.272C96.5921 14.8267 96.3191 15.104 95.7731 15.104ZM109.416 15.13C109.035 15.13 108.653 15.0997 108.272 15.039C107.891 14.987 107.531 14.9047 107.193 14.792C106.855 14.6707 106.552 14.5233 106.283 14.35C106.127 14.246 106.019 14.1203 105.958 13.973C105.897 13.8257 105.876 13.6827 105.893 13.544C105.919 13.3967 105.975 13.271 106.062 13.167C106.157 13.0543 106.274 12.985 106.413 12.959C106.552 12.933 106.703 12.972 106.868 13.076C107.249 13.3013 107.652 13.466 108.077 13.57C108.502 13.674 108.948 13.726 109.416 13.726C110.101 13.726 110.599 13.6133 110.911 13.388C111.223 13.154 111.379 12.855 111.379 12.491C111.379 12.1877 111.266 11.9493 111.041 11.776C110.824 11.6027 110.447 11.4597 109.91 11.347L108.48 11.048C107.657 10.8747 107.041 10.5843 106.634 10.177C106.235 9.761 106.036 9.215 106.036 8.539C106.036 8.11433 106.123 7.72867 106.296 7.382C106.469 7.03533 106.712 6.73633 107.024 6.485C107.345 6.23367 107.722 6.043 108.155 5.913C108.597 5.77433 109.082 5.705 109.611 5.705C110.131 5.705 110.625 5.77 111.093 5.9C111.561 6.03 111.981 6.22067 112.354 6.472C112.493 6.56733 112.584 6.68433 112.627 6.823C112.679 6.96167 112.692 7.10033 112.666 7.239C112.64 7.369 112.579 7.48167 112.484 7.577C112.389 7.67233 112.267 7.72867 112.12 7.746C111.981 7.76333 111.821 7.72 111.639 7.616C111.318 7.434 110.993 7.304 110.664 7.226C110.335 7.148 109.979 7.109 109.598 7.109C109.199 7.109 108.857 7.16533 108.571 7.278C108.285 7.39067 108.064 7.551 107.908 7.759C107.761 7.95833 107.687 8.19667 107.687 8.474C107.687 8.786 107.791 9.03733 107.999 9.228C108.207 9.41 108.562 9.553 109.065 9.657L110.482 9.956C111.34 10.138 111.977 10.424 112.393 10.814C112.818 11.204 113.03 11.724 113.03 12.374C113.03 12.79 112.943 13.167 112.77 13.505C112.605 13.843 112.363 14.1333 112.042 14.376C111.73 14.6187 111.353 14.805 110.911 14.935C110.469 15.065 109.971 15.13 109.416 15.13ZM117.435 15.13C116.716 15.13 116.096 14.9957 115.576 14.727C115.056 14.4583 114.653 14.077 114.367 13.583C114.09 13.089 113.951 12.504 113.951 11.828C113.951 11.1693 114.085 10.593 114.354 10.099C114.631 9.605 115.008 9.21933 115.485 8.942C115.97 8.656 116.521 8.513 117.136 8.513C117.587 8.513 117.99 8.58667 118.345 8.734C118.709 8.88133 119.017 9.09367 119.268 9.371C119.528 9.64833 119.723 9.98633 119.853 10.385C119.992 10.775 120.061 11.217 120.061 11.711C120.061 11.867 120.005 11.9883 119.892 12.075C119.788 12.153 119.636 12.192 119.437 12.192H115.264V11.256H118.917L118.709 11.451C118.709 11.0523 118.648 10.7187 118.527 10.45C118.414 10.1813 118.245 9.97767 118.02 9.839C117.803 9.69167 117.53 9.618 117.201 9.618C116.837 9.618 116.525 9.70467 116.265 9.878C116.014 10.0427 115.819 10.281 115.68 10.593C115.55 10.8963 115.485 11.2603 115.485 11.685V11.776C115.485 12.4867 115.65 13.0197 115.979 13.375C116.317 13.7217 116.811 13.895 117.461 13.895C117.686 13.895 117.938 13.869 118.215 13.817C118.501 13.7563 118.77 13.6567 119.021 13.518C119.203 13.414 119.363 13.3707 119.502 13.388C119.641 13.3967 119.749 13.4443 119.827 13.531C119.914 13.6177 119.966 13.726 119.983 13.856C120 13.9773 119.974 14.103 119.905 14.233C119.844 14.363 119.736 14.4757 119.58 14.571C119.277 14.7617 118.926 14.9047 118.527 15C118.137 15.0867 117.773 15.13 117.435 15.13ZM122.154 15.104C121.894 15.104 121.695 15.0347 121.556 14.896C121.417 14.7487 121.348 14.5407 121.348 14.272V9.358C121.348 9.08933 121.417 8.88567 121.556 8.747C121.695 8.60833 121.89 8.539 122.141 8.539C122.392 8.539 122.587 8.60833 122.726 8.747C122.865 8.88567 122.934 9.08933 122.934 9.358V10.242L122.791 9.917C122.982 9.45767 123.276 9.111 123.675 8.877C124.082 8.63433 124.542 8.513 125.053 8.513C125.564 8.513 125.985 8.60833 126.314 8.799C126.643 8.98967 126.89 9.28 127.055 9.67C127.22 10.0513 127.302 10.5367 127.302 11.126V14.272C127.302 14.5407 127.233 14.7487 127.094 14.896C126.955 15.0347 126.756 15.104 126.496 15.104C126.236 15.104 126.032 15.0347 125.885 14.896C125.746 14.7487 125.677 14.5407 125.677 14.272V11.204C125.677 10.71 125.582 10.3503 125.391 10.125C125.209 9.89967 124.923 9.787 124.533 9.787C124.056 9.787 123.675 9.93867 123.389 10.242C123.112 10.5367 122.973 10.931 122.973 11.425V14.272C122.973 14.8267 122.7 15.104 122.154 15.104ZM131.864 15.13C131.301 15.13 130.829 15.0347 130.447 14.844C130.075 14.6533 129.797 14.376 129.615 14.012C129.433 13.6393 129.342 13.18 129.342 12.634V9.865H128.666C128.458 9.865 128.298 9.813 128.185 9.709C128.073 9.59633 128.016 9.44467 128.016 9.254C128.016 9.05467 128.073 8.903 128.185 8.799C128.298 8.695 128.458 8.643 128.666 8.643H129.342V7.46C129.342 7.19133 129.412 6.98767 129.55 6.849C129.698 6.71033 129.901 6.641 130.161 6.641C130.421 6.641 130.621 6.71033 130.759 6.849C130.898 6.98767 130.967 7.19133 130.967 7.46V8.643H132.345C132.553 8.643 132.714 8.695 132.826 8.799C132.939 8.903 132.995 9.05467 132.995 9.254C132.995 9.44467 132.939 9.59633 132.826 9.709C132.714 9.813 132.553 9.865 132.345 9.865H130.967V12.543C130.967 12.959 131.058 13.271 131.24 13.479C131.422 13.687 131.717 13.791 132.124 13.791C132.272 13.791 132.402 13.778 132.514 13.752C132.627 13.726 132.727 13.7087 132.813 13.7C132.917 13.6913 133.004 13.726 133.073 13.804C133.143 13.8733 133.177 14.0207 133.177 14.246C133.177 14.4193 133.147 14.5753 133.086 14.714C133.034 14.844 132.935 14.935 132.787 14.987C132.675 15.0217 132.527 15.052 132.345 15.078C132.163 15.1127 132.003 15.13 131.864 15.13Z" fill="white"/>
<path d="M165 0L173 6H165V0Z" fill="url(#paint0_linear_210_11470)"/>
<path d="M8 0L0 6H8V0Z" fill="url(#paint1_linear_210_11470)"/>
<defs>
<linearGradient id="paint0_linear_210_11470" x1="169" y1="0" x2="169" y2="6" gradientUnits="userSpaceOnUse">
<stop stop-color="#6A3319"/>
<stop offset="1" stop-color="#FF915D"/>
</linearGradient>
<linearGradient id="paint1_linear_210_11470" x1="4" y1="0" x2="4" y2="6" gradientUnits="userSpaceOnUse">
<stop stop-color="#6A3319"/>
<stop offset="1" stop-color="#FF915D"/>
</linearGradient>
</defs>
</svg>
