<svg width="173" height="22" viewBox="0 0 173 22" fill="none" xmlns="http://www.w3.org/2000/svg">
<path d="M8 0H165V12C165 17.5228 160.523 22 155 22H18C12.4771 22 8 17.5228 8 12V0Z" fill="#AEB4BE"/>
<path d="M52.3026 16.469C52.4239 16.6597 52.4716 16.833 52.4456 16.989C52.4196 17.145 52.3503 17.275 52.2376 17.379C52.1249 17.4917 51.9863 17.561 51.8216 17.587C51.6569 17.6217 51.4923 17.6043 51.3276 17.535C51.1629 17.4743 51.0243 17.353 50.9116 17.171L50.0146 15.728C49.8933 15.5287 49.7286 15.377 49.5206 15.273C49.3213 15.1777 49.0743 15.13 48.7796 15.13L50.0666 14.623C50.4739 14.623 50.7989 14.6967 51.0416 14.844C51.2843 14.9827 51.5183 15.2297 51.7436 15.585L52.3026 16.469ZM48.7926 15.13C47.9086 15.13 47.1329 14.935 46.4656 14.545C45.8069 14.155 45.2956 13.609 44.9316 12.907C44.5676 12.1963 44.3856 11.3643 44.3856 10.411C44.3856 9.69167 44.4896 9.046 44.6976 8.474C44.9056 7.89333 45.2003 7.39933 45.5816 6.992C45.9716 6.576 46.4353 6.25967 46.9726 6.043C47.5186 5.81767 48.1253 5.705 48.7926 5.705C49.6853 5.705 50.4609 5.9 51.1196 6.29C51.7783 6.67133 52.2896 7.213 52.6536 7.915C53.0176 8.617 53.1996 9.44467 53.1996 10.398C53.1996 11.1173 53.0956 11.7673 52.8876 12.348C52.6796 12.9287 52.3806 13.427 51.9906 13.843C51.6093 14.259 51.1456 14.5797 50.5996 14.805C50.0623 15.0217 49.4599 15.13 48.7926 15.13ZM48.7926 13.7C49.3559 13.7 49.8326 13.57 50.2226 13.31C50.6213 13.05 50.9246 12.673 51.1326 12.179C51.3493 11.685 51.4576 11.0957 51.4576 10.411C51.4576 9.371 51.2236 8.565 50.7556 7.993C50.2963 7.421 49.6419 7.135 48.7926 7.135C48.2379 7.135 47.7613 7.265 47.3626 7.525C46.9639 7.77633 46.6563 8.149 46.4396 8.643C46.2316 9.12833 46.1276 9.71767 46.1276 10.411C46.1276 11.4423 46.3616 12.2483 46.8296 12.829C47.2976 13.4097 47.9519 13.7 48.7926 13.7ZM57.0366 15.13C56.508 15.13 56.0703 15.0347 55.7236 14.844C55.377 14.6447 55.117 14.35 54.9436 13.96C54.779 13.57 54.6966 13.0847 54.6966 12.504V9.358C54.6966 9.08067 54.766 8.877 54.9046 8.747C55.0433 8.60833 55.2426 8.539 55.5026 8.539C55.7626 8.539 55.962 8.60833 56.1006 8.747C56.248 8.877 56.3216 9.08067 56.3216 9.358V12.53C56.3216 12.9807 56.4126 13.3143 56.5946 13.531C56.7766 13.7477 57.067 13.856 57.4656 13.856C57.899 13.856 58.2543 13.7087 58.5316 13.414C58.809 13.1107 58.9476 12.712 58.9476 12.218V9.358C58.9476 9.08067 59.017 8.877 59.1556 8.747C59.2943 8.60833 59.4936 8.539 59.7536 8.539C60.0136 8.539 60.213 8.60833 60.3516 8.747C60.499 8.877 60.5726 9.08067 60.5726 9.358V14.272C60.5726 14.8267 60.3083 15.104 59.7796 15.104C59.5283 15.104 59.3333 15.0347 59.1946 14.896C59.056 14.7487 58.9866 14.5407 58.9866 14.272V13.284L59.1686 13.674C58.9866 14.142 58.7093 14.5017 58.3366 14.753C57.9726 15.0043 57.5393 15.13 57.0366 15.13ZM65.1629 15.13C64.5043 15.13 63.9323 14.9957 63.4469 14.727C62.9616 14.4583 62.5846 14.077 62.3159 13.583C62.0473 13.0803 61.9129 12.491 61.9129 11.815C61.9129 11.3037 61.9866 10.8487 62.1339 10.45C62.2899 10.0427 62.5109 9.696 62.7969 9.41C63.0829 9.11533 63.4253 8.89433 63.8239 8.747C64.2226 8.591 64.6689 8.513 65.1629 8.513C65.8216 8.513 66.3936 8.64733 66.8789 8.916C67.3643 9.18467 67.7413 9.566 68.0099 10.06C68.2786 10.554 68.4129 11.139 68.4129 11.815C68.4129 12.3263 68.3349 12.7857 68.1789 13.193C68.0316 13.6003 67.8149 13.9513 67.5289 14.246C67.2429 14.532 66.9006 14.753 66.5019 14.909C66.1033 15.0563 65.6569 15.13 65.1629 15.13ZM65.1629 13.895C65.4836 13.895 65.7653 13.817 66.0079 13.661C66.2506 13.505 66.4369 13.2753 66.5669 12.972C66.7056 12.66 66.7749 12.2743 66.7749 11.815C66.7749 11.1217 66.6276 10.606 66.3329 10.268C66.0383 9.92133 65.6483 9.748 65.1629 9.748C64.8423 9.748 64.5606 9.826 64.3179 9.982C64.0753 10.1293 63.8846 10.359 63.7459 10.671C63.6159 10.9743 63.5509 11.3557 63.5509 11.815C63.5509 12.4997 63.6983 13.0197 63.9929 13.375C64.2876 13.7217 64.6776 13.895 65.1629 13.895ZM72.6027 15.13C72.0394 15.13 71.567 15.0347 71.1857 14.844C70.813 14.6533 70.5357 14.376 70.3537 14.012C70.1717 13.6393 70.0807 13.18 70.0807 12.634V9.865H69.4047C69.1967 9.865 69.0364 9.813 68.9237 9.709C68.811 9.59633 68.7547 9.44467 68.7547 9.254C68.7547 9.05467 68.811 8.903 68.9237 8.799C69.0364 8.695 69.1967 8.643 69.4047 8.643H70.0807V7.46C70.0807 7.19133 70.15 6.98767 70.2887 6.849C70.436 6.71033 70.6397 6.641 70.8997 6.641C71.1597 6.641 71.359 6.71033 71.4977 6.849C71.6364 6.98767 71.7057 7.19133 71.7057 7.46V8.643H73.0837C73.2917 8.643 73.452 8.695 73.5647 8.799C73.6774 8.903 73.7337 9.05467 73.7337 9.254C73.7337 9.44467 73.6774 9.59633 73.5647 9.709C73.452 9.813 73.2917 9.865 73.0837 9.865H71.7057V12.543C71.7057 12.959 71.7967 13.271 71.9787 13.479C72.1607 13.687 72.4554 13.791 72.8627 13.791C73.01 13.791 73.14 13.778 73.2527 13.752C73.3654 13.726 73.465 13.7087 73.5517 13.7C73.6557 13.6913 73.7424 13.726 73.8117 13.804C73.881 13.8733 73.9157 14.0207 73.9157 14.246C73.9157 14.4193 73.8854 14.5753 73.8247 14.714C73.7727 14.844 73.673 14.935 73.5257 14.987C73.413 15.0217 73.2657 15.052 73.0837 15.078C72.9017 15.1127 72.7414 15.13 72.6027 15.13ZM77.7495 15.13C77.0302 15.13 76.4105 14.9957 75.8905 14.727C75.3705 14.4583 74.9675 14.077 74.6815 13.583C74.4042 13.089 74.2655 12.504 74.2655 11.828C74.2655 11.1693 74.3998 10.593 74.6685 10.099C74.9458 9.605 75.3228 9.21933 75.7995 8.942C76.2848 8.656 76.8352 8.513 77.4505 8.513C77.9012 8.513 78.3042 8.58667 78.6595 8.734C79.0235 8.88133 79.3312 9.09367 79.5825 9.371C79.8425 9.64833 80.0375 9.98633 80.1675 10.385C80.3062 10.775 80.3755 11.217 80.3755 11.711C80.3755 11.867 80.3192 11.9883 80.2065 12.075C80.1025 12.153 79.9508 12.192 79.7515 12.192H75.5785V11.256H79.2315L79.0235 11.451C79.0235 11.0523 78.9628 10.7187 78.8415 10.45C78.7288 10.1813 78.5598 9.97767 78.3345 9.839C78.1178 9.69167 77.8448 9.618 77.5155 9.618C77.1515 9.618 76.8395 9.70467 76.5795 9.878C76.3282 10.0427 76.1332 10.281 75.9945 10.593C75.8645 10.8963 75.7995 11.2603 75.7995 11.685V11.776C75.7995 12.4867 75.9642 13.0197 76.2935 13.375C76.6315 13.7217 77.1255 13.895 77.7755 13.895C78.0008 13.895 78.2522 13.869 78.5295 13.817C78.8155 13.7563 79.0842 13.6567 79.3355 13.518C79.5175 13.414 79.6778 13.3707 79.8165 13.388C79.9552 13.3967 80.0635 13.4443 80.1415 13.531C80.2282 13.6177 80.2802 13.726 80.2975 13.856C80.3148 13.9773 80.2888 14.103 80.2195 14.233C80.1588 14.363 80.0505 14.4757 79.8945 14.571C79.5912 14.7617 79.2402 14.9047 78.8415 15C78.4515 15.0867 78.0875 15.13 77.7495 15.13ZM88.9877 15.104C88.7537 15.104 88.5587 15.052 88.4027 14.948C88.2553 14.8353 88.134 14.6707 88.0387 14.454L84.6457 6.836C84.5503 6.61933 84.5243 6.42867 84.5677 6.264C84.611 6.09933 84.702 5.96933 84.8407 5.874C84.9793 5.77867 85.144 5.731 85.3347 5.731C85.586 5.731 85.7723 5.78733 85.8937 5.9C86.0237 6.004 86.132 6.16433 86.2187 6.381L89.2997 13.518H88.7407L91.8087 6.368C91.904 6.16 92.0167 6.004 92.1467 5.9C92.2767 5.78733 92.4587 5.731 92.6927 5.731C92.8833 5.731 93.0393 5.77867 93.1607 5.874C93.2907 5.96933 93.373 6.09933 93.4077 6.264C93.4423 6.42867 93.412 6.61933 93.3167 6.836L89.9237 14.454C89.8283 14.6707 89.707 14.8353 89.5597 14.948C89.421 15.052 89.2303 15.104 88.9877 15.104ZM95.9127 15.091C95.6527 15.091 95.4534 15.013 95.3147 14.857C95.1761 14.701 95.1067 14.4843 95.1067 14.207V9.436C95.1067 9.15 95.1761 8.93333 95.3147 8.786C95.4534 8.63 95.6527 8.552 95.9127 8.552C96.1727 8.552 96.3721 8.63 96.5107 8.786C96.6581 8.93333 96.7317 9.15 96.7317 9.436V14.207C96.7317 14.4843 96.6624 14.701 96.5237 14.857C96.3851 15.013 96.1814 15.091 95.9127 15.091ZM95.9127 7.343C95.6094 7.343 95.3711 7.26933 95.1977 7.122C95.0331 6.966 94.9507 6.75367 94.9507 6.485C94.9507 6.20767 95.0331 5.99533 95.1977 5.848C95.3711 5.70067 95.6094 5.627 95.9127 5.627C96.2247 5.627 96.4631 5.70067 96.6277 5.848C96.7924 5.99533 96.8747 6.20767 96.8747 6.485C96.8747 6.75367 96.7924 6.966 96.6277 7.122C96.4631 7.26933 96.2247 7.343 95.9127 7.343ZM101.553 15.13C100.834 15.13 100.214 14.9957 99.6942 14.727C99.1742 14.4583 98.7712 14.077 98.4852 13.583C98.2079 13.089 98.0692 12.504 98.0692 11.828C98.0692 11.1693 98.2035 10.593 98.4722 10.099C98.7495 9.605 99.1265 9.21933 99.6032 8.942C100.089 8.656 100.639 8.513 101.254 8.513C101.705 8.513 102.108 8.58667 102.463 8.734C102.827 8.88133 103.135 9.09367 103.386 9.371C103.646 9.64833 103.841 9.98633 103.971 10.385C104.11 10.775 104.179 11.217 104.179 11.711C104.179 11.867 104.123 11.9883 104.01 12.075C103.906 12.153 103.755 12.192 103.555 12.192H99.3822V11.256H103.035L102.827 11.451C102.827 11.0523 102.767 10.7187 102.645 10.45C102.533 10.1813 102.364 9.97767 102.138 9.839C101.922 9.69167 101.649 9.618 101.319 9.618C100.955 9.618 100.643 9.70467 100.383 9.878C100.132 10.0427 99.9369 10.281 99.7982 10.593C99.6682 10.8963 99.6032 11.2603 99.6032 11.685V11.776C99.6032 12.4867 99.7679 13.0197 100.097 13.375C100.435 13.7217 100.929 13.895 101.579 13.895C101.805 13.895 102.056 13.869 102.333 13.817C102.619 13.7563 102.888 13.6567 103.139 13.518C103.321 13.414 103.482 13.3707 103.62 13.388C103.759 13.3967 103.867 13.4443 103.945 13.531C104.032 13.6177 104.084 13.726 104.101 13.856C104.119 13.9773 104.093 14.103 104.023 14.233C103.963 14.363 103.854 14.4757 103.698 14.571C103.395 14.7617 103.044 14.9047 102.645 15C102.255 15.0867 101.891 15.13 101.553 15.13ZM107.822 15.104C107.605 15.104 107.419 15.052 107.263 14.948C107.107 14.8353 106.981 14.662 106.886 14.428L105.001 9.618C104.923 9.41 104.897 9.228 104.923 9.072C104.957 8.90733 105.04 8.77733 105.17 8.682C105.3 8.58667 105.473 8.539 105.69 8.539C105.88 8.539 106.036 8.58667 106.158 8.682C106.279 8.76867 106.383 8.93767 106.47 9.189L108.043 13.518H107.744L109.369 9.085C109.438 8.89433 109.529 8.75567 109.642 8.669C109.763 8.58233 109.919 8.539 110.11 8.539C110.3 8.539 110.456 8.58667 110.578 8.682C110.699 8.76867 110.79 8.903 110.851 9.085L112.45 13.518H112.177L113.763 9.15C113.849 8.916 113.958 8.75567 114.088 8.669C114.226 8.58233 114.378 8.539 114.543 8.539C114.751 8.539 114.911 8.591 115.024 8.695C115.136 8.799 115.201 8.93333 115.219 9.098C115.236 9.254 115.206 9.42733 115.128 9.618L113.256 14.428C113.169 14.6533 113.043 14.8223 112.879 14.935C112.723 15.0477 112.536 15.104 112.32 15.104C112.103 15.104 111.912 15.0477 111.748 14.935C111.592 14.8223 111.47 14.6533 111.384 14.428L109.681 9.917H110.422L108.758 14.415C108.671 14.649 108.55 14.8223 108.394 14.935C108.238 15.0477 108.047 15.104 107.822 15.104ZM119.454 15.13C118.734 15.13 118.115 14.9957 117.595 14.727C117.075 14.4583 116.672 14.077 116.386 13.583C116.108 13.089 115.97 12.504 115.97 11.828C115.97 11.1693 116.104 10.593 116.373 10.099C116.65 9.605 117.027 9.21933 117.504 8.942C117.989 8.656 118.539 8.513 119.155 8.513C119.605 8.513 120.008 8.58667 120.364 8.734C120.728 8.88133 121.035 9.09367 121.287 9.371C121.547 9.64833 121.742 9.98633 121.872 10.385C122.01 10.775 122.08 11.217 122.08 11.711C122.08 11.867 122.023 11.9883 121.911 12.075C121.807 12.153 121.655 12.192 121.456 12.192H117.283V11.256H120.936L120.728 11.451C120.728 11.0523 120.667 10.7187 120.546 10.45C120.433 10.1813 120.264 9.97767 120.039 9.839C119.822 9.69167 119.549 9.618 119.22 9.618C118.856 9.618 118.544 9.70467 118.284 9.878C118.032 10.0427 117.837 10.281 117.699 10.593C117.569 10.8963 117.504 11.2603 117.504 11.685V11.776C117.504 12.4867 117.668 13.0197 117.998 13.375C118.336 13.7217 118.83 13.895 119.48 13.895C119.705 13.895 119.956 13.869 120.234 13.817C120.52 13.7563 120.788 13.6567 121.04 13.518C121.222 13.414 121.382 13.3707 121.521 13.388C121.659 13.3967 121.768 13.4443 121.846 13.531C121.932 13.6177 121.984 13.726 122.002 13.856C122.019 13.9773 121.993 14.103 121.924 14.233C121.863 14.363 121.755 14.4757 121.599 14.571C121.295 14.7617 120.944 14.9047 120.546 15C120.156 15.0867 119.792 15.13 119.454 15.13ZM125.81 15.13C125.256 15.13 124.766 14.9957 124.341 14.727C123.925 14.4583 123.6 14.077 123.366 13.583C123.132 13.0803 123.015 12.491 123.015 11.815C123.015 11.1303 123.132 10.5453 123.366 10.06C123.6 9.566 123.925 9.18467 124.341 8.916C124.766 8.64733 125.256 8.513 125.81 8.513C126.339 8.513 126.798 8.643 127.188 8.903C127.587 9.163 127.856 9.50533 127.994 9.93H127.851V6.55C127.851 6.28133 127.921 6.07767 128.059 5.939C128.198 5.80033 128.397 5.731 128.657 5.731C128.917 5.731 129.117 5.80033 129.255 5.939C129.403 6.07767 129.476 6.28133 129.476 6.55V14.272C129.476 14.5407 129.407 14.7487 129.268 14.896C129.13 15.0347 128.93 15.104 128.67 15.104C128.41 15.104 128.211 15.0347 128.072 14.896C127.934 14.7487 127.864 14.5407 127.864 14.272V13.258L128.007 13.648C127.877 14.0987 127.613 14.4583 127.214 14.727C126.816 14.9957 126.348 15.13 125.81 15.13ZM126.265 13.895C126.586 13.895 126.868 13.817 127.11 13.661C127.353 13.505 127.539 13.2753 127.669 12.972C127.808 12.66 127.877 12.2743 127.877 11.815C127.877 11.1217 127.73 10.606 127.435 10.268C127.141 9.92133 126.751 9.748 126.265 9.748C125.945 9.748 125.663 9.826 125.42 9.982C125.178 10.1293 124.987 10.359 124.848 10.671C124.718 10.9743 124.653 11.3557 124.653 11.815C124.653 12.4997 124.801 13.0197 125.095 13.375C125.39 13.7217 125.78 13.895 126.265 13.895Z" fill="white"/>
<path d="M165 0L173 6H165V0Z" fill="url(#paint0_linear_210_11465)"/>
<path d="M8 0L0 6H8V0Z" fill="url(#paint1_linear_210_11465)"/>
<defs>
<linearGradient id="paint0_linear_210_11465" x1="169" y1="0" x2="169" y2="6" gradientUnits="userSpaceOnUse">
<stop stop-color="#62666E"/>
<stop offset="1" stop-color="#AEB4BE"/>
</linearGradient>
<linearGradient id="paint1_linear_210_11465" x1="4" y1="0" x2="4" y2="6" gradientUnits="userSpaceOnUse">
<stop stop-color="#62666E"/>
<stop offset="1" stop-color="#AEB4BE"/>
</linearGradient>
</defs>
</svg>
