<svg width="48" height="48" viewBox="0 0 48 48" fill="none" xmlns="http://www.w3.org/2000/svg">
<rect width="48" height="48" rx="24" fill="#008000" fill-opacity="0.59"/>
<path d="M21.302 23.4794C20.434 22.7029 20 21.7493 20 20.6186C20 19.4879 20.434 18.5343 21.302 17.7578C22.17 16.9813 23.236 16.5931 24.5 16.5931C25.764 16.5931 26.83 16.9813 27.698 17.7578C28.566 18.5343 29 19.4879 29 20.6186C29 21.7493 28.566 22.7029 27.698 23.4794C26.83 24.2558 25.764 24.6441 24.5 24.6441C23.236 24.6441 22.17 24.2558 21.302 23.4794ZM26.6315 22.5267C27.2105 22.0069 27.5 21.3709 27.5 20.6186C27.5 19.8663 27.2105 19.2307 26.6315 18.7118C26.0525 18.193 25.342 17.934 24.5 17.9349C23.658 17.9358 22.9475 18.1948 22.3685 18.7118C21.7895 19.2289 21.5 19.8645 21.5 20.6186C21.5 21.3727 21.7895 22.0083 22.3685 22.5253C22.9475 23.0424 23.658 23.3014 24.5 23.3022C25.342 23.3031 26.0525 23.0442 26.6315 22.5253M24.5 35.9973C21.486 35.1976 18.9825 33.565 16.9895 31.0996C14.9965 28.6342 14 25.8562 14 22.7655V15.5089L24.5 12L35 15.5089V22.7655C35 25.8553 34.0035 28.6329 32.0105 31.0983C30.0175 33.5637 27.514 35.1976 24.5 36M24.5 13.4331L15.5 16.4254V22.7655C15.5 24.1109 15.721 25.4053 16.163 26.6488C16.605 27.8922 17.228 29.043 18.032 30.1013C19.005 29.6496 20.0235 29.298 21.0875 29.0466C22.1515 28.7953 23.289 28.6696 24.5 28.6696C25.711 28.6696 26.8485 28.7948 27.9125 29.0453C28.9765 29.2958 29.9945 29.6478 30.9665 30.1013C31.7705 29.043 32.394 27.8922 32.837 26.6488C33.279 25.4053 33.5 24.1109 33.5 22.7655V16.4254L24.5 13.4331ZM21.5435 30.3066C20.6065 30.5034 19.7315 30.7839 18.9185 31.1479C19.6815 31.9566 20.5315 32.6544 21.4685 33.2412C22.4055 33.828 23.416 34.2722 24.5 34.5736C25.585 34.2713 26.5905 33.8267 27.5165 33.2399C28.4425 32.653 29.288 31.9553 30.053 31.1466C29.24 30.7825 28.37 30.5021 27.443 30.3053C26.516 30.1085 25.535 30.0105 24.5 30.0114C23.465 30.0123 22.4795 30.1107 21.5435 30.3066Z" fill="white"/>
</svg>
