<svg width="48" height="48" viewBox="0 0 48 48" fill="none" xmlns="http://www.w3.org/2000/svg">
<rect width="48" height="48" rx="24" fill="#008000" fill-opacity="0.59"/>
<path fill-rule="evenodd" clip-rule="evenodd" d="M18 11.5001C18 10.3066 18.4741 9.16197 19.318 8.31804C20.1619 7.47411 21.3065 7 22.5 7C23.6935 7 24.8381 7.47411 25.682 8.31804C26.5259 9.16197 27 10.3066 27 11.5001C27 12.6936 26.5259 13.8382 25.682 14.6821C24.8381 15.526 23.6935 16.0002 22.5 16.0002C21.3065 16.0002 20.1619 15.526 19.318 14.6821C18.4741 13.8382 18 12.6936 18 11.5001ZM22.5 8.80003C21.7839 8.80003 21.0972 9.0845 20.5908 9.59086C20.0845 10.0972 19.8 10.784 19.8 11.5001C19.8 12.2162 20.0845 12.9029 20.5908 13.4093C21.0972 13.9157 21.7839 14.2001 22.5 14.2001C23.2161 14.2001 23.9028 13.9157 24.4092 13.4093C24.9155 12.9029 25.2 12.2162 25.2 11.5001C25.2 10.784 24.9155 10.0972 24.4092 9.59086C23.9028 9.0845 23.2161 8.80003 22.5 8.80003Z" fill="white"/>
<path d="M18.3398 20.668C18.1844 21.8306 17.8823 23.3722 17.5166 25.0322L17.3691 25.7002L16.8623 25.3838L16.8604 25.3828L16.7021 25.2754C16.5984 25.2002 16.4991 25.1173 16.4053 25.0264L16.2686 24.8848C15.7623 24.3166 15.4933 23.5347 15.5 22.7139V22.7109C15.5028 21.8842 15.7982 21.0984 16.3125 20.5176C16.4741 20.3371 16.6834 20.2339 16.8799 20.1699L17.0693 20.1182C17.3293 20.0585 17.6155 20.0353 17.875 20.0283L18.4268 20.0146L18.3398 20.668Z" stroke="white"/>
<path fill-rule="evenodd" clip-rule="evenodd" d="M13.8285 18.4828C15.0696 17.2164 16.8112 16.5 18.8357 16.5H24.8671C29.192 16.5 31.9022 18.0802 33.4638 20.0672C34.3175 21.1526 34.9843 22.5448 35.1309 24.0069V24.0138L35.1326 24.0293V24.0371L35.1335 24.0388V24.044L35.136 24.0698V24.0724C35.1738 24.5983 35.0529 25.0983 34.8129 25.5267C35.1769 25.7606 35.4765 26.0829 35.6839 26.464C35.8914 26.845 36.0001 27.2725 36 27.7069V40.6379C36 40.8666 35.9097 41.0858 35.749 41.2475C35.5882 41.4092 35.3702 41.5 35.1429 41.5C34.9156 41.5 34.6976 41.4092 34.5368 41.2475C34.3761 41.0858 34.2858 40.8666 34.2858 40.6379V27.7069C34.2858 27.4783 34.1955 27.259 34.0348 27.0973C33.874 26.9357 33.656 26.8448 33.4287 26.8448C33.2014 26.8448 32.9834 26.9357 32.8226 27.0973C32.6619 27.259 32.5716 27.4783 32.5716 27.7069V28.0026C32.5716 28.2312 32.4813 28.4505 32.3206 28.6122C32.1598 28.7738 31.9418 28.8647 31.7145 28.8647C31.4872 28.8647 31.2692 28.7738 31.1084 28.6122C30.9477 28.4505 30.8574 28.2312 30.8574 28.0026V27.7069C30.8574 27.2483 30.9757 26.8181 31.1839 26.4448C31.0084 26.3191 30.8519 26.1684 30.7194 25.9974C30.3431 25.5198 30.152 24.9043 30.0191 24.4741L30.0003 24.4164L29.9437 24.2371C29.8312 23.8895 29.6586 23.5647 29.4337 23.2776C29.1423 22.9069 28.6135 22.406 27.6064 22.0621C28.2664 25.3483 29.8966 31.1405 30.554 33.4319C30.6215 33.667 30.6383 33.9139 30.6033 34.156C30.5683 34.3982 30.4823 34.63 30.351 34.836C30.2197 35.042 30.0461 35.2174 29.842 35.3505C29.6378 35.4836 29.4078 35.5713 29.1672 35.6078C23.9594 36.4043 20.621 36.4319 15.403 35.6129C15.162 35.5753 14.9318 35.4862 14.728 35.3516C14.5241 35.2171 14.3512 35.0402 14.221 34.8328C14.0907 34.6255 14.0061 34.3925 13.9729 34.1495C13.9396 33.9065 13.9585 33.6592 14.0282 33.4241C14.3342 32.3871 14.8544 30.5966 15.3893 28.6353C14.793 28.3272 14.2498 27.9246 13.7805 27.4431C12.5557 26.1853 11.9857 24.5379 12.0003 22.9405C12.0113 21.2722 12.6665 19.6734 13.8276 18.4819M33.421 24.1543L33.4227 24.2147V24.2431L33.427 24.2957C33.4179 24.505 33.3334 24.7038 33.1893 24.855C33.0451 25.0062 32.8511 25.0994 32.6436 25.1172C32.4293 25.1345 32.311 25.1043 32.2459 25.0767C32.1728 25.0441 32.1095 24.9927 32.0625 24.9276C31.9048 24.7267 31.7959 24.4138 31.6365 23.9L31.5765 23.7121C31.4014 23.1667 31.1312 22.657 30.7785 22.2069C30.1168 21.3655 28.91 20.4095 26.6636 20.0733L25.5296 19.9034L25.6882 21.0448C26.0962 23.9784 28.1687 31.3362 28.9049 33.9034C23.8651 34.6741 20.7041 34.6991 15.673 33.9086C16.0184 32.7397 16.6329 30.6216 17.2372 28.3733L17.4403 27.6164L16.7109 27.3405C16.0681 27.1035 15.4856 26.7261 15.0053 26.2353C14.1259 25.3328 13.7042 24.1379 13.7153 22.9569C13.7221 21.7359 14.2003 20.5653 15.049 19.6922C15.9378 18.7871 17.226 18.2241 18.8357 18.2241H24.8671C28.7343 18.2241 30.9217 19.6129 32.1199 21.1371C32.8107 22.0164 33.3113 23.0966 33.4227 24.1543" fill="white"/>
<path d="M19.0637 41.4865C18.7693 41.4469 18.4992 41.3019 18.3036 41.0784C18.108 40.8549 18.0001 40.5681 18 40.2711V37.5115C19.1161 37.6775 20.152 37.7838 21.1642 37.8329L20.4114 40.5934C20.3332 40.8802 20.1534 41.1288 19.9055 41.2931C19.6576 41.4574 19.3585 41.5261 19.0637 41.4865ZM24.5886 40.5934L23.8333 37.8272C24.8935 37.7683 25.9502 37.6591 27 37.5V40.2711C27.0005 40.5687 26.8928 40.8563 26.6969 41.0804C26.501 41.3045 26.2303 41.4498 25.9352 41.4892C25.6401 41.5286 25.3408 41.4595 25.0929 41.2947C24.845 41.1299 24.6663 40.8806 24.5886 40.5934Z" fill="white"/>
</svg>
