<svg width="48" height="48" viewBox="0 0 48 48" fill="none" xmlns="http://www.w3.org/2000/svg">
<rect width="48" height="48" rx="24" fill="#008000" fill-opacity="0.59"/>
<path d="M13.9611 32.6076C13.8275 32.6076 13.7192 32.4975 13.7192 32.3617C13.7192 32.2258 13.8275 32.1157 13.9611 32.1157C14.0946 32.1157 14.2029 32.2258 14.2029 32.3617C14.2029 32.4975 14.0946 32.6076 13.9611 32.6076Z" fill="white"/>
<path d="M11.9441 21.778C11.6838 21.5996 11.5115 21.2959 11.5115 20.9525V18.9699C11.5115 18.4244 11.9457 17.9944 12.4773 18.0129L24.0799 18.4388C24.612 18.4574 25.0467 18.9199 25.0467 19.466V20.9525C25.0467 21.498 24.6115 21.9446 24.0799 21.9446H23.4813L22.946 22.486C22.912 22.5221 21.9648 23.5482 21.9648 25.6829C21.9648 26.645 22.8548 27.4277 23.9479 27.4277H27.8326C28.176 27.0503 28.7767 25.1373 28.7767 21.9502C28.7767 18.6791 27.5418 17.0028 27.5294 16.9863L27.2793 16.6537L27.0061 16.7693C26.8385 16.8518 26.64 16.8672 26.4574 16.7811C26.1336 16.6259 25.9934 16.2351 26.1445 15.904C26.2 15.7901 26.2883 15.6955 26.3981 15.6323L27.3897 15.2023C27.4686 14.5675 27.9125 14.0607 28.5076 13.9632C28.6256 13.9436 28.7643 13.8555 28.7747 13.8163C29.0428 12.7974 29.7265 12.2812 30.8052 12.2812H32.2928L32.3036 13.0676H32.8326V13.559C33.2168 13.559 33.5287 14.1086 33.5287 14.7877C33.5287 15.4652 33.2173 16.0164 32.8326 16.0164V16.5078H32.3041V17.2942H31.2646C32.5227 19.1432 34.6033 22.5236 34.6033 24.6702C34.6029 24.7626 34.595 24.8546 34.5796 24.946C36.3549 25.1848 37.975 26.2645 38.836 27.8299C39.0052 28.1367 39.0129 28.4806 38.8577 28.773C38.6148 29.2314 38.126 29.3794 37.3675 29.4634C37.5836 29.96 37.6957 30.4956 37.697 31.0371C37.697 33.2084 35.9661 34.9688 33.8298 34.9688C31.8591 34.9688 30.2359 33.4693 29.9967 31.5316H28.8144C28.6906 31.5316 28.589 31.5821 28.3895 31.6878C28.109 31.8358 27.7243 32.0385 27.168 32.0385H17.6944C17.2587 33.724 15.7546 34.9688 13.9608 34.9688C12.1664 34.9688 10.6628 33.724 10.2271 32.0379H8.03107V31.2521C8.03107 26.2588 10.7979 22.9392 11.9441 21.778ZM24.5312 21.5625C24.5483 21.5635 24.5398 19.4304 24.5568 19.4319C24.5388 19.1659 24.3233 18.9395 24.0634 18.9292L12.4433 18.5043C12.1916 18.5043 11.9952 18.709 11.9952 18.9699L12.1562 21.5625H24.5312ZM33.8298 33.0032C34.8982 33.0032 35.7634 32.1225 35.7634 31.0371C35.7634 30.4978 35.5458 30.0151 35.1988 29.6614C34.7899 29.7187 34.4228 29.7986 34.2052 29.9182C33.9495 30.059 33.721 30.2327 33.4792 30.4168C33.2529 30.589 33.0131 30.768 32.7424 30.9314C32.7608 30.9684 32.7694 31.0094 32.7676 31.0506C32.7657 31.0918 32.7534 31.1319 32.7318 31.1671C32.7102 31.2023 32.68 31.2314 32.6441 31.2516C32.6081 31.2719 32.5676 31.2827 32.5263 31.2831C32.4366 31.2831 32.3619 31.2315 32.3201 31.1583C32.1963 31.216 32.0642 31.2685 31.9236 31.3155C32.0576 32.2679 32.8558 33.0032 33.8298 33.0032ZM13.9608 33.0032C14.6661 33.0032 15.2725 32.6129 15.6082 32.0385H15.1106C15.1004 32.0793 15.0804 32.117 15.0523 32.1483C15.0302 32.1712 15.0037 32.1894 14.9744 32.2019C14.945 32.2143 14.9135 32.2208 14.8817 32.2208C14.8498 32.2208 14.8183 32.2143 14.7889 32.2019C14.7596 32.1894 14.7331 32.1712 14.711 32.1483C14.6821 32.1175 14.662 32.0796 14.6527 32.0385H13.2678C13.2576 32.0793 13.2376 32.117 13.2095 32.1483C13.1874 32.1712 13.1608 32.1894 13.1315 32.2019C13.1022 32.2143 13.0707 32.2208 13.0388 32.2208C13.007 32.2208 12.9754 32.2143 12.9461 32.2019C12.9168 32.1894 12.8903 32.1712 12.8681 32.1483C12.8393 32.1175 12.8192 32.0796 12.8099 32.0385H12.3128C12.6485 32.6129 13.2549 33.0032 13.9608 33.0032ZM27.168 31.2521C27.8862 31.2521 28.1631 30.7453 28.8144 30.7453H30.4721C32.2737 30.7453 32.7723 29.8146 33.8365 29.2267C35.0973 28.5317 38.572 28.9607 38.1611 28.2146C37.3304 26.7038 35.6134 25.6834 33.8365 25.6834C33.6973 25.6834 33.5607 25.6932 33.4246 25.7055C33.4246 25.7055 33.8293 25.1136 33.8293 24.6707C33.8293 21.9508 29.7518 16.5083 29.7518 16.5083H31.5302V13.0681H30.8052C30.4076 13.0681 29.7636 13.1006 29.5213 14.0205C29.4099 14.4427 28.9948 14.6542 28.7097 14.7227C28.9907 14.8779 29.183 15.1765 29.183 15.5245C29.183 16.0309 28.7798 16.4423 28.2817 16.4423C28.2353 16.4423 28.191 16.4356 28.1466 16.4279V16.5089H28.1435C28.1435 16.5089 29.5507 18.3754 29.5507 21.9513C29.5507 25.4137 28.8314 28.2151 27.9435 28.2151H23.9484C22.4242 28.2151 21.1919 27.0838 21.1919 25.6839C21.1919 23.3187 22.2479 22.0957 22.3861 21.9456H12.9017C12.7026 22.1163 8.8045 25.5385 8.8045 31.2532L27.168 31.2521Z" fill="white"/>
<path d="M15.7265 22.9685C16.3942 22.9072 17.0929 22.9237 17.7617 23.1098C18.4273 23.2965 19.059 23.6388 19.5653 24.1256C20.066 24.6139 20.4507 25.2295 20.643 25.8999C20.8378 26.565 20.8862 27.2644 20.7848 27.95C20.6784 28.6185 20.45 29.2617 20.1109 29.8475C20.5981 28.6131 20.7363 27.2255 20.2903 26.0221C19.8592 24.8181 18.8429 23.8956 17.6348 23.5837C17.0346 23.4078 16.402 23.3883 15.7636 23.4316C15.1273 23.4733 14.4967 23.6012 13.8795 23.7837C13.2623 23.9663 12.6632 24.2236 12.0898 24.5324C11.5097 24.8315 10.9601 25.1924 10.4424 25.6049C11.3509 24.6314 12.5069 23.8967 13.7625 23.4264C14.39 23.1841 15.0546 23.0423 15.7265 22.9685Z" fill="white"/>
<path d="M15.1107 23.9259C15.7372 23.8604 16.3869 23.8604 17.0252 23.9904C17.6595 24.1244 18.2772 24.3838 18.8026 24.7849C19.3213 25.1892 19.7524 25.7265 19.988 26.3473C20.2233 26.962 20.2999 27.6261 20.2108 28.2783C20.113 28.9104 19.8841 29.5151 19.5389 30.0536C20.0427 28.9115 20.1654 27.5817 19.6467 26.4984C19.1429 25.413 18.0818 24.6911 16.9293 24.4709C16.3554 24.3441 15.7542 24.341 15.152 24.3879C14.5508 24.4266 13.9568 24.5477 13.3695 24.7009C12.7832 24.8607 12.2114 25.0809 11.6607 25.349C11.0997 25.6092 10.5643 25.9212 10.0612 26.2808C10.9563 25.4037 12.0711 24.7607 13.2607 24.342C13.8593 24.1327 14.4801 23.993 15.1107 23.9259ZM32.0944 26.1684C32.8632 25.958 33.6792 26.0007 34.4219 26.29C35.1523 26.564 35.7773 27.0619 36.2075 27.7127C35.6652 27.2157 35.0136 26.8533 34.3054 26.6546C33.6186 26.4648 32.8957 26.4499 32.2228 26.6422C31.5468 26.8227 30.9316 27.2125 30.4341 27.7276C29.9277 28.269 29.556 28.922 29.3492 29.6339C29.3824 28.8479 29.663 28.0925 30.151 27.4755C30.6445 26.8455 31.3248 26.3879 32.0944 26.1684Z" fill="white"/>
<path d="M35.1341 31.2829C35.0006 31.2829 34.8923 31.1728 34.8923 31.037C34.8923 30.9011 35.0006 30.791 35.1341 30.791C35.2677 30.791 35.376 30.9011 35.376 31.037C35.376 31.1728 35.2677 31.2829 35.1341 31.2829Z" fill="white"/>
<path d="M34.9225 31.7995C34.9681 31.8461 34.9937 31.9086 34.9937 31.9738C34.9937 32.039 34.9681 32.1015 34.9225 32.1481C34.8287 32.2445 34.6755 32.2445 34.5812 32.1481C34.4868 32.0517 34.4863 31.8965 34.5812 31.7995C34.6033 31.7766 34.6298 31.7584 34.6591 31.7459C34.6885 31.7335 34.72 31.7271 34.7518 31.7271C34.7837 31.7271 34.8152 31.7335 34.8446 31.7459C34.8739 31.7584 34.9004 31.7766 34.9225 31.7995Z" fill="white"/>
<path d="M33.8309 32.6076C33.6974 32.6076 33.5891 32.4975 33.5891 32.3617C33.5891 32.2258 33.6974 32.1157 33.8309 32.1157C33.9645 32.1157 34.0728 32.2258 34.0728 32.3617C34.0728 32.4975 33.9645 32.6076 33.8309 32.6076Z" fill="white"/>
<path d="M33.0797 31.8003C33.1745 31.8962 33.1745 32.0514 33.0797 32.1478C32.9848 32.2443 32.8322 32.2443 32.7383 32.1478C32.6923 32.1017 32.6664 32.0392 32.6664 31.9741C32.6664 31.9089 32.6923 31.8464 32.7383 31.8003C32.7606 31.7776 32.7872 31.7596 32.8165 31.7473C32.8458 31.7351 32.8772 31.7287 32.909 31.7287C32.9408 31.7287 32.9722 31.7351 33.0015 31.7473C33.0308 31.7596 33.0574 31.7776 33.0797 31.8003ZM34.9225 29.9265C34.9684 29.9726 34.9941 30.035 34.9941 30.1C34.9941 30.1651 34.9684 30.2275 34.9225 30.2735C34.8276 30.37 34.675 30.37 34.5801 30.2735C34.5346 30.2273 34.5091 30.1649 34.5091 30.1C34.5091 30.0351 34.5346 29.9728 34.5801 29.9265C34.6023 29.9034 34.6288 29.8851 34.6583 29.8725C34.6877 29.86 34.7193 29.8535 34.7513 29.8535C34.7833 29.8535 34.815 29.86 34.8444 29.8725C34.8738 29.8851 34.9004 29.9034 34.9225 29.9265Z" fill="white"/>
<path d="M33.8298 31.5287C33.5627 31.5287 33.3462 31.3087 33.3462 31.0373C33.3462 30.7659 33.5627 30.5459 33.8298 30.5459C34.0969 30.5459 34.3135 30.7659 34.3135 31.0373C34.3135 31.3087 34.0969 31.5287 33.8298 31.5287Z" fill="white"/>
</svg>
