<svg width="48" height="48" viewBox="0 0 48 48" fill="none" xmlns="http://www.w3.org/2000/svg">
<rect width="48" height="48" rx="24" fill="#008000" fill-opacity="0.59"/>
<path d="M25.5714 27.144H35V28.7154H25.5714V27.144ZM25.5714 30.2868H35V31.8583H25.5714V30.2868ZM25.5714 33.4297H35V35.0011H25.5714V33.4297ZM22.4286 25.5725C22.1955 25.5725 21.9676 25.6417 21.7738 25.7712C21.58 25.9007 21.4289 26.0847 21.3397 26.3001C21.2505 26.5155 21.2272 26.7524 21.2726 26.981C21.3181 27.2097 21.4304 27.4197 21.5952 27.5845C21.76 27.7493 21.97 27.8616 22.1986 27.907C22.4273 27.9525 22.6642 27.9292 22.8796 27.84C23.0949 27.7508 23.279 27.5997 23.4085 27.4059C23.538 27.2121 23.6071 26.9842 23.6071 26.7511C23.6071 26.4385 23.483 26.1388 23.2619 25.9177C23.0409 25.6967 22.7411 25.5725 22.4286 25.5725ZM21.6429 16.9297H23.2143V24.0011H21.6429V16.9297Z" fill="white"/>
<path d="M22.4286 14.5714C24.5118 14.5735 26.5091 15.402 27.9821 16.875C29.4552 18.3481 30.2836 20.3454 30.2857 22.4286H31.8571C31.8571 20.5638 31.3042 18.7409 30.2681 17.1903C29.2321 15.6398 27.7596 14.4313 26.0367 13.7177C24.3139 13.0041 22.4181 12.8174 20.5892 13.1812C18.7602 13.545 17.0802 14.443 15.7616 15.7616C14.443 17.0802 13.545 18.7602 13.1812 20.5892C12.8174 22.4181 13.0041 24.3139 13.7177 26.0367C14.4313 27.7596 15.6398 29.2321 17.1903 30.2681C18.7409 31.3042 20.5638 31.8571 22.4286 31.8571V30.2857C20.3447 30.2857 18.3462 29.4579 16.8727 27.9844C15.3992 26.5109 14.5714 24.5124 14.5714 22.4286C14.5714 20.3447 15.3992 18.3462 16.8727 16.8727C18.3462 15.3992 20.3447 14.5714 22.4286 14.5714Z" fill="white"/>
</svg>
