<svg width="48" height="48" viewBox="0 0 48 48" fill="none" xmlns="http://www.w3.org/2000/svg">
<rect width="48" height="48" rx="24" fill="#008000" fill-opacity="0.59"/>
<path d="M14.3656 34.9992C10.7749 34.9992 7.86407 32.0884 7.86407 28.4977C7.86407 24.9069 10.7749 21.9961 14.3656 21.9961C17.9563 21.9961 20.8672 24.9069 20.8672 28.4977C20.8672 32.0884 17.9563 34.9992 14.3656 34.9992Z" stroke="white" stroke-linecap="round" stroke-linejoin="round"/>
<path d="M34.1356 34.6857C31.7792 34.6857 29.8689 32.7755 29.8689 30.419C29.8689 28.0626 31.7792 26.1523 34.1356 26.1523C36.4921 26.1523 38.4023 28.0626 38.4023 30.419C38.4023 32.7755 36.4921 34.6857 34.1356 34.6857Z" stroke="white" stroke-linecap="round" stroke-linejoin="round"/>
<path d="M38.2694 26.1177L38.9208 23.5791C39.593 20.9645 36.0329 20.2068 26.3821 20.2068L25.8746 15.4381H26.3366C26.4058 15.4382 26.4743 15.4242 26.538 15.397C26.6017 15.3698 26.6592 15.33 26.707 15.2799C26.7549 15.2299 26.792 15.1706 26.8163 15.1057C26.8405 15.0409 26.8514 14.9718 26.8481 14.9026L26.7946 13.7004C26.7889 13.5705 26.7339 13.4475 26.6408 13.3567C26.5477 13.2658 26.4235 13.2138 26.2934 13.2113L15.5451 13.0003C15.2506 12.9941 14.9648 13.1004 14.7458 13.2974C14.5268 13.4944 14.3911 13.7674 14.3661 14.0609L13.9369 19.0894C13.9369 19.0894 11.0818 19.2476 10.36 20.3563C10.0443 20.8414 9.81329 21.6112 9.81329 21.6112" stroke="white" stroke-linecap="round" stroke-linejoin="round"/>
<path d="M7.82781 23.4601C8.38333 22.74 9.05475 22.1149 9.81409 21.6113C11.1194 20.7473 12.6844 20.2437 14.3661 20.2437C18.9254 20.2437 22.6206 23.9397 22.6206 28.4982C22.6206 29.1584 22.5111 29.801 22.3648 30.4173H28.167C28.1671 29.2471 28.5114 28.1028 29.1569 27.1268C29.8024 26.1507 30.7206 25.386 31.7973 24.9278C32.8741 24.4696 34.0618 24.3381 35.2127 24.5497C36.3636 24.7613 37.4268 25.3066 38.2702 26.1178M38.8633 22.3451C36.5085 22.0262 35.7963 22.1373 35.7963 22.1373C35.9642 22.9206 36.6324 23.7183 38.6363 24.6911M24.0633 24.1899H24.2807C24.354 24.1898 24.4265 24.1744 24.4935 24.1446C24.5604 24.1148 24.6204 24.0714 24.6696 24.017C24.7188 23.9627 24.756 23.8986 24.7789 23.829C24.8018 23.7594 24.8099 23.6857 24.8027 23.6128L23.9946 15.4615C23.9817 15.3318 23.921 15.2115 23.8244 15.1241C23.7278 15.0366 23.6021 14.9882 23.4718 14.9883H17.2812C16.9911 14.9883 16.7561 15.2233 16.7561 15.5134V18.0624C16.757 18.1771 16.7956 18.2883 16.8659 18.3788C16.9363 18.4694 17.0345 18.5343 17.1453 18.5636C18.5335 18.9532 19.8249 19.6289 20.9363 20.5473C22.0477 21.4658 22.9547 22.6066 23.5989 23.8966C23.6413 23.9841 23.7073 24.058 23.7895 24.1098C23.8718 24.1617 23.9661 24.1894 24.0633 24.1899Z" stroke="white" stroke-linecap="round" stroke-linejoin="round"/>
<path d="M14.3661 31.1428C12.9071 31.1428 11.7244 29.9601 11.7244 28.5011C11.7244 27.0421 12.9071 25.8594 14.3661 25.8594C15.8251 25.8594 17.0078 27.0421 17.0078 28.5011C17.0078 29.9601 15.8251 31.1428 14.3661 31.1428Z" stroke="white" stroke-linecap="round" stroke-linejoin="round"/>
<path d="M34.1336 32.4243C33.0251 32.4243 32.1265 31.5257 32.1265 30.4172C32.1265 29.3087 33.0251 28.4102 34.1336 28.4102C35.242 28.4102 36.1406 29.3087 36.1406 30.4172C36.1406 31.5257 35.242 32.4243 34.1336 32.4243Z" stroke="white" stroke-linecap="round" stroke-linejoin="round"/>
</svg>
