<svg width="173" height="22" viewBox="0 0 173 22" fill="none" xmlns="http://www.w3.org/2000/svg">
<path d="M8 0H165V12C165 17.5228 160.523 22 155 22H18C12.4771 22 8 17.5228 8 12V0Z" fill="#FF6161"/>
<path d="M33.6983 15.104C33.4296 15.104 33.2216 15.0303 33.0743 14.883C32.9356 14.727 32.8663 14.5147 32.8663 14.246V7.226H30.3313C30.1059 7.226 29.9283 7.16533 29.7983 7.044C29.6769 6.914 29.6163 6.74067 29.6163 6.524C29.6163 6.29867 29.6769 6.12967 29.7983 6.017C29.9283 5.89567 30.1059 5.835 30.3313 5.835H37.0653C37.2906 5.835 37.4639 5.89567 37.5853 6.017C37.7153 6.12967 37.7803 6.29867 37.7803 6.524C37.7803 6.74067 37.7153 6.914 37.5853 7.044C37.4639 7.16533 37.2906 7.226 37.0653 7.226H34.5303V14.246C34.5303 14.5147 34.4609 14.727 34.3223 14.883C34.1836 15.0303 33.9756 15.104 33.6983 15.104ZM38.3909 15.104C38.1222 15.104 37.9142 15.0347 37.7669 14.896C37.6282 14.7487 37.5589 14.5407 37.5589 14.272V9.358C37.5589 9.08933 37.6282 8.88567 37.7669 8.747C37.9055 8.60833 38.1005 8.539 38.3519 8.539C38.6032 8.539 38.7982 8.60833 38.9369 8.747C39.0755 8.88567 39.1449 9.08933 39.1449 9.358V10.177H39.0149C39.1362 9.657 39.3745 9.26267 39.7299 8.994C40.0852 8.72533 40.5575 8.565 41.1469 8.513C41.3289 8.49567 41.4719 8.54333 41.5759 8.656C41.6885 8.76 41.7535 8.92467 41.7709 9.15C41.7882 9.36667 41.7362 9.54433 41.6149 9.683C41.5022 9.813 41.3289 9.891 41.0949 9.917L40.8089 9.943C40.2802 9.995 39.8815 10.1597 39.6129 10.437C39.3442 10.7057 39.2099 11.087 39.2099 11.581V14.272C39.2099 14.5407 39.1405 14.7487 39.0019 14.896C38.8632 15.0347 38.6595 15.104 38.3909 15.104ZM44.6792 15.13C44.2199 15.13 43.8082 15.0433 43.4442 14.87C43.0889 14.688 42.8072 14.4453 42.5992 14.142C42.3999 13.8387 42.3002 13.4963 42.3002 13.115C42.3002 12.647 42.4215 12.2787 42.6642 12.01C42.9069 11.7327 43.3012 11.5333 43.8472 11.412C44.3932 11.2907 45.1255 11.23 46.0442 11.23H46.6942V12.166H46.0572C45.5199 12.166 45.0909 12.192 44.7702 12.244C44.4495 12.296 44.2199 12.387 44.0812 12.517C43.9512 12.6383 43.8862 12.8117 43.8862 13.037C43.8862 13.323 43.9859 13.557 44.1852 13.739C44.3845 13.921 44.6619 14.012 45.0172 14.012C45.3032 14.012 45.5545 13.947 45.7712 13.817C45.9965 13.6783 46.1742 13.492 46.3042 13.258C46.4342 13.024 46.4992 12.7553 46.4992 12.452V10.957C46.4992 10.5237 46.4039 10.2117 46.2132 10.021C46.0225 9.83033 45.7019 9.735 45.2512 9.735C44.9999 9.735 44.7269 9.76533 44.4322 9.826C44.1462 9.88667 43.8429 9.99067 43.5222 10.138C43.3575 10.216 43.2102 10.2377 43.0802 10.203C42.9589 10.1683 42.8635 10.099 42.7942 9.995C42.7249 9.88233 42.6902 9.761 42.6902 9.631C42.6902 9.501 42.7249 9.37533 42.7942 9.254C42.8635 9.124 42.9805 9.02867 43.1452 8.968C43.5439 8.80333 43.9252 8.68633 44.2892 8.617C44.6619 8.54767 44.9999 8.513 45.3032 8.513C45.9272 8.513 46.4385 8.60833 46.8372 8.799C47.2445 8.98967 47.5479 9.28 47.7472 9.67C47.9465 10.0513 48.0462 10.5453 48.0462 11.152V14.272C48.0462 14.5407 47.9812 14.7487 47.8512 14.896C47.7212 15.0347 47.5349 15.104 47.2922 15.104C47.0495 15.104 46.8589 15.0347 46.7202 14.896C46.5902 14.7487 46.5252 14.5407 46.5252 14.272V13.648H46.6292C46.5685 13.9513 46.4472 14.2157 46.2652 14.441C46.0919 14.6577 45.8709 14.8267 45.6022 14.948C45.3335 15.0693 45.0259 15.13 44.6792 15.13ZM50.5016 15.104C50.2416 15.104 50.0423 15.0347 49.9036 14.896C49.7649 14.7487 49.6956 14.5407 49.6956 14.272V9.358C49.6956 9.08933 49.7649 8.88567 49.9036 8.747C50.0423 8.60833 50.2373 8.539 50.4886 8.539C50.7399 8.539 50.9349 8.60833 51.0736 8.747C51.2123 8.88567 51.2816 9.08933 51.2816 9.358V10.242L51.1386 9.917C51.3293 9.45767 51.6239 9.111 52.0226 8.877C52.4299 8.63433 52.8893 8.513 53.4006 8.513C53.9119 8.513 54.3323 8.60833 54.6616 8.799C54.9909 8.98967 55.2379 9.28 55.4026 9.67C55.5673 10.0513 55.6496 10.5367 55.6496 11.126V14.272C55.6496 14.5407 55.5803 14.7487 55.4416 14.896C55.3029 15.0347 55.1036 15.104 54.8436 15.104C54.5836 15.104 54.3799 15.0347 54.2326 14.896C54.0939 14.7487 54.0246 14.5407 54.0246 14.272V11.204C54.0246 10.71 53.9293 10.3503 53.7386 10.125C53.5566 9.89967 53.2706 9.787 52.8806 9.787C52.4039 9.787 52.0226 9.93867 51.7366 10.242C51.4593 10.5367 51.3206 10.931 51.3206 11.425V14.272C51.3206 14.8267 51.0476 15.104 50.5016 15.104ZM59.6271 15.13C59.2544 15.13 58.8601 15.091 58.4441 15.013C58.0281 14.935 57.6554 14.8007 57.3261 14.61C57.1874 14.5233 57.0877 14.4237 57.0271 14.311C56.9751 14.1897 56.9534 14.0727 56.9621 13.96C56.9794 13.8387 57.0227 13.7347 57.0921 13.648C57.1701 13.5613 57.2654 13.505 57.3781 13.479C57.4994 13.453 57.6294 13.4747 57.7681 13.544C58.1147 13.7087 58.4397 13.8257 58.7431 13.895C59.0464 13.9557 59.3454 13.986 59.6401 13.986C60.0561 13.986 60.3637 13.9167 60.5631 13.778C60.7711 13.6307 60.8751 13.44 60.8751 13.206C60.8751 13.0067 60.8057 12.855 60.6671 12.751C60.5371 12.6383 60.3377 12.556 60.0691 12.504L58.7691 12.257C58.2317 12.153 57.8201 11.958 57.5341 11.672C57.2567 11.3773 57.1181 11.0003 57.1181 10.541C57.1181 10.125 57.2307 9.76533 57.4561 9.462C57.6901 9.15867 58.0107 8.92467 58.4181 8.76C58.8254 8.59533 59.2934 8.513 59.8221 8.513C60.2034 8.513 60.5587 8.55633 60.8881 8.643C61.2261 8.721 61.5511 8.84667 61.8631 9.02C61.9931 9.08933 62.0797 9.18033 62.1231 9.293C62.1751 9.40567 62.1881 9.52267 62.1621 9.644C62.1361 9.75667 62.0841 9.86067 62.0061 9.956C61.9281 10.0427 61.8284 10.099 61.7071 10.125C61.5944 10.1423 61.4644 10.1163 61.3171 10.047C61.0484 9.90833 60.7884 9.80867 60.5371 9.748C60.2944 9.68733 60.0604 9.657 59.8351 9.657C59.4104 9.657 59.0941 9.73067 58.8861 9.878C58.6867 10.0253 58.5871 10.2203 58.5871 10.463C58.5871 10.645 58.6477 10.7967 58.7691 10.918C58.8904 11.0393 59.0767 11.1217 59.3281 11.165L60.6281 11.412C61.1914 11.516 61.6161 11.7067 61.9021 11.984C62.1967 12.2613 62.3441 12.634 62.3441 13.102C62.3441 13.7347 62.0971 14.233 61.6031 14.597C61.1091 14.9523 60.4504 15.13 59.6271 15.13ZM65.7407 15.13C65.2814 15.13 64.8697 15.0433 64.5057 14.87C64.1504 14.688 63.8687 14.4453 63.6607 14.142C63.4614 13.8387 63.3617 13.4963 63.3617 13.115C63.3617 12.647 63.4831 12.2787 63.7257 12.01C63.9684 11.7327 64.3627 11.5333 64.9087 11.412C65.4547 11.2907 66.1871 11.23 67.1057 11.23H67.7557V12.166H67.1187C66.5814 12.166 66.1524 12.192 65.8317 12.244C65.5111 12.296 65.2814 12.387 65.1427 12.517C65.0127 12.6383 64.9477 12.8117 64.9477 13.037C64.9477 13.323 65.0474 13.557 65.2467 13.739C65.4461 13.921 65.7234 14.012 66.0787 14.012C66.3647 14.012 66.6161 13.947 66.8327 13.817C67.0581 13.6783 67.2357 13.492 67.3657 13.258C67.4957 13.024 67.5607 12.7553 67.5607 12.452V10.957C67.5607 10.5237 67.4654 10.2117 67.2747 10.021C67.0841 9.83033 66.7634 9.735 66.3127 9.735C66.0614 9.735 65.7884 9.76533 65.4937 9.826C65.2077 9.88667 64.9044 9.99067 64.5837 10.138C64.4191 10.216 64.2717 10.2377 64.1417 10.203C64.0204 10.1683 63.9251 10.099 63.8557 9.995C63.7864 9.88233 63.7517 9.761 63.7517 9.631C63.7517 9.501 63.7864 9.37533 63.8557 9.254C63.9251 9.124 64.0421 9.02867 64.2067 8.968C64.6054 8.80333 64.9867 8.68633 65.3507 8.617C65.7234 8.54767 66.0614 8.513 66.3647 8.513C66.9887 8.513 67.5001 8.60833 67.8987 8.799C68.3061 8.98967 68.6094 9.28 68.8087 9.67C69.0081 10.0513 69.1077 10.5453 69.1077 11.152V14.272C69.1077 14.5407 69.0427 14.7487 68.9127 14.896C68.7827 15.0347 68.5964 15.104 68.3537 15.104C68.1111 15.104 67.9204 15.0347 67.7817 14.896C67.6517 14.7487 67.5867 14.5407 67.5867 14.272V13.648H67.6907C67.6301 13.9513 67.5087 14.2157 67.3267 14.441C67.1534 14.6577 66.9324 14.8267 66.6637 14.948C66.3951 15.0693 66.0874 15.13 65.7407 15.13ZM73.6951 15.13C73.0278 15.13 72.4471 14.9957 71.9531 14.727C71.4591 14.4497 71.0778 14.0597 70.8091 13.557C70.5404 13.0543 70.4061 12.465 70.4061 11.789C70.4061 11.2777 70.4798 10.8227 70.6271 10.424C70.7831 10.0167 71.0041 9.67433 71.2901 9.397C71.5761 9.111 71.9228 8.89433 72.3301 8.747C72.7374 8.591 73.1924 8.513 73.6951 8.513C73.9811 8.513 74.2888 8.552 74.6181 8.63C74.9561 8.708 75.2724 8.838 75.5671 9.02C75.7058 9.10667 75.7968 9.21067 75.8401 9.332C75.8834 9.45333 75.8921 9.579 75.8661 9.709C75.8401 9.83033 75.7838 9.93867 75.6971 10.034C75.6191 10.1207 75.5194 10.177 75.3981 10.203C75.2768 10.2203 75.1424 10.19 74.9951 10.112C74.8044 9.99933 74.6094 9.917 74.4101 9.865C74.2108 9.80433 74.0201 9.774 73.8381 9.774C73.5521 9.774 73.3008 9.82167 73.0841 9.917C72.8674 10.0037 72.6811 10.1337 72.5251 10.307C72.3778 10.4717 72.2651 10.6797 72.1871 10.931C72.1091 11.1823 72.0701 11.4727 72.0701 11.802C72.0701 12.4433 72.2218 12.9503 72.5251 13.323C72.8371 13.687 73.2748 13.869 73.8381 13.869C74.0201 13.869 74.2064 13.843 74.3971 13.791C74.5964 13.739 74.7958 13.6567 74.9951 13.544C75.1424 13.466 75.2724 13.44 75.3851 13.466C75.5064 13.492 75.6061 13.5527 75.6841 13.648C75.7621 13.7347 75.8098 13.843 75.8271 13.973C75.8444 14.0943 75.8271 14.2157 75.7751 14.337C75.7318 14.4583 75.6451 14.558 75.5151 14.636C75.2291 14.8093 74.9258 14.935 74.6051 15.013C74.2844 15.091 73.9811 15.13 73.6951 15.13ZM79.8263 15.13C79.263 15.13 78.7907 15.0347 78.4093 14.844C78.0367 14.6533 77.7593 14.376 77.5773 14.012C77.3953 13.6393 77.3043 13.18 77.3043 12.634V9.865H76.6283C76.4203 9.865 76.26 9.813 76.1473 9.709C76.0347 9.59633 75.9783 9.44467 75.9783 9.254C75.9783 9.05467 76.0347 8.903 76.1473 8.799C76.26 8.695 76.4203 8.643 76.6283 8.643H77.3043V7.46C77.3043 7.19133 77.3737 6.98767 77.5123 6.849C77.6597 6.71033 77.8633 6.641 78.1233 6.641C78.3833 6.641 78.5827 6.71033 78.7213 6.849C78.86 6.98767 78.9293 7.19133 78.9293 7.46V8.643H80.3073C80.5153 8.643 80.6757 8.695 80.7883 8.799C80.901 8.903 80.9573 9.05467 80.9573 9.254C80.9573 9.44467 80.901 9.59633 80.7883 9.709C80.6757 9.813 80.5153 9.865 80.3073 9.865H78.9293V12.543C78.9293 12.959 79.0203 13.271 79.2023 13.479C79.3843 13.687 79.679 13.791 80.0863 13.791C80.2337 13.791 80.3637 13.778 80.4763 13.752C80.589 13.726 80.6887 13.7087 80.7753 13.7C80.8793 13.6913 80.966 13.726 81.0353 13.804C81.1047 13.8733 81.1393 14.0207 81.1393 14.246C81.1393 14.4193 81.109 14.5753 81.0483 14.714C80.9963 14.844 80.8967 14.935 80.7493 14.987C80.6367 15.0217 80.4893 15.052 80.3073 15.078C80.1253 15.1127 79.965 15.13 79.8263 15.13ZM82.8746 15.091C82.6146 15.091 82.4153 15.013 82.2766 14.857C82.138 14.701 82.0686 14.4843 82.0686 14.207V9.436C82.0686 9.15 82.138 8.93333 82.2766 8.786C82.4153 8.63 82.6146 8.552 82.8746 8.552C83.1346 8.552 83.334 8.63 83.4726 8.786C83.62 8.93333 83.6936 9.15 83.6936 9.436V14.207C83.6936 14.4843 83.6243 14.701 83.4856 14.857C83.347 15.013 83.1433 15.091 82.8746 15.091ZM82.8746 7.343C82.5713 7.343 82.333 7.26933 82.1596 7.122C81.995 6.966 81.9126 6.75367 81.9126 6.485C81.9126 6.20767 81.995 5.99533 82.1596 5.848C82.333 5.70067 82.5713 5.627 82.8746 5.627C83.1866 5.627 83.425 5.70067 83.5896 5.848C83.7543 5.99533 83.8366 6.20767 83.8366 6.485C83.8366 6.75367 83.7543 6.966 83.5896 7.122C83.425 7.26933 83.1866 7.343 82.8746 7.343ZM88.2811 15.13C87.6224 15.13 87.0504 14.9957 86.5651 14.727C86.0798 14.4583 85.7028 14.077 85.4341 13.583C85.1654 13.0803 85.0311 12.491 85.0311 11.815C85.0311 11.3037 85.1048 10.8487 85.2521 10.45C85.4081 10.0427 85.6291 9.696 85.9151 9.41C86.2011 9.11533 86.5434 8.89433 86.9421 8.747C87.3408 8.591 87.7871 8.513 88.2811 8.513C88.9398 8.513 89.5118 8.64733 89.9971 8.916C90.4824 9.18467 90.8594 9.566 91.1281 10.06C91.3968 10.554 91.5311 11.139 91.5311 11.815C91.5311 12.3263 91.4531 12.7857 91.2971 13.193C91.1498 13.6003 90.9331 13.9513 90.6471 14.246C90.3611 14.532 90.0188 14.753 89.6201 14.909C89.2214 15.0563 88.7751 15.13 88.2811 15.13ZM88.2811 13.895C88.6018 13.895 88.8834 13.817 89.1261 13.661C89.3688 13.505 89.5551 13.2753 89.6851 12.972C89.8238 12.66 89.8931 12.2743 89.8931 11.815C89.8931 11.1217 89.7458 10.606 89.4511 10.268C89.1564 9.92133 88.7664 9.748 88.2811 9.748C87.9604 9.748 87.6788 9.826 87.4361 9.982C87.1934 10.1293 87.0028 10.359 86.8641 10.671C86.7341 10.9743 86.6691 11.3557 86.6691 11.815C86.6691 12.4997 86.8164 13.0197 87.1111 13.375C87.4058 13.7217 87.7958 13.895 88.2811 13.895ZM93.6783 15.104C93.4183 15.104 93.219 15.0347 93.0803 14.896C92.9417 14.7487 92.8723 14.5407 92.8723 14.272V9.358C92.8723 9.08933 92.9417 8.88567 93.0803 8.747C93.219 8.60833 93.414 8.539 93.6653 8.539C93.9167 8.539 94.1117 8.60833 94.2503 8.747C94.389 8.88567 94.4583 9.08933 94.4583 9.358V10.242L94.3153 9.917C94.506 9.45767 94.8007 9.111 95.1993 8.877C95.6067 8.63433 96.066 8.513 96.5773 8.513C97.0887 8.513 97.509 8.60833 97.8383 8.799C98.1677 8.98967 98.4147 9.28 98.5793 9.67C98.744 10.0513 98.8263 10.5367 98.8263 11.126V14.272C98.8263 14.5407 98.757 14.7487 98.6183 14.896C98.4797 15.0347 98.2803 15.104 98.0203 15.104C97.7603 15.104 97.5567 15.0347 97.4093 14.896C97.2707 14.7487 97.2013 14.5407 97.2013 14.272V11.204C97.2013 10.71 97.106 10.3503 96.9153 10.125C96.7333 9.89967 96.4473 9.787 96.0573 9.787C95.5807 9.787 95.1993 9.93867 94.9133 10.242C94.636 10.5367 94.4973 10.931 94.4973 11.425V14.272C94.4973 14.8267 94.2243 15.104 93.6783 15.104ZM105.02 15.104C104.751 15.104 104.539 15.0303 104.383 14.883C104.236 14.727 104.162 14.506 104.162 14.22V6.719C104.162 6.433 104.236 6.21633 104.383 6.069C104.539 5.913 104.76 5.835 105.046 5.835H109.583C109.808 5.835 109.977 5.89133 110.09 6.004C110.203 6.11667 110.259 6.277 110.259 6.485C110.259 6.70167 110.203 6.87067 110.09 6.992C109.977 7.10467 109.808 7.161 109.583 7.161H105.826V9.748H109.31C109.527 9.748 109.691 9.80433 109.804 9.917C109.925 10.0297 109.986 10.19 109.986 10.398C109.986 10.6147 109.925 10.7837 109.804 10.905C109.691 11.0177 109.527 11.074 109.31 11.074H105.826V14.22C105.826 14.8093 105.557 15.104 105.02 15.104ZM113.145 15.13C112.686 15.13 112.274 15.0433 111.91 14.87C111.555 14.688 111.273 14.4453 111.065 14.142C110.866 13.8387 110.766 13.4963 110.766 13.115C110.766 12.647 110.887 12.2787 111.13 12.01C111.373 11.7327 111.767 11.5333 112.313 11.412C112.859 11.2907 113.591 11.23 114.51 11.23H115.16V12.166H114.523C113.986 12.166 113.557 12.192 113.236 12.244C112.915 12.296 112.686 12.387 112.547 12.517C112.417 12.6383 112.352 12.8117 112.352 13.037C112.352 13.323 112.452 13.557 112.651 13.739C112.85 13.921 113.128 14.012 113.483 14.012C113.769 14.012 114.02 13.947 114.237 13.817C114.462 13.6783 114.64 13.492 114.77 13.258C114.9 13.024 114.965 12.7553 114.965 12.452V10.957C114.965 10.5237 114.87 10.2117 114.679 10.021C114.488 9.83033 114.168 9.735 113.717 9.735C113.466 9.735 113.193 9.76533 112.898 9.826C112.612 9.88667 112.309 9.99067 111.988 10.138C111.823 10.216 111.676 10.2377 111.546 10.203C111.425 10.1683 111.329 10.099 111.26 9.995C111.191 9.88233 111.156 9.761 111.156 9.631C111.156 9.501 111.191 9.37533 111.26 9.254C111.329 9.124 111.446 9.02867 111.611 8.968C112.01 8.80333 112.391 8.68633 112.755 8.617C113.128 8.54767 113.466 8.513 113.769 8.513C114.393 8.513 114.904 8.60833 115.303 8.799C115.71 8.98967 116.014 9.28 116.213 9.67C116.412 10.0513 116.512 10.5453 116.512 11.152V14.272C116.512 14.5407 116.447 14.7487 116.317 14.896C116.187 15.0347 116.001 15.104 115.758 15.104C115.515 15.104 115.325 15.0347 115.186 14.896C115.056 14.7487 114.991 14.5407 114.991 14.272V13.648H115.095C115.034 13.9513 114.913 14.2157 114.731 14.441C114.558 14.6577 114.337 14.8267 114.068 14.948C113.799 15.0693 113.492 15.13 113.145 15.13ZM118.967 15.091C118.707 15.091 118.508 15.013 118.369 14.857C118.231 14.701 118.161 14.4843 118.161 14.207V9.436C118.161 9.15 118.231 8.93333 118.369 8.786C118.508 8.63 118.707 8.552 118.967 8.552C119.227 8.552 119.427 8.63 119.565 8.786C119.713 8.93333 119.786 9.15 119.786 9.436V14.207C119.786 14.4843 119.717 14.701 119.578 14.857C119.44 15.013 119.236 15.091 118.967 15.091ZM118.967 7.343C118.664 7.343 118.426 7.26933 118.252 7.122C118.088 6.966 118.005 6.75367 118.005 6.485C118.005 6.20767 118.088 5.99533 118.252 5.848C118.426 5.70067 118.664 5.627 118.967 5.627C119.279 5.627 119.518 5.70067 119.682 5.848C119.847 5.99533 119.929 6.20767 119.929 6.485C119.929 6.75367 119.847 6.966 119.682 7.122C119.518 7.26933 119.279 7.343 118.967 7.343ZM123.646 15.13C122.927 15.13 122.385 14.9263 122.021 14.519C121.657 14.103 121.475 13.4963 121.475 12.699V6.55C121.475 6.28133 121.544 6.07767 121.683 5.939C121.822 5.80033 122.021 5.731 122.281 5.731C122.541 5.731 122.74 5.80033 122.879 5.939C123.026 6.07767 123.1 6.28133 123.1 6.55V12.621C123.1 13.0197 123.182 13.3143 123.347 13.505C123.52 13.6957 123.763 13.791 124.075 13.791C124.144 13.791 124.209 13.791 124.27 13.791C124.331 13.7823 124.391 13.7737 124.452 13.765C124.573 13.7477 124.656 13.7823 124.699 13.869C124.742 13.947 124.764 14.1117 124.764 14.363C124.764 14.5797 124.721 14.7487 124.634 14.87C124.547 14.9913 124.404 15.065 124.205 15.091C124.118 15.0997 124.027 15.1083 123.932 15.117C123.837 15.1257 123.741 15.13 123.646 15.13ZM127.927 15.13C127.399 15.13 126.961 15.0347 126.614 14.844C126.268 14.6447 126.008 14.35 125.834 13.96C125.67 13.57 125.587 13.0847 125.587 12.504V9.358C125.587 9.08067 125.657 8.877 125.795 8.747C125.934 8.60833 126.133 8.539 126.393 8.539C126.653 8.539 126.853 8.60833 126.991 8.747C127.139 8.877 127.212 9.08067 127.212 9.358V12.53C127.212 12.9807 127.303 13.3143 127.485 13.531C127.667 13.7477 127.958 13.856 128.356 13.856C128.79 13.856 129.145 13.7087 129.422 13.414C129.7 13.1107 129.838 12.712 129.838 12.218V9.358C129.838 9.08067 129.908 8.877 130.046 8.747C130.185 8.60833 130.384 8.539 130.644 8.539C130.904 8.539 131.104 8.60833 131.242 8.747C131.39 8.877 131.463 9.08067 131.463 9.358V14.272C131.463 14.8267 131.199 15.104 130.67 15.104C130.419 15.104 130.224 15.0347 130.085 14.896C129.947 14.7487 129.877 14.5407 129.877 14.272V13.284L130.059 13.674C129.877 14.142 129.6 14.5017 129.227 14.753C128.863 15.0043 128.43 15.13 127.927 15.13ZM133.987 15.104C133.718 15.104 133.51 15.0347 133.363 14.896C133.224 14.7487 133.155 14.5407 133.155 14.272V9.358C133.155 9.08933 133.224 8.88567 133.363 8.747C133.501 8.60833 133.696 8.539 133.948 8.539C134.199 8.539 134.394 8.60833 134.533 8.747C134.671 8.88567 134.741 9.08933 134.741 9.358V10.177H134.611C134.732 9.657 134.97 9.26267 135.326 8.994C135.681 8.72533 136.153 8.565 136.743 8.513C136.925 8.49567 137.068 8.54333 137.172 8.656C137.284 8.76 137.349 8.92467 137.367 9.15C137.384 9.36667 137.332 9.54433 137.211 9.683C137.098 9.813 136.925 9.891 136.691 9.917L136.405 9.943C135.876 9.995 135.477 10.1597 135.209 10.437C134.94 10.7057 134.806 11.087 134.806 11.581V14.272C134.806 14.5407 134.736 14.7487 134.598 14.896C134.459 15.0347 134.255 15.104 133.987 15.104ZM141.277 15.13C140.557 15.13 139.938 14.9957 139.418 14.727C138.898 14.4583 138.495 14.077 138.209 13.583C137.931 13.089 137.793 12.504 137.793 11.828C137.793 11.1693 137.927 10.593 138.196 10.099C138.473 9.605 138.85 9.21933 139.327 8.942C139.812 8.656 140.362 8.513 140.978 8.513C141.428 8.513 141.831 8.58667 142.187 8.734C142.551 8.88133 142.858 9.09367 143.11 9.371C143.37 9.64833 143.565 9.98633 143.695 10.385C143.833 10.775 143.903 11.217 143.903 11.711C143.903 11.867 143.846 11.9883 143.734 12.075C143.63 12.153 143.478 12.192 143.279 12.192H139.106V11.256H142.759L142.551 11.451C142.551 11.0523 142.49 10.7187 142.369 10.45C142.256 10.1813 142.087 9.97767 141.862 9.839C141.645 9.69167 141.372 9.618 141.043 9.618C140.679 9.618 140.367 9.70467 140.107 9.878C139.855 10.0427 139.66 10.281 139.522 10.593C139.392 10.8963 139.327 11.2603 139.327 11.685V11.776C139.327 12.4867 139.491 13.0197 139.821 13.375C140.159 13.7217 140.653 13.895 141.303 13.895C141.528 13.895 141.779 13.869 142.057 13.817C142.343 13.7563 142.611 13.6567 142.863 13.518C143.045 13.414 143.205 13.3707 143.344 13.388C143.482 13.3967 143.591 13.4443 143.669 13.531C143.755 13.6177 143.807 13.726 143.825 13.856C143.842 13.9773 143.816 14.103 143.747 14.233C143.686 14.363 143.578 14.4757 143.422 14.571C143.118 14.7617 142.767 14.9047 142.369 15C141.979 15.0867 141.615 15.13 141.277 15.13Z" fill="white"/>
<path d="M165 0L173 6H165V0Z" fill="url(#paint0_linear_210_11476)"/>
<path d="M8 0L0 6H8V0Z" fill="url(#paint1_linear_210_11476)"/>
<defs>
<linearGradient id="paint0_linear_210_11476" x1="169" y1="0" x2="169" y2="6" gradientUnits="userSpaceOnUse">
<stop stop-color="#863030"/>
<stop offset="1" stop-color="#FF6161"/>
</linearGradient>
<linearGradient id="paint1_linear_210_11476" x1="4" y1="0" x2="4" y2="6" gradientUnits="userSpaceOnUse">
<stop stop-color="#863030"/>
<stop offset="1" stop-color="#FF6161"/>
</linearGradient>
</defs>
</svg>
