<svg width="173" height="22" viewBox="0 0 173 22" fill="none" xmlns="http://www.w3.org/2000/svg">
<path d="M8 0H165V12C165 17.5228 160.523 22 155 22H18C12.4771 22 8 17.5228 8 12V0Z" fill="#AEB4BE"/>
<path d="M52.4609 15.13C51.8282 15.13 51.2692 15.0477 50.7839 14.883C50.3072 14.7183 49.9042 14.4757 49.5749 14.155C49.2455 13.8257 48.9985 13.4183 48.8339 12.933C48.6692 12.4477 48.5869 11.8843 48.5869 11.243V6.576C48.5869 6.29 48.6562 6.07767 48.7949 5.939C48.9422 5.80033 49.1502 5.731 49.4189 5.731C49.6875 5.731 49.8912 5.80033 50.0299 5.939C50.1772 6.07767 50.2509 6.29 50.2509 6.576V11.23C50.2509 12.0533 50.4372 12.673 50.8099 13.089C51.1912 13.4963 51.7415 13.7 52.4609 13.7C53.1802 13.7 53.7262 13.4963 54.0989 13.089C54.4715 12.673 54.6579 12.0533 54.6579 11.23V6.576C54.6579 6.29 54.7272 6.07767 54.8659 5.939C55.0132 5.80033 55.2212 5.731 55.4899 5.731C55.7499 5.731 55.9492 5.80033 56.0879 5.939C56.2352 6.07767 56.3089 6.29 56.3089 6.576V11.243C56.3089 12.0923 56.1615 12.8073 55.8669 13.388C55.5809 13.9687 55.1519 14.4063 54.5799 14.701C54.0079 14.987 53.3015 15.13 52.4609 15.13ZM58.8995 15.104C58.6395 15.104 58.4402 15.0347 58.3015 14.896C58.1629 14.7487 58.0935 14.5407 58.0935 14.272V9.358C58.0935 9.08933 58.1629 8.88567 58.3015 8.747C58.4402 8.60833 58.6352 8.539 58.8865 8.539C59.1379 8.539 59.3329 8.60833 59.4715 8.747C59.6102 8.88567 59.6795 9.08933 59.6795 9.358V10.242L59.5365 9.917C59.7272 9.45767 60.0219 9.111 60.4205 8.877C60.8279 8.63433 61.2872 8.513 61.7985 8.513C62.3099 8.513 62.7302 8.60833 63.0595 8.799C63.3889 8.98967 63.6359 9.28 63.8005 9.67C63.9652 10.0513 64.0475 10.5367 64.0475 11.126V14.272C64.0475 14.5407 63.9782 14.7487 63.8395 14.896C63.7009 15.0347 63.5015 15.104 63.2415 15.104C62.9815 15.104 62.7779 15.0347 62.6305 14.896C62.4919 14.7487 62.4225 14.5407 62.4225 14.272V11.204C62.4225 10.71 62.3272 10.3503 62.1365 10.125C61.9545 9.89967 61.6685 9.787 61.2785 9.787C60.8019 9.787 60.4205 9.93867 60.1345 10.242C59.8572 10.5367 59.7185 10.931 59.7185 11.425V14.272C59.7185 14.8267 59.4455 15.104 58.8995 15.104ZM68.142 15.13C67.5874 15.13 67.0977 14.9957 66.673 14.727C66.257 14.4583 65.932 14.077 65.698 13.583C65.464 13.0803 65.347 12.491 65.347 11.815C65.347 11.1303 65.464 10.5453 65.698 10.06C65.932 9.566 66.257 9.18467 66.673 8.916C67.0977 8.64733 67.5874 8.513 68.142 8.513C68.6707 8.513 69.13 8.643 69.52 8.903C69.9187 9.163 70.1874 9.50533 70.326 9.93H70.183V6.55C70.183 6.28133 70.2524 6.07767 70.391 5.939C70.5297 5.80033 70.729 5.731 70.989 5.731C71.249 5.731 71.4484 5.80033 71.587 5.939C71.7344 6.07767 71.808 6.28133 71.808 6.55V14.272C71.808 14.5407 71.7387 14.7487 71.6 14.896C71.4614 15.0347 71.262 15.104 71.002 15.104C70.742 15.104 70.5427 15.0347 70.404 14.896C70.2654 14.7487 70.196 14.5407 70.196 14.272V13.258L70.339 13.648C70.209 14.0987 69.9447 14.4583 69.546 14.727C69.1474 14.9957 68.6794 15.13 68.142 15.13ZM68.597 13.895C68.9177 13.895 69.1994 13.817 69.442 13.661C69.6847 13.505 69.871 13.2753 70.001 12.972C70.1397 12.66 70.209 12.2743 70.209 11.815C70.209 11.1217 70.0617 10.606 69.767 10.268C69.4724 9.92133 69.0824 9.748 68.597 9.748C68.2764 9.748 67.9947 9.826 67.752 9.982C67.5094 10.1293 67.3187 10.359 67.18 10.671C67.05 10.9743 66.985 11.3557 66.985 11.815C66.985 12.4997 67.1324 13.0197 67.427 13.375C67.7217 13.7217 68.1117 13.895 68.597 13.895ZM76.6259 15.13C75.9066 15.13 75.2869 14.9957 74.7669 14.727C74.2469 14.4583 73.8439 14.077 73.5579 13.583C73.2806 13.089 73.1419 12.504 73.1419 11.828C73.1419 11.1693 73.2763 10.593 73.5449 10.099C73.8223 9.605 74.1993 9.21933 74.6759 8.942C75.1613 8.656 75.7116 8.513 76.3269 8.513C76.7776 8.513 77.1806 8.58667 77.5359 8.734C77.8999 8.88133 78.2076 9.09367 78.4589 9.371C78.7189 9.64833 78.9139 9.98633 79.0439 10.385C79.1826 10.775 79.2519 11.217 79.2519 11.711C79.2519 11.867 79.1956 11.9883 79.0829 12.075C78.9789 12.153 78.8273 12.192 78.6279 12.192H74.4549V11.256H78.1079L77.8999 11.451C77.8999 11.0523 77.8393 10.7187 77.7179 10.45C77.6053 10.1813 77.4363 9.97767 77.2109 9.839C76.9943 9.69167 76.7213 9.618 76.3919 9.618C76.0279 9.618 75.7159 9.70467 75.4559 9.878C75.2046 10.0427 75.0096 10.281 74.8709 10.593C74.7409 10.8963 74.6759 11.2603 74.6759 11.685V11.776C74.6759 12.4867 74.8406 13.0197 75.1699 13.375C75.5079 13.7217 76.0019 13.895 76.6519 13.895C76.8773 13.895 77.1286 13.869 77.4059 13.817C77.6919 13.7563 77.9606 13.6567 78.2119 13.518C78.3939 13.414 78.5543 13.3707 78.6929 13.388C78.8316 13.3967 78.9399 13.4443 79.0179 13.531C79.1046 13.6177 79.1566 13.726 79.1739 13.856C79.1913 13.9773 79.1653 14.103 79.0959 14.233C79.0353 14.363 78.9269 14.4757 78.7709 14.571C78.4676 14.7617 78.1166 14.9047 77.7179 15C77.3279 15.0867 76.9639 15.13 76.6259 15.13ZM81.3708 15.104C81.1022 15.104 80.8942 15.0347 80.7468 14.896C80.6082 14.7487 80.5388 14.5407 80.5388 14.272V9.358C80.5388 9.08933 80.6082 8.88567 80.7468 8.747C80.8855 8.60833 81.0805 8.539 81.3318 8.539C81.5832 8.539 81.7782 8.60833 81.9168 8.747C82.0555 8.88567 82.1248 9.08933 82.1248 9.358V10.177H81.9948C82.1162 9.657 82.3545 9.26267 82.7098 8.994C83.0652 8.72533 83.5375 8.565 84.1268 8.513C84.3088 8.49567 84.4518 8.54333 84.5558 8.656C84.6685 8.76 84.7335 8.92467 84.7508 9.15C84.7682 9.36667 84.7162 9.54433 84.5948 9.683C84.4822 9.813 84.3088 9.891 84.0748 9.917L83.7888 9.943C83.2602 9.995 82.8615 10.1597 82.5928 10.437C82.3242 10.7057 82.1898 11.087 82.1898 11.581V14.272C82.1898 14.5407 82.1205 14.7487 81.9818 14.896C81.8432 15.0347 81.6395 15.104 81.3708 15.104ZM88.4802 15.104C88.2636 15.104 88.0772 15.052 87.9212 14.948C87.7652 14.8353 87.6396 14.662 87.5442 14.428L85.6592 9.618C85.5812 9.41 85.5552 9.228 85.5812 9.072C85.6159 8.90733 85.6982 8.77733 85.8282 8.682C85.9582 8.58667 86.1316 8.539 86.3482 8.539C86.5389 8.539 86.6949 8.58667 86.8162 8.682C86.9376 8.76867 87.0416 8.93767 87.1282 9.189L88.7012 13.518H88.4022L90.0272 9.085C90.0966 8.89433 90.1876 8.75567 90.3002 8.669C90.4216 8.58233 90.5776 8.539 90.7682 8.539C90.9589 8.539 91.1149 8.58667 91.2362 8.682C91.3576 8.76867 91.4486 8.903 91.5092 9.085L93.1082 13.518H92.8352L94.4212 9.15C94.5079 8.916 94.6162 8.75567 94.7462 8.669C94.8849 8.58233 95.0366 8.539 95.2012 8.539C95.4092 8.539 95.5696 8.591 95.6822 8.695C95.7949 8.799 95.8599 8.93333 95.8772 9.098C95.8946 9.254 95.8642 9.42733 95.7862 9.618L93.9142 14.428C93.8276 14.6533 93.7019 14.8223 93.5372 14.935C93.3812 15.0477 93.1949 15.104 92.9782 15.104C92.7616 15.104 92.5709 15.0477 92.4062 14.935C92.2502 14.8223 92.1289 14.6533 92.0422 14.428L90.3392 9.917H91.0802L89.4162 14.415C89.3296 14.649 89.2082 14.8223 89.0522 14.935C88.8962 15.0477 88.7056 15.104 88.4802 15.104ZM97.9382 15.104C97.6696 15.104 97.4616 15.0347 97.3142 14.896C97.1756 14.7487 97.1062 14.5407 97.1062 14.272V9.358C97.1062 9.08933 97.1756 8.88567 97.3142 8.747C97.4529 8.60833 97.6479 8.539 97.8992 8.539C98.1506 8.539 98.3456 8.60833 98.4842 8.747C98.6229 8.88567 98.6922 9.08933 98.6922 9.358V10.177H98.5622C98.6836 9.657 98.9219 9.26267 99.2772 8.994C99.6326 8.72533 100.105 8.565 100.694 8.513C100.876 8.49567 101.019 8.54333 101.123 8.656C101.236 8.76 101.301 8.92467 101.318 9.15C101.336 9.36667 101.284 9.54433 101.162 9.683C101.05 9.813 100.876 9.891 100.642 9.917L100.356 9.943C99.8276 9.995 99.4289 10.1597 99.1602 10.437C98.8916 10.7057 98.7572 11.087 98.7572 11.581V14.272C98.7572 14.5407 98.6879 14.7487 98.5492 14.896C98.4106 15.0347 98.2069 15.104 97.9382 15.104ZM103.003 15.091C102.743 15.091 102.544 15.013 102.405 14.857C102.266 14.701 102.197 14.4843 102.197 14.207V9.436C102.197 9.15 102.266 8.93333 102.405 8.786C102.544 8.63 102.743 8.552 103.003 8.552C103.263 8.552 103.462 8.63 103.601 8.786C103.748 8.93333 103.822 9.15 103.822 9.436V14.207C103.822 14.4843 103.753 14.701 103.614 14.857C103.475 15.013 103.272 15.091 103.003 15.091ZM103.003 7.343C102.7 7.343 102.461 7.26933 102.288 7.122C102.123 6.966 102.041 6.75367 102.041 6.485C102.041 6.20767 102.123 5.99533 102.288 5.848C102.461 5.70067 102.7 5.627 103.003 5.627C103.315 5.627 103.553 5.70067 103.718 5.848C103.883 5.99533 103.965 6.20767 103.965 6.485C103.965 6.75367 103.883 6.966 103.718 7.122C103.553 7.26933 103.315 7.343 103.003 7.343ZM108.423 15.13C107.859 15.13 107.387 15.0347 107.006 14.844C106.633 14.6533 106.356 14.376 106.174 14.012C105.992 13.6393 105.901 13.18 105.901 12.634V9.865H105.225C105.017 9.865 104.856 9.813 104.744 9.709C104.631 9.59633 104.575 9.44467 104.575 9.254C104.575 9.05467 104.631 8.903 104.744 8.799C104.856 8.695 105.017 8.643 105.225 8.643H105.901V7.46C105.901 7.19133 105.97 6.98767 106.109 6.849C106.256 6.71033 106.46 6.641 106.72 6.641C106.98 6.641 107.179 6.71033 107.318 6.849C107.456 6.98767 107.526 7.19133 107.526 7.46V8.643H108.904C109.112 8.643 109.272 8.695 109.385 8.799C109.497 8.903 109.554 9.05467 109.554 9.254C109.554 9.44467 109.497 9.59633 109.385 9.709C109.272 9.813 109.112 9.865 108.904 9.865H107.526V12.543C107.526 12.959 107.617 13.271 107.799 13.479C107.981 13.687 108.275 13.791 108.683 13.791C108.83 13.791 108.96 13.778 109.073 13.752C109.185 13.726 109.285 13.7087 109.372 13.7C109.476 13.6913 109.562 13.726 109.632 13.804C109.701 13.8733 109.736 14.0207 109.736 14.246C109.736 14.4193 109.705 14.5753 109.645 14.714C109.593 14.844 109.493 14.935 109.346 14.987C109.233 15.0217 109.086 15.052 108.904 15.078C108.722 15.1127 108.561 15.13 108.423 15.13ZM113.044 15.13C112.48 15.13 112.008 15.0347 111.627 14.844C111.254 14.6533 110.977 14.376 110.795 14.012C110.613 13.6393 110.522 13.18 110.522 12.634V9.865H109.846C109.638 9.865 109.477 9.813 109.365 9.709C109.252 9.59633 109.196 9.44467 109.196 9.254C109.196 9.05467 109.252 8.903 109.365 8.799C109.477 8.695 109.638 8.643 109.846 8.643H110.522V7.46C110.522 7.19133 110.591 6.98767 110.73 6.849C110.877 6.71033 111.081 6.641 111.341 6.641C111.601 6.641 111.8 6.71033 111.939 6.849C112.077 6.98767 112.147 7.19133 112.147 7.46V8.643H113.525C113.733 8.643 113.893 8.695 114.006 8.799C114.118 8.903 114.175 9.05467 114.175 9.254C114.175 9.44467 114.118 9.59633 114.006 9.709C113.893 9.813 113.733 9.865 113.525 9.865H112.147V12.543C112.147 12.959 112.238 13.271 112.42 13.479C112.602 13.687 112.896 13.791 113.304 13.791C113.451 13.791 113.581 13.778 113.694 13.752C113.806 13.726 113.906 13.7087 113.993 13.7C114.097 13.6913 114.183 13.726 114.253 13.804C114.322 13.8733 114.357 14.0207 114.357 14.246C114.357 14.4193 114.326 14.5753 114.266 14.714C114.214 14.844 114.114 14.935 113.967 14.987C113.854 15.0217 113.707 15.052 113.525 15.078C113.343 15.1127 113.182 15.13 113.044 15.13ZM118.19 15.13C117.471 15.13 116.851 14.9957 116.331 14.727C115.811 14.4583 115.408 14.077 115.122 13.583C114.845 13.089 114.706 12.504 114.706 11.828C114.706 11.1693 114.841 10.593 115.109 10.099C115.387 9.605 115.764 9.21933 116.24 8.942C116.726 8.656 117.276 8.513 117.891 8.513C118.342 8.513 118.745 8.58667 119.1 8.734C119.464 8.88133 119.772 9.09367 120.023 9.371C120.283 9.64833 120.478 9.98633 120.608 10.385C120.747 10.775 120.816 11.217 120.816 11.711C120.816 11.867 120.76 11.9883 120.647 12.075C120.543 12.153 120.392 12.192 120.192 12.192H116.019V11.256H119.672L119.464 11.451C119.464 11.0523 119.404 10.7187 119.282 10.45C119.17 10.1813 119.001 9.97767 118.775 9.839C118.559 9.69167 118.286 9.618 117.956 9.618C117.592 9.618 117.28 9.70467 117.02 9.878C116.769 10.0427 116.574 10.281 116.435 10.593C116.305 10.8963 116.24 11.2603 116.24 11.685V11.776C116.24 12.4867 116.405 13.0197 116.734 13.375C117.072 13.7217 117.566 13.895 118.216 13.895C118.442 13.895 118.693 13.869 118.97 13.817C119.256 13.7563 119.525 13.6567 119.776 13.518C119.958 13.414 120.119 13.3707 120.257 13.388C120.396 13.3967 120.504 13.4443 120.582 13.531C120.669 13.6177 120.721 13.726 120.738 13.856C120.756 13.9773 120.73 14.103 120.66 14.233C120.6 14.363 120.491 14.4757 120.335 14.571C120.032 14.7617 119.681 14.9047 119.282 15C118.892 15.0867 118.528 15.13 118.19 15.13ZM122.935 15.104C122.667 15.104 122.459 15.0347 122.311 14.896C122.173 14.7487 122.103 14.5407 122.103 14.272V9.358C122.103 9.08933 122.173 8.88567 122.311 8.747C122.45 8.60833 122.645 8.539 122.896 8.539C123.148 8.539 123.343 8.60833 123.481 8.747C123.62 8.88567 123.689 9.08933 123.689 9.358V10.177H123.559C123.681 9.657 123.919 9.26267 124.274 8.994C124.63 8.72533 125.102 8.565 125.691 8.513C125.873 8.49567 126.016 8.54333 126.12 8.656C126.233 8.76 126.298 8.92467 126.315 9.15C126.333 9.36667 126.281 9.54433 126.159 9.683C126.047 9.813 125.873 9.891 125.639 9.917L125.353 9.943C124.825 9.995 124.426 10.1597 124.157 10.437C123.889 10.7057 123.754 11.087 123.754 11.581V14.272C123.754 14.5407 123.685 14.7487 123.546 14.896C123.408 15.0347 123.204 15.104 122.935 15.104Z" fill="white"/>
<path d="M165 0L173 6H165V0Z" fill="url(#paint0_linear_210_11487)"/>
<path d="M8 0L0 6H8V0Z" fill="url(#paint1_linear_210_11487)"/>
<defs>
<linearGradient id="paint0_linear_210_11487" x1="169" y1="0" x2="169" y2="6" gradientUnits="userSpaceOnUse">
<stop stop-color="#62666E"/>
<stop offset="1" stop-color="#AEB4BE"/>
</linearGradient>
<linearGradient id="paint1_linear_210_11487" x1="4" y1="0" x2="4" y2="6" gradientUnits="userSpaceOnUse">
<stop stop-color="#62666E"/>
<stop offset="1" stop-color="#AEB4BE"/>
</linearGradient>
</defs>
</svg>
