<svg width="173" height="22" viewBox="0 0 173 22" fill="none" xmlns="http://www.w3.org/2000/svg">
<path d="M8 0H165V12C165 17.5228 160.523 22 155 22H18C12.4771 22 8 17.5228 8 12V0Z" fill="#65BDFF"/>
<path d="M46.1488 14.6821C45.9148 14.6821 45.7198 14.6301 45.5638 14.5261C45.4165 14.4135 45.2951 14.2488 45.1998 14.0321L41.8068 6.41412C41.7115 6.19746 41.6855 6.00679 41.7288 5.84212C41.7721 5.67746 41.8631 5.54746 42.0018 5.45212C42.1405 5.35679 42.3051 5.30912 42.4958 5.30912C42.7471 5.30912 42.9335 5.36546 43.0548 5.47812C43.1848 5.58212 43.2931 5.74246 43.3798 5.95912L46.4608 13.0961H45.9018L48.9698 5.94612C49.0651 5.73812 49.1778 5.58212 49.3078 5.47812C49.4378 5.36546 49.6198 5.30912 49.8538 5.30912C50.0445 5.30912 50.2005 5.35679 50.3218 5.45212C50.4518 5.54746 50.5341 5.67746 50.5688 5.84212C50.6035 6.00679 50.5731 6.19746 50.4778 6.41412L47.0848 14.0321C46.9895 14.2488 46.8681 14.4135 46.7208 14.5261C46.5821 14.6301 46.3915 14.6821 46.1488 14.6821ZM53.9409 14.7081C53.2216 14.7081 52.6019 14.5738 52.0819 14.3051C51.5619 14.0365 51.1589 13.6551 50.8729 13.1611C50.5956 12.6671 50.4569 12.0821 50.4569 11.4061C50.4569 10.7475 50.5912 10.1711 50.8599 9.67712C51.1372 9.18312 51.5142 8.79746 51.9909 8.52012C52.4762 8.23412 53.0266 8.09112 53.6419 8.09112C54.0926 8.09112 54.4956 8.16479 54.8509 8.31212C55.2149 8.45946 55.5226 8.67179 55.7739 8.94912C56.0339 9.22646 56.2289 9.56446 56.3589 9.96312C56.4976 10.3531 56.5669 10.7951 56.5669 11.2891C56.5669 11.4451 56.5106 11.5665 56.3979 11.6531C56.2939 11.7311 56.1422 11.7701 55.9429 11.7701H51.7699V10.8341H55.4229L55.2149 11.0291C55.2149 10.6305 55.1542 10.2968 55.0329 10.0281C54.9202 9.75946 54.7512 9.55579 54.5259 9.41712C54.3092 9.26979 54.0362 9.19612 53.7069 9.19612C53.3429 9.19612 53.0309 9.28279 52.7709 9.45612C52.5196 9.62079 52.3246 9.85912 52.1859 10.1711C52.0559 10.4745 51.9909 10.8385 51.9909 11.2631V11.3541C51.9909 12.0648 52.1556 12.5978 52.4849 12.9531C52.8229 13.2998 53.3169 13.4731 53.9669 13.4731C54.1922 13.4731 54.4436 13.4471 54.7209 13.3951C55.0069 13.3345 55.2756 13.2348 55.5269 13.0961C55.7089 12.9921 55.8692 12.9488 56.0079 12.9661C56.1466 12.9748 56.2549 13.0225 56.3329 13.1091C56.4196 13.1958 56.4716 13.3041 56.4889 13.4341C56.5062 13.5555 56.4802 13.6811 56.4109 13.8111C56.3502 13.9411 56.2419 14.0538 56.0859 14.1491C55.7826 14.3398 55.4316 14.4828 55.0329 14.5781C54.6429 14.6648 54.2789 14.7081 53.9409 14.7081ZM58.6598 14.6821C58.3998 14.6821 58.2005 14.6128 58.0618 14.4741C57.9231 14.3268 57.8538 14.1188 57.8538 13.8501V6.12812C57.8538 5.85946 57.9231 5.65579 58.0618 5.51712C58.2005 5.37846 58.3998 5.30912 58.6598 5.30912C58.9198 5.30912 59.1191 5.37846 59.2578 5.51712C59.4051 5.65579 59.4788 5.85946 59.4788 6.12812V9.49512H59.2968C59.4875 9.03579 59.7821 8.68912 60.1808 8.45512C60.5881 8.21246 61.0475 8.09112 61.5588 8.09112C62.0701 8.09112 62.4905 8.18646 62.8198 8.37712C63.1491 8.56779 63.3961 8.85812 63.5608 9.24812C63.7255 9.62946 63.8078 10.1148 63.8078 10.7041V13.8501C63.8078 14.1188 63.7385 14.3268 63.5998 14.4741C63.4611 14.6128 63.2618 14.6821 63.0018 14.6821C62.7418 14.6821 62.5381 14.6128 62.3908 14.4741C62.2521 14.3268 62.1828 14.1188 62.1828 13.8501V10.7821C62.1828 10.2881 62.0875 9.92846 61.8968 9.70312C61.7148 9.47779 61.4288 9.36512 61.0388 9.36512C60.5621 9.36512 60.1808 9.51679 59.8948 9.82012C59.6175 10.1148 59.4788 10.5091 59.4788 11.0031V13.8501C59.4788 14.4048 59.2058 14.6821 58.6598 14.6821ZM66.2643 14.6691C66.0043 14.6691 65.8049 14.5911 65.6663 14.4351C65.5276 14.2791 65.4583 14.0625 65.4583 13.7851V9.01412C65.4583 8.72812 65.5276 8.51146 65.6663 8.36412C65.8049 8.20812 66.0043 8.13012 66.2643 8.13012C66.5243 8.13012 66.7236 8.20812 66.8623 8.36412C67.0096 8.51146 67.0833 8.72812 67.0833 9.01412V13.7851C67.0833 14.0625 67.0139 14.2791 66.8753 14.4351C66.7366 14.5911 66.5329 14.6691 66.2643 14.6691ZM66.2643 6.92112C65.9609 6.92112 65.7226 6.84746 65.5493 6.70012C65.3846 6.54412 65.3023 6.33179 65.3023 6.06312C65.3023 5.78579 65.3846 5.57346 65.5493 5.42612C65.7226 5.27879 65.9609 5.20512 66.2643 5.20512C66.5763 5.20512 66.8146 5.27879 66.9793 5.42612C67.1439 5.57346 67.2263 5.78579 67.2263 6.06312C67.2263 6.33179 67.1439 6.54412 66.9793 6.70012C66.8146 6.84746 66.5763 6.92112 66.2643 6.92112ZM71.7098 14.7081C71.0424 14.7081 70.4618 14.5738 69.9678 14.3051C69.4738 14.0278 69.0924 13.6378 68.8238 13.1351C68.5551 12.6325 68.4208 12.0431 68.4208 11.3671C68.4208 10.8558 68.4944 10.4008 68.6418 10.0021C68.7978 9.59479 69.0188 9.25246 69.3048 8.97512C69.5908 8.68912 69.9374 8.47246 70.3448 8.32512C70.7521 8.16912 71.2071 8.09112 71.7098 8.09112C71.9958 8.09112 72.3034 8.13012 72.6328 8.20812C72.9708 8.28612 73.2871 8.41612 73.5818 8.59812C73.7204 8.68479 73.8114 8.78879 73.8548 8.91012C73.8981 9.03146 73.9068 9.15712 73.8808 9.28712C73.8548 9.40846 73.7984 9.51679 73.7118 9.61212C73.6338 9.69879 73.5341 9.75512 73.4128 9.78112C73.2914 9.79846 73.1571 9.76812 73.0098 9.69012C72.8191 9.57746 72.6241 9.49512 72.4248 9.44312C72.2254 9.38246 72.0348 9.35212 71.8528 9.35212C71.5668 9.35212 71.3154 9.39979 71.0988 9.49512C70.8821 9.58179 70.6958 9.71179 70.5398 9.88512C70.3924 10.0498 70.2798 10.2578 70.2018 10.5091C70.1238 10.7605 70.0848 11.0508 70.0848 11.3801C70.0848 12.0215 70.2364 12.5285 70.5398 12.9011C70.8518 13.2651 71.2894 13.4471 71.8528 13.4471C72.0348 13.4471 72.2211 13.4211 72.4118 13.3691C72.6111 13.3171 72.8104 13.2348 73.0098 13.1221C73.1571 13.0441 73.2871 13.0181 73.3998 13.0441C73.5211 13.0701 73.6208 13.1308 73.6988 13.2261C73.7768 13.3128 73.8244 13.4211 73.8418 13.5511C73.8591 13.6725 73.8418 13.7938 73.7898 13.9151C73.7464 14.0365 73.6598 14.1361 73.5298 14.2141C73.2438 14.3875 72.9404 14.5131 72.6198 14.5911C72.2991 14.6691 71.9958 14.7081 71.7098 14.7081ZM77.0746 14.7081C76.3553 14.7081 75.8136 14.5045 75.4496 14.0971C75.0856 13.6811 74.9036 13.0745 74.9036 12.2771V6.12812C74.9036 5.85946 74.9729 5.65579 75.1116 5.51712C75.2503 5.37846 75.4496 5.30912 75.7096 5.30912C75.9696 5.30912 76.1689 5.37846 76.3076 5.51712C76.4549 5.65579 76.5286 5.85946 76.5286 6.12812V12.1991C76.5286 12.5978 76.6109 12.8925 76.7756 13.0831C76.9489 13.2738 77.1916 13.3691 77.5036 13.3691C77.5729 13.3691 77.6379 13.3691 77.6986 13.3691C77.7593 13.3605 77.8199 13.3518 77.8806 13.3431C78.0019 13.3258 78.0843 13.3605 78.1276 13.4471C78.1709 13.5251 78.1926 13.6898 78.1926 13.9411C78.1926 14.1578 78.1493 14.3268 78.0626 14.4481C77.9759 14.5695 77.8329 14.6431 77.6336 14.6691C77.5469 14.6778 77.4559 14.6865 77.3606 14.6951C77.2653 14.7038 77.1699 14.7081 77.0746 14.7081ZM82.1245 14.7081C81.4052 14.7081 80.7855 14.5738 80.2655 14.3051C79.7455 14.0365 79.3425 13.6551 79.0565 13.1611C78.7792 12.6671 78.6405 12.0821 78.6405 11.4061C78.6405 10.7475 78.7748 10.1711 79.0435 9.67712C79.3208 9.18312 79.6978 8.79746 80.1745 8.52012C80.6598 8.23412 81.2102 8.09112 81.8255 8.09112C82.2762 8.09112 82.6792 8.16479 83.0345 8.31212C83.3985 8.45946 83.7062 8.67179 83.9575 8.94912C84.2175 9.22646 84.4125 9.56446 84.5425 9.96312C84.6812 10.3531 84.7505 10.7951 84.7505 11.2891C84.7505 11.4451 84.6942 11.5665 84.5815 11.6531C84.4775 11.7311 84.3258 11.7701 84.1265 11.7701H79.9535V10.8341H83.6065L83.3985 11.0291C83.3985 10.6305 83.3378 10.2968 83.2165 10.0281C83.1038 9.75946 82.9348 9.55579 82.7095 9.41712C82.4928 9.26979 82.2198 9.19612 81.8905 9.19612C81.5265 9.19612 81.2145 9.28279 80.9545 9.45612C80.7032 9.62079 80.5082 9.85912 80.3695 10.1711C80.2395 10.4745 80.1745 10.8385 80.1745 11.2631V11.3541C80.1745 12.0648 80.3392 12.5978 80.6685 12.9531C81.0065 13.2998 81.5005 13.4731 82.1505 13.4731C82.3758 13.4731 82.6272 13.4471 82.9045 13.3951C83.1905 13.3345 83.4592 13.2348 83.7105 13.0961C83.8925 12.9921 84.0528 12.9488 84.1915 12.9661C84.3302 12.9748 84.4385 13.0225 84.5165 13.1091C84.6032 13.1958 84.6552 13.3041 84.6725 13.4341C84.6898 13.5555 84.6638 13.6811 84.5945 13.8111C84.5338 13.9411 84.4255 14.0538 84.2695 14.1491C83.9662 14.3398 83.6152 14.4828 83.2165 14.5781C82.8265 14.6648 82.4625 14.7081 82.1245 14.7081ZM90.6067 14.5781C90.3207 14.5781 90.0997 14.5045 89.9437 14.3571C89.7963 14.2011 89.7227 13.9801 89.7227 13.6941V6.29712C89.7227 6.01112 89.7963 5.79446 89.9437 5.64712C90.0997 5.49112 90.3207 5.41312 90.6067 5.41312H93.1287C94.6627 5.41312 95.8457 5.80746 96.6777 6.59612C97.5183 7.38479 97.9387 8.51579 97.9387 9.98912C97.9387 10.7258 97.8303 11.3801 97.6137 11.9521C97.4057 12.5155 97.0937 12.9921 96.6777 13.3821C96.2703 13.7721 95.7677 14.0711 95.1697 14.2791C94.5803 14.4785 93.9 14.5781 93.1287 14.5781H90.6067ZM91.3867 13.2001H93.0247C93.562 13.2001 94.0257 13.1351 94.4157 13.0051C94.8143 12.8665 95.1437 12.6671 95.4037 12.4071C95.6723 12.1385 95.8717 11.8048 96.0017 11.4061C96.1317 10.9988 96.1967 10.5265 96.1967 9.98912C96.1967 8.91446 95.9323 8.11279 95.4037 7.58412C94.875 7.05546 94.082 6.79112 93.0247 6.79112H91.3867V13.2001ZM102.602 14.7081C101.883 14.7081 101.263 14.5738 100.743 14.3051C100.223 14.0365 99.82 13.6551 99.534 13.1611C99.2567 12.6671 99.118 12.0821 99.118 11.4061C99.118 10.7475 99.2524 10.1711 99.521 9.67712C99.7984 9.18312 100.175 8.79746 100.652 8.52012C101.137 8.23412 101.688 8.09112 102.303 8.09112C102.754 8.09112 103.157 8.16479 103.512 8.31212C103.876 8.45946 104.184 8.67179 104.435 8.94912C104.695 9.22646 104.89 9.56446 105.02 9.96312C105.159 10.3531 105.228 10.7951 105.228 11.2891C105.228 11.4451 105.172 11.5665 105.059 11.6531C104.955 11.7311 104.803 11.7701 104.604 11.7701H100.431V10.8341H104.084L103.876 11.0291C103.876 10.6305 103.815 10.2968 103.694 10.0281C103.581 9.75946 103.412 9.55579 103.187 9.41712C102.97 9.26979 102.697 9.19612 102.368 9.19612C102.004 9.19612 101.692 9.28279 101.432 9.45612C101.181 9.62079 100.986 9.85912 100.847 10.1711C100.717 10.4745 100.652 10.8385 100.652 11.2631V11.3541C100.652 12.0648 100.817 12.5978 101.146 12.9531C101.484 13.2998 101.978 13.4731 102.628 13.4731C102.853 13.4731 103.105 13.4471 103.382 13.3951C103.668 13.3345 103.937 13.2348 104.188 13.0961C104.37 12.9921 104.53 12.9488 104.669 12.9661C104.808 12.9748 104.916 13.0225 104.994 13.1091C105.081 13.1958 105.133 13.3041 105.15 13.4341C105.167 13.5555 105.141 13.6811 105.072 13.8111C105.011 13.9411 104.903 14.0538 104.747 14.1491C104.444 14.3398 104.093 14.4828 103.694 14.5781C103.304 14.6648 102.94 14.7081 102.602 14.7081ZM109.402 14.7081C108.838 14.7081 108.366 14.6128 107.985 14.4221C107.612 14.2315 107.335 13.9541 107.153 13.5901C106.971 13.2175 106.88 12.7581 106.88 12.2121V9.44312H106.204C105.996 9.44312 105.835 9.39112 105.723 9.28712C105.61 9.17446 105.554 9.02279 105.554 8.83212C105.554 8.63279 105.61 8.48112 105.723 8.37712C105.835 8.27312 105.996 8.22112 106.204 8.22112H106.88V7.03812C106.88 6.76946 106.949 6.56579 107.088 6.42712C107.235 6.28846 107.439 6.21912 107.699 6.21912C107.959 6.21912 108.158 6.28846 108.297 6.42712C108.435 6.56579 108.505 6.76946 108.505 7.03812V8.22112H109.883C110.091 8.22112 110.251 8.27312 110.364 8.37712C110.476 8.48112 110.533 8.63279 110.533 8.83212C110.533 9.02279 110.476 9.17446 110.364 9.28712C110.251 9.39112 110.091 9.44312 109.883 9.44312H108.505V12.1211C108.505 12.5371 108.596 12.8491 108.778 13.0571C108.96 13.2651 109.254 13.3691 109.662 13.3691C109.809 13.3691 109.939 13.3561 110.052 13.3301C110.164 13.3041 110.264 13.2868 110.351 13.2781C110.455 13.2695 110.541 13.3041 110.611 13.3821C110.68 13.4515 110.715 13.5988 110.715 13.8241C110.715 13.9975 110.684 14.1535 110.624 14.2921C110.572 14.4221 110.472 14.5131 110.325 14.5651C110.212 14.5998 110.065 14.6301 109.883 14.6561C109.701 14.6908 109.54 14.7081 109.402 14.7081ZM113.572 14.7081C113.112 14.7081 112.701 14.6215 112.337 14.4481C111.981 14.2661 111.7 14.0235 111.492 13.7201C111.292 13.4168 111.193 13.0745 111.193 12.6931C111.193 12.2251 111.314 11.8568 111.557 11.5881C111.799 11.3108 112.194 11.1115 112.74 10.9901C113.286 10.8688 114.018 10.8081 114.937 10.8081H115.587V11.7441H114.95C114.412 11.7441 113.983 11.7701 113.663 11.8221C113.342 11.8741 113.112 11.9651 112.974 12.0951C112.844 12.2165 112.779 12.3898 112.779 12.6151C112.779 12.9011 112.878 13.1351 113.078 13.3171C113.277 13.4991 113.554 13.5901 113.91 13.5901C114.196 13.5901 114.447 13.5251 114.664 13.3951C114.889 13.2565 115.067 13.0701 115.197 12.8361C115.327 12.6021 115.392 12.3335 115.392 12.0301V10.5351C115.392 10.1018 115.296 9.78979 115.106 9.59912C114.915 9.40846 114.594 9.31312 114.144 9.31312C113.892 9.31312 113.619 9.34346 113.325 9.40412C113.039 9.46479 112.735 9.56879 112.415 9.71612C112.25 9.79412 112.103 9.81579 111.973 9.78112C111.851 9.74646 111.756 9.67712 111.687 9.57312C111.617 9.46046 111.583 9.33912 111.583 9.20912C111.583 9.07912 111.617 8.95346 111.687 8.83212C111.756 8.70212 111.873 8.60679 112.038 8.54612C112.436 8.38146 112.818 8.26446 113.182 8.19512C113.554 8.12579 113.892 8.09112 114.196 8.09112C114.82 8.09112 115.331 8.18646 115.73 8.37712C116.137 8.56779 116.44 8.85812 116.64 9.24812C116.839 9.62946 116.939 10.1235 116.939 10.7301V13.8501C116.939 14.1188 116.874 14.3268 116.744 14.4741C116.614 14.6128 116.427 14.6821 116.185 14.6821C115.942 14.6821 115.751 14.6128 115.613 14.4741C115.483 14.3268 115.418 14.1188 115.418 13.8501V13.2261H115.522C115.461 13.5295 115.34 13.7938 115.158 14.0191C114.984 14.2358 114.763 14.4048 114.495 14.5261C114.226 14.6475 113.918 14.7081 113.572 14.7081ZM119.394 14.6691C119.134 14.6691 118.935 14.5911 118.796 14.4351C118.657 14.2791 118.588 14.0625 118.588 13.7851V9.01412C118.588 8.72812 118.657 8.51146 118.796 8.36412C118.935 8.20812 119.134 8.13012 119.394 8.13012C119.654 8.13012 119.853 8.20812 119.992 8.36412C120.139 8.51146 120.213 8.72812 120.213 9.01412V13.7851C120.213 14.0625 120.144 14.2791 120.005 14.4351C119.866 14.5911 119.663 14.6691 119.394 14.6691ZM119.394 6.92112C119.091 6.92112 118.852 6.84746 118.679 6.70012C118.514 6.54412 118.432 6.33179 118.432 6.06312C118.432 5.78579 118.514 5.57346 118.679 5.42612C118.852 5.27879 119.091 5.20512 119.394 5.20512C119.706 5.20512 119.944 5.27879 120.109 5.42612C120.274 5.57346 120.356 5.78579 120.356 6.06312C120.356 6.33179 120.274 6.54412 120.109 6.70012C119.944 6.84746 119.706 6.92112 119.394 6.92112ZM124.073 14.7081C123.353 14.7081 122.812 14.5045 122.448 14.0971C122.084 13.6811 121.902 13.0745 121.902 12.2771V6.12812C121.902 5.85946 121.971 5.65579 122.11 5.51712C122.248 5.37846 122.448 5.30912 122.708 5.30912C122.968 5.30912 123.167 5.37846 123.306 5.51712C123.453 5.65579 123.527 5.85946 123.527 6.12812V12.1991C123.527 12.5978 123.609 12.8925 123.774 13.0831C123.947 13.2738 124.19 13.3691 124.502 13.3691C124.571 13.3691 124.636 13.3691 124.697 13.3691C124.757 13.3605 124.818 13.3518 124.879 13.3431C125 13.3258 125.082 13.3605 125.126 13.4471C125.169 13.5251 125.191 13.6898 125.191 13.9411C125.191 14.1578 125.147 14.3268 125.061 14.4481C124.974 14.5695 124.831 14.6431 124.632 14.6691C124.545 14.6778 124.454 14.6865 124.359 14.6951C124.263 14.7038 124.168 14.7081 124.073 14.7081ZM128.317 14.7081C127.944 14.7081 127.55 14.6691 127.134 14.5911C126.718 14.5131 126.345 14.3788 126.016 14.1881C125.877 14.1015 125.777 14.0018 125.717 13.8891C125.665 13.7678 125.643 13.6508 125.652 13.5381C125.669 13.4168 125.712 13.3128 125.782 13.2261C125.86 13.1395 125.955 13.0831 126.068 13.0571C126.189 13.0311 126.319 13.0528 126.458 13.1221C126.804 13.2868 127.129 13.4038 127.433 13.4731C127.736 13.5338 128.035 13.5641 128.33 13.5641C128.746 13.5641 129.053 13.4948 129.253 13.3561C129.461 13.2088 129.565 13.0181 129.565 12.7841C129.565 12.5848 129.495 12.4331 129.357 12.3291C129.227 12.2165 129.027 12.1341 128.759 12.0821L127.459 11.8351C126.921 11.7311 126.51 11.5361 126.224 11.2501C125.946 10.9555 125.808 10.5785 125.808 10.1191C125.808 9.70312 125.92 9.34346 126.146 9.04012C126.38 8.73679 126.7 8.50279 127.108 8.33812C127.515 8.17346 127.983 8.09112 128.512 8.09112C128.893 8.09112 129.248 8.13446 129.578 8.22112C129.916 8.29912 130.241 8.42479 130.553 8.59812C130.683 8.66746 130.769 8.75846 130.813 8.87112C130.865 8.98379 130.878 9.10079 130.852 9.22212C130.826 9.33479 130.774 9.43879 130.696 9.53412C130.618 9.62079 130.518 9.67712 130.397 9.70312C130.284 9.72046 130.154 9.69446 130.007 9.62512C129.738 9.48646 129.478 9.38679 129.227 9.32612C128.984 9.26546 128.75 9.23512 128.525 9.23512C128.1 9.23512 127.784 9.30879 127.576 9.45612C127.376 9.60346 127.277 9.79846 127.277 10.0411C127.277 10.2231 127.337 10.3748 127.459 10.4961C127.58 10.6175 127.766 10.6998 128.018 10.7431L129.318 10.9901C129.881 11.0941 130.306 11.2848 130.592 11.5621C130.886 11.8395 131.034 12.2121 131.034 12.6801C131.034 13.3128 130.787 13.8111 130.293 14.1751C129.799 14.5305 129.14 14.7081 128.317 14.7081Z" fill="white"/>
<path d="M165 0L173 6H165V0Z" fill="url(#paint0_linear_210_11475)"/>
<path d="M8 0L0 6H8V0Z" fill="url(#paint1_linear_210_11475)"/>
<defs>
<linearGradient id="paint0_linear_210_11475" x1="169" y1="0" x2="169" y2="6" gradientUnits="userSpaceOnUse">
<stop stop-color="#314D62"/>
<stop offset="1" stop-color="#65BDFF"/>
</linearGradient>
<linearGradient id="paint1_linear_210_11475" x1="4" y1="0" x2="4" y2="6" gradientUnits="userSpaceOnUse">
<stop stop-color="#314D62"/>
<stop offset="1" stop-color="#65BDFF"/>
</linearGradient>
</defs>
</svg>
